<svg width="650" height="84" viewBox="0 0 650 84" version="1.1" xmlns="http://www.w3.org/2000/svg" xmlns:xlink="http://www.w3.org/1999/xlink">
<title>continue_btn_hover</title>
<desc>Created using Figma</desc>
<g id="Canvas" transform="matrix(2 0 0 2 -3144 -494)">
<g id="continue_btn_hover">
<g id="Rectangle 2">
<mask id="mask0_outline_ins">
<use xlink:href="#path0_fill" fill="white" transform="translate(1572 247)"/>
</mask>
<g mask="url(#mask0_outline_ins)">
<use xlink:href="#path1_stroke_2x" transform="translate(1572 247)" fill="#E55050"/>
</g>
</g>
<g id="Continuar">
<use xlink:href="#path2_fill" transform="translate(1571 255)" fill="#E55050"/>
</g>
</g>
</g>
<defs>
<path id="path0_fill" d="M 0 4C 0 1.79086 1.79086 0 4 0L 321 0C 323.209 0 325 1.79086 325 4L 325 38C 325 40.2091 323.209 42 321 42L 4 42C 1.79086 42 0 40.2091 0 38L 0 4Z"/>
<path id="path1_stroke_2x" d="M 4 1L 321 1L 321 -1L 4 -1L 4 1ZM 324 4L 324 38L 326 38L 326 4L 324 4ZM 321 41L 4 41L 4 43L 321 43L 321 41ZM 1 38L 1 4L -1 4L -1 38L 1 38ZM 4 -1C 1.23858 -1 -1 1.23858 -1 4L 1 4C 1 2.34315 2.34315 1 4 1L 4 -1ZM 321 1C 322.657 1 324 2.34315 324 4L 326 4C 326 1.23858 323.761 -1 321 -1L 321 1ZM 324 38C 324 39.6569 322.657 41 321 41L 321 43C 323.761 43 326 40.7614 326 38L 324 38ZM 4 41C 2.34315 41 1 39.6569 1 38L -1 38C -1 40.7614 1.23858 43 4 43L 4 41Z"/>
<path id="path2_fill" d="M 122.944 13.848C 122.944 17.352 125.152 19.192 127.856 19.192C 129.152 19.192 130.304 18.664 131.168 17.656L 129.872 16.232C 129.36 16.792 128.752 17.16 127.888 17.16C 126.368 17.16 125.36 15.912 125.36 13.768C 125.36 11.672 126.496 10.408 127.952 10.408C 128.688 10.408 129.184 10.712 129.712 11.192L 131.008 9.736C 130.304 9.016 129.216 8.376 127.92 8.376C 125.232 8.376 122.944 10.392 122.944 13.848ZM 133.362 15.032C 133.362 17.672 135.218 19.192 137.234 19.192C 139.234 19.192 141.09 17.672 141.09 15.032C 141.09 12.392 139.234 10.872 137.234 10.872C 135.218 10.872 133.362 12.392 133.362 15.032ZM 135.778 15.032C 135.778 13.656 136.258 12.776 137.234 12.776C 138.194 12.776 138.69 13.656 138.69 15.032C 138.69 16.408 138.194 17.288 137.234 17.288C 136.258 17.288 135.778 16.408 135.778 15.032ZM 143.981 19L 146.333 19L 146.333 13.64C 146.845 13.144 147.213 12.872 147.805 12.872C 148.477 12.872 148.781 13.224 148.781 14.376L 148.781 19L 151.133 19L 151.133 14.072C 151.133 12.088 150.397 10.872 148.669 10.872C 147.597 10.872 146.797 11.432 146.125 12.072L 146.061 12.072L 145.901 11.064L 143.981 11.064L 143.981 19ZM 154.737 16.12C 154.737 17.96 155.505 19.192 157.473 19.192C 158.241 19.192 158.817 19.032 159.233 18.904L 158.865 17.192C 158.657 17.272 158.369 17.352 158.113 17.352C 157.489 17.352 157.089 16.984 157.089 16.088L 157.089 12.904L 158.993 12.904L 158.993 11.064L 157.089 11.064L 157.089 8.952L 155.137 8.952L 154.865 11.064L 153.649 11.16L 153.649 12.904L 154.737 12.904L 154.737 16.12ZM 162.99 9.896C 163.79 9.896 164.35 9.384 164.35 8.664C 164.35 7.944 163.79 7.448 162.99 7.448C 162.206 7.448 161.63 7.944 161.63 8.664C 161.63 9.384 162.206 9.896 162.99 9.896ZM 161.822 19L 164.174 19L 164.174 11.064L 161.822 11.064L 161.822 19ZM 167.524 19L 169.876 19L 169.876 13.64C 170.388 13.144 170.756 12.872 171.348 12.872C 172.02 12.872 172.324 13.224 172.324 14.376L 172.324 19L 174.676 19L 174.676 14.072C 174.676 12.088 173.94 10.872 172.212 10.872C 171.14 10.872 170.34 11.432 169.668 12.072L 169.604 12.072L 169.444 11.064L 167.524 11.064L 167.524 19ZM 177.88 15.992C 177.88 17.976 178.616 19.192 180.344 19.192C 181.432 19.192 182.168 18.696 182.84 17.896L 182.888 17.896L 183.064 19L 184.984 19L 184.984 11.064L 182.632 11.064L 182.632 16.312C 182.168 16.936 181.816 17.192 181.224 17.192C 180.536 17.192 180.232 16.824 180.232 15.688L 180.232 11.064L 177.88 11.064L 177.88 15.992ZM 188.046 16.792C 188.046 18.136 188.958 19.192 190.398 19.192C 191.294 19.192 192.046 18.776 192.718 18.184L 192.766 18.184L 192.942 19L 194.862 19L 194.862 14.456C 194.862 12.024 193.742 10.872 191.71 10.872C 190.462 10.872 189.326 11.304 188.318 11.912L 189.15 13.464C 189.918 13.016 190.59 12.744 191.262 12.744C 192.11 12.744 192.462 13.192 192.51 13.896C 189.374 14.216 188.046 15.128 188.046 16.792ZM 190.286 16.616C 190.286 16.008 190.83 15.528 192.51 15.304L 192.51 16.696C 192.094 17.112 191.742 17.368 191.198 17.368C 190.638 17.368 190.286 17.128 190.286 16.616ZM 198.161 19L 200.513 19L 200.513 14.392C 200.929 13.32 201.665 12.936 202.257 12.936C 202.593 12.936 202.833 12.984 203.121 13.064L 203.505 11.032C 203.281 10.936 203.009 10.872 202.561 10.872C 201.745 10.872 200.881 11.384 200.305 12.456L 200.241 12.456L 200.081 11.064L 198.161 11.064L 198.161 19Z"/>
</defs>
</svg>
