<svg width="870" height="418" viewBox="0 0 870 418" version="1.1" xmlns="http://www.w3.org/2000/svg" xmlns:xlink="http://www.w3.org/1999/xlink">
<title>estiamted</title>
<desc>Created using Figma</desc>
<g id="Canvas" transform="matrix(2 0 0 2 -3632 -2348)">
<g id="estiamted">
<g id="Tu presupuesto">
<use xlink:href="#path0_fill" transform="translate(1816 1274)" fill="#424242"/>
</g>
<g id="Estimado Distancia Recorrible">
<use xlink:href="#path1_fill" transform="translate(1951 1359)" fill="#424242"/>
</g>
<g id="RD$ 3200">
<use xlink:href="#path2_fill" transform="translate(1814 1232)" fill="#E55050"/>
</g>
<g id="GASOLINA PREMIUM">
<use xlink:href="#path3_fill" transform="translate(1816 1164)" fill="#E55050"/>
</g>
<g id="Combustible Total">
<use xlink:href="#path4_fill" transform="translate(2099 1272)" fill="#424242"/>
</g>
<g id="9.2 Gls">
<use xlink:href="#path5_fill" transform="translate(2115 1229)" fill="#E55050"/>
</g>
<g id="420 Km">
<use xlink:href="#path6_fill" transform="translate(1816 1341)" fill="#E55050"/>
</g>
</g>
</g>
<defs>
<path id="path0_fill" d="M 3.264 21L 5.616 21L 5.616 12.552L 8.48 12.552L 8.48 10.568L 0.384 10.568L 0.384 12.552L 3.264 12.552L 3.264 21ZM 9.48312 17.992C 9.48312 19.976 10.2191 21.192 11.9471 21.192C 13.0351 21.192 13.7711 20.696 14.4431 19.896L 14.4911 19.896L 14.6671 21L 16.5871 21L 16.5871 13.064L 14.2351 13.064L 14.2351 18.312C 13.7711 18.936 13.4191 19.192 12.8271 19.192C 12.1391 19.192 11.8351 18.824 11.8351 17.688L 11.8351 13.064L 9.48312 13.064L 9.48312 17.992ZM 24.897 20.36C 25.457 20.888 26.097 21.192 26.785 21.192C 28.497 21.192 30.129 19.624 30.129 16.904C 30.129 14.456 28.945 12.872 27.025 12.872C 26.193 12.872 25.393 13.288 24.769 13.848L 24.705 13.848L 24.545 13.064L 22.625 13.064L 22.625 23.944L 24.977 23.944L 24.977 21.624L 24.897 20.36ZM 24.977 18.76L 24.977 15.512C 25.441 15.016 25.857 14.792 26.337 14.792C 27.281 14.792 27.713 15.512 27.713 16.936C 27.713 18.568 27.057 19.272 26.241 19.272C 25.841 19.272 25.393 19.144 24.977 18.76ZM 32.1169 21L 34.4689 21L 34.4689 16.392C 34.8849 15.32 35.6209 14.936 36.2129 14.936C 36.5489 14.936 36.7889 14.984 37.0769 15.064L 37.4609 13.032C 37.2369 12.936 36.9649 12.872 36.5169 12.872C 35.7009 12.872 34.8369 13.384 34.2609 14.456L 34.1969 14.456L 34.0369 13.064L 32.1169 13.064L 32.1169 21ZM 38.1916 17.032C 38.1916 19.656 39.9356 21.192 42.2076 21.192C 43.1516 21.192 44.2076 20.856 45.0236 20.296L 44.2396 18.872C 43.6636 19.224 43.1196 19.4 42.5276 19.4C 41.4716 19.4 40.6716 18.872 40.4636 17.672L 45.2156 17.672C 45.2636 17.48 45.3116 17.096 45.3116 16.68C 45.3116 14.52 44.1916 12.872 41.9356 12.872C 40.0316 12.872 38.1916 14.456 38.1916 17.032ZM 40.4476 16.216C 40.6076 15.16 41.2476 14.664 41.9836 14.664C 42.9276 14.664 43.3116 15.304 43.3116 16.216L 40.4476 16.216ZM 46.5529 20.088C 47.3529 20.744 48.5529 21.192 49.5929 21.192C 51.7209 21.192 52.8569 20.072 52.8569 18.632C 52.8569 17.176 51.7209 16.616 50.7129 16.248C 49.8969 15.944 49.1609 15.752 49.1609 15.24C 49.1609 14.84 49.4489 14.616 50.0569 14.616C 50.6169 14.616 51.1609 14.872 51.7369 15.288L 52.7929 13.88C 52.1049 13.368 51.2089 12.872 49.9929 12.872C 48.1529 12.872 46.9529 13.88 46.9529 15.352C 46.9529 16.664 48.0889 17.32 49.0489 17.688C 49.8649 18.008 50.6649 18.248 50.6649 18.776C 50.6649 19.192 50.3609 19.448 49.6569 19.448C 48.9849 19.448 48.3289 19.16 47.6089 18.616L 46.5529 20.088ZM 54.5906 17.992C 54.5906 19.976 55.3266 21.192 57.0546 21.192C 58.1426 21.192 58.8786 20.696 59.5506 19.896L 59.5986 19.896L 59.7746 21L 61.6946 21L 61.6946 13.064L 59.3426 13.064L 59.3426 18.312C 58.8786 18.936 58.5266 19.192 57.9346 19.192C 57.2466 19.192 56.9426 18.824 56.9426 17.688L 56.9426 13.064L 54.5906 13.064L 54.5906 17.992ZM 66.3564 20.36C 66.9164 20.888 67.5564 21.192 68.2444 21.192C 69.9564 21.192 71.5884 19.624 71.5884 16.904C 71.5884 14.456 70.4044 12.872 68.4844 12.872C 67.6524 12.872 66.8524 13.288 66.2284 13.848L 66.1644 13.848L 66.0044 13.064L 64.0844 13.064L 64.0844 23.944L 66.4364 23.944L 66.4364 21.624L 66.3564 20.36ZM 66.4364 18.76L 66.4364 15.512C 66.9004 15.016 67.3164 14.792 67.7964 14.792C 68.7404 14.792 69.1724 15.512 69.1724 16.936C 69.1724 18.568 68.5164 19.272 67.7004 19.272C 67.3004 19.272 66.8524 19.144 66.4364 18.76ZM 73.4962 17.992C 73.4962 19.976 74.2322 21.192 75.9602 21.192C 77.0482 21.192 77.7842 20.696 78.4562 19.896L 78.5042 19.896L 78.6802 21L 80.6002 21L 80.6002 13.064L 78.2482 13.064L 78.2482 18.312C 77.7842 18.936 77.4322 19.192 76.8402 19.192C 76.1522 19.192 75.8482 18.824 75.8482 17.688L 75.8482 13.064L 73.4962 13.064L 73.4962 17.992ZM 82.526 17.032C 82.526 19.656 84.27 21.192 86.542 21.192C 87.486 21.192 88.542 20.856 89.358 20.296L 88.574 18.872C 87.998 19.224 87.454 19.4 86.862 19.4C 85.806 19.4 85.006 18.872 84.798 17.672L 89.55 17.672C 89.598 17.48 89.646 17.096 89.646 16.68C 89.646 14.52 88.526 12.872 86.27 12.872C 84.366 12.872 82.526 14.456 82.526 17.032ZM 84.782 16.216C 84.942 15.16 85.582 14.664 86.318 14.664C 87.262 14.664 87.646 15.304 87.646 16.216L 84.782 16.216ZM 90.8872 20.088C 91.6872 20.744 92.8872 21.192 93.9272 21.192C 96.0552 21.192 97.1912 20.072 97.1912 18.632C 97.1912 17.176 96.0552 16.616 95.0472 16.248C 94.2312 15.944 93.4952 15.752 93.4952 15.24C 93.4952 14.84 93.7832 14.616 94.3912 14.616C 94.9512 14.616 95.4952 14.872 96.0712 15.288L 97.1272 13.88C 96.4392 13.368 95.5432 12.872 94.3272 12.872C 92.4872 12.872 91.2872 13.88 91.2872 15.352C 91.2872 16.664 92.4232 17.32 93.3832 17.688C 94.1992 18.008 94.9992 18.248 94.9992 18.776C 94.9992 19.192 94.6952 19.448 93.9912 19.448C 93.3192 19.448 92.6632 19.16 91.9432 18.616L 90.8872 20.088ZM 99.325 18.12C 99.325 19.96 100.093 21.192 102.061 21.192C 102.829 21.192 103.405 21.032 103.821 20.904L 103.453 19.192C 103.245 19.272 102.957 19.352 102.701 19.352C 102.077 19.352 101.677 18.984 101.677 18.088L 101.677 14.904L 103.581 14.904L 103.581 13.064L 101.677 13.064L 101.677 10.952L 99.725 10.952L 99.453 13.064L 98.237 13.16L 98.237 14.904L 99.325 14.904L 99.325 18.12ZM 104.83 17.032C 104.83 19.672 106.686 21.192 108.702 21.192C 110.702 21.192 112.558 19.672 112.558 17.032C 112.558 14.392 110.702 12.872 108.702 12.872C 106.686 12.872 104.83 14.392 104.83 17.032ZM 107.246 17.032C 107.246 15.656 107.726 14.776 108.702 14.776C 109.662 14.776 110.158 15.656 110.158 17.032C 110.158 18.408 109.662 19.288 108.702 19.288C 107.726 19.288 107.246 18.408 107.246 17.032Z"/>
<path id="path1_fill" d="M 79.7954 23L 86.4994 23L 86.4994 21.016L 82.1634 21.016L 82.1634 18.616L 85.7154 18.616L 85.7154 16.648L 82.1634 16.648L 82.1634 14.552L 86.3394 14.552L 86.3394 12.568L 79.7954 12.568L 79.7954 23ZM 87.9698 22.088C 88.7698 22.744 89.9698 23.192 91.0098 23.192C 93.1378 23.192 94.2738 22.072 94.2738 20.632C 94.2738 19.176 93.1378 18.616 92.1298 18.248C 91.3138 17.944 90.5778 17.752 90.5778 17.24C 90.5778 16.84 90.8658 16.616 91.4738 16.616C 92.0338 16.616 92.5778 16.872 93.1538 17.288L 94.2098 15.88C 93.5218 15.368 92.6258 14.872 91.4098 14.872C 89.5698 14.872 88.3698 15.88 88.3698 17.352C 88.3698 18.664 89.5058 19.32 90.4658 19.688C 91.2818 20.008 92.0818 20.248 92.0818 20.776C 92.0818 21.192 91.7778 21.448 91.0738 21.448C 90.4018 21.448 89.7458 21.16 89.0258 20.616L 87.9698 22.088ZM 96.4075 20.12C 96.4075 21.96 97.1755 23.192 99.1435 23.192C 99.9115 23.192 100.488 23.032 100.904 22.904L 100.536 21.192C 100.328 21.272 100.04 21.352 99.7835 21.352C 99.1595 21.352 98.7595 20.984 98.7595 20.088L 98.7595 16.904L 100.664 16.904L 100.664 15.064L 98.7595 15.064L 98.7595 12.952L 96.8075 12.952L 96.5355 15.064L 95.3195 15.16L 95.3195 16.904L 96.4075 16.904L 96.4075 20.12ZM 103.701 13.896C 104.501 13.896 105.061 13.384 105.061 12.664C 105.061 11.944 104.501 11.448 103.701 11.448C 102.917 11.448 102.341 11.944 102.341 12.664C 102.341 13.384 102.917 13.896 103.701 13.896ZM 102.533 23L 104.885 23L 104.885 15.064L 102.533 15.064L 102.533 23ZM 107.274 23L 109.626 23L 109.626 17.64C 110.122 17.128 110.586 16.872 110.97 16.872C 111.642 16.872 111.946 17.224 111.946 18.376L 111.946 23L 114.298 23L 114.298 17.64C 114.81 17.128 115.258 16.872 115.658 16.872C 116.33 16.872 116.634 17.224 116.634 18.376L 116.634 23L 118.986 23L 118.986 18.072C 118.986 16.088 118.218 14.872 116.506 14.872C 115.45 14.872 114.714 15.48 114.01 16.2C 113.61 15.352 112.938 14.872 111.818 14.872C 110.778 14.872 110.074 15.432 109.418 16.088L 109.354 16.088L 109.194 15.064L 107.274 15.064L 107.274 23ZM 121.025 20.792C 121.025 22.136 121.937 23.192 123.377 23.192C 124.273 23.192 125.025 22.776 125.697 22.184L 125.745 22.184L 125.921 23L 127.841 23L 127.841 18.456C 127.841 16.024 126.721 14.872 124.689 14.872C 123.441 14.872 122.305 15.304 121.297 15.912L 122.129 17.464C 122.897 17.016 123.569 16.744 124.241 16.744C 125.089 16.744 125.441 17.192 125.489 17.896C 122.353 18.216 121.025 19.128 121.025 20.792ZM 123.265 20.616C 123.265 20.008 123.809 19.528 125.489 19.304L 125.489 20.696C 125.073 21.112 124.721 21.368 124.177 21.368C 123.617 21.368 123.265 21.128 123.265 20.616ZM 129.764 19.032C 129.764 21.624 131.044 23.192 133.012 23.192C 133.78 23.192 134.564 22.776 135.124 22.216L 135.188 22.216L 135.348 23L 137.268 23L 137.268 11.784L 134.916 11.784L 134.916 14.488L 135.012 15.704C 134.468 15.192 133.94 14.872 133.06 14.872C 131.38 14.872 129.764 16.44 129.764 19.032ZM 132.18 19C 132.18 17.496 132.852 16.792 133.604 16.792C 134.036 16.792 134.5 16.92 134.916 17.304L 134.916 20.552C 134.532 21.08 134.132 21.272 133.62 21.272C 132.708 21.272 132.18 20.568 132.18 19ZM 139.208 19.032C 139.208 21.672 141.064 23.192 143.08 23.192C 145.08 23.192 146.936 21.672 146.936 19.032C 146.936 16.392 145.08 14.872 143.08 14.872C 141.064 14.872 139.208 16.392 139.208 19.032ZM 141.624 19.032C 141.624 17.656 142.104 16.776 143.08 16.776C 144.04 16.776 144.536 17.656 144.536 19.032C 144.536 20.408 144.04 21.288 143.08 21.288C 142.104 21.288 141.624 20.408 141.624 19.032ZM 152.691 23L 155.779 23C 158.835 23 160.883 21.32 160.883 17.736C 160.883 14.152 158.835 12.568 155.635 12.568L 152.691 12.568L 152.691 23ZM 155.059 21.096L 155.059 14.472L 155.507 14.472C 157.267 14.472 158.467 15.24 158.467 17.736C 158.467 20.232 157.267 21.096 155.507 21.096L 155.059 21.096ZM 164.144 13.896C 164.944 13.896 165.504 13.384 165.504 12.664C 165.504 11.944 164.944 11.448 164.144 11.448C 163.36 11.448 162.784 11.944 162.784 12.664C 162.784 13.384 163.36 13.896 164.144 13.896ZM 162.976 23L 165.328 23L 165.328 15.064L 162.976 15.064L 162.976 23ZM 167.013 22.088C 167.813 22.744 169.013 23.192 170.053 23.192C 172.181 23.192 173.317 22.072 173.317 20.632C 173.317 19.176 172.181 18.616 171.173 18.248C 170.357 17.944 169.621 17.752 169.621 17.24C 169.621 16.84 169.909 16.616 170.517 16.616C 171.077 16.616 171.621 16.872 172.197 17.288L 173.253 15.88C 172.565 15.368 171.669 14.872 170.453 14.872C 168.613 14.872 167.413 15.88 167.413 17.352C 167.413 18.664 168.549 19.32 169.509 19.688C 170.325 20.008 171.125 20.248 171.125 20.776C 171.125 21.192 170.821 21.448 170.117 21.448C 169.445 21.448 168.789 21.16 168.069 20.616L 167.013 22.088ZM 175.451 20.12C 175.451 21.96 176.219 23.192 178.187 23.192C 178.955 23.192 179.531 23.032 179.947 22.904L 179.579 21.192C 179.371 21.272 179.083 21.352 178.827 21.352C 178.203 21.352 177.803 20.984 177.803 20.088L 177.803 16.904L 179.707 16.904L 179.707 15.064L 177.803 15.064L 177.803 12.952L 175.851 12.952L 175.579 15.064L 174.363 15.16L 174.363 16.904L 175.451 16.904L 175.451 20.12ZM 181.101 20.792C 181.101 22.136 182.013 23.192 183.453 23.192C 184.349 23.192 185.101 22.776 185.773 22.184L 185.821 22.184L 185.997 23L 187.917 23L 187.917 18.456C 187.917 16.024 186.797 14.872 184.765 14.872C 183.517 14.872 182.381 15.304 181.373 15.912L 182.205 17.464C 182.973 17.016 183.645 16.744 184.317 16.744C 185.165 16.744 185.517 17.192 185.565 17.896C 182.429 18.216 181.101 19.128 181.101 20.792ZM 183.341 20.616C 183.341 20.008 183.885 19.528 185.565 19.304L 185.565 20.696C 185.149 21.112 184.797 21.368 184.253 21.368C 183.693 21.368 183.341 21.128 183.341 20.616ZM 190.256 23L 192.608 23L 192.608 17.64C 193.12 17.144 193.488 16.872 194.08 16.872C 194.752 16.872 195.056 17.224 195.056 18.376L 195.056 23L 197.408 23L 197.408 18.072C 197.408 16.088 196.672 14.872 194.944 14.872C 193.872 14.872 193.072 15.432 192.4 16.072L 192.336 16.072L 192.176 15.064L 190.256 15.064L 190.256 23ZM 199.268 19.032C 199.268 21.672 200.98 23.192 203.188 23.192C 204.052 23.192 205.06 22.872 205.828 22.2L 204.884 20.712C 204.5 21.016 204.036 21.288 203.46 21.288C 202.436 21.288 201.684 20.408 201.684 19.032C 201.684 17.656 202.404 16.776 203.54 16.776C 203.908 16.776 204.26 16.92 204.644 17.24L 205.716 15.784C 205.188 15.24 204.372 14.872 203.396 14.872C 201.204 14.872 199.268 16.392 199.268 19.032ZM 208.689 13.896C 209.489 13.896 210.049 13.384 210.049 12.664C 210.049 11.944 209.489 11.448 208.689 11.448C 207.905 11.448 207.329 11.944 207.329 12.664C 207.329 13.384 207.905 13.896 208.689 13.896ZM 207.521 23L 209.873 23L 209.873 15.064L 207.521 15.064L 207.521 23ZM 211.975 20.792C 211.975 22.136 212.887 23.192 214.327 23.192C 215.223 23.192 215.975 22.776 216.647 22.184L 216.695 22.184L 216.871 23L 218.791 23L 218.791 18.456C 218.791 16.024 217.671 14.872 215.639 14.872C 214.391 14.872 213.255 15.304 212.247 15.912L 213.079 17.464C 213.847 17.016 214.519 16.744 215.191 16.744C 216.039 16.744 216.391 17.192 216.439 17.896C 213.303 18.216 211.975 19.128 211.975 20.792ZM 214.215 20.616C 214.215 20.008 214.759 19.528 216.439 19.304L 216.439 20.696C 216.023 21.112 215.671 21.368 215.127 21.368C 214.567 21.368 214.215 21.128 214.215 20.616ZM 227.322 14.44L 228.522 14.44C 229.754 14.44 230.426 14.792 230.426 15.816C 230.426 16.84 229.754 17.368 228.522 17.368L 227.322 17.368L 227.322 14.44ZM 233.242 23L 230.89 18.824C 231.994 18.328 232.746 17.352 232.746 15.816C 232.746 13.336 230.922 12.568 228.714 12.568L 224.954 12.568L 224.954 23L 227.322 23L 227.322 19.24L 228.602 19.24L 230.602 23L 233.242 23ZM 234.321 19.032C 234.321 21.656 236.065 23.192 238.337 23.192C 239.281 23.192 240.337 22.856 241.153 22.296L 240.369 20.872C 239.793 21.224 239.249 21.4 238.657 21.4C 237.601 21.4 236.801 20.872 236.593 19.672L 241.345 19.672C 241.393 19.48 241.441 19.096 241.441 18.68C 241.441 16.52 240.321 14.872 238.065 14.872C 236.161 14.872 234.321 16.456 234.321 19.032ZM 236.577 18.216C 236.737 17.16 237.377 16.664 238.113 16.664C 239.057 16.664 239.441 17.304 239.441 18.216L 236.577 18.216ZM 242.922 19.032C 242.922 21.672 244.634 23.192 246.842 23.192C 247.706 23.192 248.714 22.872 249.482 22.2L 248.538 20.712C 248.154 21.016 247.69 21.288 247.114 21.288C 246.09 21.288 245.338 20.408 245.338 19.032C 245.338 17.656 246.058 16.776 247.194 16.776C 247.562 16.776 247.914 16.92 248.298 17.24L 249.37 15.784C 248.842 15.24 248.026 14.872 247.05 14.872C 244.858 14.872 242.922 16.392 242.922 19.032ZM 250.258 19.032C 250.258 21.672 252.114 23.192 254.13 23.192C 256.13 23.192 257.986 21.672 257.986 19.032C 257.986 16.392 256.13 14.872 254.13 14.872C 252.114 14.872 250.258 16.392 250.258 19.032ZM 252.674 19.032C 252.674 17.656 253.154 16.776 254.13 16.776C 255.09 16.776 255.586 17.656 255.586 19.032C 255.586 20.408 255.09 21.288 254.13 21.288C 253.154 21.288 252.674 20.408 252.674 19.032ZM 259.917 23L 262.269 23L 262.269 18.392C 262.685 17.32 263.421 16.936 264.013 16.936C 264.349 16.936 264.589 16.984 264.877 17.064L 265.261 15.032C 265.037 14.936 264.765 14.872 264.317 14.872C 263.501 14.872 262.637 15.384 262.061 16.456L 261.997 16.456L 261.837 15.064L 259.917 15.064L 259.917 23ZM 266.612 23L 268.964 23L 268.964 18.392C 269.38 17.32 270.116 16.936 270.708 16.936C 271.044 16.936 271.284 16.984 271.572 17.064L 271.956 15.032C 271.732 14.936 271.46 14.872 271.012 14.872C 270.196 14.872 269.332 15.384 268.756 16.456L 268.692 16.456L 268.532 15.064L 266.612 15.064L 266.612 23ZM 274.475 13.896C 275.275 13.896 275.835 13.384 275.835 12.664C 275.835 11.944 275.275 11.448 274.475 11.448C 273.691 11.448 273.115 11.944 273.115 12.664C 273.115 13.384 273.691 13.896 274.475 13.896ZM 273.307 23L 275.659 23L 275.659 15.064L 273.307 15.064L 273.307 23ZM 278.049 23L 279.889 23L 280.081 22.168L 280.145 22.168C 280.769 22.84 281.505 23.192 282.209 23.192C 283.921 23.192 285.553 21.624 285.553 18.888C 285.553 16.456 284.353 14.872 282.433 14.872C 281.697 14.872 280.945 15.208 280.337 15.752L 280.401 14.536L 280.401 11.784L 278.049 11.784L 278.049 23ZM 280.401 20.76L 280.401 17.512C 280.849 17.016 281.281 16.792 281.761 16.792C 282.705 16.792 283.137 17.512 283.137 18.936C 283.137 20.568 282.481 21.272 281.665 21.272C 281.265 21.272 280.817 21.144 280.401 20.76ZM 287.541 20.536C 287.541 22.136 288.085 23.192 289.701 23.192C 290.229 23.192 290.629 23.112 290.885 23L 290.597 21.256C 290.469 21.288 290.405 21.288 290.309 21.288C 290.117 21.288 289.893 21.128 289.893 20.632L 289.893 11.784L 287.541 11.784L 287.541 20.536ZM 291.975 19.032C 291.975 21.656 293.719 23.192 295.991 23.192C 296.935 23.192 297.991 22.856 298.807 22.296L 298.023 20.872C 297.447 21.224 296.903 21.4 296.311 21.4C 295.255 21.4 294.455 20.872 294.247 19.672L 298.999 19.672C 299.047 19.48 299.095 19.096 299.095 18.68C 299.095 16.52 297.975 14.872 295.719 14.872C 293.815 14.872 291.975 16.456 291.975 19.032ZM 294.231 18.216C 294.391 17.16 295.031 16.664 295.767 16.664C 296.711 16.664 297.095 17.304 297.095 18.216L 294.231 18.216Z"/>
<path id="path2_fill" d="M 9.408 18.53L 12.558 18.53C 15.792 18.53 17.556 19.454 17.556 22.142C 17.556 24.83 15.792 26.216 12.558 26.216L 9.408 26.216L 9.408 18.53ZM 24.948 41L 18.774 30.038C 21.672 28.736 23.646 26.174 23.646 22.142C 23.646 15.632 18.858 13.616 13.062 13.616L 3.192 13.616L 3.192 41L 9.408 41L 9.408 31.13L 12.768 31.13L 18.018 41L 24.948 41ZM 29.8718 41L 37.9778 41C 45.9998 41 51.3758 36.59 51.3758 27.182C 51.3758 17.774 45.9998 13.616 37.5998 13.616L 29.8718 13.616L 29.8718 41ZM 36.0878 36.002L 36.0878 18.614L 37.2638 18.614C 41.8838 18.614 45.0338 20.63 45.0338 27.182C 45.0338 33.734 41.8838 36.002 37.2638 36.002L 36.0878 36.002ZM 73.501 17.396C 71.863 15.674 69.931 14.33 67.243 13.952L 67.243 9.71L 63.169 9.71L 63.169 14.036C 59.221 14.834 56.785 17.69 56.785 21.806C 56.785 29.366 67.873 29.282 67.873 33.608C 67.873 35.54 66.823 36.506 64.471 36.506C 62.455 36.506 60.607 35.666 58.465 34.07L 55.777 38.228C 57.751 40.034 60.691 41.126 63.169 41.42L 63.169 45.62L 67.243 45.62L 67.243 41.252C 71.569 40.328 73.795 37.22 73.795 33.188C 73.795 25.166 62.707 25.502 62.707 21.512C 62.707 19.622 63.799 18.824 65.815 18.824C 67.579 18.824 68.881 19.538 70.393 20.924L 73.501 17.396ZM 87.6688 37.724C 89.6008 39.992 92.6248 41.504 96.9508 41.504C 102.327 41.504 106.863 38.69 106.863 33.734C 106.863 30.29 104.637 28.106 101.571 27.224L 101.571 27.056C 104.427 25.838 106.023 23.906 106.023 21.134C 106.023 16.472 102.327 13.826 96.8248 13.826C 93.5488 13.826 90.8608 15.128 88.4248 17.228L 91.5328 21.008C 93.2128 19.538 94.6408 18.656 96.5308 18.656C 98.6308 18.656 99.8068 19.748 99.8068 21.596C 99.8068 23.738 98.2948 25.166 93.5068 25.166L 93.5068 29.534C 99.3028 29.534 100.689 31.004 100.689 33.356C 100.689 35.372 98.9668 36.506 96.3628 36.506C 94.0948 36.506 92.1208 35.372 90.5248 33.818L 87.6688 37.724ZM 111.328 41L 130.102 41L 130.102 35.792L 124.726 35.792C 123.466 35.792 121.618 35.96 120.274 36.128C 124.6 31.592 128.8 26.804 128.8 22.31C 128.8 17.186 125.23 13.826 119.98 13.826C 116.158 13.826 113.68 15.254 111.034 18.068L 114.394 21.386C 115.738 19.958 117.208 18.656 119.14 18.656C 121.45 18.656 122.92 20.084 122.92 22.688C 122.92 26.468 118.132 31.046 111.328 37.472L 111.328 41ZM 143.892 41.504C 149.604 41.504 153.426 36.632 153.426 27.56C 153.426 18.488 149.604 13.826 143.892 13.826C 138.18 13.826 134.358 18.488 134.358 27.56C 134.358 36.632 138.18 41.504 143.892 41.504ZM 143.892 36.716C 141.834 36.716 140.196 34.826 140.196 27.56C 140.196 20.252 141.834 18.614 143.892 18.614C 145.992 18.614 147.588 20.252 147.588 27.56C 147.588 34.826 145.992 36.716 143.892 36.716ZM 166.921 41.504C 172.633 41.504 176.455 36.632 176.455 27.56C 176.455 18.488 172.633 13.826 166.921 13.826C 161.209 13.826 157.387 18.488 157.387 27.56C 157.387 36.632 161.209 41.504 166.921 41.504ZM 166.921 36.716C 164.863 36.716 163.225 34.826 163.225 27.56C 163.225 20.252 164.863 18.614 166.921 18.614C 169.021 18.614 170.617 20.252 170.617 27.56C 170.617 34.826 169.021 36.716 166.921 36.716Z"/>
<path id="path3_fill" d="M 1.472 21.696C 1.472 19.968 1.73867 18.432 2.272 17.088C 2.82667 15.7227 3.56267 14.5707 4.48 13.632C 5.41867 12.6933 6.50667 11.9787 7.744 11.488C 9.00267 10.9973 10.336 10.752 11.744 10.752C 13.216 10.752 14.4853 11.0293 15.552 11.584C 16.64 12.1387 17.5253 12.768 18.208 13.472L 15.616 16.384C 15.104 15.8933 14.56 15.5093 13.984 15.232C 13.4293 14.9547 12.704 14.816 11.808 14.816C 10.9973 14.816 10.2507 14.976 9.568 15.296C 8.90667 15.5947 8.33067 16.032 7.84 16.608C 7.34933 17.184 6.96533 17.888 6.688 18.72C 6.432 19.552 6.304 20.4907 6.304 21.536C 6.304 23.6907 6.784 25.3653 7.744 26.56C 8.72533 27.7333 10.1973 28.32 12.16 28.32C 12.5867 28.32 13.0027 28.2667 13.408 28.16C 13.8133 28.0533 14.144 27.8933 14.4 27.68L 14.4 24.096L 10.944 24.096L 10.944 20.256L 18.56 20.256L 18.56 29.856C 17.8133 30.56 16.832 31.1573 15.616 31.648C 14.4 32.1387 13.056 32.384 11.584 32.384C 10.176 32.384 8.85333 32.16 7.616 31.712C 6.4 31.2427 5.33333 30.56 4.416 29.664C 3.49867 28.768 2.77333 27.6587 2.24 26.336C 1.728 24.992 1.472 23.4453 1.472 21.696ZM 32.0922 23.36L 31.6122 21.44C 31.3136 20.3947 31.0256 19.2853 30.7482 18.112C 30.4709 16.9387 30.1936 15.808 29.9162 14.72L 29.7882 14.72C 29.5322 15.8293 29.2656 16.9707 28.9882 18.144C 28.7322 19.296 28.4549 20.3947 28.1562 21.44L 27.6442 23.36L 32.0922 23.36ZM 33.0522 27.04L 26.6842 27.04L 25.4042 32L 20.6042 32L 27.1322 11.136L 32.7962 11.136L 39.3242 32L 34.3322 32L 33.0522 27.04ZM 43.588 26.144C 44.3347 26.784 45.156 27.3067 46.052 27.712C 46.9693 28.1173 47.8653 28.32 48.74 28.32C 49.7213 28.32 50.4467 28.1387 50.916 27.776C 51.4067 27.4133 51.652 26.9227 51.652 26.304C 51.652 25.984 51.5773 25.7067 51.428 25.472C 51.3 25.2373 51.0973 25.0347 50.82 24.864C 50.564 24.672 50.244 24.5013 49.86 24.352C 49.4973 24.1813 49.092 24 48.644 23.808L 45.924 22.656C 45.3907 22.4427 44.868 22.1653 44.356 21.824C 43.8653 21.4827 43.4173 21.088 43.012 20.64C 42.628 20.1707 42.3187 19.6373 42.084 19.04C 41.8493 18.4213 41.732 17.728 41.732 16.96C 41.732 16.1067 41.9133 15.3067 42.276 14.56C 42.6387 13.792 43.1507 13.1307 43.812 12.576C 44.4733 12 45.252 11.552 46.148 11.232C 47.0653 10.912 48.068 10.752 49.156 10.752C 50.372 10.752 51.5667 10.9867 52.74 11.456C 53.9347 11.9253 54.98 12.608 55.876 13.504L 53.476 16.48C 52.7933 15.9467 52.1107 15.5413 51.428 15.264C 50.7453 14.9653 49.988 14.816 49.156 14.816C 48.3453 14.816 47.6947 14.9867 47.204 15.328C 46.7347 15.648 46.5 16.1067 46.5 16.704C 46.5 17.024 46.5747 17.3013 46.724 17.536C 46.8947 17.7493 47.1187 17.952 47.396 18.144C 47.6947 18.3147 48.036 18.4853 48.42 18.656C 48.804 18.8053 49.22 18.976 49.668 19.168L 52.356 20.256C 53.636 20.768 54.6387 21.472 55.364 22.368C 56.1107 23.264 56.484 24.448 56.484 25.92C 56.484 26.7947 56.3027 27.6267 55.94 28.416C 55.5987 29.184 55.0867 29.8667 54.404 30.464C 53.7427 31.04 52.9213 31.5093 51.94 31.872C 50.9587 32.2133 49.8493 32.384 48.612 32.384C 47.2467 32.384 45.8813 32.1387 44.516 31.648C 43.172 31.136 41.9667 30.3787 40.9 29.376L 43.588 26.144ZM 69.1452 32.384C 67.7372 32.384 66.4466 32.1387 65.2732 31.648C 64.1212 31.136 63.1292 30.4107 62.2972 29.472C 61.4652 28.5333 60.8146 27.392 60.3452 26.048C 59.8972 24.704 59.6732 23.1787 59.6732 21.472C 59.6732 19.7653 59.8972 18.2507 60.3452 16.928C 60.8146 15.584 61.4652 14.464 62.2972 13.568C 63.1292 12.6507 64.1212 11.9573 65.2732 11.488C 66.4466 10.9973 67.7372 10.752 69.1452 10.752C 70.5532 10.752 71.8332 10.9973 72.9852 11.488C 74.1586 11.9573 75.1612 12.6507 75.9932 13.568C 76.8252 14.4853 77.4652 15.616 77.9132 16.96C 78.3826 18.2827 78.6172 19.7867 78.6172 21.472C 78.6172 23.1787 78.3826 24.704 77.9132 26.048C 77.4652 27.392 76.8252 28.5333 75.9932 29.472C 75.1612 30.4107 74.1586 31.136 72.9852 31.648C 71.8332 32.1387 70.5532 32.384 69.1452 32.384ZM 69.1452 28.32C 70.5746 28.32 71.7052 27.712 72.5372 26.496C 73.3692 25.2587 73.7852 23.584 73.7852 21.472C 73.7852 19.3813 73.3692 17.7493 72.5372 16.576C 71.7052 15.4027 70.5746 14.816 69.1452 14.816C 67.7159 14.816 66.5852 15.4027 65.7532 16.576C 64.9212 17.7493 64.5052 19.3813 64.5052 21.472C 64.5052 23.584 64.9212 25.2587 65.7532 26.496C 66.5852 27.712 67.7159 28.32 69.1452 28.32ZM 83.1802 11.136L 87.8842 11.136L 87.8842 28.032L 96.1402 28.032L 96.1402 32L 83.1802 32L 83.1802 11.136ZM 100.383 11.136L 105.087 11.136L 105.087 32L 100.383 32L 100.383 11.136ZM 110.648 11.136L 115.48 11.136L 120.92 21.504L 122.968 26.112L 123.096 26.112C 122.989 25.0027 122.861 23.7653 122.712 22.4C 122.584 21.0347 122.52 19.7333 122.52 18.496L 122.52 11.136L 127 11.136L 127 32L 122.168 32L 116.728 21.6L 114.68 17.056L 114.552 17.056C 114.658 18.208 114.776 19.4453 114.904 20.768C 115.053 22.0907 115.128 23.3707 115.128 24.608L 115.128 32L 110.648 32L 110.648 11.136ZM 141.401 23.36L 140.921 21.44C 140.622 20.3947 140.334 19.2853 140.057 18.112C 139.78 16.9387 139.502 15.808 139.225 14.72L 139.097 14.72C 138.841 15.8293 138.574 16.9707 138.297 18.144C 138.041 19.296 137.764 20.3947 137.465 21.44L 136.953 23.36L 141.401 23.36ZM 142.361 27.04L 135.993 27.04L 134.713 32L 129.913 32L 136.441 11.136L 142.105 11.136L 148.633 32L 143.641 32L 142.361 27.04ZM 158.849 11.136L 166.465 11.136C 167.596 11.136 168.652 11.2533 169.633 11.488C 170.636 11.7013 171.5 12.0747 172.225 12.608C 172.972 13.12 173.558 13.8133 173.985 14.688C 174.412 15.5413 174.625 16.5973 174.625 17.856C 174.625 19.072 174.401 20.128 173.953 21.024C 173.526 21.92 172.94 22.656 172.193 23.232C 171.446 23.808 170.582 24.2347 169.601 24.512C 168.62 24.7893 167.574 24.928 166.465 24.928L 163.553 24.928L 163.553 32L 158.849 32L 158.849 11.136ZM 166.177 21.184C 168.737 21.184 170.017 20.0747 170.017 17.856C 170.017 16.768 169.686 16 169.025 15.552C 168.385 15.104 167.436 14.88 166.177 14.88L 163.553 14.88L 163.553 21.184L 166.177 21.184ZM 183.599 20.736L 186.031 20.736C 187.269 20.736 188.207 20.48 188.847 19.968C 189.509 19.4347 189.839 18.656 189.839 17.632C 189.839 16.608 189.509 15.8933 188.847 15.488C 188.207 15.0827 187.269 14.88 186.031 14.88L 183.599 14.88L 183.599 20.736ZM 190.191 32L 186.191 24.48L 183.599 24.48L 183.599 32L 178.895 32L 178.895 11.136L 186.415 11.136C 187.525 11.136 188.559 11.2427 189.519 11.456C 190.501 11.6693 191.354 12.032 192.079 12.544C 192.805 13.0347 193.381 13.696 193.807 14.528C 194.234 15.36 194.447 16.3947 194.447 17.632C 194.447 19.168 194.106 20.4373 193.423 21.44C 192.762 22.4213 191.866 23.1573 190.735 23.648L 195.471 32L 190.191 32ZM 199.254 11.136L 212.31 11.136L 212.31 15.104L 203.958 15.104L 203.958 19.296L 211.062 19.296L 211.062 23.232L 203.958 23.232L 203.958 28.032L 212.63 28.032L 212.63 32L 199.254 32L 199.254 11.136ZM 217.425 11.136L 222.417 11.136L 225.905 20.512L 227.153 24.16L 227.281 24.16L 228.529 20.512L 231.921 11.136L 236.881 11.136L 236.881 32L 232.497 32L 232.497 24.352C 232.497 23.84 232.519 23.2747 232.561 22.656C 232.604 22.0373 232.657 21.4187 232.721 20.8C 232.785 20.16 232.849 19.5413 232.913 18.944C 232.977 18.3253 233.041 17.76 233.105 17.248L 232.977 17.248L 231.249 22.08L 228.049 30.176L 226.161 30.176L 222.961 22.08L 221.297 17.248L 221.169 17.248C 221.233 17.76 221.297 18.3253 221.361 18.944C 221.425 19.5413 221.479 20.16 221.521 20.8C 221.585 21.4187 221.639 22.0373 221.681 22.656C 221.724 23.2747 221.745 23.84 221.745 24.352L 221.745 32L 217.425 32L 217.425 11.136ZM 242.44 11.136L 247.144 11.136L 247.144 32L 242.44 32L 242.44 11.136ZM 252.577 11.136L 257.313 11.136L 257.313 22.816C 257.313 24.864 257.623 26.2933 258.241 27.104C 258.86 27.9147 259.756 28.32 260.929 28.32C 262.103 28.32 263.009 27.9147 263.649 27.104C 264.289 26.2933 264.609 24.864 264.609 22.816L 264.609 11.136L 269.153 11.136L 269.153 22.336C 269.153 25.8347 268.449 28.384 267.041 29.984C 265.655 31.584 263.617 32.384 260.929 32.384C 258.22 32.384 256.151 31.584 254.721 29.984C 253.292 28.384 252.577 25.8347 252.577 22.336L 252.577 11.136ZM 274.627 11.136L 279.619 11.136L 283.107 20.512L 284.355 24.16L 284.483 24.16L 285.731 20.512L 289.123 11.136L 294.083 11.136L 294.083 32L 289.699 32L 289.699 24.352C 289.699 23.84 289.72 23.2747 289.763 22.656C 289.805 22.0373 289.859 21.4187 289.923 20.8C 289.987 20.16 290.051 19.5413 290.115 18.944C 290.179 18.3253 290.243 17.76 290.307 17.248L 290.179 17.248L 288.451 22.08L 285.251 30.176L 283.363 30.176L 280.163 22.08L 278.499 17.248L 278.371 17.248C 278.435 17.76 278.499 18.3253 278.563 18.944C 278.627 19.5413 278.68 20.16 278.723 20.8C 278.787 21.4187 278.84 22.0373 278.883 22.656C 278.925 23.2747 278.947 23.84 278.947 24.352L 278.947 32L 274.627 32L 274.627 11.136Z"/>
<path id="path4_fill" d="M 14.5456 17.848C 14.5456 21.352 16.7536 23.192 19.4576 23.192C 20.7536 23.192 21.9056 22.664 22.7696 21.656L 21.4736 20.232C 20.9616 20.792 20.3536 21.16 19.4896 21.16C 17.9696 21.16 16.9616 19.912 16.9616 17.768C 16.9616 15.672 18.0976 14.408 19.5536 14.408C 20.2896 14.408 20.7856 14.712 21.3136 15.192L 22.6096 13.736C 21.9056 13.016 20.8176 12.376 19.5216 12.376C 16.8336 12.376 14.5456 14.392 14.5456 17.848ZM 24.0029 19.032C 24.0029 21.672 25.8589 23.192 27.8749 23.192C 29.8749 23.192 31.7309 21.672 31.7309 19.032C 31.7309 16.392 29.8749 14.872 27.8749 14.872C 25.8589 14.872 24.0029 16.392 24.0029 19.032ZM 26.4189 19.032C 26.4189 17.656 26.8989 16.776 27.8749 16.776C 28.8349 16.776 29.3309 17.656 29.3309 19.032C 29.3309 20.408 28.8349 21.288 27.8749 21.288C 26.8989 21.288 26.4189 20.408 26.4189 19.032ZM 33.6619 23L 36.0139 23L 36.0139 17.64C 36.5099 17.128 36.9739 16.872 37.3579 16.872C 38.0299 16.872 38.3339 17.224 38.3339 18.376L 38.3339 23L 40.6859 23L 40.6859 17.64C 41.1979 17.128 41.6459 16.872 42.0459 16.872C 42.7179 16.872 43.0219 17.224 43.0219 18.376L 43.0219 23L 45.3739 23L 45.3739 18.072C 45.3739 16.088 44.6059 14.872 42.8939 14.872C 41.8379 14.872 41.1019 15.48 40.3979 16.2C 39.9979 15.352 39.3259 14.872 38.2059 14.872C 37.1659 14.872 36.4619 15.432 35.8059 16.088L 35.7419 16.088L 35.5819 15.064L 33.6619 15.064L 33.6619 23ZM 47.7006 23L 49.5406 23L 49.7326 22.168L 49.7966 22.168C 50.4206 22.84 51.1566 23.192 51.8606 23.192C 53.5726 23.192 55.2046 21.624 55.2046 18.888C 55.2046 16.456 54.0046 14.872 52.0846 14.872C 51.3486 14.872 50.5966 15.208 49.9886 15.752L 50.0526 14.536L 50.0526 11.784L 47.7006 11.784L 47.7006 23ZM 50.0526 20.76L 50.0526 17.512C 50.5006 17.016 50.9326 16.792 51.4126 16.792C 52.3566 16.792 52.7886 17.512 52.7886 18.936C 52.7886 20.568 52.1326 21.272 51.3166 21.272C 50.9166 21.272 50.4686 21.144 50.0526 20.76ZM 57.1125 19.992C 57.1125 21.976 57.8485 23.192 59.5765 23.192C 60.6645 23.192 61.4005 22.696 62.0725 21.896L 62.1205 21.896L 62.2965 23L 64.2165 23L 64.2165 15.064L 61.8645 15.064L 61.8645 20.312C 61.4005 20.936 61.0485 21.192 60.4565 21.192C 59.7685 21.192 59.4645 20.824 59.4645 19.688L 59.4645 15.064L 57.1125 15.064L 57.1125 19.992ZM 65.9022 22.088C 66.7022 22.744 67.9022 23.192 68.9422 23.192C 71.0702 23.192 72.2062 22.072 72.2062 20.632C 72.2062 19.176 71.0702 18.616 70.0622 18.248C 69.2462 17.944 68.5102 17.752 68.5102 17.24C 68.5102 16.84 68.7982 16.616 69.4062 16.616C 69.9662 16.616 70.5102 16.872 71.0862 17.288L 72.1422 15.88C 71.4542 15.368 70.5582 14.872 69.3422 14.872C 67.5022 14.872 66.3022 15.88 66.3022 17.352C 66.3022 18.664 67.4382 19.32 68.3982 19.688C 69.2142 20.008 70.0142 20.248 70.0142 20.776C 70.0142 21.192 69.7102 21.448 69.0062 21.448C 68.3342 21.448 67.6782 21.16 66.9582 20.616L 65.9022 22.088ZM 74.34 20.12C 74.34 21.96 75.108 23.192 77.076 23.192C 77.844 23.192 78.42 23.032 78.836 22.904L 78.468 21.192C 78.26 21.272 77.972 21.352 77.716 21.352C 77.092 21.352 76.692 20.984 76.692 20.088L 76.692 16.904L 78.596 16.904L 78.596 15.064L 76.692 15.064L 76.692 12.952L 74.74 12.952L 74.468 15.064L 73.252 15.16L 73.252 16.904L 74.34 16.904L 74.34 20.12ZM 81.633 13.896C 82.433 13.896 82.993 13.384 82.993 12.664C 82.993 11.944 82.433 11.448 81.633 11.448C 80.849 11.448 80.273 11.944 80.273 12.664C 80.273 13.384 80.849 13.896 81.633 13.896ZM 80.465 23L 82.817 23L 82.817 15.064L 80.465 15.064L 80.465 23ZM 85.2069 23L 87.0469 23L 87.2389 22.168L 87.3029 22.168C 87.9269 22.84 88.6629 23.192 89.3669 23.192C 91.0789 23.192 92.7109 21.624 92.7109 18.888C 92.7109 16.456 91.5109 14.872 89.5909 14.872C 88.8549 14.872 88.1029 15.208 87.4949 15.752L 87.5589 14.536L 87.5589 11.784L 85.2069 11.784L 85.2069 23ZM 87.5589 20.76L 87.5589 17.512C 88.0069 17.016 88.4389 16.792 88.9189 16.792C 89.8629 16.792 90.2949 17.512 90.2949 18.936C 90.2949 20.568 89.6389 21.272 88.8229 21.272C 88.4229 21.272 87.9749 21.144 87.5589 20.76ZM 94.6987 20.536C 94.6987 22.136 95.2427 23.192 96.8587 23.192C 97.3867 23.192 97.7867 23.112 98.0427 23L 97.7547 21.256C 97.6267 21.288 97.5627 21.288 97.4667 21.288C 97.2747 21.288 97.0507 21.128 97.0507 20.632L 97.0507 11.784L 94.6987 11.784L 94.6987 20.536ZM 99.1329 19.032C 99.1329 21.656 100.877 23.192 103.149 23.192C 104.093 23.192 105.149 22.856 105.965 22.296L 105.181 20.872C 104.605 21.224 104.061 21.4 103.469 21.4C 102.413 21.4 101.613 20.872 101.405 19.672L 106.157 19.672C 106.205 19.48 106.253 19.096 106.253 18.68C 106.253 16.52 105.133 14.872 102.877 14.872C 100.973 14.872 99.1329 16.456 99.1329 19.032ZM 101.389 18.216C 101.549 17.16 102.189 16.664 102.925 16.664C 103.869 16.664 104.253 17.304 104.253 18.216L 101.389 18.216ZM 114.07 23L 116.422 23L 116.422 14.552L 119.286 14.552L 119.286 12.568L 111.19 12.568L 111.19 14.552L 114.07 14.552L 114.07 23ZM 119.358 19.032C 119.358 21.672 121.214 23.192 123.23 23.192C 125.23 23.192 127.086 21.672 127.086 19.032C 127.086 16.392 125.23 14.872 123.23 14.872C 121.214 14.872 119.358 16.392 119.358 19.032ZM 121.774 19.032C 121.774 17.656 122.254 16.776 123.23 16.776C 124.19 16.776 124.686 17.656 124.686 19.032C 124.686 20.408 124.19 21.288 123.23 21.288C 122.254 21.288 121.774 20.408 121.774 19.032ZM 129.337 20.12C 129.337 21.96 130.105 23.192 132.073 23.192C 132.841 23.192 133.417 23.032 133.833 22.904L 133.465 21.192C 133.257 21.272 132.969 21.352 132.713 21.352C 132.089 21.352 131.689 20.984 131.689 20.088L 131.689 16.904L 133.593 16.904L 133.593 15.064L 131.689 15.064L 131.689 12.952L 129.737 12.952L 129.465 15.064L 128.249 15.16L 128.249 16.904L 129.337 16.904L 129.337 20.12ZM 134.987 20.792C 134.987 22.136 135.899 23.192 137.339 23.192C 138.235 23.192 138.987 22.776 139.659 22.184L 139.707 22.184L 139.883 23L 141.803 23L 141.803 18.456C 141.803 16.024 140.683 14.872 138.651 14.872C 137.403 14.872 136.267 15.304 135.259 15.912L 136.091 17.464C 136.859 17.016 137.531 16.744 138.203 16.744C 139.051 16.744 139.403 17.192 139.451 17.896C 136.315 18.216 134.987 19.128 134.987 20.792ZM 137.227 20.616C 137.227 20.008 137.771 19.528 139.451 19.304L 139.451 20.696C 139.035 21.112 138.683 21.368 138.139 21.368C 137.579 21.368 137.227 21.128 137.227 20.616ZM 144.142 20.536C 144.142 22.136 144.686 23.192 146.302 23.192C 146.83 23.192 147.23 23.112 147.486 23L 147.198 21.256C 147.07 21.288 147.006 21.288 146.91 21.288C 146.718 21.288 146.494 21.128 146.494 20.632L 146.494 11.784L 144.142 11.784L 144.142 20.536Z"/>
<path id="path5_fill" d="M 13.6571 26.636C 11.6411 26.636 10.1291 25.586 10.1291 22.772C 10.1291 19.748 11.6831 18.446 13.4891 18.446C 15.3791 18.446 17.1011 19.79 17.6471 23.99C 16.4711 25.922 15.0011 26.636 13.6571 26.636ZM 4.87912 38.312C 6.55912 39.992 9.16312 41.504 12.6911 41.504C 18.2771 41.504 23.4851 37.01 23.4851 27.056C 23.4851 17.69 18.5291 13.826 13.3631 13.826C 8.53312 13.826 4.50112 17.228 4.50112 22.772C 4.50112 28.4 7.90312 31.004 12.4391 31.004C 14.0771 31.004 16.3871 29.954 17.7731 28.19C 17.5631 34.406 15.2531 36.506 12.2711 36.506C 10.7171 36.506 9.03712 35.624 8.15512 34.616L 4.87912 38.312ZM 28.6646 37.64C 28.6646 39.824 30.2606 41.504 32.4026 41.504C 34.5446 41.504 36.1406 39.824 36.1406 37.64C 36.1406 35.414 34.5446 33.734 32.4026 33.734C 30.2606 33.734 28.6646 35.414 28.6646 37.64ZM 41.0884 41L 59.8624 41L 59.8624 35.792L 54.4864 35.792C 53.2264 35.792 51.3784 35.96 50.0344 36.128C 54.3604 31.592 58.5604 26.804 58.5604 22.31C 58.5604 17.186 54.9904 13.826 49.7404 13.826C 45.9184 13.826 43.4404 15.254 40.7944 18.068L 44.1544 21.386C 45.4984 19.958 46.9684 18.656 48.9004 18.656C 51.2104 18.656 52.6804 20.084 52.6804 22.688C 52.6804 26.468 47.8924 31.046 41.0884 37.472L 41.0884 41ZM 74.0302 27.476C 74.0302 36.674 79.9102 41.504 87.3022 41.504C 91.1242 41.504 94.5262 39.908 96.5002 38.186L 96.5002 25.586L 86.4622 25.586L 86.4622 30.626L 90.9982 30.626L 90.9982 35.33C 90.3262 35.876 89.1922 36.17 88.1002 36.17C 82.9342 36.17 80.3722 32.894 80.3722 27.266C 80.3722 21.764 83.3962 18.446 87.5962 18.446C 89.9482 18.446 91.2502 19.244 92.6362 20.504L 96.0382 16.682C 94.1902 14.834 91.3762 13.112 87.5122 13.112C 80.0782 13.112 74.0302 18.404 74.0302 27.476ZM 102.411 34.532C 102.411 38.732 103.839 41.504 108.081 41.504C 109.467 41.504 110.517 41.294 111.189 41L 110.433 36.422C 110.097 36.506 109.929 36.506 109.677 36.506C 109.173 36.506 108.585 36.086 108.585 34.784L 108.585 11.558L 102.411 11.558L 102.411 34.532ZM 113.421 38.606C 115.521 40.328 118.671 41.504 121.401 41.504C 126.987 41.504 129.969 38.564 129.969 34.784C 129.969 30.962 126.987 29.492 124.341 28.526C 122.199 27.728 120.267 27.224 120.267 25.88C 120.267 24.83 121.023 24.242 122.619 24.242C 124.089 24.242 125.517 24.914 127.029 26.006L 129.801 22.31C 127.995 20.966 125.643 19.664 122.451 19.664C 117.621 19.664 114.471 22.31 114.471 26.174C 114.471 29.618 117.453 31.34 119.973 32.306C 122.115 33.146 124.215 33.776 124.215 35.162C 124.215 36.254 123.417 36.926 121.569 36.926C 119.805 36.926 118.083 36.17 116.193 34.742L 113.421 38.606Z"/>
<path id="path6_fill" d="M 6.72 29.912L 10.248 24.116C 11.004 22.604 11.76 21.092 12.432 19.622L 12.6 19.622C 12.516 21.302 12.348 23.864 12.348 25.586L 12.348 29.912L 6.72 29.912ZM 21.168 29.912L 18.102 29.912L 18.102 14.33L 10.542 14.33L 0.798 30.374L 0.798 34.616L 12.348 34.616L 12.348 41L 18.102 41L 18.102 34.616L 21.168 34.616L 21.168 29.912ZM 24.5835 41L 43.3575 41L 43.3575 35.792L 37.9815 35.792C 36.7215 35.792 34.8735 35.96 33.5295 36.128C 37.8555 31.592 42.0555 26.804 42.0555 22.31C 42.0555 17.186 38.4855 13.826 33.2355 13.826C 29.4135 13.826 26.9355 15.254 24.2895 18.068L 27.6495 21.386C 28.9935 19.958 30.4635 18.656 32.3955 18.656C 34.7055 18.656 36.1755 20.084 36.1755 22.688C 36.1755 26.468 31.3875 31.046 24.5835 37.472L 24.5835 41ZM 57.1469 41.504C 62.8589 41.504 66.6809 36.632 66.6809 27.56C 66.6809 18.488 62.8589 13.826 57.1469 13.826C 51.4349 13.826 47.6129 18.488 47.6129 27.56C 47.6129 36.632 51.4349 41.504 57.1469 41.504ZM 57.1469 36.716C 55.0889 36.716 53.4509 34.826 53.4509 27.56C 53.4509 20.252 55.0889 18.614 57.1469 18.614C 59.2469 18.614 60.8429 20.252 60.8429 27.56C 60.8429 34.826 59.2469 36.716 57.1469 36.716ZM 81.8567 41L 88.0727 41L 88.0727 33.65L 91.2647 29.45L 97.9007 41L 104.705 41L 94.8767 24.536L 103.151 13.616L 96.3887 13.616L 88.1987 24.83L 88.0727 24.83L 88.0727 13.616L 81.8567 13.616L 81.8567 41ZM 107.992 41L 114.166 41L 114.166 26.93C 115.468 25.586 116.686 24.914 117.694 24.914C 119.458 24.914 120.256 25.838 120.256 28.862L 120.256 41L 126.43 41L 126.43 26.93C 127.774 25.586 128.95 24.914 130 24.914C 131.764 24.914 132.562 25.838 132.562 28.862L 132.562 41L 138.736 41L 138.736 28.064C 138.736 22.856 136.72 19.664 132.226 19.664C 129.454 19.664 127.522 21.26 125.674 23.15C 124.624 20.924 122.86 19.664 119.92 19.664C 117.19 19.664 115.342 21.134 113.62 22.856L 113.452 22.856L 113.032 20.168L 107.992 20.168L 107.992 41Z"/>
</defs>
</svg>
