<svg width="586" height="84" viewBox="0 0 586 84" version="1.1" xmlns="http://www.w3.org/2000/svg" xmlns:xlink="http://www.w3.org/1999/xlink">
<title>fuel_dropdown</title>
<desc>Created using Figma</desc>
<g id="Canvas" transform="matrix(2 0 0 2 -434 -2318)">
<g id="fuel_dropdown">
<g id="Rectangle">
<use xlink:href="#path0_fill" transform="translate(217 1159)" fill="#EBEBEB"/>
<mask id="mask0_outline_ins">
<use xlink:href="#path0_fill" fill="white" transform="translate(217 1159)"/>
</mask>
<g mask="url(#mask0_outline_ins)">
<use xlink:href="#path1_stroke_2x" transform="translate(217 1159)" fill="#9B9B9B"/>
</g>
</g>
<g id="Gasolina Premium">
<use xlink:href="#path2_fill" transform="translate(238.333 1169)" fill="#424242"/>
</g>
<g id="Polygon">
<use xlink:href="#path3_fill" transform="matrix(-1 9.18485e-17 -1.63286e-16 -1 494.333 1186)" fill="#424242"/>
</g>
</g>
</g>
<defs>
<path id="path0_fill" d="M 0 4C 0 1.79086 1.79086 0 4 0L 289 0C 291.209 0 293 1.79086 293 4L 293 38C 293 40.2091 291.209 42 289 42L 4 42C 1.79086 42 0 40.2091 0 38L 0 4Z"/>
<path id="path1_stroke_2x" d="M 4 1L 289 1L 289 -1L 4 -1L 4 1ZM 292 4L 292 38L 294 38L 294 4L 292 4ZM 289 41L 4 41L 4 43L 289 43L 289 41ZM 1 38L 1 4L -1 4L -1 38L 1 38ZM 4 -1C 1.23858 -1 -1 1.23858 -1 4L 1 4C 1 2.34315 2.34315 1 4 1L 4 -1ZM 289 1C 290.657 1 292 2.34315 292 4L 294 4C 294 1.23858 291.761 -1 289 -1L 289 1ZM 292 38C 292 39.6569 290.657 41 289 41L 289 43C 291.761 43 294 40.7614 294 38L 292 38ZM 4 41C 2.34315 41 1 39.6569 1 38L -1 38C -1 40.7614 1.23858 43 4 43L 4 41Z"/>
<path id="path2_fill" d="M 0.784 10.752C 0.784 14.176 2.752 16.192 5.504 16.192C 6.912 16.192 8.08 15.648 8.768 14.976L 8.768 10.56L 5.328 10.56L 5.328 11.664L 7.552 11.664L 7.552 14.4C 7.136 14.784 6.4 15.024 5.648 15.024C 3.408 15.024 2.16 13.36 2.16 10.72C 2.16 8.112 3.52 6.48 5.648 6.48C 6.688 6.48 7.344 6.896 7.872 7.456L 8.64 6.608C 8.016 5.968 7.056 5.312 5.632 5.312C 2.816 5.312 0.784 7.376 0.784 10.752ZM 10.7249 13.984C 10.7249 15.376 11.7009 16.192 13.0129 16.192C 13.9729 16.192 14.8369 15.68 15.5889 15.072L 15.6209 15.072L 15.7329 16L 16.8209 16L 16.8209 11.232C 16.8209 9.296 16.0209 8.032 14.1169 8.032C 12.8689 8.032 11.7809 8.576 11.0609 9.04L 11.5889 9.952C 12.1969 9.536 12.9969 9.12 13.9089 9.12C 15.1729 9.12 15.5089 10.08 15.5089 11.072C 12.1969 11.44 10.7249 12.288 10.7249 13.984ZM 12.0209 13.888C 12.0209 12.896 12.9009 12.256 15.5089 11.936L 15.5089 14.096C 14.7569 14.768 14.1329 15.136 13.3809 15.136C 12.6129 15.136 12.0209 14.768 12.0209 13.888ZM 18.4324 15.12C 19.1684 15.728 20.2244 16.192 21.3284 16.192C 23.1684 16.192 24.1764 15.136 24.1764 13.872C 24.1764 12.4 22.9284 11.936 21.8084 11.52C 20.9284 11.184 20.0804 10.896 20.0804 10.176C 20.0804 9.584 20.5284 9.056 21.5044 9.056C 22.1924 9.056 22.7524 9.344 23.2804 9.744L 23.9044 8.912C 23.3124 8.432 22.4644 8.032 21.4884 8.032C 19.8084 8.032 18.8164 8.992 18.8164 10.24C 18.8164 11.552 20.0324 12.08 21.1364 12.48C 21.9844 12.8 22.9124 13.152 22.9124 13.952C 22.9124 14.624 22.4004 15.168 21.3764 15.168C 20.4484 15.168 19.7604 14.784 19.0884 14.24L 18.4324 15.12ZM 25.4235 12.128C 25.4235 14.704 27.1195 16.192 29.0235 16.192C 30.9275 16.192 32.6235 14.704 32.6235 12.128C 32.6235 9.52 30.9275 8.032 29.0235 8.032C 27.1195 8.032 25.4235 9.52 25.4235 12.128ZM 26.7835 12.128C 26.7835 10.336 27.6955 9.12 29.0235 9.12C 30.3675 9.12 31.2635 10.336 31.2635 12.128C 31.2635 13.904 30.3675 15.104 29.0235 15.104C 27.6955 15.104 26.7835 13.904 26.7835 12.128ZM 34.6714 14.432C 34.6714 15.568 35.0714 16.192 36.0634 16.192C 36.4154 16.192 36.6394 16.144 36.8154 16.064L 36.6394 15.072C 36.4954 15.104 36.4314 15.104 36.3514 15.104C 36.1594 15.104 35.9834 14.944 35.9834 14.528L 35.9834 4.608L 34.6714 4.608L 34.6714 14.432ZM 39.4215 6.624C 39.9335 6.624 40.3335 6.272 40.3335 5.776C 40.3335 5.264 39.9335 4.928 39.4215 4.928C 38.9095 4.928 38.5095 5.264 38.5095 5.776C 38.5095 6.272 38.9095 6.624 39.4215 6.624ZM 38.7495 16L 40.0615 16L 40.0615 8.224L 38.7495 8.224L 38.7495 16ZM 42.687 16L 43.999 16L 43.999 10.368C 44.783 9.584 45.327 9.168 46.127 9.168C 47.151 9.168 47.599 9.792 47.599 11.248L 47.599 16L 48.911 16L 48.911 11.072C 48.911 9.088 48.175 8.032 46.543 8.032C 45.471 8.032 44.671 8.608 43.935 9.344L 43.887 9.344L 43.775 8.224L 42.687 8.224L 42.687 16ZM 51.053 13.984C 51.053 15.376 52.029 16.192 53.341 16.192C 54.301 16.192 55.165 15.68 55.917 15.072L 55.949 15.072L 56.061 16L 57.149 16L 57.149 11.232C 57.149 9.296 56.349 8.032 54.445 8.032C 53.197 8.032 52.109 8.576 51.389 9.04L 51.917 9.952C 52.525 9.536 53.325 9.12 54.237 9.12C 55.501 9.12 55.837 10.08 55.837 11.072C 52.525 11.44 51.053 12.288 51.053 13.984ZM 52.349 13.888C 52.349 12.896 53.229 12.256 55.837 11.936L 55.837 14.096C 55.085 14.768 54.461 15.136 53.709 15.136C 52.941 15.136 52.349 14.768 52.349 13.888ZM 62.9389 16L 64.2829 16L 64.2829 11.84L 66.1709 11.84C 68.4589 11.84 70.0429 10.8 70.0429 8.592C 70.0429 6.288 68.4909 5.504 66.1709 5.504L 62.9389 5.504L 62.9389 16ZM 64.2829 10.752L 64.2829 6.576L 65.9949 6.576C 67.8029 6.576 68.7149 7.072 68.7149 8.592C 68.7149 10.08 67.8349 10.752 65.9949 10.752L 64.2829 10.752ZM 71.9995 16L 73.3115 16L 73.3115 11.008C 73.8395 9.696 74.6235 9.216 75.2795 9.216C 75.5995 9.216 75.7755 9.264 76.0315 9.344L 76.2875 8.192C 76.0315 8.08 75.7915 8.032 75.4555 8.032C 74.5755 8.032 73.7755 8.656 73.2475 9.632L 73.1995 9.632L 73.0875 8.224L 71.9995 8.224L 71.9995 16ZM 76.8141 12.128C 76.8141 14.672 78.4621 16.192 80.5421 16.192C 81.5981 16.192 82.4301 15.824 83.1021 15.392L 82.6381 14.528C 82.0621 14.896 81.4381 15.136 80.7021 15.136C 79.2141 15.136 78.2061 14.08 78.1101 12.4L 83.3581 12.4C 83.3901 12.208 83.4061 11.952 83.4061 11.68C 83.4061 9.456 82.2861 8.032 80.3021 8.032C 78.5261 8.032 76.8141 9.584 76.8141 12.128ZM 78.0941 11.536C 78.2541 9.968 79.2461 9.072 80.3341 9.072C 81.5501 9.072 82.2541 9.952 82.2541 11.536L 78.0941 11.536ZM 85.3276 16L 86.6396 16L 86.6396 10.368C 87.3596 9.568 88.0156 9.168 88.5916 9.168C 89.5836 9.168 90.0476 9.792 90.0476 11.248L 90.0476 16L 91.3596 16L 91.3596 10.368C 92.0796 9.568 92.7036 9.168 93.3116 9.168C 94.2876 9.168 94.7516 9.792 94.7516 11.248L 94.7516 16L 96.0636 16L 96.0636 11.072C 96.0636 9.088 95.2956 8.032 93.6956 8.032C 92.7516 8.032 91.9516 8.64 91.1356 9.52C 90.8156 8.592 90.1756 8.032 88.9916 8.032C 88.0636 8.032 87.2476 8.608 86.5756 9.344L 86.5276 9.344L 86.4156 8.224L 85.3276 8.224L 85.3276 16ZM 99.2652 6.624C 99.7773 6.624 100.177 6.272 100.177 5.776C 100.177 5.264 99.7773 4.928 99.2652 4.928C 98.7533 4.928 98.3533 5.264 98.3533 5.776C 98.3533 6.272 98.7533 6.624 99.2652 6.624ZM 98.5933 16L 99.9053 16L 99.9053 8.224L 98.5933 8.224L 98.5933 16ZM 102.419 13.152C 102.419 15.136 103.155 16.192 104.803 16.192C 105.875 16.192 106.643 15.632 107.363 14.784L 107.411 14.784L 107.523 16L 108.611 16L 108.611 8.224L 107.299 8.224L 107.299 13.744C 106.563 14.656 106.003 15.056 105.203 15.056C 104.179 15.056 103.747 14.432 103.747 12.976L 103.747 8.224L 102.419 8.224L 102.419 13.152ZM 111.234 16L 112.546 16L 112.546 10.368C 113.266 9.568 113.922 9.168 114.498 9.168C 115.49 9.168 115.954 9.792 115.954 11.248L 115.954 16L 117.266 16L 117.266 10.368C 117.986 9.568 118.61 9.168 119.218 9.168C 120.194 9.168 120.658 9.792 120.658 11.248L 120.658 16L 121.97 16L 121.97 11.072C 121.97 9.088 121.202 8.032 119.602 8.032C 118.658 8.032 117.858 8.64 117.042 9.52C 116.722 8.592 116.082 8.032 114.898 8.032C 113.97 8.032 113.154 8.608 112.482 9.344L 112.434 9.344L 112.322 8.224L 111.234 8.224L 111.234 16Z"/>
<path id="path3_fill" d="M 10 0L 18.6603 11.25L 1.33975 11.25L 10 0Z"/>
</defs>
</svg>
