<svg width="2062" height="104" viewBox="0 0 2062 104" version="1.1" xmlns="http://www.w3.org/2000/svg" xmlns:xlink="http://www.w3.org/1999/xlink">
<title>Group_group</title>
<desc>Created using Figma</desc>
<g id="Canvas" transform="matrix(2 0 0 2 -2432 -3008)">
<g id="Group_group">
<g id="Save-btn">
<g id="Rectangle 2">
<mask id="mask0_outline_ins">
<use xlink:href="#path0_fill" fill="white" transform="translate(1216.83 1504)"/>
</mask>
<g mask="url(#mask0_outline_ins)">
<use xlink:href="#path1_stroke_2x" transform="translate(1216.83 1504)" fill="#1DC193"/>
</g>
</g>
<g id="GUARDA ESTIMADO">
<use xlink:href="#path2_fill" transform="translate(1215 1504)" fill="#1DC193"/>
</g>
</g>
<g id="other-quantity btn">
<g id="Rectangle 2">
<use xlink:href="#path0_fill" transform="translate(1948.83 1504)" fill="#E55050"/>
</g>
<g id="CALCULAR OTRA CANTIDAD">
<use xlink:href="#path3_fill" transform="translate(1947 1504)" fill="#FFFFFF"/>
</g>
</g>
<g id="other-quantity btn">
<g id="Rectangle 2">
<mask id="mask1_outline_ins">
<use xlink:href="#path4_fill" fill="white" transform="translate(1581 1504)"/>
</mask>
<g mask="url(#mask1_outline_ins)">
<use xlink:href="#path5_stroke_2x" transform="translate(1581 1504)" fill="#E55050"/>
</g>
</g>
<g id="SELECCIONAR OTRO VEH&#195;&#173;CULO">
<use xlink:href="#path6_fill" transform="translate(1595.17 1504)" fill="#E55050"/>
</g>
</g>
</g>
</g>
<defs>
<path id="path0_fill" d="M 0 4C 0 1.79086 1.79086 0 4 0L 294.165 0C 296.374 0 298.165 1.79086 298.165 4L 298.165 48C 298.165 50.2091 296.374 52 294.165 52L 4 52C 1.79086 52 0 50.2091 0 48L 0 4Z"/>
<path id="path1_stroke_2x" d="M 4 1L 294.165 1L 294.165 -1L 4 -1L 4 1ZM 297.165 4L 297.165 48L 299.165 48L 299.165 4L 297.165 4ZM 294.165 51L 4 51L 4 53L 294.165 53L 294.165 51ZM 1 48L 1 4L -1 4L -1 48L 1 48ZM 4 -1C 1.23858 -1 -1 1.23858 -1 4L 1 4C 1 2.34315 2.34315 1 4 1L 4 -1ZM 294.165 1C 295.822 1 297.165 2.34315 297.165 4L 299.165 4C 299.165 1.23858 296.927 -1 294.165 -1L 294.165 1ZM 297.165 48C 297.165 49.6569 295.822 51 294.165 51L 294.165 53C 296.927 53 299.165 50.7614 299.165 48L 297.165 48ZM 4 51C 2.34315 51 1 49.6569 1 48L -1 48C -1 50.7614 1.23858 53 4 53L 4 51Z"/>
<path id="path2_fill" d="M 71.3375 25.5859L 75.8688 25.5859L 75.8688 31.5078C 75.5667 31.6068 75.262 31.6979 74.9547 31.7812C 74.6474 31.8594 74.3271 31.9271 73.9938 31.9844C 73.6656 32.0365 73.3193 32.0781 72.9547 32.1094C 72.5953 32.1406 72.2125 32.1562 71.8063 32.1562C 70.9521 32.1562 70.1943 32.0312 69.5328 31.7812C 68.8766 31.526 68.3219 31.151 67.8688 30.6562C 67.4208 30.1562 67.0797 29.5417 66.8453 28.8125C 66.6109 28.0781 66.4938 27.2318 66.4938 26.2734C 66.4938 25.3776 66.624 24.5677 66.8844 23.8438C 67.1448 23.1198 67.5276 22.5052 68.0328 22C 68.5432 21.4896 69.1682 21.099 69.9078 20.8281C 70.6526 20.5521 71.5042 20.4141 72.4625 20.4141C 73.0719 20.4141 73.6682 20.4792 74.2516 20.6094C 74.8349 20.7396 75.3688 20.9089 75.8531 21.1172L 75.0484 23.0547C 74.6943 22.8776 74.2932 22.7292 73.8453 22.6094C 73.4026 22.4896 72.9365 22.4297 72.4469 22.4297C 71.9156 22.4297 71.4365 22.5234 71.0094 22.7109C 70.5875 22.8932 70.2255 23.1536 69.9234 23.4922C 69.6214 23.8307 69.3896 24.2396 69.2281 24.7188C 69.0667 25.1979 68.9859 25.7318 68.9859 26.3203C 68.9859 26.8828 69.0406 27.3984 69.15 27.8672C 69.2646 28.3307 69.4417 28.7318 69.6813 29.0703C 69.9208 29.4089 70.2281 29.6719 70.6031 29.8594C 70.9833 30.0469 71.4365 30.1406 71.9625 30.1406C 72.3063 30.1406 72.5953 30.125 72.8297 30.0938C 73.0693 30.0625 73.2932 30.026 73.5016 29.9844L 73.5016 27.6016L 71.3375 27.6016L 71.3375 25.5859ZM 88.5316 20.5781L 88.5316 27.9688C 88.5316 28.5625 88.4404 29.1146 88.2581 29.625C 88.081 30.1354 87.8076 30.5781 87.4378 30.9531C 87.0732 31.3281 86.6149 31.6224 86.0628 31.8359C 85.5107 32.0495 84.8623 32.1562 84.1175 32.1562C 83.4144 32.1562 82.792 32.0573 82.2503 31.8594C 81.7139 31.6562 81.2633 31.3698 80.8988 31C 80.5394 30.6302 80.2659 30.1875 80.0784 29.6719C 79.8909 29.151 79.7972 28.5729 79.7972 27.9375L 79.7972 20.5781L 82.2113 20.5781L 82.2113 27.7578C 82.2113 28.1797 82.2529 28.5417 82.3363 28.8438C 82.4196 29.1406 82.542 29.3854 82.7034 29.5781C 82.8701 29.7656 83.0758 29.9036 83.3206 29.9922C 83.5654 30.0807 83.8519 30.125 84.18 30.125C 84.8623 30.125 85.3545 29.9271 85.6566 29.5312C 85.9639 29.1354 86.1175 28.5391 86.1175 27.7422L 86.1175 20.5781L 88.5316 20.5781ZM 98.9678 32L 98.1866 29.2812L 94.2491 29.2812L 93.46 32L 91.0147 32L 94.7256 20.5312L 97.6866 20.5312L 101.413 32L 98.9678 32ZM 97.6241 27.25L 96.8897 24.75C 96.8584 24.6562 96.8116 24.5026 96.7491 24.2891C 96.6866 24.0755 96.6189 23.8411 96.5459 23.5859C 96.4782 23.3255 96.4131 23.0651 96.3506 22.8047C 96.2881 22.5443 96.2439 22.3229 96.2178 22.1406C 96.197 22.2552 96.1683 22.3906 96.1319 22.5469C 96.1006 22.7031 96.0616 22.8698 96.0147 23.0469C 95.973 23.2188 95.9287 23.3932 95.8819 23.5703C 95.835 23.7474 95.7907 23.9141 95.7491 24.0703C 95.7074 24.2266 95.6683 24.3646 95.6319 24.4844C 95.6006 24.6042 95.5772 24.6927 95.5616 24.75L 94.835 27.25L 97.6241 27.25ZM 106.56 25.6484L 107.217 25.6484C 107.888 25.6484 108.37 25.5156 108.662 25.25C 108.954 24.9792 109.099 24.5833 109.099 24.0625C 109.099 23.5208 108.943 23.1354 108.631 22.9062C 108.318 22.6771 107.834 22.5625 107.178 22.5625L 106.56 22.5625L 106.56 25.6484ZM 106.56 27.6172L 106.56 32L 104.138 32L 104.138 20.5781L 107.263 20.5781C 108.727 20.5781 109.808 20.862 110.506 21.4297C 111.204 21.9922 111.553 22.849 111.553 24C 111.553 24.3906 111.5 24.7448 111.396 25.0625C 111.292 25.3802 111.151 25.6641 110.974 25.9141C 110.803 26.1589 110.602 26.375 110.373 26.5625C 110.149 26.7448 109.912 26.8984 109.662 27.0234C 110.24 27.9505 110.758 28.7786 111.217 29.5078C 111.414 29.8203 111.605 30.125 111.787 30.4219C 111.974 30.7188 112.141 30.9844 112.287 31.2188C 112.433 31.4531 112.553 31.6406 112.646 31.7812L 112.779 32L 110.092 32L 107.615 27.6172L 106.56 27.6172ZM 124.333 26.1797C 124.333 27.1432 124.2 27.9896 123.934 28.7188C 123.674 29.4427 123.293 30.0495 122.793 30.5391C 122.299 31.0234 121.689 31.388 120.965 31.6328C 120.247 31.8776 119.426 32 118.504 32L 115.497 32L 115.497 20.5781L 118.84 20.5781C 119.679 20.5781 120.434 20.6979 121.106 20.9375C 121.783 21.1771 122.361 21.5339 122.84 22.0078C 123.319 22.4766 123.687 23.0599 123.942 23.7578C 124.202 24.4557 124.333 25.263 124.333 26.1797ZM 121.879 26.2422C 121.879 25.6068 121.814 25.0599 121.684 24.6016C 121.559 24.138 121.374 23.7552 121.129 23.4531C 120.89 23.151 120.593 22.9271 120.239 22.7812C 119.89 22.6354 119.489 22.5625 119.036 22.5625L 117.918 22.5625L 117.918 30L 118.809 30C 119.83 30 120.596 29.6875 121.106 29.0625C 121.622 28.4375 121.879 27.4974 121.879 26.2422ZM 134.339 32L 133.558 29.2812L 129.62 29.2812L 128.831 32L 126.386 32L 130.097 20.5312L 133.058 20.5312L 136.784 32L 134.339 32ZM 132.995 27.25L 132.261 24.75C 132.23 24.6562 132.183 24.5026 132.12 24.2891C 132.058 24.0755 131.99 23.8411 131.917 23.5859C 131.849 23.3255 131.784 23.0651 131.722 22.8047C 131.659 22.5443 131.615 22.3229 131.589 22.1406C 131.568 22.2552 131.54 22.3906 131.503 22.5469C 131.472 22.7031 131.433 22.8698 131.386 23.0469C 131.344 23.2188 131.3 23.3932 131.253 23.5703C 131.206 23.7474 131.162 23.9141 131.12 24.0703C 131.079 24.2266 131.04 24.3646 131.003 24.4844C 130.972 24.6042 130.948 24.6927 130.933 24.75L 130.206 27.25L 132.995 27.25ZM 151.524 32L 144.946 32L 144.946 20.5781L 151.524 20.5781L 151.524 22.5625L 147.368 22.5625L 147.368 25.0703L 151.235 25.0703L 151.235 27.0547L 147.368 27.0547L 147.368 30L 151.524 30L 151.524 32ZM 161.452 28.8281C 161.452 29.3385 161.364 29.7995 161.187 30.2109C 161.015 30.6172 160.76 30.9661 160.421 31.2578C 160.088 31.5443 159.676 31.7656 159.187 31.9219C 158.702 32.0781 158.145 32.1562 157.515 32.1562C 156.963 32.1562 156.429 32.099 155.913 31.9844C 155.403 31.8698 154.929 31.6979 154.492 31.4688L 154.492 29.2188C 154.742 29.3385 154.994 29.4557 155.249 29.5703C 155.505 29.6797 155.762 29.7786 156.023 29.8672C 156.288 29.9557 156.551 30.026 156.812 30.0781C 157.077 30.1302 157.341 30.1562 157.601 30.1562C 157.867 30.1562 158.093 30.1276 158.281 30.0703C 158.473 30.0078 158.627 29.9245 158.742 29.8203C 158.861 29.7109 158.947 29.5833 158.999 29.4375C 159.057 29.2865 159.085 29.1224 159.085 28.9453C 159.085 28.7318 159.038 28.5443 158.945 28.3828C 158.856 28.2161 158.729 28.0625 158.562 27.9219C 158.4 27.776 158.202 27.6354 157.968 27.5C 157.739 27.3646 157.481 27.2214 157.195 27.0703C 156.955 26.9453 156.687 26.7943 156.39 26.6172C 156.093 26.4401 155.812 26.2214 155.546 25.9609C 155.286 25.6953 155.067 25.3776 154.89 25.0078C 154.713 24.6328 154.624 24.1849 154.624 23.6641C 154.624 23.1536 154.708 22.6979 154.874 22.2969C 155.046 21.8906 155.288 21.5495 155.601 21.2734C 155.913 20.9922 156.291 20.7786 156.734 20.6328C 157.182 20.487 157.682 20.4141 158.234 20.4141C 158.51 20.4141 158.778 20.4323 159.038 20.4688C 159.304 20.5052 159.564 20.5573 159.82 20.625C 160.08 20.6927 160.341 20.776 160.601 20.875C 160.861 20.974 161.13 21.0885 161.406 21.2188L 160.624 23.1016C 160.39 22.9922 160.171 22.8958 159.968 22.8125C 159.765 22.7292 159.567 22.6589 159.374 22.6016C 159.182 22.5443 158.992 22.5026 158.804 22.4766C 158.622 22.4453 158.437 22.4297 158.249 22.4297C 157.843 22.4297 157.531 22.5391 157.312 22.7578C 157.098 22.9714 156.992 23.2578 156.992 23.6172C 156.992 23.8099 157.023 23.9818 157.085 24.1328C 157.153 24.2786 157.257 24.4167 157.398 24.5469C 157.544 24.6771 157.729 24.8099 157.952 24.9453C 158.182 25.0807 158.458 25.2344 158.781 25.4062C 159.171 25.6146 159.531 25.8281 159.859 26.0469C 160.187 26.2604 160.468 26.5 160.702 26.7656C 160.942 27.026 161.127 27.3229 161.257 27.6562C 161.387 27.9896 161.452 28.3802 161.452 28.8281ZM 169.029 32L 166.615 32L 166.615 22.5938L 163.748 22.5938L 163.748 20.5781L 171.889 20.5781L 171.889 22.5938L 169.029 22.5938L 169.029 32ZM 179.2 32L 174.005 32L 174.005 30.625L 175.395 29.9844L 175.395 22.5938L 174.005 21.9531L 174.005 20.5781L 179.2 20.5781L 179.2 21.9531L 177.809 22.5938L 177.809 29.9844L 179.2 30.625L 179.2 32ZM 187.035 32L 184.527 23.0391L 184.457 23.0391C 184.488 23.5182 184.514 23.9818 184.535 24.4297C 184.545 24.6224 184.553 24.8203 184.558 25.0234C 184.569 25.2266 184.576 25.4271 184.582 25.625C 184.592 25.8229 184.597 26.013 184.597 26.1953C 184.602 26.3776 184.605 26.5417 184.605 26.6875L 184.605 32L 182.441 32L 182.441 20.5781L 185.738 20.5781L 188.207 29.3125L 188.253 29.3125L 190.878 20.5781L 194.175 20.5781L 194.175 32L 191.917 32L 191.917 26.5938C 191.917 26.4583 191.917 26.3047 191.917 26.1328C 191.923 25.9609 191.928 25.7786 191.933 25.5859C 191.938 25.3932 191.944 25.1979 191.949 25C 191.959 24.8021 191.967 24.6094 191.972 24.4219C 191.993 23.9844 192.011 23.5286 192.027 23.0547L 191.964 23.0547L 189.261 32L 187.035 32ZM 204.846 32L 204.065 29.2812L 200.127 29.2812L 199.338 32L 196.893 32L 200.604 20.5312L 203.565 20.5312L 207.291 32L 204.846 32ZM 203.502 27.25L 202.768 24.75C 202.737 24.6562 202.69 24.5026 202.627 24.2891C 202.565 24.0755 202.497 23.8411 202.424 23.5859C 202.356 23.3255 202.291 23.0651 202.229 22.8047C 202.166 22.5443 202.122 22.3229 202.096 22.1406C 202.075 22.2552 202.046 22.3906 202.01 22.5469C 201.979 22.7031 201.94 22.8698 201.893 23.0469C 201.851 23.2188 201.807 23.3932 201.76 23.5703C 201.713 23.7474 201.669 23.9141 201.627 24.0703C 201.586 24.2266 201.546 24.3646 201.51 24.4844C 201.479 24.6042 201.455 24.6927 201.44 24.75L 200.713 27.25L 203.502 27.25ZM 218.853 26.1797C 218.853 27.1432 218.72 27.9896 218.454 28.7188C 218.194 29.4427 217.813 30.0495 217.313 30.5391C 216.819 31.0234 216.209 31.388 215.485 31.6328C 214.767 31.8776 213.946 32 213.024 32L 210.017 32L 210.017 20.5781L 213.36 20.5781C 214.199 20.5781 214.954 20.6979 215.626 20.9375C 216.303 21.1771 216.881 21.5339 217.36 22.0078C 217.839 22.4766 218.207 23.0599 218.462 23.7578C 218.722 24.4557 218.853 25.263 218.853 26.1797ZM 216.399 26.2422C 216.399 25.6068 216.334 25.0599 216.204 24.6016C 216.079 24.138 215.894 23.7552 215.649 23.4531C 215.41 23.151 215.113 22.9271 214.759 22.7812C 214.41 22.6354 214.009 22.5625 213.556 22.5625L 212.438 22.5625L 212.438 30L 213.329 30C 214.35 30 215.116 29.6875 215.626 29.0625C 216.142 28.4375 216.399 27.4974 216.399 26.2422ZM 232.234 26.2734C 232.234 27.1536 232.13 27.9557 231.922 28.6797C 231.718 29.4036 231.406 30.0234 230.984 30.5391C 230.562 31.0547 230.028 31.4531 229.383 31.7344C 228.742 32.0156 227.984 32.1562 227.109 32.1562C 226.234 32.1562 225.474 32.0156 224.828 31.7344C 224.187 31.4531 223.656 31.0547 223.234 30.5391C 222.817 30.0234 222.505 29.4036 222.297 28.6797C 222.093 27.9505 221.992 27.1432 221.992 26.2578C 221.992 25.3724 222.093 24.5703 222.297 23.8516C 222.505 23.1276 222.82 22.5104 223.242 22C 223.664 21.4896 224.195 21.0964 224.836 20.8203C 225.481 20.5391 226.244 20.3984 227.125 20.3984C 228 20.3984 228.758 20.5391 229.398 20.8203C 230.039 21.0964 230.567 21.4922 230.984 22.0078C 231.406 22.5182 231.718 23.1354 231.922 23.8594C 232.13 24.5781 232.234 25.3828 232.234 26.2734ZM 224.484 26.2734C 224.484 26.8724 224.536 27.4115 224.64 27.8906C 224.744 28.3646 224.903 28.7682 225.117 29.1016C 225.336 29.4297 225.609 29.6823 225.937 29.8594C 226.265 30.0365 226.656 30.125 227.109 30.125C 227.573 30.125 227.968 30.0365 228.297 29.8594C 228.63 29.6823 228.901 29.4297 229.109 29.1016C 229.323 28.7682 229.479 28.3646 229.578 27.8906C 229.682 27.4115 229.734 26.8724 229.734 26.2734C 229.734 25.6745 229.682 25.138 229.578 24.6641C 229.479 24.1849 229.323 23.7786 229.109 23.4453C 228.901 23.112 228.633 22.8568 228.304 22.6797C 227.976 22.5026 227.583 22.4141 227.125 22.4141C 226.672 22.4141 226.278 22.5026 225.945 22.6797C 225.612 22.8568 225.336 23.112 225.117 23.4453C 224.903 23.7786 224.744 24.1849 224.64 24.6641C 224.536 25.138 224.484 25.6745 224.484 26.2734Z"/>
<path id="path3_fill" d="M 37.3497 22.4297C 36.8862 22.4297 36.4747 22.5208 36.1153 22.7031C 35.7612 22.8802 35.4617 23.138 35.2169 23.4766C 34.9773 23.8099 34.795 24.2188 34.67 24.7031C 34.545 25.1823 34.4825 25.7214 34.4825 26.3203C 34.4825 26.9297 34.5372 27.4714 34.6466 27.9453C 34.7612 28.4193 34.933 28.8203 35.1622 29.1484C 35.3966 29.4714 35.6934 29.7188 36.0528 29.8906C 36.4174 30.0573 36.8497 30.1406 37.3497 30.1406C 37.8132 30.1406 38.2768 30.0885 38.7403 29.9844C 39.2091 29.8802 39.7169 29.7318 40.2638 29.5391L 40.2638 31.5703C 40.0138 31.6745 39.7664 31.763 39.5216 31.8359C 39.2768 31.9089 39.0268 31.9688 38.7716 32.0156C 38.5164 32.0625 38.2533 32.0964 37.9825 32.1172C 37.7169 32.1432 37.4304 32.1562 37.1231 32.1562C 36.2429 32.1562 35.4799 32.0156 34.8341 31.7344C 34.1882 31.4531 33.6544 31.0573 33.2325 30.5469C 32.8106 30.0365 32.4981 29.4219 32.295 28.7031C 32.0919 27.9844 31.9903 27.1849 31.9903 26.3047C 31.9903 25.4401 32.1075 24.6484 32.3419 23.9297C 32.5763 23.2057 32.92 22.5833 33.3731 22.0625C 33.8263 21.5417 34.3862 21.138 35.0528 20.8516C 35.7195 20.5599 36.4851 20.4141 37.3497 20.4141C 37.9174 20.4141 38.4851 20.487 39.0528 20.6328C 39.6257 20.7734 40.1726 20.9688 40.6934 21.2188L 39.9122 23.1875C 39.4851 22.9844 39.0554 22.8073 38.6231 22.6562C 38.1908 22.5052 37.7664 22.4297 37.3497 22.4297ZM 50.4969 32L 49.7156 29.2812L 45.7781 29.2812L 44.9891 32L 42.5438 32L 46.2547 20.5312L 49.2156 20.5312L 52.9422 32L 50.4969 32ZM 49.1531 27.25L 48.4188 24.75C 48.3875 24.6562 48.3406 24.5026 48.2781 24.2891C 48.2156 24.0755 48.1479 23.8411 48.075 23.5859C 48.0073 23.3255 47.9422 23.0651 47.8797 22.8047C 47.8172 22.5443 47.7729 22.3229 47.7469 22.1406C 47.726 22.2552 47.6974 22.3906 47.6609 22.5469C 47.6297 22.7031 47.5906 22.8698 47.5438 23.0469C 47.5021 23.2188 47.4578 23.3932 47.4109 23.5703C 47.3641 23.7474 47.3198 23.9141 47.2781 24.0703C 47.2365 24.2266 47.1974 24.3646 47.1609 24.4844C 47.1297 24.6042 47.1063 24.6927 47.0906 24.75L 46.3641 27.25L 49.1531 27.25ZM 55.6675 32L 55.6675 20.5781L 58.0894 20.5781L 58.0894 30L 62.2456 30L 62.2456 32L 55.6675 32ZM 70.2053 22.4297C 69.7418 22.4297 69.3303 22.5208 68.9709 22.7031C 68.6168 22.8802 68.3173 23.138 68.0725 23.4766C 67.8329 23.8099 67.6506 24.2188 67.5256 24.7031C 67.4006 25.1823 67.3381 25.7214 67.3381 26.3203C 67.3381 26.9297 67.3928 27.4714 67.5022 27.9453C 67.6168 28.4193 67.7887 28.8203 68.0178 29.1484C 68.2522 29.4714 68.5491 29.7188 68.9084 29.8906C 69.273 30.0573 69.7053 30.1406 70.2053 30.1406C 70.6689 30.1406 71.1324 30.0885 71.5959 29.9844C 72.0647 29.8802 72.5725 29.7318 73.1194 29.5391L 73.1194 31.5703C 72.8694 31.6745 72.622 31.763 72.3772 31.8359C 72.1324 31.9089 71.8824 31.9688 71.6272 32.0156C 71.372 32.0625 71.109 32.0964 70.8381 32.1172C 70.5725 32.1432 70.286 32.1562 69.9788 32.1562C 69.0985 32.1562 68.3355 32.0156 67.6897 31.7344C 67.0439 31.4531 66.51 31.0573 66.0881 30.5469C 65.6663 30.0365 65.3538 29.4219 65.1506 28.7031C 64.9475 27.9844 64.8459 27.1849 64.8459 26.3047C 64.8459 25.4401 64.9631 24.6484 65.1975 23.9297C 65.4319 23.2057 65.7756 22.5833 66.2288 22.0625C 66.6819 21.5417 67.2418 21.138 67.9084 20.8516C 68.5751 20.5599 69.3407 20.4141 70.2053 20.4141C 70.773 20.4141 71.3407 20.487 71.9084 20.6328C 72.4814 20.7734 73.0282 20.9688 73.5491 21.2188L 72.7678 23.1875C 72.3407 22.9844 71.911 22.8073 71.4788 22.6562C 71.0465 22.5052 70.622 22.4297 70.2053 22.4297ZM 85.4931 20.5781L 85.4931 27.9688C 85.4931 28.5625 85.402 29.1146 85.2197 29.625C 85.0426 30.1354 84.7692 30.5781 84.3994 30.9531C 84.0348 31.3281 83.5765 31.6224 83.0244 31.8359C 82.4723 32.0495 81.8239 32.1562 81.0791 32.1562C 80.3759 32.1562 79.7536 32.0573 79.2119 31.8594C 78.6754 31.6562 78.2249 31.3698 77.8603 31C 77.5009 30.6302 77.2275 30.1875 77.04 29.6719C 76.8525 29.151 76.7588 28.5729 76.7588 27.9375L 76.7588 20.5781L 79.1728 20.5781L 79.1728 27.7578C 79.1728 28.1797 79.2145 28.5417 79.2978 28.8438C 79.3812 29.1406 79.5036 29.3854 79.665 29.5781C 79.8317 29.7656 80.0374 29.9036 80.2822 29.9922C 80.527 30.0807 80.8134 30.125 81.1416 30.125C 81.8239 30.125 82.3161 29.9271 82.6181 29.5312C 82.9254 29.1354 83.0791 28.5391 83.0791 27.7422L 83.0791 20.5781L 85.4931 20.5781ZM 89.57 32L 89.57 20.5781L 91.9919 20.5781L 91.9919 30L 96.1481 30L 96.1481 32L 89.57 32ZM 105.928 32L 105.147 29.2812L 101.209 29.2812L 100.42 32L 97.975 32L 101.686 20.5312L 104.647 20.5312L 108.373 32L 105.928 32ZM 104.584 27.25L 103.85 24.75C 103.819 24.6562 103.772 24.5026 103.709 24.2891C 103.647 24.0755 103.579 23.8411 103.506 23.5859C 103.439 23.3255 103.373 23.0651 103.311 22.8047C 103.248 22.5443 103.204 22.3229 103.178 22.1406C 103.157 22.2552 103.129 22.3906 103.092 22.5469C 103.061 22.7031 103.022 22.8698 102.975 23.0469C 102.933 23.2188 102.889 23.3932 102.842 23.5703C 102.795 23.7474 102.751 23.9141 102.709 24.0703C 102.668 24.2266 102.629 24.3646 102.592 24.4844C 102.561 24.6042 102.538 24.6927 102.522 24.75L 101.795 27.25L 104.584 27.25ZM 113.521 25.6484L 114.177 25.6484C 114.849 25.6484 115.331 25.5156 115.622 25.25C 115.914 24.9792 116.06 24.5833 116.06 24.0625C 116.06 23.5208 115.903 23.1354 115.591 22.9062C 115.278 22.6771 114.794 22.5625 114.138 22.5625L 113.521 22.5625L 113.521 25.6484ZM 113.521 27.6172L 113.521 32L 111.099 32L 111.099 20.5781L 114.224 20.5781C 115.687 20.5781 116.768 20.862 117.466 21.4297C 118.164 21.9922 118.513 22.849 118.513 24C 118.513 24.3906 118.461 24.7448 118.357 25.0625C 118.252 25.3802 118.112 25.6641 117.935 25.9141C 117.763 26.1589 117.562 26.375 117.333 26.5625C 117.109 26.7448 116.872 26.8984 116.622 27.0234C 117.2 27.9505 117.719 28.7786 118.177 29.5078C 118.375 29.8203 118.565 30.125 118.747 30.4219C 118.935 30.7188 119.101 30.9844 119.247 31.2188C 119.393 31.4531 119.513 31.6406 119.607 31.7812L 119.739 32L 117.052 32L 114.575 27.6172L 113.521 27.6172ZM 137.628 26.2734C 137.628 27.1536 137.523 27.9557 137.315 28.6797C 137.112 29.4036 136.799 30.0234 136.378 30.5391C 135.956 31.0547 135.422 31.4531 134.776 31.7344C 134.135 32.0156 133.378 32.1562 132.503 32.1562C 131.628 32.1562 130.867 32.0156 130.221 31.7344C 129.581 31.4531 129.049 31.0547 128.628 30.5391C 128.211 30.0234 127.898 29.4036 127.69 28.6797C 127.487 27.9505 127.385 27.1432 127.385 26.2578C 127.385 25.3724 127.487 24.5703 127.69 23.8516C 127.898 23.1276 128.213 22.5104 128.635 22C 129.057 21.4896 129.588 21.0964 130.229 20.8203C 130.875 20.5391 131.638 20.3984 132.518 20.3984C 133.393 20.3984 134.151 20.5391 134.792 20.8203C 135.432 21.0964 135.961 21.4922 136.378 22.0078C 136.799 22.5182 137.112 23.1354 137.315 23.8594C 137.523 24.5781 137.628 25.3828 137.628 26.2734ZM 129.878 26.2734C 129.878 26.8724 129.93 27.4115 130.034 27.8906C 130.138 28.3646 130.297 28.7682 130.51 29.1016C 130.729 29.4297 131.003 29.6823 131.331 29.8594C 131.659 30.0365 132.049 30.125 132.503 30.125C 132.966 30.125 133.362 30.0365 133.69 29.8594C 134.023 29.6823 134.294 29.4297 134.503 29.1016C 134.716 28.7682 134.872 28.3646 134.971 27.8906C 135.075 27.4115 135.128 26.8724 135.128 26.2734C 135.128 25.6745 135.075 25.138 134.971 24.6641C 134.872 24.1849 134.716 23.7786 134.503 23.4453C 134.294 23.112 134.026 22.8568 133.698 22.6797C 133.37 22.5026 132.976 22.4141 132.518 22.4141C 132.065 22.4141 131.672 22.5026 131.338 22.6797C 131.005 22.8568 130.729 23.112 130.51 23.4453C 130.297 23.7786 130.138 24.1849 130.034 24.6641C 129.93 25.138 129.878 25.6745 129.878 26.2734ZM 144.947 32L 142.533 32L 142.533 22.5938L 139.665 22.5938L 139.665 20.5781L 147.806 20.5781L 147.806 22.5938L 144.947 22.5938L 144.947 32ZM 153.266 25.6484L 153.922 25.6484C 154.594 25.6484 155.076 25.5156 155.367 25.25C 155.659 24.9792 155.805 24.5833 155.805 24.0625C 155.805 23.5208 155.648 23.1354 155.336 22.9062C 155.023 22.6771 154.539 22.5625 153.883 22.5625L 153.266 22.5625L 153.266 25.6484ZM 153.266 27.6172L 153.266 32L 150.844 32L 150.844 20.5781L 153.969 20.5781C 155.432 20.5781 156.513 20.862 157.211 21.4297C 157.909 21.9922 158.258 22.849 158.258 24C 158.258 24.3906 158.206 24.7448 158.102 25.0625C 157.997 25.3802 157.857 25.6641 157.68 25.9141C 157.508 26.1589 157.307 26.375 157.078 26.5625C 156.854 26.7448 156.617 26.8984 156.367 27.0234C 156.945 27.9505 157.464 28.7786 157.922 29.5078C 158.12 29.8203 158.31 30.125 158.492 30.4219C 158.68 30.7188 158.846 30.9844 158.992 31.2188C 159.138 31.4531 159.258 31.6406 159.352 31.7812L 159.484 32L 156.797 32L 154.32 27.6172L 153.266 27.6172ZM 168.717 32L 167.936 29.2812L 163.999 29.2812L 163.21 32L 160.764 32L 164.475 20.5312L 167.436 20.5312L 171.163 32L 168.717 32ZM 167.374 27.25L 166.639 24.75C 166.608 24.6562 166.561 24.5026 166.499 24.2891C 166.436 24.0755 166.369 23.8411 166.296 23.5859C 166.228 23.3255 166.163 23.0651 166.1 22.8047C 166.038 22.5443 165.994 22.3229 165.967 22.1406C 165.947 22.2552 165.918 22.3906 165.882 22.5469C 165.85 22.7031 165.811 22.8698 165.764 23.0469C 165.723 23.2188 165.678 23.3932 165.632 23.5703C 165.585 23.7474 165.54 23.9141 165.499 24.0703C 165.457 24.2266 165.418 24.3646 165.382 24.4844C 165.35 24.6042 165.327 24.6927 165.311 24.75L 164.585 27.25L 167.374 27.25ZM 184.176 22.4297C 183.712 22.4297 183.301 22.5208 182.942 22.7031C 182.587 22.8802 182.288 23.138 182.043 23.4766C 181.804 23.8099 181.621 24.2188 181.496 24.7031C 181.371 25.1823 181.309 25.7214 181.309 26.3203C 181.309 26.9297 181.363 27.4714 181.473 27.9453C 181.587 28.4193 181.759 28.8203 181.988 29.1484C 182.223 29.4714 182.52 29.7188 182.879 29.8906C 183.244 30.0573 183.676 30.1406 184.176 30.1406C 184.639 30.1406 185.103 30.0885 185.567 29.9844C 186.035 29.8802 186.543 29.7318 187.09 29.5391L 187.09 31.5703C 186.84 31.6745 186.593 31.763 186.348 31.8359C 186.103 31.9089 185.853 31.9688 185.598 32.0156C 185.343 32.0625 185.08 32.0964 184.809 32.1172C 184.543 32.1432 184.257 32.1562 183.949 32.1562C 183.069 32.1562 182.306 32.0156 181.66 31.7344C 181.014 31.4531 180.481 31.0573 180.059 30.5469C 179.637 30.0365 179.324 29.4219 179.121 28.7031C 178.918 27.9844 178.817 27.1849 178.817 26.3047C 178.817 25.4401 178.934 24.6484 179.168 23.9297C 179.402 23.2057 179.746 22.5833 180.199 22.0625C 180.652 21.5417 181.212 21.138 181.879 20.8516C 182.546 20.5599 183.311 20.4141 184.176 20.4141C 184.744 20.4141 185.311 20.487 185.879 20.6328C 186.452 20.7734 186.999 20.9688 187.52 21.2188L 186.738 23.1875C 186.311 22.9844 185.882 22.8073 185.449 22.6562C 185.017 22.5052 184.593 22.4297 184.176 22.4297ZM 197.323 32L 196.542 29.2812L 192.604 29.2812L 191.815 32L 189.37 32L 193.081 20.5312L 196.042 20.5312L 199.768 32L 197.323 32ZM 195.979 27.25L 195.245 24.75C 195.214 24.6562 195.167 24.5026 195.104 24.2891C 195.042 24.0755 194.974 23.8411 194.901 23.5859C 194.834 23.3255 194.768 23.0651 194.706 22.8047C 194.643 22.5443 194.599 22.3229 194.573 22.1406C 194.552 22.2552 194.524 22.3906 194.487 22.5469C 194.456 22.7031 194.417 22.8698 194.37 23.0469C 194.328 23.2188 194.284 23.3932 194.237 23.5703C 194.19 23.7474 194.146 23.9141 194.104 24.0703C 194.063 24.2266 194.024 24.3646 193.987 24.4844C 193.956 24.6042 193.932 24.6927 193.917 24.75L 193.19 27.25L 195.979 27.25ZM 212.142 32L 209.072 32L 204.58 23.3594L 204.509 23.3594C 204.541 23.7604 204.567 24.1589 204.587 24.5547C 204.608 24.8932 204.624 25.25 204.634 25.625C 204.65 25.9948 204.658 26.3281 204.658 26.625L 204.658 32L 202.494 32L 202.494 20.5781L 205.548 20.5781L 210.033 29.1328L 210.08 29.1328C 210.064 28.737 210.046 28.3464 210.025 27.9609C 210.02 27.7943 210.012 27.625 210.002 27.4531C 209.996 27.276 209.991 27.1016 209.986 26.9297C 209.981 26.7526 209.976 26.5833 209.97 26.4219C 209.97 26.2604 209.97 26.1146 209.97 25.9844L 209.97 20.5781L 212.142 20.5781L 212.142 32ZM 220.469 32L 218.055 32L 218.055 22.5938L 215.188 22.5938L 215.188 20.5781L 223.328 20.5781L 223.328 22.5938L 220.469 22.5938L 220.469 32ZM 230.64 32L 225.444 32L 225.444 30.625L 226.835 29.9844L 226.835 22.5938L 225.444 21.9531L 225.444 20.5781L 230.64 20.5781L 230.64 21.9531L 229.249 22.5938L 229.249 29.9844L 230.64 30.625L 230.64 32ZM 242.717 26.1797C 242.717 27.1432 242.584 27.9896 242.318 28.7188C 242.058 29.4427 241.677 30.0495 241.177 30.5391C 240.683 31.0234 240.073 31.388 239.349 31.6328C 238.631 31.8776 237.81 32 236.888 32L 233.881 32L 233.881 20.5781L 237.224 20.5781C 238.063 20.5781 238.818 20.6979 239.49 20.9375C 240.167 21.1771 240.745 21.5339 241.224 22.0078C 241.704 22.4766 242.071 23.0599 242.326 23.7578C 242.586 24.4557 242.717 25.263 242.717 26.1797ZM 240.263 26.2422C 240.263 25.6068 240.198 25.0599 240.068 24.6016C 239.943 24.138 239.758 23.7552 239.513 23.4531C 239.274 23.151 238.977 22.9271 238.623 22.7812C 238.274 22.6354 237.873 22.5625 237.42 22.5625L 236.302 22.5625L 236.302 30L 237.193 30C 238.214 30 238.98 29.6875 239.49 29.0625C 240.006 28.4375 240.263 27.4974 240.263 26.2422ZM 252.723 32L 251.942 29.2812L 248.004 29.2812L 247.215 32L 244.77 32L 248.481 20.5312L 251.442 20.5312L 255.168 32L 252.723 32ZM 251.379 27.25L 250.645 24.75C 250.614 24.6562 250.567 24.5026 250.504 24.2891C 250.442 24.0755 250.374 23.8411 250.301 23.5859C 250.234 23.3255 250.168 23.0651 250.106 22.8047C 250.043 22.5443 249.999 22.3229 249.973 22.1406C 249.952 22.2552 249.924 22.3906 249.887 22.5469C 249.856 22.7031 249.817 22.8698 249.77 23.0469C 249.728 23.2188 249.684 23.3932 249.637 23.5703C 249.59 23.7474 249.546 23.9141 249.504 24.0703C 249.463 24.2266 249.424 24.3646 249.387 24.4844C 249.356 24.6042 249.332 24.6927 249.317 24.75L 248.59 27.25L 251.379 27.25ZM 266.73 26.1797C 266.73 27.1432 266.597 27.9896 266.331 28.7188C 266.071 29.4427 265.691 30.0495 265.191 30.5391C 264.696 31.0234 264.086 31.388 263.362 31.6328C 262.644 31.8776 261.823 32 260.902 32L 257.894 32L 257.894 20.5781L 261.237 20.5781C 262.076 20.5781 262.831 20.6979 263.503 20.9375C 264.18 21.1771 264.758 21.5339 265.237 22.0078C 265.717 22.4766 266.084 23.0599 266.339 23.7578C 266.599 24.4557 266.73 25.263 266.73 26.1797ZM 264.277 26.2422C 264.277 25.6068 264.211 25.0599 264.081 24.6016C 263.956 24.138 263.771 23.7552 263.527 23.4531C 263.287 23.151 262.99 22.9271 262.636 22.7812C 262.287 22.6354 261.886 22.5625 261.433 22.5625L 260.316 22.5625L 260.316 30L 261.206 30C 262.227 30 262.993 29.6875 263.503 29.0625C 264.019 28.4375 264.277 27.4974 264.277 26.2422Z"/>
<path id="path4_fill" d="M 0 4C 0 1.79086 1.79086 0 4 0L 296 0C 298.209 0 300 1.79086 300 4L 300 48C 300 50.2091 298.209 52 296 52L 4 52C 1.79086 52 0 50.2091 0 48L 0 4Z"/>
<path id="path5_stroke_2x" d="M 4 1L 296 1L 296 -1L 4 -1L 4 1ZM 299 4L 299 48L 301 48L 301 4L 299 4ZM 296 51L 4 51L 4 53L 296 53L 296 51ZM 1 48L 1 4L -1 4L -1 48L 1 48ZM 4 -1C 1.23858 -1 -1 1.23858 -1 4L 1 4C 1 2.34315 2.34315 1 4 1L 4 -1ZM 296 1C 297.657 1 299 2.34315 299 4L 301 4C 301 1.23858 298.761 -1 296 -1L 296 1ZM 299 48C 299 49.6569 297.657 51 296 51L 296 53C 298.761 53 301 50.7614 301 48L 299 48ZM 4 51C 2.34315 51 1 49.6569 1 48L -1 48C -1 50.7614 1.23858 53 4 53L 4 51Z"/>
<path id="path6_fill" d="M 15.8906 28.8281C 15.8906 29.3385 15.8021 29.7995 15.625 30.2109C 15.4531 30.6172 15.1979 30.9661 14.8594 31.2578C 14.526 31.5443 14.1146 31.7656 13.625 31.9219C 13.1406 32.0781 12.5833 32.1562 11.9531 32.1562C 11.401 32.1562 10.8672 32.099 10.3516 31.9844C 9.84115 31.8698 9.36719 31.6979 8.92969 31.4688L 8.92969 29.2188C 9.17969 29.3385 9.43229 29.4557 9.6875 29.5703C 9.94271 29.6797 10.2005 29.7786 10.4609 29.8672C 10.7266 29.9557 10.9896 30.026 11.25 30.0781C 11.5156 30.1302 11.7786 30.1562 12.0391 30.1562C 12.3047 30.1562 12.5312 30.1276 12.7188 30.0703C 12.9115 30.0078 13.0651 29.9245 13.1797 29.8203C 13.2995 29.7109 13.3854 29.5833 13.4375 29.4375C 13.4948 29.2865 13.5234 29.1224 13.5234 28.9453C 13.5234 28.7318 13.4766 28.5443 13.3828 28.3828C 13.2943 28.2161 13.1667 28.0625 13 27.9219C 12.8385 27.776 12.6406 27.6354 12.4062 27.5C 12.1771 27.3646 11.9193 27.2214 11.6328 27.0703C 11.3932 26.9453 11.125 26.7943 10.8281 26.6172C 10.5312 26.4401 10.25 26.2214 9.98438 25.9609C 9.72396 25.6953 9.50521 25.3776 9.32812 25.0078C 9.15104 24.6328 9.0625 24.1849 9.0625 23.6641C 9.0625 23.1536 9.14583 22.6979 9.3125 22.2969C 9.48438 21.8906 9.72656 21.5495 10.0391 21.2734C 10.3516 20.9922 10.7292 20.7786 11.1719 20.6328C 11.6198 20.487 12.1198 20.4141 12.6719 20.4141C 12.9479 20.4141 13.2161 20.4323 13.4766 20.4688C 13.7422 20.5052 14.0026 20.5573 14.2578 20.625C 14.5182 20.6927 14.7786 20.776 15.0391 20.875C 15.2995 20.974 15.5677 21.0885 15.8438 21.2188L 15.0625 23.1016C 14.8281 22.9922 14.6094 22.8958 14.4062 22.8125C 14.2031 22.7292 14.0052 22.6589 13.8125 22.6016C 13.6198 22.5443 13.4297 22.5026 13.2422 22.4766C 13.0599 22.4453 12.875 22.4297 12.6875 22.4297C 12.2812 22.4297 11.9688 22.5391 11.75 22.7578C 11.5365 22.9714 11.4297 23.2578 11.4297 23.6172C 11.4297 23.8099 11.4609 23.9818 11.5234 24.1328C 11.5911 24.2786 11.6953 24.4167 11.8359 24.5469C 11.9818 24.6771 12.1667 24.8099 12.3906 24.9453C 12.6198 25.0807 12.8958 25.2344 13.2188 25.4062C 13.6094 25.6146 13.9688 25.8281 14.2969 26.0469C 14.625 26.2604 14.9062 26.5 15.1406 26.7656C 15.3802 27.026 15.5651 27.3229 15.6953 27.6562C 15.8255 27.9896 15.8906 28.3802 15.8906 28.8281ZM 25.4016 32L 18.8234 32L 18.8234 20.5781L 25.4016 20.5781L 25.4016 22.5625L 21.2453 22.5625L 21.2453 25.0703L 25.1125 25.0703L 25.1125 27.0547L 21.2453 27.0547L 21.2453 30L 25.4016 30L 25.4016 32ZM 28.5922 32L 28.5922 20.5781L 31.0141 20.5781L 31.0141 30L 35.1703 30L 35.1703 32L 28.5922 32ZM 44.5328 32L 37.9547 32L 37.9547 20.5781L 44.5328 20.5781L 44.5328 22.5625L 40.3766 22.5625L 40.3766 25.0703L 44.2438 25.0703L 44.2438 27.0547L 40.3766 27.0547L 40.3766 30L 44.5328 30L 44.5328 32ZM 52.575 22.4297C 52.1115 22.4297 51.7 22.5208 51.3406 22.7031C 50.9865 22.8802 50.687 23.138 50.4422 23.4766C 50.2026 23.8099 50.0203 24.2188 49.8953 24.7031C 49.7703 25.1823 49.7078 25.7214 49.7078 26.3203C 49.7078 26.9297 49.7625 27.4714 49.8719 27.9453C 49.9865 28.4193 50.1583 28.8203 50.3875 29.1484C 50.6219 29.4714 50.9188 29.7188 51.2781 29.8906C 51.6427 30.0573 52.075 30.1406 52.575 30.1406C 53.0385 30.1406 53.5021 30.0885 53.9656 29.9844C 54.4344 29.8802 54.9422 29.7318 55.4891 29.5391L 55.4891 31.5703C 55.2391 31.6745 54.9917 31.763 54.7469 31.8359C 54.5021 31.9089 54.2521 31.9688 53.9969 32.0156C 53.7417 32.0625 53.4786 32.0964 53.2078 32.1172C 52.9422 32.1432 52.6557 32.1562 52.3484 32.1562C 51.4682 32.1562 50.7052 32.0156 50.0594 31.7344C 49.4135 31.4531 48.8797 31.0573 48.4578 30.5469C 48.0359 30.0365 47.7234 29.4219 47.5203 28.7031C 47.3172 27.9844 47.2156 27.1849 47.2156 26.3047C 47.2156 25.4401 47.3328 24.6484 47.5672 23.9297C 47.8016 23.2057 48.1453 22.5833 48.5984 22.0625C 49.0516 21.5417 49.6115 21.138 50.2781 20.8516C 50.9448 20.5599 51.7104 20.4141 52.575 20.4141C 53.1427 20.4141 53.7104 20.487 54.2781 20.6328C 54.851 20.7734 55.3979 20.9688 55.9188 21.2188L 55.1375 23.1875C 54.7104 22.9844 54.2807 22.8073 53.8484 22.6562C 53.4161 22.5052 52.9917 22.4297 52.575 22.4297ZM 63.25 22.4297C 62.7865 22.4297 62.375 22.5208 62.0156 22.7031C 61.6615 22.8802 61.362 23.138 61.1172 23.4766C 60.8776 23.8099 60.6953 24.2188 60.5703 24.7031C 60.4453 25.1823 60.3828 25.7214 60.3828 26.3203C 60.3828 26.9297 60.4375 27.4714 60.5469 27.9453C 60.6615 28.4193 60.8333 28.8203 61.0625 29.1484C 61.2969 29.4714 61.5938 29.7188 61.9531 29.8906C 62.3177 30.0573 62.75 30.1406 63.25 30.1406C 63.7135 30.1406 64.1771 30.0885 64.6406 29.9844C 65.1094 29.8802 65.6172 29.7318 66.1641 29.5391L 66.1641 31.5703C 65.9141 31.6745 65.6667 31.763 65.4219 31.8359C 65.1771 31.9089 64.9271 31.9688 64.6719 32.0156C 64.4167 32.0625 64.1536 32.0964 63.8828 32.1172C 63.6172 32.1432 63.3307 32.1562 63.0234 32.1562C 62.1432 32.1562 61.3802 32.0156 60.7344 31.7344C 60.0885 31.4531 59.5547 31.0573 59.1328 30.5469C 58.7109 30.0365 58.3984 29.4219 58.1953 28.7031C 57.9922 27.9844 57.8906 27.1849 57.8906 26.3047C 57.8906 25.4401 58.0078 24.6484 58.2422 23.9297C 58.4766 23.2057 58.8203 22.5833 59.2734 22.0625C 59.7266 21.5417 60.2865 21.138 60.9531 20.8516C 61.6198 20.5599 62.3854 20.4141 63.25 20.4141C 63.8177 20.4141 64.3854 20.487 64.9531 20.6328C 65.526 20.7734 66.0729 20.9688 66.5938 21.2188L 65.8125 23.1875C 65.3854 22.9844 64.9557 22.8073 64.5234 22.6562C 64.0911 22.5052 63.6667 22.4297 63.25 22.4297ZM 73.675 32L 68.4797 32L 68.4797 30.625L 69.8703 29.9844L 69.8703 22.5938L 68.4797 21.9531L 68.4797 20.5781L 73.675 20.5781L 73.675 21.9531L 72.2844 22.5938L 72.2844 29.9844L 73.675 30.625L 73.675 32ZM 86.0141 26.2734C 86.0141 27.1536 85.9099 27.9557 85.7016 28.6797C 85.4984 29.4036 85.1859 30.0234 84.7641 30.5391C 84.3422 31.0547 83.8083 31.4531 83.1625 31.7344C 82.5219 32.0156 81.7641 32.1562 80.8891 32.1562C 80.0141 32.1562 79.2536 32.0156 78.6078 31.7344C 77.9672 31.4531 77.4359 31.0547 77.0141 30.5391C 76.5974 30.0234 76.2849 29.4036 76.0766 28.6797C 75.8734 27.9505 75.7719 27.1432 75.7719 26.2578C 75.7719 25.3724 75.8734 24.5703 76.0766 23.8516C 76.2849 23.1276 76.6 22.5104 77.0219 22C 77.4437 21.4896 77.975 21.0964 78.6156 20.8203C 79.2615 20.5391 80.0245 20.3984 80.9047 20.3984C 81.7797 20.3984 82.5375 20.5391 83.1781 20.8203C 83.8187 21.0964 84.3474 21.4922 84.7641 22.0078C 85.1859 22.5182 85.4984 23.1354 85.7016 23.8594C 85.9099 24.5781 86.0141 25.3828 86.0141 26.2734ZM 78.2641 26.2734C 78.2641 26.8724 78.3161 27.4115 78.4203 27.8906C 78.5245 28.3646 78.6833 28.7682 78.8969 29.1016C 79.1156 29.4297 79.3891 29.6823 79.7172 29.8594C 80.0453 30.0365 80.4359 30.125 80.8891 30.125C 81.3526 30.125 81.7484 30.0365 82.0766 29.8594C 82.4099 29.6823 82.6807 29.4297 82.8891 29.1016C 83.1026 28.7682 83.2589 28.3646 83.3578 27.8906C 83.462 27.4115 83.5141 26.8724 83.5141 26.2734C 83.5141 25.6745 83.462 25.138 83.3578 24.6641C 83.2589 24.1849 83.1026 23.7786 82.8891 23.4453C 82.6807 23.112 82.4125 22.8568 82.0844 22.6797C 81.7562 22.5026 81.363 22.4141 80.9047 22.4141C 80.4516 22.4141 80.0583 22.5026 79.725 22.6797C 79.3917 22.8568 79.1156 23.112 78.8969 23.4453C 78.6833 23.7786 78.5245 24.1849 78.4203 24.6641C 78.3161 25.138 78.2641 25.6745 78.2641 26.2734ZM 98.8219 32L 95.7516 32L 91.2594 23.3594L 91.1891 23.3594C 91.2203 23.7604 91.2464 24.1589 91.2672 24.5547C 91.288 24.8932 91.3036 25.25 91.3141 25.625C 91.3297 25.9948 91.3375 26.3281 91.3375 26.625L 91.3375 32L 89.1734 32L 89.1734 20.5781L 92.2281 20.5781L 96.7125 29.1328L 96.7594 29.1328C 96.7438 28.737 96.7255 28.3464 96.7047 27.9609C 96.6995 27.7943 96.6917 27.625 96.6813 27.4531C 96.676 27.276 96.6708 27.1016 96.6656 26.9297C 96.6604 26.7526 96.6552 26.5833 96.65 26.4219C 96.65 26.2604 96.65 26.1146 96.65 25.9844L 96.65 20.5781L 98.8219 20.5781L 98.8219 32ZM 109.02 32L 108.239 29.2812L 104.302 29.2812L 103.513 32L 101.067 32L 104.778 20.5312L 107.739 20.5312L 111.466 32L 109.02 32ZM 107.677 27.25L 106.942 24.75C 106.911 24.6562 106.864 24.5026 106.802 24.2891C 106.739 24.0755 106.671 23.8411 106.598 23.5859C 106.531 23.3255 106.466 23.0651 106.403 22.8047C 106.341 22.5443 106.296 22.3229 106.27 22.1406C 106.249 22.2552 106.221 22.3906 106.184 22.5469C 106.153 22.7031 106.114 22.8698 106.067 23.0469C 106.026 23.2188 105.981 23.3932 105.934 23.5703C 105.888 23.7474 105.843 23.9141 105.802 24.0703C 105.76 24.2266 105.721 24.3646 105.684 24.4844C 105.653 24.6042 105.63 24.6927 105.614 24.75L 104.888 27.25L 107.677 27.25ZM 116.133 25.6484L 116.789 25.6484C 117.461 25.6484 117.943 25.5156 118.234 25.25C 118.526 24.9792 118.672 24.5833 118.672 24.0625C 118.672 23.5208 118.516 23.1354 118.203 22.9062C 117.891 22.6771 117.406 22.5625 116.75 22.5625L 116.133 22.5625L 116.133 25.6484ZM 116.133 27.6172L 116.133 32L 113.711 32L 113.711 20.5781L 116.836 20.5781C 118.299 20.5781 119.38 20.862 120.078 21.4297C 120.776 21.9922 121.125 22.849 121.125 24C 121.125 24.3906 121.073 24.7448 120.969 25.0625C 120.865 25.3802 120.724 25.6641 120.547 25.9141C 120.375 26.1589 120.174 26.375 119.945 26.5625C 119.721 26.7448 119.484 26.8984 119.234 27.0234C 119.812 27.9505 120.331 28.7786 120.789 29.5078C 120.987 29.8203 121.177 30.125 121.359 30.4219C 121.547 30.7188 121.714 30.9844 121.859 31.2188C 122.005 31.4531 122.125 31.6406 122.219 31.7812L 122.352 32L 119.664 32L 117.188 27.6172L 116.133 27.6172ZM 139.28 26.2734C 139.28 27.1536 139.176 27.9557 138.967 28.6797C 138.764 29.4036 138.452 30.0234 138.03 30.5391C 137.608 31.0547 137.074 31.4531 136.428 31.7344C 135.788 32.0156 135.03 32.1562 134.155 32.1562C 133.28 32.1562 132.519 32.0156 131.873 31.7344C 131.233 31.4531 130.702 31.0547 130.28 30.5391C 129.863 30.0234 129.551 29.4036 129.342 28.6797C 129.139 27.9505 129.038 27.1432 129.038 26.2578C 129.038 25.3724 129.139 24.5703 129.342 23.8516C 129.551 23.1276 129.866 22.5104 130.288 22C 130.709 21.4896 131.241 21.0964 131.881 20.8203C 132.527 20.5391 133.29 20.3984 134.17 20.3984C 135.045 20.3984 135.803 20.5391 136.444 20.8203C 137.084 21.0964 137.613 21.4922 138.03 22.0078C 138.452 22.5182 138.764 23.1354 138.967 23.8594C 139.176 24.5781 139.28 25.3828 139.28 26.2734ZM 131.53 26.2734C 131.53 26.8724 131.582 27.4115 131.686 27.8906C 131.79 28.3646 131.949 28.7682 132.163 29.1016C 132.381 29.4297 132.655 29.6823 132.983 29.8594C 133.311 30.0365 133.702 30.125 134.155 30.125C 134.618 30.125 135.014 30.0365 135.342 29.8594C 135.676 29.6823 135.946 29.4297 136.155 29.1016C 136.368 28.7682 136.524 28.3646 136.623 27.8906C 136.728 27.4115 136.78 26.8724 136.78 26.2734C 136.78 25.6745 136.728 25.138 136.623 24.6641C 136.524 24.1849 136.368 23.7786 136.155 23.4453C 135.946 23.112 135.678 22.8568 135.35 22.6797C 135.022 22.5026 134.629 22.4141 134.17 22.4141C 133.717 22.4141 133.324 22.5026 132.991 22.6797C 132.657 22.8568 132.381 23.112 132.163 23.4453C 131.949 23.7786 131.79 24.1849 131.686 24.6641C 131.582 25.138 131.53 25.6745 131.53 26.2734ZM 146.119 32L 143.705 32L 143.705 22.5938L 140.838 22.5938L 140.838 20.5781L 148.978 20.5781L 148.978 22.5938L 146.119 22.5938L 146.119 32ZM 153.958 25.6484L 154.614 25.6484C 155.286 25.6484 155.768 25.5156 156.059 25.25C 156.351 24.9792 156.497 24.5833 156.497 24.0625C 156.497 23.5208 156.341 23.1354 156.028 22.9062C 155.716 22.6771 155.231 22.5625 154.575 22.5625L 153.958 22.5625L 153.958 25.6484ZM 153.958 27.6172L 153.958 32L 151.536 32L 151.536 20.5781L 154.661 20.5781C 156.124 20.5781 157.205 20.862 157.903 21.4297C 158.601 21.9922 158.95 22.849 158.95 24C 158.95 24.3906 158.898 24.7448 158.794 25.0625C 158.69 25.3802 158.549 25.6641 158.372 25.9141C 158.2 26.1589 157.999 26.375 157.77 26.5625C 157.546 26.7448 157.309 26.8984 157.059 27.0234C 157.637 27.9505 158.156 28.7786 158.614 29.5078C 158.812 29.8203 159.002 30.125 159.184 30.4219C 159.372 30.7188 159.539 30.9844 159.684 31.2188C 159.83 31.4531 159.95 31.6406 160.044 31.7812L 160.177 32L 157.489 32L 155.012 27.6172L 153.958 27.6172ZM 172.148 26.2734C 172.148 27.1536 172.044 27.9557 171.836 28.6797C 171.633 29.4036 171.32 30.0234 170.898 30.5391C 170.477 31.0547 169.943 31.4531 169.297 31.7344C 168.656 32.0156 167.898 32.1562 167.023 32.1562C 166.148 32.1562 165.388 32.0156 164.742 31.7344C 164.102 31.4531 163.57 31.0547 163.148 30.5391C 162.732 30.0234 162.419 29.4036 162.211 28.6797C 162.008 27.9505 161.906 27.1432 161.906 26.2578C 161.906 25.3724 162.008 24.5703 162.211 23.8516C 162.419 23.1276 162.734 22.5104 163.156 22C 163.578 21.4896 164.109 21.0964 164.75 20.8203C 165.396 20.5391 166.159 20.3984 167.039 20.3984C 167.914 20.3984 168.672 20.5391 169.312 20.8203C 169.953 21.0964 170.482 21.4922 170.898 22.0078C 171.32 22.5182 171.633 23.1354 171.836 23.8594C 172.044 24.5781 172.148 25.3828 172.148 26.2734ZM 164.398 26.2734C 164.398 26.8724 164.451 27.4115 164.555 27.8906C 164.659 28.3646 164.818 28.7682 165.031 29.1016C 165.25 29.4297 165.523 29.6823 165.852 29.8594C 166.18 30.0365 166.57 30.125 167.023 30.125C 167.487 30.125 167.883 30.0365 168.211 29.8594C 168.544 29.6823 168.815 29.4297 169.023 29.1016C 169.237 28.7682 169.393 28.3646 169.492 27.8906C 169.596 27.4115 169.648 26.8724 169.648 26.2734C 169.648 25.6745 169.596 25.138 169.492 24.6641C 169.393 24.1849 169.237 23.7786 169.023 23.4453C 168.815 23.112 168.547 22.8568 168.219 22.6797C 167.891 22.5026 167.497 22.4141 167.039 22.4141C 166.586 22.4141 166.193 22.5026 165.859 22.6797C 165.526 22.8568 165.25 23.112 165.031 23.4453C 164.818 23.7786 164.659 24.1849 164.555 24.6641C 164.451 25.138 164.398 25.6745 164.398 26.2734ZM 186.139 20.5781L 188.584 20.5781L 185.022 32L 182.381 32L 178.827 20.5781L 181.272 20.5781L 183.209 27.4531C 183.235 27.5417 183.269 27.6901 183.311 27.8984C 183.358 28.1068 183.405 28.3359 183.452 28.5859C 183.504 28.8359 183.553 29.0859 183.6 29.3359C 183.647 29.5859 183.683 29.7969 183.709 29.9688C 183.735 29.7969 183.772 29.5859 183.819 29.3359C 183.866 29.0859 183.915 28.8385 183.967 28.5938C 184.019 28.3438 184.069 28.1146 184.116 27.9062C 184.168 27.6979 184.207 27.5469 184.233 27.4531L 186.139 20.5781ZM 197.408 32L 190.83 32L 190.83 20.5781L 197.408 20.5781L 197.408 22.5625L 193.252 22.5625L 193.252 25.0703L 197.119 25.0703L 197.119 27.0547L 193.252 27.0547L 193.252 30L 197.408 30L 197.408 32ZM 209.317 32L 206.903 32L 206.903 27.0703L 203.02 27.0703L 203.02 32L 200.598 32L 200.598 20.5781L 203.02 20.5781L 203.02 25.0547L 206.903 25.0547L 206.903 20.5781L 209.317 20.5781L 209.317 32ZM 217.281 32L 212.086 32L 212.086 30.625L 213.477 29.9844L 213.477 22.5938L 212.086 21.9531L 212.086 20.5781L 217.281 20.5781L 217.281 21.9531L 215.891 22.5938L 215.891 29.9844L 217.281 30.625L 217.281 32ZM 213.422 19.6641L 213.422 19.4531C 213.531 19.3021 213.648 19.1276 213.773 18.9297C 213.898 18.7318 214.021 18.5286 214.141 18.3203C 214.266 18.1068 214.383 17.8958 214.492 17.6875C 214.602 17.474 214.698 17.2786 214.781 17.1016L 217.453 17.1016L 217.453 17.2656C 217.396 17.3594 217.312 17.4714 217.203 17.6016C 217.094 17.7266 216.969 17.862 216.828 18.0078C 216.688 18.1536 216.536 18.3047 216.375 18.4609C 216.214 18.612 216.049 18.7604 215.883 18.9062C 215.721 19.0521 215.565 19.1901 215.414 19.3203C 215.263 19.4505 215.128 19.5651 215.008 19.6641L 213.422 19.6641ZM 224.738 22.4297C 224.274 22.4297 223.863 22.5208 223.503 22.7031C 223.149 22.8802 222.849 23.138 222.605 23.4766C 222.365 23.8099 222.183 24.2188 222.058 24.7031C 221.933 25.1823 221.87 25.7214 221.87 26.3203C 221.87 26.9297 221.925 27.4714 222.034 27.9453C 222.149 28.4193 222.321 28.8203 222.55 29.1484C 222.784 29.4714 223.081 29.7188 223.441 29.8906C 223.805 30.0573 224.238 30.1406 224.738 30.1406C 225.201 30.1406 225.665 30.0885 226.128 29.9844C 226.597 29.8802 227.105 29.7318 227.652 29.5391L 227.652 31.5703C 227.402 31.6745 227.154 31.763 226.909 31.8359C 226.665 31.9089 226.415 31.9688 226.159 32.0156C 225.904 32.0625 225.641 32.0964 225.37 32.1172C 225.105 32.1432 224.818 32.1562 224.511 32.1562C 223.631 32.1562 222.868 32.0156 222.222 31.7344C 221.576 31.4531 221.042 31.0573 220.62 30.5469C 220.198 30.0365 219.886 29.4219 219.683 28.7031C 219.48 27.9844 219.378 27.1849 219.378 26.3047C 219.378 25.4401 219.495 24.6484 219.73 23.9297C 219.964 23.2057 220.308 22.5833 220.761 22.0625C 221.214 21.5417 221.774 21.138 222.441 20.8516C 223.107 20.5599 223.873 20.4141 224.738 20.4141C 225.305 20.4141 225.873 20.487 226.441 20.6328C 227.014 20.7734 227.56 20.9688 228.081 21.2188L 227.3 23.1875C 226.873 22.9844 226.443 22.8073 226.011 22.6562C 225.579 22.5052 225.154 22.4297 224.738 22.4297ZM 239.545 20.5781L 239.545 27.9688C 239.545 28.5625 239.454 29.1146 239.272 29.625C 239.095 30.1354 238.821 30.5781 238.452 30.9531C 238.087 31.3281 237.629 31.6224 237.077 31.8359C 236.524 32.0495 235.876 32.1562 235.131 32.1562C 234.428 32.1562 233.806 32.0573 233.264 31.8594C 232.728 31.6562 232.277 31.3698 231.913 31C 231.553 30.6302 231.28 30.1875 231.092 29.6719C 230.905 29.151 230.811 28.5729 230.811 27.9375L 230.811 20.5781L 233.225 20.5781L 233.225 27.7578C 233.225 28.1797 233.267 28.5417 233.35 28.8438C 233.433 29.1406 233.556 29.3854 233.717 29.5781C 233.884 29.7656 234.09 29.9036 234.334 29.9922C 234.579 30.0807 234.866 30.125 235.194 30.125C 235.876 30.125 236.368 29.9271 236.67 29.5312C 236.978 29.1354 237.131 28.5391 237.131 27.7422L 237.131 20.5781L 239.545 20.5781ZM 243.142 32L 243.142 20.5781L 245.564 20.5781L 245.564 30L 249.72 30L 249.72 32L 243.142 32ZM 262.083 26.2734C 262.083 27.1536 261.979 27.9557 261.77 28.6797C 261.567 29.4036 261.255 30.0234 260.833 30.5391C 260.411 31.0547 259.877 31.4531 259.231 31.7344C 258.591 32.0156 257.833 32.1562 256.958 32.1562C 256.083 32.1562 255.322 32.0156 254.677 31.7344C 254.036 31.4531 253.505 31.0547 253.083 30.5391C 252.666 30.0234 252.354 29.4036 252.145 28.6797C 251.942 27.9505 251.841 27.1432 251.841 26.2578C 251.841 25.3724 251.942 24.5703 252.145 23.8516C 252.354 23.1276 252.669 22.5104 253.091 22C 253.513 21.4896 254.044 21.0964 254.684 20.8203C 255.33 20.5391 256.093 20.3984 256.973 20.3984C 257.848 20.3984 258.606 20.5391 259.247 20.8203C 259.888 21.0964 260.416 21.4922 260.833 22.0078C 261.255 22.5182 261.567 23.1354 261.77 23.8594C 261.979 24.5781 262.083 25.3828 262.083 26.2734ZM 254.333 26.2734C 254.333 26.8724 254.385 27.4115 254.489 27.8906C 254.593 28.3646 254.752 28.7682 254.966 29.1016C 255.184 29.4297 255.458 29.6823 255.786 29.8594C 256.114 30.0365 256.505 30.125 256.958 30.125C 257.421 30.125 257.817 30.0365 258.145 29.8594C 258.479 29.6823 258.749 29.4297 258.958 29.1016C 259.171 28.7682 259.328 28.3646 259.427 27.8906C 259.531 27.4115 259.583 26.8724 259.583 26.2734C 259.583 25.6745 259.531 25.138 259.427 24.6641C 259.328 24.1849 259.171 23.7786 258.958 23.4453C 258.749 23.112 258.481 22.8568 258.153 22.6797C 257.825 22.5026 257.432 22.4141 256.973 22.4141C 256.52 22.4141 256.127 22.5026 255.794 22.6797C 255.46 22.8568 255.184 23.112 254.966 23.4453C 254.752 23.7786 254.593 24.1849 254.489 24.6641C 254.385 25.138 254.333 25.6745 254.333 26.2734Z"/>
</defs>
</svg>
