<svg width="2880" height="200" viewBox="0 0 2880 200" version="1.1" xmlns="http://www.w3.org/2000/svg" xmlns:xlink="http://www.w3.org/1999/xlink">
<title>header</title>
<desc>Created using Figma</desc>
<g id="Canvas" transform="matrix(2 0 0 2 1440 1768)">
<g id="header">
<g id="Rectangle 9">
<use xlink:href="#path0_fill" transform="translate(-720 -884)" fill="#FFFFFF"/>
</g>
<g id="Gasolina Premium">
<use xlink:href="#path1_fill" transform="translate(298.5 -844)" fill="#424242"/>
</g>
<g id="199">
<use xlink:href="#path2_fill" transform="translate(469.5 -844)" fill="#50E592"/>
</g>
<g id="Gasolina Regular">
<use xlink:href="#path3_fill" transform="translate(27.5 -844)" fill="#424242"/>
</g>
<g id="197">
<use xlink:href="#path4_fill" transform="translate(189.5 -847)" fill="#E57450"/>
</g>
<g id="Info Btn">
<g id="Help Ph">
<mask id="mask0_outline_ins">
<use xlink:href="#path5_fill" fill="white" transform="translate(632 -855)"/>
</mask>
<g mask="url(#mask0_outline_ins)">
<use xlink:href="#path6_stroke_2x" transform="translate(632 -855)" fill="#E55050"/>
</g>
</g>
<g id="?">
<use xlink:href="#path7_fill" transform="translate(636 -852)" fill="#E55050"/>
</g>
</g>
<g id="Logo">
<g id="MIDAS">
<use xlink:href="#path8_fill" transform="translate(-663.81 -848)" fill="#E55050"/>
<use xlink:href="#path9_fill" transform="translate(-663.81 -848)" fill="#E55050"/>
<use xlink:href="#path10_fill" transform="translate(-663.81 -848)" fill="#E55050"/>
<use xlink:href="#path11_fill" transform="translate(-663.81 -848)" fill="#E55050"/>
<use xlink:href="#path12_fill" transform="translate(-663.81 -848)" fill="#E55050"/>
</g>
<g id="Rectangle 8">
<use xlink:href="#path13_fill" transform="translate(-503 -831)" fill="#E55050"/>
</g>
</g>
<g id="Polygon 3">
<use xlink:href="#path14_fill" transform="matrix(-1 4.02384e-16 -3.4018e-16 -1 462.5 -834)" fill="#50E592"/>
</g>
<g id="Polygon 3">
<use xlink:href="#path15_fill" transform="matrix(-1 4.02384e-16 -3.4018e-16 -1 462.5 -825)" fill="#50E592"/>
</g>
<g id="Polygon 3">
<use xlink:href="#path14_fill" transform="matrix(1 -2.79919e-16 2.17715e-16 1 167.5 -832)" fill="#E57450"/>
</g>
<g id="Polygon 3">
<use xlink:href="#path15_fill" transform="matrix(1 -2.79919e-16 2.17715e-16 1 167.5 -841)" fill="#E57450"/>
</g>
<g id="Line 4">
<use xlink:href="#path16_stroke" transform="matrix(6.12323e-17 1 -1 6.12323e-17 262.5 -847)" fill="#929292"/>
</g>
<g id="Line 4">
<use xlink:href="#path16_stroke" transform="matrix(6.12323e-17 1 -1 6.12323e-17 536 -847)" fill="#929292"/>
</g>
<g id="Profile btn">
<g id="Help Ph">
<use xlink:href="#path5_fill" transform="translate(561.5 -855)" fill="#5080E5"/>
</g>
<g id="CS">
<use xlink:href="#path17_fill" transform="translate(561.5 -855)" fill="#FFFFFF"/>
</g>
</g>
</g>
</g>
<defs>
<path id="path0_fill" d="M 0 0L 1440 0L 1440 100L 0 100L 0 0Z"/>
<path id="path1_fill" d="M 0.784 10.752C 0.784 14.176 2.752 16.192 5.504 16.192C 6.912 16.192 8.08 15.648 8.768 14.976L 8.768 10.56L 5.328 10.56L 5.328 11.664L 7.552 11.664L 7.552 14.4C 7.136 14.784 6.4 15.024 5.648 15.024C 3.408 15.024 2.16 13.36 2.16 10.72C 2.16 8.112 3.52 6.48 5.648 6.48C 6.688 6.48 7.344 6.896 7.872 7.456L 8.64 6.608C 8.016 5.968 7.056 5.312 5.632 5.312C 2.816 5.312 0.784 7.376 0.784 10.752ZM 11.5249 13.984C 11.5249 15.376 12.5009 16.192 13.8129 16.192C 14.7729 16.192 15.6369 15.68 16.3889 15.072L 16.4209 15.072L 16.5329 16L 17.6209 16L 17.6209 11.232C 17.6209 9.296 16.8209 8.032 14.9169 8.032C 13.6689 8.032 12.5809 8.576 11.8609 9.04L 12.3889 9.952C 12.9969 9.536 13.7969 9.12 14.7089 9.12C 15.9729 9.12 16.3089 10.08 16.3089 11.072C 12.9969 11.44 11.5249 12.288 11.5249 13.984ZM 12.8209 13.888C 12.8209 12.896 13.7009 12.256 16.3089 11.936L 16.3089 14.096C 15.5569 14.768 14.9329 15.136 14.1809 15.136C 13.4129 15.136 12.8209 14.768 12.8209 13.888ZM 20.0324 15.12C 20.7684 15.728 21.8244 16.192 22.9284 16.192C 24.7684 16.192 25.7764 15.136 25.7764 13.872C 25.7764 12.4 24.5284 11.936 23.4084 11.52C 22.5284 11.184 21.6804 10.896 21.6804 10.176C 21.6804 9.584 22.1284 9.056 23.1044 9.056C 23.7924 9.056 24.3524 9.344 24.8804 9.744L 25.5044 8.912C 24.9124 8.432 24.0644 8.032 23.0884 8.032C 21.4084 8.032 20.4164 8.992 20.4164 10.24C 20.4164 11.552 21.6324 12.08 22.7364 12.48C 23.5844 12.8 24.5124 13.152 24.5124 13.952C 24.5124 14.624 24.0004 15.168 22.9764 15.168C 22.0484 15.168 21.3604 14.784 20.6884 14.24L 20.0324 15.12ZM 27.8235 12.128C 27.8235 14.704 29.5195 16.192 31.4235 16.192C 33.3275 16.192 35.0235 14.704 35.0235 12.128C 35.0235 9.52 33.3275 8.032 31.4235 8.032C 29.5195 8.032 27.8235 9.52 27.8235 12.128ZM 29.1835 12.128C 29.1835 10.336 30.0955 9.12 31.4235 9.12C 32.7675 9.12 33.6635 10.336 33.6635 12.128C 33.6635 13.904 32.7675 15.104 31.4235 15.104C 30.0955 15.104 29.1835 13.904 29.1835 12.128ZM 37.8714 14.432C 37.8714 15.568 38.2714 16.192 39.2634 16.192C 39.6154 16.192 39.8394 16.144 40.0154 16.064L 39.8394 15.072C 39.6954 15.104 39.6314 15.104 39.5514 15.104C 39.3594 15.104 39.1834 14.944 39.1834 14.528L 39.1834 4.608L 37.8714 4.608L 37.8714 14.432ZM 43.4215 6.624C 43.9335 6.624 44.3335 6.272 44.3335 5.776C 44.3335 5.264 43.9335 4.928 43.4215 4.928C 42.9095 4.928 42.5095 5.264 42.5095 5.776C 42.5095 6.272 42.9095 6.624 43.4215 6.624ZM 42.7495 16L 44.0615 16L 44.0615 8.224L 42.7495 8.224L 42.7495 16ZM 47.487 16L 48.799 16L 48.799 10.368C 49.583 9.584 50.127 9.168 50.927 9.168C 51.951 9.168 52.399 9.792 52.399 11.248L 52.399 16L 53.711 16L 53.711 11.072C 53.711 9.088 52.975 8.032 51.343 8.032C 50.271 8.032 49.471 8.608 48.735 9.344L 48.687 9.344L 48.575 8.224L 47.487 8.224L 47.487 16ZM 56.653 13.984C 56.653 15.376 57.629 16.192 58.941 16.192C 59.901 16.192 60.765 15.68 61.517 15.072L 61.549 15.072L 61.661 16L 62.749 16L 62.749 11.232C 62.749 9.296 61.949 8.032 60.045 8.032C 58.797 8.032 57.709 8.576 56.989 9.04L 57.517 9.952C 58.125 9.536 58.925 9.12 59.837 9.12C 61.101 9.12 61.437 10.08 61.437 11.072C 58.125 11.44 56.653 12.288 56.653 13.984ZM 57.949 13.888C 57.949 12.896 58.829 12.256 61.437 11.936L 61.437 14.096C 60.685 14.768 60.061 15.136 59.309 15.136C 58.541 15.136 57.949 14.768 57.949 13.888ZM 70.1389 16L 71.4829 16L 71.4829 11.84L 73.3709 11.84C 75.6589 11.84 77.2429 10.8 77.2429 8.592C 77.2429 6.288 75.6909 5.504 73.3709 5.504L 70.1389 5.504L 70.1389 16ZM 71.4829 10.752L 71.4829 6.576L 73.1949 6.576C 75.0029 6.576 75.9149 7.072 75.9149 8.592C 75.9149 10.08 75.0349 10.752 73.1949 10.752L 71.4829 10.752ZM 79.9995 16L 81.3115 16L 81.3115 11.008C 81.8395 9.696 82.6235 9.216 83.2795 9.216C 83.5995 9.216 83.7755 9.264 84.0315 9.344L 84.2875 8.192C 84.0315 8.08 83.7915 8.032 83.4555 8.032C 82.5755 8.032 81.7755 8.656 81.2475 9.632L 81.1995 9.632L 81.0875 8.224L 79.9995 8.224L 79.9995 16ZM 85.6141 12.128C 85.6141 14.672 87.2621 16.192 89.3421 16.192C 90.3981 16.192 91.2301 15.824 91.9021 15.392L 91.4381 14.528C 90.8621 14.896 90.2381 15.136 89.5021 15.136C 88.0141 15.136 87.0061 14.08 86.9101 12.4L 92.1581 12.4C 92.1901 12.208 92.2061 11.952 92.2061 11.68C 92.2061 9.456 91.0861 8.032 89.1021 8.032C 87.3261 8.032 85.6141 9.584 85.6141 12.128ZM 86.8941 11.536C 87.0541 9.968 88.0461 9.072 89.1341 9.072C 90.3501 9.072 91.0541 9.952 91.0541 11.536L 86.8941 11.536ZM 94.9276 16L 96.2396 16L 96.2396 10.368C 96.9596 9.568 97.6156 9.168 98.1916 9.168C 99.1836 9.168 99.6476 9.792 99.6476 11.248L 99.6476 16L 100.96 16L 100.96 10.368C 101.68 9.568 102.304 9.168 102.912 9.168C 103.888 9.168 104.352 9.792 104.352 11.248L 104.352 16L 105.664 16L 105.664 11.072C 105.664 9.088 104.896 8.032 103.296 8.032C 102.352 8.032 101.552 8.64 100.736 9.52C 100.416 8.592 99.7756 8.032 98.5916 8.032C 97.6636 8.032 96.8476 8.608 96.1756 9.344L 96.1276 9.344L 96.0156 8.224L 94.9276 8.224L 94.9276 16ZM 109.665 6.624C 110.177 6.624 110.577 6.272 110.577 5.776C 110.577 5.264 110.177 4.928 109.665 4.928C 109.153 4.928 108.753 5.264 108.753 5.776C 108.753 6.272 109.153 6.624 109.665 6.624ZM 108.993 16L 110.305 16L 110.305 8.224L 108.993 8.224L 108.993 16ZM 113.619 13.152C 113.619 15.136 114.355 16.192 116.003 16.192C 117.075 16.192 117.843 15.632 118.563 14.784L 118.611 14.784L 118.723 16L 119.811 16L 119.811 8.224L 118.499 8.224L 118.499 13.744C 117.763 14.656 117.203 15.056 116.403 15.056C 115.379 15.056 114.947 14.432 114.947 12.976L 114.947 8.224L 113.619 8.224L 113.619 13.152ZM 123.234 16L 124.546 16L 124.546 10.368C 125.266 9.568 125.922 9.168 126.498 9.168C 127.49 9.168 127.954 9.792 127.954 11.248L 127.954 16L 129.266 16L 129.266 10.368C 129.986 9.568 130.61 9.168 131.218 9.168C 132.194 9.168 132.658 9.792 132.658 11.248L 132.658 16L 133.97 16L 133.97 11.072C 133.97 9.088 133.202 8.032 131.602 8.032C 130.658 8.032 129.858 8.64 129.042 9.52C 128.722 8.592 128.082 8.032 126.898 8.032C 125.97 8.032 125.154 8.608 124.482 9.344L 124.434 9.344L 124.322 8.224L 123.234 8.224L 123.234 16Z"/>
<path id="path2_fill" d="M 1.96062 16L 8.42462 16L 8.42462 14.096L 6.52062 14.096L 6.52062 5.84L 4.79262 5.84C 4.07262 6.272 3.36862 6.56 2.26462 6.768L 2.26462 8.224L 4.16862 8.224L 4.16862 14.096L 1.96062 14.096L 1.96062 16ZM 14.9257 10.528C 14.1577 10.528 13.5817 10.128 13.5817 9.056C 13.5817 7.904 14.1737 7.408 14.8617 7.408C 15.5817 7.408 16.2377 7.92 16.4457 9.52C 15.9977 10.256 15.4377 10.528 14.9257 10.528ZM 11.5817 14.976C 12.2217 15.616 13.2137 16.192 14.5577 16.192C 16.6857 16.192 18.6697 14.48 18.6697 10.688C 18.6697 7.12 16.7817 5.648 14.8137 5.648C 12.9737 5.648 11.4377 6.944 11.4377 9.056C 11.4377 11.2 12.7337 12.192 14.4617 12.192C 15.0857 12.192 15.9657 11.792 16.4937 11.12C 16.4137 13.488 15.5337 14.288 14.3977 14.288C 13.8057 14.288 13.1657 13.952 12.8297 13.568L 11.5817 14.976ZM 24.9789 10.528C 24.2109 10.528 23.6349 10.128 23.6349 9.056C 23.6349 7.904 24.2269 7.408 24.9149 7.408C 25.6349 7.408 26.2909 7.92 26.4989 9.52C 26.0509 10.256 25.4909 10.528 24.9789 10.528ZM 21.6349 14.976C 22.2749 15.616 23.2669 16.192 24.6109 16.192C 26.7389 16.192 28.7229 14.48 28.7229 10.688C 28.7229 7.12 26.8349 5.648 24.8669 5.648C 23.0269 5.648 21.4909 6.944 21.4909 9.056C 21.4909 11.2 22.7869 12.192 24.5149 12.192C 25.1389 12.192 26.0189 11.792 26.5469 11.12C 26.4669 13.488 25.5869 14.288 24.4509 14.288C 23.8589 14.288 23.2189 13.952 22.8829 13.568L 21.6349 14.976Z"/>
<path id="path3_fill" d="M 0.784 10.752C 0.784 14.176 2.752 16.192 5.504 16.192C 6.912 16.192 8.08 15.648 8.768 14.976L 8.768 10.56L 5.328 10.56L 5.328 11.664L 7.552 11.664L 7.552 14.4C 7.136 14.784 6.4 15.024 5.648 15.024C 3.408 15.024 2.16 13.36 2.16 10.72C 2.16 8.112 3.52 6.48 5.648 6.48C 6.688 6.48 7.344 6.896 7.872 7.456L 8.64 6.608C 8.016 5.968 7.056 5.312 5.632 5.312C 2.816 5.312 0.784 7.376 0.784 10.752ZM 11.5249 13.984C 11.5249 15.376 12.5009 16.192 13.8129 16.192C 14.7729 16.192 15.6369 15.68 16.3889 15.072L 16.4209 15.072L 16.5329 16L 17.6209 16L 17.6209 11.232C 17.6209 9.296 16.8209 8.032 14.9169 8.032C 13.6689 8.032 12.5809 8.576 11.8609 9.04L 12.3889 9.952C 12.9969 9.536 13.7969 9.12 14.7089 9.12C 15.9729 9.12 16.3089 10.08 16.3089 11.072C 12.9969 11.44 11.5249 12.288 11.5249 13.984ZM 12.8209 13.888C 12.8209 12.896 13.7009 12.256 16.3089 11.936L 16.3089 14.096C 15.5569 14.768 14.9329 15.136 14.1809 15.136C 13.4129 15.136 12.8209 14.768 12.8209 13.888ZM 20.0324 15.12C 20.7684 15.728 21.8244 16.192 22.9284 16.192C 24.7684 16.192 25.7764 15.136 25.7764 13.872C 25.7764 12.4 24.5284 11.936 23.4084 11.52C 22.5284 11.184 21.6804 10.896 21.6804 10.176C 21.6804 9.584 22.1284 9.056 23.1044 9.056C 23.7924 9.056 24.3524 9.344 24.8804 9.744L 25.5044 8.912C 24.9124 8.432 24.0644 8.032 23.0884 8.032C 21.4084 8.032 20.4164 8.992 20.4164 10.24C 20.4164 11.552 21.6324 12.08 22.7364 12.48C 23.5844 12.8 24.5124 13.152 24.5124 13.952C 24.5124 14.624 24.0004 15.168 22.9764 15.168C 22.0484 15.168 21.3604 14.784 20.6884 14.24L 20.0324 15.12ZM 27.8235 12.128C 27.8235 14.704 29.5195 16.192 31.4235 16.192C 33.3275 16.192 35.0235 14.704 35.0235 12.128C 35.0235 9.52 33.3275 8.032 31.4235 8.032C 29.5195 8.032 27.8235 9.52 27.8235 12.128ZM 29.1835 12.128C 29.1835 10.336 30.0955 9.12 31.4235 9.12C 32.7675 9.12 33.6635 10.336 33.6635 12.128C 33.6635 13.904 32.7675 15.104 31.4235 15.104C 30.0955 15.104 29.1835 13.904 29.1835 12.128ZM 37.8714 14.432C 37.8714 15.568 38.2714 16.192 39.2634 16.192C 39.6154 16.192 39.8394 16.144 40.0154 16.064L 39.8394 15.072C 39.6954 15.104 39.6314 15.104 39.5514 15.104C 39.3594 15.104 39.1834 14.944 39.1834 14.528L 39.1834 4.608L 37.8714 4.608L 37.8714 14.432ZM 43.4215 6.624C 43.9335 6.624 44.3335 6.272 44.3335 5.776C 44.3335 5.264 43.9335 4.928 43.4215 4.928C 42.9095 4.928 42.5095 5.264 42.5095 5.776C 42.5095 6.272 42.9095 6.624 43.4215 6.624ZM 42.7495 16L 44.0615 16L 44.0615 8.224L 42.7495 8.224L 42.7495 16ZM 47.487 16L 48.799 16L 48.799 10.368C 49.583 9.584 50.127 9.168 50.927 9.168C 51.951 9.168 52.399 9.792 52.399 11.248L 52.399 16L 53.711 16L 53.711 11.072C 53.711 9.088 52.975 8.032 51.343 8.032C 50.271 8.032 49.471 8.608 48.735 9.344L 48.687 9.344L 48.575 8.224L 47.487 8.224L 47.487 16ZM 56.653 13.984C 56.653 15.376 57.629 16.192 58.941 16.192C 59.901 16.192 60.765 15.68 61.517 15.072L 61.549 15.072L 61.661 16L 62.749 16L 62.749 11.232C 62.749 9.296 61.949 8.032 60.045 8.032C 58.797 8.032 57.709 8.576 56.989 9.04L 57.517 9.952C 58.125 9.536 58.925 9.12 59.837 9.12C 61.101 9.12 61.437 10.08 61.437 11.072C 58.125 11.44 56.653 12.288 56.653 13.984ZM 57.949 13.888C 57.949 12.896 58.829 12.256 61.437 11.936L 61.437 14.096C 60.685 14.768 60.061 15.136 59.309 15.136C 58.541 15.136 57.949 14.768 57.949 13.888ZM 71.4829 6.576L 73.2429 6.576C 74.8749 6.576 75.7709 7.072 75.7709 8.448C 75.7709 9.808 74.8749 10.48 73.2429 10.48L 71.4829 10.48L 71.4829 6.576ZM 77.4189 16L 74.7469 11.424C 76.1709 11.056 77.0989 10.08 77.0989 8.448C 77.0989 6.272 75.5629 5.504 73.4349 5.504L 70.1389 5.504L 70.1389 16L 71.4829 16L 71.4829 11.568L 73.3709 11.568L 75.8989 16L 77.4189 16ZM 79.3454 12.128C 79.3454 14.672 80.9934 16.192 83.0734 16.192C 84.1294 16.192 84.9614 15.824 85.6334 15.392L 85.1694 14.528C 84.5934 14.896 83.9694 15.136 83.2334 15.136C 81.7454 15.136 80.7374 14.08 80.6414 12.4L 85.8894 12.4C 85.9214 12.208 85.9374 11.952 85.9374 11.68C 85.9374 9.456 84.8174 8.032 82.8334 8.032C 81.0574 8.032 79.3454 9.584 79.3454 12.128ZM 80.6254 11.536C 80.7854 9.968 81.7774 9.072 82.8654 9.072C 84.0814 9.072 84.7854 9.952 84.7854 11.536L 80.6254 11.536ZM 89.0626 17.312C 89.0626 16.864 89.3026 16.4 89.8626 16C 90.1986 16.096 90.5666 16.128 90.8706 16.128L 92.2146 16.128C 93.2226 16.128 93.7826 16.368 93.7826 17.088C 93.7826 17.904 92.8066 18.672 91.3186 18.672C 89.9106 18.672 89.0626 18.144 89.0626 17.312ZM 87.9106 17.488C 87.9106 18.832 89.2226 19.584 91.1266 19.584C 93.5426 19.584 95.0626 18.336 95.0626 16.896C 95.0626 15.6 94.1506 15.04 92.3426 15.04L 90.8386 15.04C 89.7826 15.04 89.4626 14.688 89.4626 14.192C 89.4626 13.76 89.6866 13.504 89.9586 13.264C 90.3106 13.44 90.7426 13.536 91.1266 13.536C 92.7106 13.536 93.9746 12.496 93.9746 10.832C 93.9746 10.176 93.7026 9.584 93.3346 9.232L 94.9346 9.232L 94.9346 8.224L 92.2306 8.224C 91.9426 8.112 91.5586 8.032 91.1266 8.032C 89.5426 8.032 88.1986 9.104 88.1986 10.8C 88.1986 11.728 88.6946 12.48 89.2066 12.896L 89.2066 12.96C 88.8066 13.232 88.3586 13.744 88.3586 14.4C 88.3586 15.008 88.6626 15.424 89.0466 15.664L 89.0466 15.728C 88.3426 16.208 87.9106 16.832 87.9106 17.488ZM 91.1266 12.656C 90.2306 12.656 89.4786 11.936 89.4786 10.8C 89.4786 9.664 90.2146 8.992 91.1266 8.992C 92.0386 8.992 92.7746 9.664 92.7746 10.8C 92.7746 11.936 92.0226 12.656 91.1266 12.656ZM 97.2531 13.152C 97.2531 15.136 97.9891 16.192 99.6371 16.192C 100.709 16.192 101.477 15.632 102.197 14.784L 102.245 14.784L 102.357 16L 103.445 16L 103.445 8.224L 102.133 8.224L 102.133 13.744C 101.397 14.656 100.837 15.056 100.037 15.056C 99.0131 15.056 98.5811 14.432 98.5811 12.976L 98.5811 8.224L 97.2531 8.224L 97.2531 13.152ZM 106.868 14.432C 106.868 15.568 107.268 16.192 108.26 16.192C 108.612 16.192 108.836 16.144 109.012 16.064L 108.836 15.072C 108.692 15.104 108.628 15.104 108.548 15.104C 108.356 15.104 108.18 14.944 108.18 14.528L 108.18 4.608L 106.868 4.608L 106.868 14.432ZM 111.362 13.984C 111.362 15.376 112.338 16.192 113.65 16.192C 114.61 16.192 115.474 15.68 116.226 15.072L 116.258 15.072L 116.37 16L 117.458 16L 117.458 11.232C 117.458 9.296 116.658 8.032 114.754 8.032C 113.506 8.032 112.418 8.576 111.698 9.04L 112.226 9.952C 112.834 9.536 113.634 9.12 114.546 9.12C 115.81 9.12 116.146 10.08 116.146 11.072C 112.834 11.44 111.362 12.288 111.362 13.984ZM 112.658 13.888C 112.658 12.896 113.538 12.256 116.146 11.936L 116.146 14.096C 115.394 14.768 114.77 15.136 114.018 15.136C 113.25 15.136 112.658 14.768 112.658 13.888ZM 120.734 16L 122.046 16L 122.046 11.008C 122.574 9.696 123.358 9.216 124.014 9.216C 124.334 9.216 124.51 9.264 124.766 9.344L 125.022 8.192C 124.766 8.08 124.526 8.032 124.19 8.032C 123.31 8.032 122.51 8.656 121.982 9.632L 121.934 9.632L 121.822 8.224L 120.734 8.224L 120.734 16Z"/>
<path id="path4_fill" d="M 1.4 20L 9.48 20L 9.48 17.62L 7.1 17.62L 7.1 7.3L 4.94 7.3C 4.04 7.84 3.16 8.2 1.78 8.46L 1.78 10.28L 4.16 10.28L 4.16 17.62L 1.4 17.62L 1.4 20ZM 17.6064 13.16C 16.6464 13.16 15.9264 12.66 15.9264 11.32C 15.9264 9.88 16.6664 9.26 17.5264 9.26C 18.4264 9.26 19.2464 9.9 19.5064 11.9C 18.9464 12.82 18.2464 13.16 17.6064 13.16ZM 13.4264 18.72C 14.2264 19.52 15.4664 20.24 17.1464 20.24C 19.8064 20.24 22.2864 18.1 22.2864 13.36C 22.2864 8.9 19.9264 7.06 17.4664 7.06C 15.1664 7.06 13.2464 8.68 13.2464 11.32C 13.2464 14 14.8664 15.24 17.0264 15.24C 17.8064 15.24 18.9064 14.74 19.5664 13.9C 19.4664 16.86 18.3664 17.86 16.9464 17.86C 16.2064 17.86 15.4064 17.44 14.9864 16.96L 13.4264 18.72ZM 28.3128 20L 31.2728 20C 31.4928 15.04 31.9128 12.66 34.8528 9.1L 34.8528 7.3L 26.0128 7.3L 26.0128 9.78L 31.7128 9.78C 29.3128 13.1 28.5528 15.78 28.3128 20Z"/>
<path id="path5_fill" d="M 42 21C 42 32.598 32.598 42 21 42C 9.40202 42 0 32.598 0 21C 0 9.40202 9.40202 0 21 0C 32.598 0 42 9.40202 42 21Z"/>
<path id="path6_stroke_2x" d="M 39 21C 39 30.9411 30.9411 39 21 39L 21 45C 34.2548 45 45 34.2548 45 21L 39 21ZM 21 39C 11.0589 39 3 30.9411 3 21L -3 21C -3 34.2548 7.74517 45 21 45L 21 39ZM 3 21C 3 11.0589 11.0589 3 21 3L 21 -3C 7.74517 -3 -3 7.74517 -3 21L 3 21ZM 21 3C 30.9411 3 39 11.0589 39 21L 45 21C 45 7.74517 34.2548 -3 21 -3L 21 3Z"/>
<path id="path7_fill" d="M 15.3315 21.532L 18.9435 21.532C 18.6075 18.2 22.8075 17.164 22.8075 13.692C 22.8075 10.388 20.4275 8.904 17.2635 8.904C 15.1915 8.904 13.4275 9.94 12.1675 11.452L 14.4355 13.524C 15.1915 12.768 15.9475 12.236 16.9835 12.236C 18.1035 12.236 18.8595 12.852 18.8595 14C 18.8595 16.1 14.7715 17.696 15.3315 21.532ZM 14.6595 25.76C 14.6595 27.216 15.6955 28.336 17.1235 28.336C 18.5515 28.336 19.6155 27.216 19.6155 25.76C 19.6155 24.276 18.5515 23.156 17.1235 23.156C 15.6955 23.156 14.6595 24.276 14.6595 25.76Z"/>
<path id="path8_fill" d="M 0 27.804L 6.636 27.804L 6.636 19.74C 6.636 16.968 6.048 12.726 5.712 9.996L 5.88 9.996L 8.064 16.38L 11.844 25.578L 14.532 25.578L 18.312 16.38L 20.58 9.996L 20.748 9.996C 20.412 12.726 19.824 16.968 19.824 19.74L 19.824 27.804L 26.544 27.804L 26.544 0.504L 19.068 0.504L 14.952 11.844L 13.44 16.296L 13.272 16.296L 11.76 11.844L 7.476 0.504L 0 0.504L 0 27.804Z"/>
<path id="path9_fill" d="M 41.0074 27.804L 48.2314 27.804L 48.2314 0.504L 41.0074 0.504L 41.0074 27.804Z"/>
<path id="path10_fill" d="M 62.6965 27.804L 71.1805 27.804C 79.0765 27.804 84.7885 23.688 84.7885 14.028C 84.7885 4.368 79.0765 0.504 70.7605 0.504L 62.6965 0.504L 62.6965 27.804ZM 69.9205 22.008L 69.9205 6.3L 70.3405 6.3C 74.2885 6.3 77.3965 7.644 77.3965 14.028C 77.3965 20.412 74.2885 22.008 70.3405 22.008L 69.9205 22.008Z"/>
<path id="path11_fill" d="M 104.228 16.422L 104.69 14.532C 105.362 11.928 106.034 8.652 106.622 5.88L 106.79 5.88C 107.462 8.61 108.134 11.928 108.806 14.532L 109.268 16.422L 104.228 16.422ZM 111.914 27.804L 119.558 27.804L 111.242 0.504L 102.506 0.504L 94.1896 27.804L 101.582 27.804L 102.926 22.008L 110.57 22.008L 111.914 27.804Z"/>
<path id="path12_fill" d="M 128.881 24.402C 131.821 27.048 135.769 28.308 139.213 28.308C 146.017 28.308 149.881 24.192 149.881 19.572C 149.881 15.792 147.949 13.44 144.547 12.096L 141.229 10.794C 138.751 9.828 137.197 9.366 137.197 8.064C 137.197 6.846 138.289 6.216 140.053 6.216C 142.069 6.216 143.665 6.888 145.513 8.19L 149.125 3.654C 146.605 1.176 143.161 0 140.053 0C 134.089 0 129.889 3.822 129.889 8.484C 129.889 12.432 132.451 14.91 135.391 16.086L 138.793 17.514C 141.103 18.438 142.489 18.858 142.489 20.16C 142.489 21.378 141.565 22.092 139.381 22.092C 137.365 22.092 134.929 21 132.997 19.446L 128.881 24.402Z"/>
<path id="path13_fill" d="M 0 0L 10 0L 10 10L 0 10L 0 0Z"/>
<path id="path14_fill" d="M 6.67267 0.283473C 6.86056 0.120759 7.13944 0.120759 7.32733 0.283473L 12.0484 4.37204C 12.3983 4.6751 12.184 5.25 11.7211 5.25L 2.27893 5.25C 1.81599 5.25 1.60166 4.6751 1.95161 4.37204L 6.67267 0.283473Z"/>
<path id="path15_fill" d="M 6.64827 0.348119C 6.84311 0.15528 7.15689 0.15528 7.35173 0.348119L 12.1979 5.14463C 12.5154 5.45886 12.2929 6 11.8462 6L 2.15378 6C 1.70709 6 1.48457 5.45886 1.80206 5.14463L 6.64827 0.348119Z"/>
<path id="path16_stroke" d="M 0 0L 26 0L 26 -1L 0 -1L 0 0Z"/>
<path id="path17_fill" d="M 15.3863 28.24C 14.5596 28.24 13.7796 28.1 13.0462 27.82C 12.3129 27.5267 11.6663 27.1 11.1063 26.54C 10.5596 25.98 10.1263 25.2867 9.80625 24.46C 9.48625 23.62 9.32625 22.6533 9.32625 21.56C 9.32625 20.48 9.49292 19.52 9.82625 18.68C 10.1596 17.8267 10.6062 17.1067 11.1662 16.52C 11.7262 15.9333 12.3796 15.4867 13.1263 15.18C 13.8729 14.8733 14.6596 14.72 15.4863 14.72C 16.3262 14.72 17.0796 14.8933 17.7463 15.24C 18.4129 15.5733 18.9662 15.9667 19.4063 16.42L 17.8463 18.3C 17.5129 17.9933 17.1596 17.7467 16.7862 17.56C 16.4262 17.36 16.0129 17.26 15.5462 17.26C 15.1063 17.26 14.6863 17.36 14.2862 17.56C 13.8996 17.7467 13.5596 18.02 13.2663 18.38C 12.9863 18.74 12.7596 19.18 12.5863 19.7C 12.4263 20.22 12.3462 20.8067 12.3462 21.46C 12.3462 22.8067 12.6329 23.8533 13.2062 24.6C 13.7796 25.3333 14.5463 25.7 15.5062 25.7C 16.0396 25.7 16.5129 25.5867 16.9262 25.36C 17.3529 25.12 17.7262 24.8267 18.0462 24.48L 19.6063 26.32C 18.5129 27.6 17.1063 28.24 15.3863 28.24ZM 27.0005 28.24C 26.1471 28.24 25.2938 28.0867 24.4405 27.78C 23.6005 27.46 22.8471 26.9867 22.1805 26.36L 23.8605 24.34C 24.3271 24.74 24.8405 25.0667 25.4005 25.32C 25.9738 25.5733 26.5338 25.7 27.0805 25.7C 27.6938 25.7 28.1471 25.5867 28.4405 25.36C 28.7471 25.1333 28.9005 24.8267 28.9005 24.44C 28.9005 24.24 28.8538 24.0667 28.7605 23.92C 28.6805 23.7733 28.5538 23.6467 28.3805 23.54C 28.2205 23.42 28.0205 23.3133 27.7805 23.22C 27.5538 23.1133 27.3005 23 27.0205 22.88L 25.3205 22.16C 24.9871 22.0267 24.6605 21.8533 24.3405 21.64C 24.0338 21.4267 23.7538 21.18 23.5005 20.9C 23.2605 20.6067 23.0671 20.2733 22.9205 19.9C 22.7738 19.5133 22.7005 19.08 22.7005 18.6C 22.7005 18.0667 22.8138 17.5667 23.0405 17.1C 23.2671 16.62 23.5871 16.2067 24.0005 15.86C 24.4138 15.5 24.9005 15.22 25.4605 15.02C 26.0338 14.82 26.6605 14.72 27.3405 14.72C 28.1005 14.72 28.8471 14.8667 29.5805 15.16C 30.3271 15.4533 30.9805 15.88 31.5405 16.44L 30.0405 18.3C 29.6138 17.9667 29.1871 17.7133 28.7605 17.54C 28.3338 17.3533 27.8605 17.26 27.3405 17.26C 26.8338 17.26 26.4271 17.3667 26.1205 17.58C 25.8271 17.78 25.6805 18.0667 25.6805 18.44C 25.6805 18.64 25.7271 18.8133 25.8205 18.96C 25.9271 19.0933 26.0671 19.22 26.2405 19.34C 26.4271 19.4467 26.6405 19.5533 26.8805 19.66C 27.1205 19.7533 27.3805 19.86 27.6605 19.98L 29.3405 20.66C 30.1405 20.98 30.7671 21.42 31.2205 21.98C 31.6871 22.54 31.9205 23.28 31.9205 24.2C 31.9205 24.7467 31.8071 25.2667 31.5805 25.76C 31.3671 26.24 31.0471 26.6667 30.6205 27.04C 30.2071 27.4 29.6938 27.6933 29.0805 27.92C 28.4671 28.1333 27.7738 28.24 27.0005 28.24Z"/>
</defs>
</svg>
