<svg width="1542" height="202" viewBox="0 0 1542 202" version="1.1" xmlns="http://www.w3.org/2000/svg" xmlns:xlink="http://www.w3.org/1999/xlink">
<title>Hero Title</title>
<desc>Created using Figma</desc>
<g id="Canvas" transform="matrix(2 0 0 2 4236 408)">
<g id="Hero Title">
<use xlink:href="#path0_fill" transform="translate(-2184 -210)" fill="#E55050"/>
</g>
</g>
<defs>
<path id="path0_fill" d="M 66.1774 41L 66.1774 13.616L 75.5434 13.616C 76.9714 13.616 78.2874 13.728 79.4914 13.952C 80.7234 14.148 81.7874 14.512 82.6834 15.044C 83.6074 15.576 84.3214 16.276 84.8254 17.144C 85.3574 18.012 85.6234 19.104 85.6234 20.42C 85.6234 21.036 85.5394 21.652 85.3714 22.268C 85.2034 22.884 84.9654 23.458 84.6574 23.99C 84.3494 24.522 83.9714 24.998 83.5234 25.418C 83.1034 25.838 82.6134 26.146 82.0534 26.342L 82.0534 26.51C 82.7534 26.678 83.3974 26.944 83.9854 27.308C 84.5734 27.644 85.0914 28.078 85.5394 28.61C 85.9874 29.142 86.3374 29.772 86.5894 30.5C 86.8414 31.2 86.9674 32.012 86.9674 32.936C 86.9674 34.336 86.6874 35.54 86.1274 36.548C 85.5954 37.556 84.8394 38.396 83.8594 39.068C 82.9074 39.712 81.7874 40.202 80.4994 40.538C 79.2114 40.846 77.8254 41 76.3414 41L 66.1774 41ZM 72.3514 24.578L 75.2494 24.578C 76.7614 24.578 77.8534 24.284 78.5254 23.696C 79.2254 23.108 79.5754 22.324 79.5754 21.344C 79.5754 20.28 79.2254 19.524 78.5254 19.076C 77.8254 18.628 76.7474 18.404 75.2914 18.404L 72.3514 18.404L 72.3514 24.578ZM 72.3514 36.212L 75.8374 36.212C 79.2254 36.212 80.9194 34.98 80.9194 32.516C 80.9194 31.312 80.4994 30.458 79.6594 29.954C 78.8194 29.422 77.5454 29.156 75.8374 29.156L 72.3514 29.156L 72.3514 36.212ZM 97.361 41.504C 95.093 41.504 93.441 40.762 92.405 39.278C 91.397 37.794 90.893 35.736 90.893 33.104L 90.893 20.168L 97.067 20.168L 97.067 32.306C 97.067 33.818 97.277 34.854 97.697 35.414C 98.117 35.974 98.775 36.254 99.671 36.254C 100.455 36.254 101.113 36.072 101.645 35.708C 102.177 35.344 102.751 34.756 103.367 33.944L 103.367 20.168L 109.541 20.168L 109.541 41L 104.501 41L 104.039 38.102L 103.913 38.102C 103.017 39.166 102.051 40.006 101.015 40.622C 100.007 41.21 98.789 41.504 97.361 41.504ZM 121.106 41.504C 119.734 41.504 118.32 41.238 116.864 40.706C 115.436 40.174 114.19 39.474 113.126 38.606L 115.898 34.742C 116.85 35.47 117.76 36.016 118.628 36.38C 119.496 36.744 120.378 36.926 121.274 36.926C 122.198 36.926 122.87 36.772 123.29 36.464C 123.71 36.156 123.92 35.722 123.92 35.162C 123.92 34.826 123.794 34.532 123.542 34.28C 123.318 34 122.996 33.748 122.576 33.524C 122.184 33.3 121.736 33.104 121.232 32.936C 120.728 32.74 120.21 32.53 119.678 32.306C 119.034 32.054 118.39 31.76 117.746 31.424C 117.102 31.088 116.514 30.682 115.982 30.206C 115.45 29.702 115.016 29.128 114.68 28.484C 114.344 27.812 114.176 27.042 114.176 26.174C 114.176 25.222 114.358 24.34 114.722 23.528C 115.114 22.716 115.66 22.03 116.36 21.47C 117.06 20.91 117.9 20.476 118.88 20.168C 119.86 19.832 120.952 19.664 122.156 19.664C 123.752 19.664 125.152 19.944 126.356 20.504C 127.56 21.036 128.61 21.638 129.506 22.31L 126.734 26.006C 125.978 25.446 125.236 25.012 124.508 24.704C 123.78 24.396 123.052 24.242 122.324 24.242C 120.756 24.242 119.972 24.788 119.972 25.88C 119.972 26.216 120.084 26.51 120.308 26.762C 120.532 26.986 120.826 27.196 121.19 27.392C 121.582 27.588 122.016 27.784 122.492 27.98C 122.996 28.148 123.514 28.33 124.046 28.526C 124.718 28.778 125.376 29.072 126.02 29.408C 126.692 29.716 127.294 30.108 127.826 30.584C 128.386 31.06 128.834 31.648 129.17 32.348C 129.506 33.02 129.674 33.832 129.674 34.784C 129.674 35.736 129.492 36.618 129.128 37.43C 128.764 38.242 128.218 38.956 127.49 39.572C 126.762 40.16 125.866 40.636 124.802 41C 123.738 41.336 122.506 41.504 121.106 41.504ZM 142.667 41.504C 141.211 41.504 139.853 41.266 138.593 40.79C 137.361 40.286 136.283 39.572 135.359 38.648C 134.435 37.724 133.707 36.59 133.175 35.246C 132.643 33.874 132.377 32.32 132.377 30.584C 132.377 28.848 132.671 27.308 133.259 25.964C 133.847 24.592 134.631 23.444 135.611 22.52C 136.619 21.596 137.781 20.896 139.097 20.42C 140.413 19.916 141.785 19.664 143.213 19.664C 144.501 19.664 145.635 19.874 146.615 20.294C 147.623 20.714 148.519 21.246 149.303 21.89L 146.405 25.88C 145.425 25.068 144.487 24.662 143.591 24.662C 142.079 24.662 140.889 25.194 140.021 26.258C 139.153 27.322 138.719 28.764 138.719 30.584C 138.719 32.404 139.153 33.846 140.021 34.91C 140.917 35.974 142.037 36.506 143.381 36.506C 144.053 36.506 144.697 36.366 145.313 36.086C 145.957 35.778 146.559 35.414 147.119 34.994L 149.555 39.026C 148.519 39.922 147.399 40.566 146.195 40.958C 144.991 41.322 143.815 41.504 142.667 41.504ZM 158.041 41.504C 157.089 41.504 156.221 41.336 155.437 41C 154.681 40.692 154.037 40.258 153.505 39.698C 152.973 39.11 152.553 38.438 152.245 37.682C 151.965 36.926 151.825 36.1 151.825 35.204C 151.825 33.02 152.749 31.312 154.597 30.08C 156.445 28.848 159.427 28.022 163.543 27.602C 163.487 26.678 163.207 25.95 162.703 25.418C 162.227 24.858 161.415 24.578 160.267 24.578C 159.371 24.578 158.475 24.746 157.579 25.082C 156.711 25.418 155.773 25.88 154.765 26.468L 152.539 22.394C 153.883 21.582 155.283 20.924 156.739 20.42C 158.223 19.916 159.791 19.664 161.443 19.664C 164.131 19.664 166.175 20.434 167.575 21.974C 169.003 23.486 169.717 25.852 169.717 29.072L 169.717 41L 164.677 41L 164.257 38.858L 164.089 38.858C 163.193 39.642 162.255 40.286 161.275 40.79C 160.295 41.266 159.217 41.504 158.041 41.504ZM 160.141 36.716C 160.841 36.716 161.443 36.562 161.947 36.254C 162.451 35.946 162.983 35.512 163.543 34.952L 163.543 31.298C 161.359 31.606 159.847 32.054 159.007 32.642C 158.167 33.23 157.747 33.93 157.747 34.742C 157.747 35.414 157.957 35.918 158.377 36.254C 158.825 36.562 159.413 36.716 160.141 36.716ZM 189.605 41.504C 187.337 41.504 185.685 40.762 184.649 39.278C 183.641 37.794 183.137 35.736 183.137 33.104L 183.137 20.168L 189.311 20.168L 189.311 32.306C 189.311 33.818 189.521 34.854 189.941 35.414C 190.361 35.974 191.019 36.254 191.915 36.254C 192.699 36.254 193.357 36.072 193.889 35.708C 194.421 35.344 194.995 34.756 195.611 33.944L 195.611 20.168L 201.785 20.168L 201.785 41L 196.745 41L 196.283 38.102L 196.157 38.102C 195.261 39.166 194.295 40.006 193.259 40.622C 192.251 41.21 191.033 41.504 189.605 41.504ZM 207.218 41L 207.218 20.168L 212.258 20.168L 212.678 22.814L 212.846 22.814C 213.742 21.974 214.722 21.246 215.786 20.63C 216.85 19.986 218.096 19.664 219.524 19.664C 221.792 19.664 223.43 20.406 224.438 21.89C 225.474 23.374 225.992 25.432 225.992 28.064L 225.992 41L 219.818 41L 219.818 28.862C 219.818 27.35 219.608 26.314 219.188 25.754C 218.796 25.194 218.152 24.914 217.256 24.914C 216.472 24.914 215.8 25.096 215.24 25.46C 214.68 25.796 214.064 26.286 213.392 26.93L 213.392 41L 207.218 41ZM 244.45 41L 237.436 20.168L 243.652 20.168L 246.34 29.996C 246.62 31.032 246.886 32.096 247.138 33.188C 247.418 34.252 247.698 35.33 247.978 36.422L 248.146 36.422C 248.398 35.33 248.65 34.252 248.902 33.188C 249.182 32.096 249.462 31.032 249.742 29.996L 252.472 20.168L 258.394 20.168L 251.59 41L 244.45 41ZM 270.642 41.504C 269.158 41.504 267.772 41.266 266.484 40.79C 265.196 40.286 264.076 39.572 263.124 38.648C 262.172 37.696 261.43 36.548 260.898 35.204C 260.366 33.86 260.1 32.32 260.1 30.584C 260.1 28.904 260.38 27.392 260.94 26.048C 261.5 24.676 262.228 23.528 263.124 22.604C 264.048 21.652 265.098 20.924 266.274 20.42C 267.45 19.916 268.668 19.664 269.928 19.664C 271.412 19.664 272.7 19.916 273.792 20.42C 274.912 20.924 275.836 21.624 276.564 22.52C 277.32 23.416 277.88 24.48 278.244 25.712C 278.608 26.916 278.79 28.232 278.79 29.66C 278.79 30.22 278.762 30.752 278.706 31.256C 278.65 31.76 278.594 32.138 278.538 32.39L 266.064 32.39C 266.344 33.902 266.96 35.022 267.912 35.75C 268.892 36.45 270.082 36.8 271.482 36.8C 272.966 36.8 274.464 36.338 275.976 35.414L 278.034 39.152C 276.97 39.88 275.78 40.454 274.464 40.874C 273.176 41.294 271.902 41.504 270.642 41.504ZM 266.022 28.316L 273.54 28.316C 273.54 27.14 273.274 26.188 272.742 25.46C 272.21 24.732 271.314 24.368 270.054 24.368C 269.074 24.368 268.206 24.69 267.45 25.334C 266.722 25.978 266.246 26.972 266.022 28.316ZM 283.056 41L 283.056 11.558L 289.23 11.558L 289.23 18.782L 288.936 22.52C 289.72 21.82 290.63 21.176 291.666 20.588C 292.702 19.972 293.934 19.664 295.362 19.664C 297.63 19.664 299.268 20.406 300.276 21.89C 301.312 23.374 301.83 25.432 301.83 28.064L 301.83 41L 295.656 41L 295.656 28.862C 295.656 27.35 295.446 26.314 295.026 25.754C 294.634 25.194 293.99 24.914 293.094 24.914C 292.31 24.914 291.638 25.096 291.078 25.46C 290.518 25.796 289.902 26.286 289.23 26.93L 289.23 41L 283.056 41ZM 307.05 41L 307.05 20.168L 313.224 20.168L 313.224 41L 307.05 41ZM 310.536 16.976L 307.512 13.952L 313.98 6.308L 318.138 10.382L 310.536 16.976ZM 327.73 41.504C 326.274 41.504 324.916 41.266 323.656 40.79C 322.424 40.286 321.346 39.572 320.422 38.648C 319.498 37.724 318.77 36.59 318.238 35.246C 317.706 33.874 317.44 32.32 317.44 30.584C 317.44 28.848 317.734 27.308 318.322 25.964C 318.91 24.592 319.694 23.444 320.674 22.52C 321.682 21.596 322.844 20.896 324.16 20.42C 325.476 19.916 326.848 19.664 328.276 19.664C 329.564 19.664 330.698 19.874 331.678 20.294C 332.686 20.714 333.582 21.246 334.366 21.89L 331.468 25.88C 330.488 25.068 329.55 24.662 328.654 24.662C 327.142 24.662 325.952 25.194 325.084 26.258C 324.216 27.322 323.782 28.764 323.782 30.584C 323.782 32.404 324.216 33.846 325.084 34.91C 325.98 35.974 327.1 36.506 328.444 36.506C 329.116 36.506 329.76 36.366 330.376 36.086C 331.02 35.778 331.622 35.414 332.182 34.994L 334.618 39.026C 333.582 39.922 332.462 40.566 331.258 40.958C 330.054 41.322 328.878 41.504 327.73 41.504ZM 344.521 41.504C 342.253 41.504 340.601 40.762 339.565 39.278C 338.557 37.794 338.053 35.736 338.053 33.104L 338.053 20.168L 344.227 20.168L 344.227 32.306C 344.227 33.818 344.437 34.854 344.857 35.414C 345.277 35.974 345.935 36.254 346.831 36.254C 347.615 36.254 348.273 36.072 348.805 35.708C 349.337 35.344 349.911 34.756 350.527 33.944L 350.527 20.168L 356.701 20.168L 356.701 41L 351.661 41L 351.199 38.102L 351.073 38.102C 350.177 39.166 349.211 40.006 348.175 40.622C 347.167 41.21 345.949 41.504 344.521 41.504ZM 367.804 41.504C 366.74 41.504 365.844 41.336 365.116 41C 364.388 40.664 363.8 40.202 363.352 39.614C 362.932 38.998 362.624 38.27 362.428 37.43C 362.232 36.562 362.134 35.596 362.134 34.532L 362.134 11.558L 368.308 11.558L 368.308 34.784C 368.308 35.428 368.42 35.876 368.644 36.128C 368.896 36.38 369.148 36.506 369.4 36.506C 369.54 36.506 369.652 36.506 369.736 36.506C 369.848 36.506 369.988 36.478 370.156 36.422L 370.912 41C 370.576 41.14 370.142 41.252 369.61 41.336C 369.106 41.448 368.504 41.504 367.804 41.504ZM 383.098 41.504C 381.782 41.504 380.508 41.266 379.276 40.79C 378.044 40.286 376.952 39.572 376 38.648C 375.076 37.724 374.334 36.59 373.774 35.246C 373.214 33.874 372.934 32.32 372.934 30.584C 372.934 28.848 373.214 27.308 373.774 25.964C 374.334 24.592 375.076 23.444 376 22.52C 376.952 21.596 378.044 20.896 379.276 20.42C 380.508 19.916 381.782 19.664 383.098 19.664C 384.414 19.664 385.674 19.916 386.878 20.42C 388.11 20.896 389.188 21.596 390.112 22.52C 391.064 23.444 391.82 24.592 392.38 25.964C 392.94 27.308 393.22 28.848 393.22 30.584C 393.22 32.32 392.94 33.874 392.38 35.246C 391.82 36.59 391.064 37.724 390.112 38.648C 389.188 39.572 388.11 40.286 386.878 40.79C 385.674 41.266 384.414 41.504 383.098 41.504ZM 383.098 36.506C 384.358 36.506 385.31 35.974 385.954 34.91C 386.598 33.846 386.92 32.404 386.92 30.584C 386.92 28.764 386.598 27.322 385.954 26.258C 385.31 25.194 384.358 24.662 383.098 24.662C 381.81 24.662 380.844 25.194 380.2 26.258C 379.584 27.322 379.276 28.764 379.276 30.584C 379.276 32.404 379.584 33.846 380.2 34.91C 380.844 35.974 381.81 36.506 383.098 36.506ZM 408.167 49.148C 407.523 49.148 406.977 49.106 406.529 49.022C 406.081 48.966 405.647 48.868 405.227 48.728L 406.319 44.024C 406.515 44.08 406.739 44.136 406.991 44.192C 407.243 44.248 407.481 44.276 407.705 44.276C 408.741 44.276 409.539 44.024 410.099 43.52C 410.659 43.016 411.079 42.358 411.359 41.546L 411.653 40.454L 403.631 20.168L 409.847 20.168L 412.829 29.114C 413.137 30.066 413.417 31.032 413.669 32.012C 413.921 32.992 414.187 34 414.467 35.036L 414.635 35.036C 414.859 34.056 415.083 33.076 415.307 32.096C 415.559 31.088 415.811 30.094 416.063 29.114L 418.583 20.168L 424.505 20.168L 417.281 41.21C 416.777 42.526 416.245 43.674 415.685 44.654C 415.153 45.662 414.523 46.488 413.795 47.132C 413.095 47.804 412.283 48.308 411.359 48.644C 410.463 48.98 409.399 49.148 408.167 49.148ZM 445.492 41.504C 444.007 41.504 442.622 41.266 441.333 40.79C 440.045 40.286 438.926 39.572 437.974 38.648C 437.021 37.696 436.279 36.548 435.747 35.204C 435.216 33.86 434.949 32.32 434.949 30.584C 434.949 28.904 435.229 27.392 435.79 26.048C 436.349 24.676 437.077 23.528 437.974 22.604C 438.897 21.652 439.948 20.924 441.123 20.42C 442.299 19.916 443.517 19.664 444.778 19.664C 446.262 19.664 447.549 19.916 448.641 20.42C 449.761 20.924 450.686 21.624 451.414 22.52C 452.17 23.416 452.729 24.48 453.093 25.712C 453.457 26.916 453.64 28.232 453.64 29.66C 453.64 30.22 453.611 30.752 453.556 31.256C 453.5 31.76 453.443 32.138 453.387 32.39L 440.914 32.39C 441.193 33.902 441.81 35.022 442.762 35.75C 443.741 36.45 444.932 36.8 446.332 36.8C 447.816 36.8 449.313 36.338 450.826 35.414L 452.883 39.152C 451.819 39.88 450.629 40.454 449.313 40.874C 448.026 41.294 446.752 41.504 445.492 41.504ZM 440.872 28.316L 448.39 28.316C 448.39 27.14 448.123 26.188 447.592 25.46C 447.06 24.732 446.164 24.368 444.904 24.368C 443.923 24.368 443.056 24.69 442.299 25.334C 441.572 25.978 441.096 26.972 440.872 28.316ZM 464.038 41.504C 462.666 41.504 461.252 41.238 459.796 40.706C 458.368 40.174 457.122 39.474 456.058 38.606L 458.83 34.742C 459.782 35.47 460.692 36.016 461.56 36.38C 462.428 36.744 463.31 36.926 464.206 36.926C 465.13 36.926 465.802 36.772 466.222 36.464C 466.642 36.156 466.852 35.722 466.852 35.162C 466.852 34.826 466.726 34.532 466.474 34.28C 466.25 34 465.928 33.748 465.508 33.524C 465.116 33.3 464.668 33.104 464.164 32.936C 463.66 32.74 463.142 32.53 462.61 32.306C 461.966 32.054 461.322 31.76 460.678 31.424C 460.034 31.088 459.446 30.682 458.914 30.206C 458.382 29.702 457.948 29.128 457.612 28.484C 457.276 27.812 457.108 27.042 457.108 26.174C 457.108 25.222 457.29 24.34 457.654 23.528C 458.046 22.716 458.592 22.03 459.292 21.47C 459.992 20.91 460.832 20.476 461.812 20.168C 462.792 19.832 463.884 19.664 465.088 19.664C 466.684 19.664 468.084 19.944 469.288 20.504C 470.492 21.036 471.542 21.638 472.438 22.31L 469.666 26.006C 468.91 25.446 468.168 25.012 467.44 24.704C 466.712 24.396 465.984 24.242 465.256 24.242C 463.688 24.242 462.904 24.788 462.904 25.88C 462.904 26.216 463.016 26.51 463.24 26.762C 463.464 26.986 463.758 27.196 464.122 27.392C 464.514 27.588 464.948 27.784 465.424 27.98C 465.928 28.148 466.446 28.33 466.978 28.526C 467.65 28.778 468.308 29.072 468.952 29.408C 469.624 29.716 470.226 30.108 470.758 30.584C 471.318 31.06 471.766 31.648 472.102 32.348C 472.438 33.02 472.606 33.832 472.606 34.784C 472.606 35.736 472.424 36.618 472.06 37.43C 471.696 38.242 471.15 38.956 470.422 39.572C 469.694 40.16 468.798 40.636 467.734 41C 466.67 41.336 465.438 41.504 464.038 41.504ZM 483.729 41.504C 482.441 41.504 481.335 41.308 480.411 40.916C 479.515 40.524 478.773 39.978 478.185 39.278C 477.625 38.578 477.205 37.738 476.925 36.758C 476.673 35.75 476.547 34.644 476.547 33.44L 476.547 24.998L 473.691 24.998L 473.691 20.42L 476.883 20.168L 477.597 14.624L 482.721 14.624L 482.721 20.168L 487.719 20.168L 487.719 24.998L 482.721 24.998L 482.721 33.356C 482.721 34.532 482.959 35.386 483.435 35.918C 483.939 36.422 484.597 36.674 485.409 36.674C 485.745 36.674 486.081 36.632 486.417 36.548C 486.781 36.464 487.103 36.366 487.383 36.254L 488.349 40.748C 487.789 40.916 487.131 41.084 486.375 41.252C 485.619 41.42 484.737 41.504 483.729 41.504ZM 491.785 41L 491.785 20.168L 497.959 20.168L 497.959 41L 491.785 41ZM 494.851 17.102C 493.815 17.102 492.961 16.808 492.289 16.22C 491.617 15.604 491.281 14.82 491.281 13.868C 491.281 12.916 491.617 12.146 492.289 11.558C 492.961 10.97 493.815 10.676 494.851 10.676C 495.915 10.676 496.769 10.97 497.413 11.558C 498.085 12.146 498.421 12.916 498.421 13.868C 498.421 14.82 498.085 15.604 497.413 16.22C 496.769 16.808 495.915 17.102 494.851 17.102ZM 503.392 41L 503.392 20.168L 508.432 20.168L 508.852 22.856L 509.02 22.856C 509.888 21.988 510.812 21.246 511.792 20.63C 512.772 19.986 513.948 19.664 515.32 19.664C 516.804 19.664 517.994 19.972 518.89 20.588C 519.814 21.176 520.542 22.03 521.074 23.15C 521.998 22.198 522.964 21.386 523.972 20.714C 525.008 20.014 526.226 19.664 527.626 19.664C 529.866 19.664 531.504 20.42 532.54 21.932C 533.604 23.416 534.136 25.46 534.136 28.064L 534.136 41L 527.962 41L 527.962 28.862C 527.962 27.35 527.752 26.314 527.332 25.754C 526.94 25.194 526.296 24.914 525.4 24.914C 524.364 24.914 523.174 25.586 521.83 26.93L 521.83 41L 515.656 41L 515.656 28.862C 515.656 27.35 515.446 26.314 515.026 25.754C 514.634 25.194 513.99 24.914 513.094 24.914C 512.03 24.914 510.854 25.586 509.566 26.93L 509.566 41L 503.392 41ZM 544.654 41.504C 543.702 41.504 542.834 41.336 542.05 41C 541.294 40.692 540.65 40.258 540.118 39.698C 539.586 39.11 539.166 38.438 538.858 37.682C 538.578 36.926 538.438 36.1 538.438 35.204C 538.438 33.02 539.362 31.312 541.21 30.08C 543.058 28.848 546.04 28.022 550.156 27.602C 550.1 26.678 549.82 25.95 549.316 25.418C 548.84 24.858 548.028 24.578 546.88 24.578C 545.984 24.578 545.088 24.746 544.192 25.082C 543.324 25.418 542.386 25.88 541.378 26.468L 539.152 22.394C 540.496 21.582 541.896 20.924 543.352 20.42C 544.836 19.916 546.404 19.664 548.056 19.664C 550.744 19.664 552.788 20.434 554.188 21.974C 555.616 23.486 556.33 25.852 556.33 29.072L 556.33 41L 551.29 41L 550.87 38.858L 550.702 38.858C 549.806 39.642 548.868 40.286 547.888 40.79C 546.908 41.266 545.83 41.504 544.654 41.504ZM 546.754 36.716C 547.454 36.716 548.056 36.562 548.56 36.254C 549.064 35.946 549.596 35.512 550.156 34.952L 550.156 31.298C 547.972 31.606 546.46 32.054 545.62 32.642C 544.78 33.23 544.36 33.93 544.36 34.742C 544.36 35.414 544.57 35.918 544.99 36.254C 545.438 36.562 546.026 36.716 546.754 36.716ZM 579.032 41.504C 577.576 41.504 576.218 41.266 574.958 40.79C 573.726 40.286 572.648 39.572 571.724 38.648C 570.8 37.724 570.072 36.59 569.54 35.246C 569.008 33.874 568.742 32.32 568.742 30.584C 568.742 28.848 569.036 27.308 569.624 25.964C 570.212 24.592 570.996 23.444 571.976 22.52C 572.984 21.596 574.146 20.896 575.462 20.42C 576.778 19.916 578.15 19.664 579.578 19.664C 580.866 19.664 582 19.874 582.98 20.294C 583.988 20.714 584.884 21.246 585.668 21.89L 582.77 25.88C 581.79 25.068 580.852 24.662 579.956 24.662C 578.444 24.662 577.254 25.194 576.386 26.258C 575.518 27.322 575.084 28.764 575.084 30.584C 575.084 32.404 575.518 33.846 576.386 34.91C 577.282 35.974 578.402 36.506 579.746 36.506C 580.418 36.506 581.062 36.366 581.678 36.086C 582.322 35.778 582.924 35.414 583.484 34.994L 585.92 39.026C 584.884 39.922 583.764 40.566 582.56 40.958C 581.356 41.322 580.18 41.504 579.032 41.504ZM 595.824 41.504C 593.556 41.504 591.904 40.762 590.868 39.278C 589.86 37.794 589.356 35.736 589.356 33.104L 589.356 20.168L 595.53 20.168L 595.53 32.306C 595.53 33.818 595.74 34.854 596.16 35.414C 596.58 35.974 597.238 36.254 598.134 36.254C 598.918 36.254 599.576 36.072 600.108 35.708C 600.64 35.344 601.214 34.756 601.83 33.944L 601.83 20.168L 608.004 20.168L 608.004 41L 602.964 41L 602.502 38.102L 602.376 38.102C 601.48 39.166 600.514 40.006 599.478 40.622C 598.47 41.21 597.252 41.504 595.824 41.504ZM 618.687 41.504C 617.735 41.504 616.867 41.336 616.083 41C 615.327 40.692 614.683 40.258 614.151 39.698C 613.619 39.11 613.199 38.438 612.891 37.682C 612.611 36.926 612.471 36.1 612.471 35.204C 612.471 33.02 613.395 31.312 615.243 30.08C 617.091 28.848 620.073 28.022 624.189 27.602C 624.133 26.678 623.853 25.95 623.349 25.418C 622.873 24.858 622.061 24.578 620.913 24.578C 620.017 24.578 619.121 24.746 618.225 25.082C 617.357 25.418 616.419 25.88 615.411 26.468L 613.185 22.394C 614.529 21.582 615.929 20.924 617.385 20.42C 618.869 19.916 620.437 19.664 622.089 19.664C 624.777 19.664 626.821 20.434 628.221 21.974C 629.649 23.486 630.363 25.852 630.363 29.072L 630.363 41L 625.323 41L 624.903 38.858L 624.735 38.858C 623.839 39.642 622.901 40.286 621.921 40.79C 620.941 41.266 619.863 41.504 618.687 41.504ZM 620.787 36.716C 621.487 36.716 622.089 36.562 622.593 36.254C 623.097 35.946 623.629 35.512 624.189 34.952L 624.189 31.298C 622.005 31.606 620.493 32.054 619.653 32.642C 618.813 33.23 618.393 33.93 618.393 34.742C 618.393 35.414 618.603 35.918 619.023 36.254C 619.471 36.562 620.059 36.716 620.787 36.716ZM 635.585 41L 635.585 20.168L 640.625 20.168L 641.045 22.814L 641.213 22.814C 642.109 21.974 643.089 21.246 644.153 20.63C 645.217 19.986 646.463 19.664 647.891 19.664C 650.159 19.664 651.797 20.406 652.805 21.89C 653.841 23.374 654.359 25.432 654.359 28.064L 654.359 41L 648.185 41L 648.185 28.862C 648.185 27.35 647.975 26.314 647.555 25.754C 647.163 25.194 646.519 24.914 645.623 24.914C 644.839 24.914 644.167 25.096 643.607 25.46C 643.047 25.796 642.431 26.286 641.759 26.93L 641.759 41L 635.585 41ZM 667.643 41.504C 666.355 41.504 665.249 41.308 664.325 40.916C 663.429 40.524 662.687 39.978 662.099 39.278C 661.539 38.578 661.119 37.738 660.839 36.758C 660.587 35.75 660.461 34.644 660.461 33.44L 660.461 24.998L 657.605 24.998L 657.605 20.42L 660.797 20.168L 661.511 14.624L 666.635 14.624L 666.635 20.168L 671.633 20.168L 671.633 24.998L 666.635 24.998L 666.635 33.356C 666.635 34.532 666.873 35.386 667.349 35.918C 667.853 36.422 668.511 36.674 669.323 36.674C 669.659 36.674 669.995 36.632 670.331 36.548C 670.695 36.464 671.017 36.366 671.297 36.254L 672.263 40.748C 671.703 40.916 671.045 41.084 670.289 41.252C 669.533 41.42 668.651 41.504 667.643 41.504ZM 683.906 41.504C 682.59 41.504 681.316 41.266 680.084 40.79C 678.852 40.286 677.76 39.572 676.808 38.648C 675.884 37.724 675.142 36.59 674.582 35.246C 674.022 33.874 673.742 32.32 673.742 30.584C 673.742 28.848 674.022 27.308 674.582 25.964C 675.142 24.592 675.884 23.444 676.808 22.52C 677.76 21.596 678.852 20.896 680.084 20.42C 681.316 19.916 682.59 19.664 683.906 19.664C 685.222 19.664 686.482 19.916 687.686 20.42C 688.918 20.896 689.996 21.596 690.92 22.52C 691.872 23.444 692.628 24.592 693.188 25.964C 693.748 27.308 694.028 28.848 694.028 30.584C 694.028 32.32 693.748 33.874 693.188 35.246C 692.628 36.59 691.872 37.724 690.92 38.648C 689.996 39.572 688.918 40.286 687.686 40.79C 686.482 41.266 685.222 41.504 683.906 41.504ZM 683.906 36.506C 685.166 36.506 686.118 35.974 686.762 34.91C 687.406 33.846 687.728 32.404 687.728 30.584C 687.728 28.764 687.406 27.322 686.762 26.258C 686.118 25.194 685.166 24.662 683.906 24.662C 682.618 24.662 681.652 25.194 681.008 26.258C 680.392 27.322 680.084 28.764 680.084 30.584C 680.084 32.404 680.392 33.846 681.008 34.91C 681.652 35.974 682.618 36.506 683.906 36.506ZM 706.666 48.728L 706.666 20.168L 711.706 20.168L 712.126 22.226L 712.294 22.226C 713.106 21.498 714.016 20.896 715.024 20.42C 716.06 19.916 717.124 19.664 718.216 19.664C 719.476 19.664 720.61 19.916 721.618 20.42C 722.626 20.924 723.48 21.638 724.18 22.562C 724.88 23.486 725.412 24.606 725.776 25.922C 726.168 27.21 726.364 28.652 726.364 30.248C 726.364 32.04 726.112 33.636 725.608 35.036C 725.132 36.408 724.474 37.584 723.634 38.564C 722.822 39.516 721.884 40.244 720.82 40.748C 719.784 41.252 718.706 41.504 717.586 41.504C 716.69 41.504 715.822 41.322 714.982 40.958C 714.142 40.566 713.358 40.02 712.63 39.32L 712.84 42.638L 712.84 48.728L 706.666 48.728ZM 716.158 36.464C 717.222 36.464 718.132 35.988 718.888 35.036C 719.644 34.056 720.022 32.488 720.022 30.332C 720.022 26.58 718.818 24.704 716.41 24.704C 715.206 24.704 714.016 25.334 712.84 26.594L 712.84 35.12C 713.4 35.624 713.96 35.974 714.52 36.17C 715.08 36.366 715.626 36.464 716.158 36.464ZM 737 41.504C 734.732 41.504 733.08 40.762 732.044 39.278C 731.036 37.794 730.532 35.736 730.532 33.104L 730.532 20.168L 736.706 20.168L 736.706 32.306C 736.706 33.818 736.916 34.854 737.336 35.414C 737.756 35.974 738.414 36.254 739.31 36.254C 740.094 36.254 740.752 36.072 741.284 35.708C 741.816 35.344 742.39 34.756 743.006 33.944L 743.006 20.168L 749.18 20.168L 749.18 41L 744.14 41L 743.678 38.102L 743.552 38.102C 742.656 39.166 741.69 40.006 740.654 40.622C 739.646 41.21 738.428 41.504 737 41.504ZM 763.937 41.504C 762.453 41.504 761.067 41.266 759.779 40.79C 758.491 40.286 757.371 39.572 756.419 38.648C 755.467 37.696 754.725 36.548 754.193 35.204C 753.661 33.86 753.395 32.32 753.395 30.584C 753.395 28.904 753.675 27.392 754.235 26.048C 754.795 24.676 755.523 23.528 756.419 22.604C 757.343 21.652 758.393 20.924 759.569 20.42C 760.745 19.916 761.963 19.664 763.223 19.664C 764.707 19.664 765.995 19.916 767.087 20.42C 768.207 20.924 769.131 21.624 769.859 22.52C 770.615 23.416 771.175 24.48 771.539 25.712C 771.903 26.916 772.085 28.232 772.085 29.66C 772.085 30.22 772.057 30.752 772.001 31.256C 771.945 31.76 771.889 32.138 771.833 32.39L 759.359 32.39C 759.639 33.902 760.255 35.022 761.207 35.75C 762.187 36.45 763.377 36.8 764.777 36.8C 766.261 36.8 767.759 36.338 769.271 35.414L 771.329 39.152C 770.265 39.88 769.075 40.454 767.759 40.874C 766.471 41.294 765.197 41.504 763.937 41.504ZM 759.317 28.316L 766.835 28.316C 766.835 27.14 766.569 26.188 766.037 25.46C 765.505 24.732 764.609 24.368 763.349 24.368C 762.369 24.368 761.501 24.69 760.745 25.334C 760.017 25.978 759.541 26.972 759.317 28.316ZM 783.785 41.504C 782.497 41.504 781.321 41.252 780.257 40.748C 779.221 40.244 778.325 39.53 777.569 38.606C 776.841 37.654 776.267 36.506 775.847 35.162C 775.455 33.818 775.259 32.292 775.259 30.584C 775.259 28.876 775.497 27.35 775.973 26.006C 776.477 24.662 777.121 23.528 777.905 22.604C 778.717 21.652 779.641 20.924 780.677 20.42C 781.741 19.916 782.819 19.664 783.911 19.664C 785.087 19.664 786.053 19.86 786.809 20.252C 787.565 20.644 788.307 21.176 789.035 21.848L 788.783 18.656L 788.783 11.558L 794.957 11.558L 794.957 41L 789.917 41L 789.497 38.942L 789.329 38.942C 788.601 39.67 787.747 40.286 786.767 40.79C 785.787 41.266 784.793 41.504 783.785 41.504ZM 785.381 36.464C 786.053 36.464 786.655 36.324 787.187 36.044C 787.747 35.764 788.279 35.274 788.783 34.574L 788.783 26.048C 788.223 25.544 787.649 25.194 787.061 24.998C 786.473 24.802 785.899 24.704 785.339 24.704C 784.359 24.704 783.491 25.18 782.735 26.132C 781.979 27.056 781.601 28.512 781.601 30.5C 781.601 32.572 781.923 34.084 782.567 35.036C 783.239 35.988 784.177 36.464 785.381 36.464ZM 809.751 41.504C 808.267 41.504 806.881 41.266 805.593 40.79C 804.305 40.286 803.185 39.572 802.233 38.648C 801.281 37.696 800.539 36.548 800.007 35.204C 799.475 33.86 799.209 32.32 799.209 30.584C 799.209 28.904 799.489 27.392 800.049 26.048C 800.609 24.676 801.337 23.528 802.233 22.604C 803.157 21.652 804.207 20.924 805.383 20.42C 806.559 19.916 807.777 19.664 809.037 19.664C 810.521 19.664 811.809 19.916 812.901 20.42C 814.021 20.924 814.945 21.624 815.673 22.52C 816.429 23.416 816.989 24.48 817.353 25.712C 817.717 26.916 817.899 28.232 817.899 29.66C 817.899 30.22 817.871 30.752 817.815 31.256C 817.759 31.76 817.703 32.138 817.647 32.39L 805.173 32.39C 805.453 33.902 806.069 35.022 807.021 35.75C 808.001 36.45 809.191 36.8 810.591 36.8C 812.075 36.8 813.573 36.338 815.085 35.414L 817.143 39.152C 816.079 39.88 814.889 40.454 813.573 40.874C 812.285 41.294 811.011 41.504 809.751 41.504ZM 805.131 28.316L 812.649 28.316C 812.649 27.14 812.383 26.188 811.851 25.46C 811.319 24.732 810.423 24.368 809.163 24.368C 808.183 24.368 807.315 24.69 806.559 25.334C 805.831 25.978 805.355 26.972 805.131 28.316ZM 828.298 41.504C 826.926 41.504 825.512 41.238 824.056 40.706C 822.628 40.174 821.382 39.474 820.318 38.606L 823.09 34.742C 824.042 35.47 824.952 36.016 825.82 36.38C 826.688 36.744 827.57 36.926 828.466 36.926C 829.39 36.926 830.062 36.772 830.482 36.464C 830.902 36.156 831.112 35.722 831.112 35.162C 831.112 34.826 830.986 34.532 830.734 34.28C 830.51 34 830.188 33.748 829.768 33.524C 829.376 33.3 828.928 33.104 828.424 32.936C 827.92 32.74 827.402 32.53 826.87 32.306C 826.226 32.054 825.582 31.76 824.938 31.424C 824.294 31.088 823.706 30.682 823.174 30.206C 822.642 29.702 822.208 29.128 821.872 28.484C 821.536 27.812 821.368 27.042 821.368 26.174C 821.368 25.222 821.55 24.34 821.914 23.528C 822.306 22.716 822.852 22.03 823.552 21.47C 824.252 20.91 825.092 20.476 826.072 20.168C 827.052 19.832 828.144 19.664 829.348 19.664C 830.944 19.664 832.344 19.944 833.548 20.504C 834.752 21.036 835.802 21.638 836.698 22.31L 833.926 26.006C 833.17 25.446 832.428 25.012 831.7 24.704C 830.972 24.396 830.244 24.242 829.516 24.242C 827.948 24.242 827.164 24.788 827.164 25.88C 827.164 26.216 827.276 26.51 827.5 26.762C 827.724 26.986 828.018 27.196 828.382 27.392C 828.774 27.588 829.208 27.784 829.684 27.98C 830.188 28.148 830.706 28.33 831.238 28.526C 831.91 28.778 832.568 29.072 833.212 29.408C 833.884 29.716 834.486 30.108 835.018 30.584C 835.578 31.06 836.026 31.648 836.362 32.348C 836.698 33.02 836.866 33.832 836.866 34.784C 836.866 35.736 836.684 36.618 836.32 37.43C 835.956 38.242 835.41 38.956 834.682 39.572C 833.954 40.16 833.058 40.636 831.994 41C 830.93 41.336 829.698 41.504 828.298 41.504ZM 196.739 99L 196.739 78.168L 201.779 78.168L 202.199 81.822L 202.367 81.822C 203.123 80.394 204.033 79.344 205.097 78.672C 206.161 78 207.225 77.664 208.289 77.664C 208.877 77.664 209.353 77.706 209.717 77.79C 210.109 77.846 210.459 77.944 210.767 78.084L 209.759 83.418C 209.367 83.306 209.003 83.222 208.667 83.166C 208.331 83.11 207.939 83.082 207.491 83.082C 206.707 83.082 205.881 83.362 205.013 83.922C 204.173 84.482 203.473 85.476 202.913 86.904L 202.913 99L 196.739 99ZM 222.387 99.504C 220.903 99.504 219.517 99.266 218.229 98.79C 216.941 98.286 215.821 97.572 214.869 96.648C 213.917 95.696 213.175 94.548 212.643 93.204C 212.111 91.86 211.845 90.32 211.845 88.584C 211.845 86.904 212.125 85.392 212.685 84.048C 213.245 82.676 213.973 81.528 214.869 80.604C 215.793 79.652 216.843 78.924 218.019 78.42C 219.195 77.916 220.413 77.664 221.673 77.664C 223.157 77.664 224.445 77.916 225.537 78.42C 226.657 78.924 227.581 79.624 228.309 80.52C 229.065 81.416 229.625 82.48 229.989 83.712C 230.353 84.916 230.535 86.232 230.535 87.66C 230.535 88.22 230.507 88.752 230.451 89.256C 230.395 89.76 230.339 90.138 230.283 90.39L 217.809 90.39C 218.089 91.902 218.705 93.022 219.657 93.75C 220.637 94.45 221.827 94.8 223.227 94.8C 224.711 94.8 226.209 94.338 227.721 93.414L 229.779 97.152C 228.715 97.88 227.525 98.454 226.209 98.874C 224.921 99.294 223.647 99.504 222.387 99.504ZM 217.767 86.316L 225.285 86.316C 225.285 85.14 225.019 84.188 224.487 83.46C 223.955 82.732 223.059 82.368 221.799 82.368C 220.819 82.368 219.951 82.69 219.195 83.334C 218.467 83.978 217.991 84.972 217.767 86.316ZM 243.873 99.504C 242.417 99.504 241.059 99.266 239.799 98.79C 238.567 98.286 237.489 97.572 236.565 96.648C 235.641 95.724 234.913 94.59 234.381 93.246C 233.849 91.874 233.583 90.32 233.583 88.584C 233.583 86.848 233.877 85.308 234.465 83.964C 235.053 82.592 235.837 81.444 236.817 80.52C 237.825 79.596 238.987 78.896 240.303 78.42C 241.619 77.916 242.991 77.664 244.419 77.664C 245.707 77.664 246.841 77.874 247.821 78.294C 248.829 78.714 249.725 79.246 250.509 79.89L 247.611 83.88C 246.631 83.068 245.693 82.662 244.797 82.662C 243.285 82.662 242.095 83.194 241.227 84.258C 240.359 85.322 239.925 86.764 239.925 88.584C 239.925 90.404 240.359 91.846 241.227 92.91C 242.123 93.974 243.243 94.506 244.587 94.506C 245.259 94.506 245.903 94.366 246.519 94.086C 247.163 93.778 247.765 93.414 248.325 92.994L 250.761 97.026C 249.725 97.922 248.605 98.566 247.401 98.958C 246.197 99.322 245.021 99.504 243.873 99.504ZM 262.163 99.504C 260.847 99.504 259.573 99.266 258.341 98.79C 257.109 98.286 256.017 97.572 255.065 96.648C 254.141 95.724 253.399 94.59 252.839 93.246C 252.279 91.874 251.999 90.32 251.999 88.584C 251.999 86.848 252.279 85.308 252.839 83.964C 253.399 82.592 254.141 81.444 255.065 80.52C 256.017 79.596 257.109 78.896 258.341 78.42C 259.573 77.916 260.847 77.664 262.163 77.664C 263.479 77.664 264.739 77.916 265.943 78.42C 267.175 78.896 268.253 79.596 269.177 80.52C 270.129 81.444 270.885 82.592 271.445 83.964C 272.005 85.308 272.285 86.848 272.285 88.584C 272.285 90.32 272.005 91.874 271.445 93.246C 270.885 94.59 270.129 95.724 269.177 96.648C 268.253 97.572 267.175 98.286 265.943 98.79C 264.739 99.266 263.479 99.504 262.163 99.504ZM 262.163 94.506C 263.423 94.506 264.375 93.974 265.019 92.91C 265.663 91.846 265.985 90.404 265.985 88.584C 265.985 86.764 265.663 85.322 265.019 84.258C 264.375 83.194 263.423 82.662 262.163 82.662C 260.875 82.662 259.909 83.194 259.265 84.258C 258.649 85.322 258.341 86.764 258.341 88.584C 258.341 90.404 258.649 91.846 259.265 92.91C 259.909 93.974 260.875 94.506 262.163 94.506ZM 276.514 99L 276.514 78.168L 281.554 78.168L 281.974 81.822L 282.142 81.822C 282.898 80.394 283.808 79.344 284.872 78.672C 285.936 78 287 77.664 288.064 77.664C 288.652 77.664 289.128 77.706 289.492 77.79C 289.884 77.846 290.234 77.944 290.542 78.084L 289.534 83.418C 289.142 83.306 288.778 83.222 288.442 83.166C 288.106 83.11 287.714 83.082 287.266 83.082C 286.482 83.082 285.656 83.362 284.788 83.922C 283.948 84.482 283.248 85.476 282.688 86.904L 282.688 99L 276.514 99ZM 293.249 99L 293.249 78.168L 298.289 78.168L 298.709 81.822L 298.877 81.822C 299.633 80.394 300.543 79.344 301.607 78.672C 302.671 78 303.735 77.664 304.799 77.664C 305.387 77.664 305.863 77.706 306.227 77.79C 306.619 77.846 306.969 77.944 307.277 78.084L 306.269 83.418C 305.877 83.306 305.513 83.222 305.177 83.166C 304.841 83.11 304.449 83.082 304.001 83.082C 303.217 83.082 302.391 83.362 301.523 83.922C 300.683 84.482 299.983 85.476 299.423 86.904L 299.423 99L 293.249 99ZM 318.897 99.504C 317.413 99.504 316.027 99.266 314.739 98.79C 313.451 98.286 312.331 97.572 311.379 96.648C 310.427 95.696 309.685 94.548 309.153 93.204C 308.621 91.86 308.355 90.32 308.355 88.584C 308.355 86.904 308.635 85.392 309.195 84.048C 309.755 82.676 310.483 81.528 311.379 80.604C 312.303 79.652 313.353 78.924 314.529 78.42C 315.705 77.916 316.923 77.664 318.183 77.664C 319.667 77.664 320.955 77.916 322.047 78.42C 323.167 78.924 324.091 79.624 324.819 80.52C 325.575 81.416 326.135 82.48 326.499 83.712C 326.863 84.916 327.045 86.232 327.045 87.66C 327.045 88.22 327.017 88.752 326.961 89.256C 326.905 89.76 326.849 90.138 326.793 90.39L 314.319 90.39C 314.599 91.902 315.215 93.022 316.167 93.75C 317.147 94.45 318.337 94.8 319.737 94.8C 321.221 94.8 322.719 94.338 324.231 93.414L 326.289 97.152C 325.225 97.88 324.035 98.454 322.719 98.874C 321.431 99.294 320.157 99.504 318.897 99.504ZM 314.277 86.316L 321.795 86.316C 321.795 85.14 321.529 84.188 320.997 83.46C 320.465 82.732 319.569 82.368 318.309 82.368C 317.329 82.368 316.461 82.69 315.705 83.334C 314.977 83.978 314.501 84.972 314.277 86.316ZM 331.311 99L 331.311 78.168L 336.351 78.168L 336.771 81.822L 336.939 81.822C 337.695 80.394 338.605 79.344 339.669 78.672C 340.733 78 341.797 77.664 342.861 77.664C 343.449 77.664 343.925 77.706 344.289 77.79C 344.681 77.846 345.031 77.944 345.339 78.084L 344.331 83.418C 343.939 83.306 343.575 83.222 343.239 83.166C 342.903 83.11 342.511 83.082 342.063 83.082C 341.279 83.082 340.453 83.362 339.585 83.922C 338.745 84.482 338.045 85.476 337.485 86.904L 337.485 99L 331.311 99ZM 365.526 99.504C 364.07 99.504 362.712 99.266 361.452 98.79C 360.22 98.286 359.142 97.572 358.218 96.648C 357.294 95.724 356.566 94.59 356.034 93.246C 355.502 91.874 355.236 90.32 355.236 88.584C 355.236 86.848 355.53 85.308 356.118 83.964C 356.706 82.592 357.49 81.444 358.47 80.52C 359.478 79.596 360.64 78.896 361.956 78.42C 363.272 77.916 364.644 77.664 366.072 77.664C 367.36 77.664 368.494 77.874 369.474 78.294C 370.482 78.714 371.378 79.246 372.162 79.89L 369.264 83.88C 368.284 83.068 367.346 82.662 366.45 82.662C 364.938 82.662 363.748 83.194 362.88 84.258C 362.012 85.322 361.578 86.764 361.578 88.584C 361.578 90.404 362.012 91.846 362.88 92.91C 363.776 93.974 364.896 94.506 366.24 94.506C 366.912 94.506 367.556 94.366 368.172 94.086C 368.816 93.778 369.418 93.414 369.978 92.994L 372.414 97.026C 371.378 97.922 370.258 98.566 369.054 98.958C 367.85 99.322 366.674 99.504 365.526 99.504ZM 383.816 99.504C 382.5 99.504 381.226 99.266 379.994 98.79C 378.762 98.286 377.67 97.572 376.718 96.648C 375.794 95.724 375.052 94.59 374.492 93.246C 373.932 91.874 373.652 90.32 373.652 88.584C 373.652 86.848 373.932 85.308 374.492 83.964C 375.052 82.592 375.794 81.444 376.718 80.52C 377.67 79.596 378.762 78.896 379.994 78.42C 381.226 77.916 382.5 77.664 383.816 77.664C 385.132 77.664 386.392 77.916 387.596 78.42C 388.828 78.896 389.906 79.596 390.83 80.52C 391.782 81.444 392.538 82.592 393.098 83.964C 393.658 85.308 393.938 86.848 393.938 88.584C 393.938 90.32 393.658 91.874 393.098 93.246C 392.538 94.59 391.782 95.724 390.83 96.648C 389.906 97.572 388.828 98.286 387.596 98.79C 386.392 99.266 385.132 99.504 383.816 99.504ZM 383.816 94.506C 385.076 94.506 386.028 93.974 386.672 92.91C 387.316 91.846 387.638 90.404 387.638 88.584C 387.638 86.764 387.316 85.322 386.672 84.258C 386.028 83.194 385.076 82.662 383.816 82.662C 382.528 82.662 381.562 83.194 380.918 84.258C 380.302 85.322 379.994 86.764 379.994 88.584C 379.994 90.404 380.302 91.846 380.918 92.91C 381.562 93.974 382.528 94.506 383.816 94.506ZM 398.167 99L 398.167 78.168L 403.207 78.168L 403.627 80.814L 403.795 80.814C 404.691 79.974 405.671 79.246 406.735 78.63C 407.799 77.986 409.045 77.664 410.473 77.664C 412.741 77.664 414.379 78.406 415.387 79.89C 416.423 81.374 416.941 83.432 416.941 86.064L 416.941 99L 410.767 99L 410.767 86.862C 410.767 85.35 410.557 84.314 410.137 83.754C 409.745 83.194 409.101 82.914 408.205 82.914C 407.421 82.914 406.749 83.096 406.189 83.46C 405.629 83.796 405.013 84.286 404.341 84.93L 404.341 99L 398.167 99ZM 438.632 99.504C 437.344 99.504 436.238 99.308 435.314 98.916C 434.418 98.524 433.676 97.978 433.088 97.278C 432.528 96.578 432.108 95.738 431.828 94.758C 431.576 93.75 431.45 92.644 431.45 91.44L 431.45 82.998L 428.594 82.998L 428.594 78.42L 431.786 78.168L 432.5 72.624L 437.624 72.624L 437.624 78.168L 442.622 78.168L 442.622 82.998L 437.624 82.998L 437.624 91.356C 437.624 92.532 437.862 93.386 438.338 93.918C 438.842 94.422 439.5 94.674 440.312 94.674C 440.648 94.674 440.984 94.632 441.32 94.548C 441.684 94.464 442.006 94.366 442.286 94.254L 443.252 98.748C 442.692 98.916 442.034 99.084 441.278 99.252C 440.522 99.42 439.64 99.504 438.632 99.504ZM 452.946 99.504C 450.678 99.504 449.026 98.762 447.99 97.278C 446.982 95.794 446.478 93.736 446.478 91.104L 446.478 78.168L 452.652 78.168L 452.652 90.306C 452.652 91.818 452.862 92.854 453.282 93.414C 453.702 93.974 454.36 94.254 455.256 94.254C 456.04 94.254 456.698 94.072 457.23 93.708C 457.762 93.344 458.336 92.756 458.952 91.944L 458.952 78.168L 465.126 78.168L 465.126 99L 460.086 99L 459.624 96.102L 459.498 96.102C 458.602 97.166 457.636 98.006 456.6 98.622C 455.592 99.21 454.374 99.504 452.946 99.504ZM 478.967 106.728L 478.967 78.168L 484.007 78.168L 484.427 80.226L 484.595 80.226C 485.407 79.498 486.317 78.896 487.325 78.42C 488.361 77.916 489.425 77.664 490.517 77.664C 491.777 77.664 492.911 77.916 493.919 78.42C 494.927 78.924 495.781 79.638 496.481 80.562C 497.181 81.486 497.713 82.606 498.077 83.922C 498.469 85.21 498.665 86.652 498.665 88.248C 498.665 90.04 498.413 91.636 497.909 93.036C 497.433 94.408 496.775 95.584 495.935 96.564C 495.123 97.516 494.185 98.244 493.121 98.748C 492.085 99.252 491.007 99.504 489.887 99.504C 488.991 99.504 488.123 99.322 487.283 98.958C 486.443 98.566 485.659 98.02 484.931 97.32L 485.141 100.638L 485.141 106.728L 478.967 106.728ZM 488.459 94.464C 489.523 94.464 490.433 93.988 491.189 93.036C 491.945 92.056 492.323 90.488 492.323 88.332C 492.323 84.58 491.119 82.704 488.711 82.704C 487.507 82.704 486.317 83.334 485.141 84.594L 485.141 93.12C 485.701 93.624 486.261 93.974 486.821 94.17C 487.381 94.366 487.927 94.464 488.459 94.464ZM 503.043 99L 503.043 78.168L 508.083 78.168L 508.503 81.822L 508.671 81.822C 509.427 80.394 510.337 79.344 511.401 78.672C 512.465 78 513.529 77.664 514.593 77.664C 515.181 77.664 515.657 77.706 516.021 77.79C 516.413 77.846 516.763 77.944 517.071 78.084L 516.063 83.418C 515.671 83.306 515.307 83.222 514.971 83.166C 514.635 83.11 514.243 83.082 513.795 83.082C 513.011 83.082 512.185 83.362 511.317 83.922C 510.477 84.482 509.777 85.476 509.217 86.904L 509.217 99L 503.043 99ZM 528.692 99.504C 527.208 99.504 525.822 99.266 524.534 98.79C 523.246 98.286 522.126 97.572 521.174 96.648C 520.222 95.696 519.48 94.548 518.948 93.204C 518.416 91.86 518.15 90.32 518.15 88.584C 518.15 86.904 518.43 85.392 518.99 84.048C 519.55 82.676 520.278 81.528 521.174 80.604C 522.098 79.652 523.148 78.924 524.324 78.42C 525.5 77.916 526.718 77.664 527.978 77.664C 529.462 77.664 530.75 77.916 531.842 78.42C 532.962 78.924 533.886 79.624 534.614 80.52C 535.37 81.416 535.93 82.48 536.294 83.712C 536.658 84.916 536.84 86.232 536.84 87.66C 536.84 88.22 536.812 88.752 536.756 89.256C 536.7 89.76 536.644 90.138 536.588 90.39L 524.114 90.39C 524.394 91.902 525.01 93.022 525.962 93.75C 526.942 94.45 528.132 94.8 529.532 94.8C 531.016 94.8 532.514 94.338 534.026 93.414L 536.084 97.152C 535.02 97.88 533.83 98.454 532.514 98.874C 531.226 99.294 529.952 99.504 528.692 99.504ZM 524.072 86.316L 531.59 86.316C 531.59 85.14 531.324 84.188 530.792 83.46C 530.26 82.732 529.364 82.368 528.104 82.368C 527.124 82.368 526.256 82.69 525.5 83.334C 524.772 83.978 524.296 84.972 524.072 86.316ZM 547.238 99.504C 545.866 99.504 544.452 99.238 542.996 98.706C 541.568 98.174 540.322 97.474 539.258 96.606L 542.03 92.742C 542.982 93.47 543.892 94.016 544.76 94.38C 545.628 94.744 546.51 94.926 547.406 94.926C 548.33 94.926 549.002 94.772 549.422 94.464C 549.842 94.156 550.052 93.722 550.052 93.162C 550.052 92.826 549.926 92.532 549.674 92.28C 549.45 92 549.128 91.748 548.708 91.524C 548.316 91.3 547.868 91.104 547.364 90.936C 546.86 90.74 546.342 90.53 545.81 90.306C 545.166 90.054 544.522 89.76 543.878 89.424C 543.234 89.088 542.646 88.682 542.114 88.206C 541.582 87.702 541.148 87.128 540.812 86.484C 540.476 85.812 540.308 85.042 540.308 84.174C 540.308 83.222 540.49 82.34 540.854 81.528C 541.246 80.716 541.792 80.03 542.492 79.47C 543.192 78.91 544.032 78.476 545.012 78.168C 545.992 77.832 547.084 77.664 548.288 77.664C 549.884 77.664 551.284 77.944 552.488 78.504C 553.692 79.036 554.742 79.638 555.638 80.31L 552.866 84.006C 552.11 83.446 551.368 83.012 550.64 82.704C 549.912 82.396 549.184 82.242 548.456 82.242C 546.888 82.242 546.104 82.788 546.104 83.88C 546.104 84.216 546.216 84.51 546.44 84.762C 546.664 84.986 546.958 85.196 547.322 85.392C 547.714 85.588 548.148 85.784 548.624 85.98C 549.128 86.148 549.646 86.33 550.178 86.526C 550.85 86.778 551.508 87.072 552.152 87.408C 552.824 87.716 553.426 88.108 553.958 88.584C 554.518 89.06 554.966 89.648 555.302 90.348C 555.638 91.02 555.806 91.832 555.806 92.784C 555.806 93.736 555.624 94.618 555.26 95.43C 554.896 96.242 554.35 96.956 553.622 97.572C 552.894 98.16 551.998 98.636 550.934 99C 549.87 99.336 548.638 99.504 547.238 99.504ZM 565.985 99.504C 563.717 99.504 562.065 98.762 561.029 97.278C 560.021 95.794 559.517 93.736 559.517 91.104L 559.517 78.168L 565.691 78.168L 565.691 90.306C 565.691 91.818 565.901 92.854 566.321 93.414C 566.741 93.974 567.399 94.254 568.295 94.254C 569.079 94.254 569.737 94.072 570.269 93.708C 570.801 93.344 571.375 92.756 571.991 91.944L 571.991 78.168L 578.165 78.168L 578.165 99L 573.125 99L 572.663 96.102L 572.537 96.102C 571.641 97.166 570.675 98.006 569.639 98.622C 568.631 99.21 567.413 99.504 565.985 99.504ZM 583.598 106.728L 583.598 78.168L 588.638 78.168L 589.058 80.226L 589.226 80.226C 590.038 79.498 590.948 78.896 591.956 78.42C 592.992 77.916 594.056 77.664 595.148 77.664C 596.408 77.664 597.542 77.916 598.55 78.42C 599.558 78.924 600.412 79.638 601.112 80.562C 601.812 81.486 602.344 82.606 602.708 83.922C 603.1 85.21 603.296 86.652 603.296 88.248C 603.296 90.04 603.044 91.636 602.54 93.036C 602.064 94.408 601.406 95.584 600.566 96.564C 599.754 97.516 598.816 98.244 597.752 98.748C 596.716 99.252 595.638 99.504 594.518 99.504C 593.622 99.504 592.754 99.322 591.914 98.958C 591.074 98.566 590.29 98.02 589.562 97.32L 589.772 100.638L 589.772 106.728L 583.598 106.728ZM 593.09 94.464C 594.154 94.464 595.064 93.988 595.82 93.036C 596.576 92.056 596.954 90.488 596.954 88.332C 596.954 84.58 595.75 82.704 593.342 82.704C 592.138 82.704 590.948 83.334 589.772 84.594L 589.772 93.12C 590.332 93.624 590.892 93.974 591.452 94.17C 592.012 94.366 592.558 94.464 593.09 94.464ZM 613.932 99.504C 611.664 99.504 610.012 98.762 608.976 97.278C 607.968 95.794 607.464 93.736 607.464 91.104L 607.464 78.168L 613.638 78.168L 613.638 90.306C 613.638 91.818 613.848 92.854 614.268 93.414C 614.688 93.974 615.346 94.254 616.242 94.254C 617.026 94.254 617.684 94.072 618.216 93.708C 618.748 93.344 619.322 92.756 619.938 91.944L 619.938 78.168L 626.112 78.168L 626.112 99L 621.072 99L 620.61 96.102L 620.484 96.102C 619.588 97.166 618.622 98.006 617.586 98.622C 616.578 99.21 615.36 99.504 613.932 99.504ZM 640.869 99.504C 639.385 99.504 637.999 99.266 636.711 98.79C 635.423 98.286 634.303 97.572 633.351 96.648C 632.399 95.696 631.657 94.548 631.125 93.204C 630.593 91.86 630.327 90.32 630.327 88.584C 630.327 86.904 630.607 85.392 631.167 84.048C 631.727 82.676 632.455 81.528 633.351 80.604C 634.275 79.652 635.325 78.924 636.501 78.42C 637.677 77.916 638.895 77.664 640.155 77.664C 641.639 77.664 642.927 77.916 644.019 78.42C 645.139 78.924 646.063 79.624 646.791 80.52C 647.547 81.416 648.107 82.48 648.471 83.712C 648.835 84.916 649.017 86.232 649.017 87.66C 649.017 88.22 648.989 88.752 648.933 89.256C 648.877 89.76 648.821 90.138 648.765 90.39L 636.291 90.39C 636.571 91.902 637.187 93.022 638.139 93.75C 639.119 94.45 640.309 94.8 641.709 94.8C 643.193 94.8 644.691 94.338 646.203 93.414L 648.261 97.152C 647.197 97.88 646.007 98.454 644.691 98.874C 643.403 99.294 642.129 99.504 640.869 99.504ZM 636.249 86.316L 643.767 86.316C 643.767 85.14 643.501 84.188 642.969 83.46C 642.437 82.732 641.541 82.368 640.281 82.368C 639.301 82.368 638.433 82.69 637.677 83.334C 636.949 83.978 636.473 84.972 636.249 86.316ZM 659.416 99.504C 658.044 99.504 656.63 99.238 655.174 98.706C 653.746 98.174 652.5 97.474 651.436 96.606L 654.208 92.742C 655.16 93.47 656.07 94.016 656.938 94.38C 657.806 94.744 658.688 94.926 659.584 94.926C 660.508 94.926 661.18 94.772 661.6 94.464C 662.02 94.156 662.23 93.722 662.23 93.162C 662.23 92.826 662.104 92.532 661.852 92.28C 661.628 92 661.306 91.748 660.886 91.524C 660.494 91.3 660.046 91.104 659.542 90.936C 659.038 90.74 658.52 90.53 657.988 90.306C 657.344 90.054 656.7 89.76 656.056 89.424C 655.412 89.088 654.824 88.682 654.292 88.206C 653.76 87.702 653.326 87.128 652.99 86.484C 652.654 85.812 652.486 85.042 652.486 84.174C 652.486 83.222 652.668 82.34 653.032 81.528C 653.424 80.716 653.97 80.03 654.67 79.47C 655.37 78.91 656.21 78.476 657.19 78.168C 658.17 77.832 659.262 77.664 660.466 77.664C 662.062 77.664 663.462 77.944 664.666 78.504C 665.87 79.036 666.92 79.638 667.816 80.31L 665.044 84.006C 664.288 83.446 663.546 83.012 662.818 82.704C 662.09 82.396 661.362 82.242 660.634 82.242C 659.066 82.242 658.282 82.788 658.282 83.88C 658.282 84.216 658.394 84.51 658.618 84.762C 658.842 84.986 659.136 85.196 659.5 85.392C 659.892 85.588 660.326 85.784 660.802 85.98C 661.306 86.148 661.824 86.33 662.356 86.526C 663.028 86.778 663.686 87.072 664.33 87.408C 665.002 87.716 665.604 88.108 666.136 88.584C 666.696 89.06 667.144 89.648 667.48 90.348C 667.816 91.02 667.984 91.832 667.984 92.784C 667.984 93.736 667.802 94.618 667.438 95.43C 667.074 96.242 666.528 96.956 665.8 97.572C 665.072 98.16 664.176 98.636 663.112 99C 662.048 99.336 660.816 99.504 659.416 99.504ZM 679.106 99.504C 677.818 99.504 676.712 99.308 675.788 98.916C 674.892 98.524 674.15 97.978 673.562 97.278C 673.002 96.578 672.582 95.738 672.302 94.758C 672.05 93.75 671.924 92.644 671.924 91.44L 671.924 82.998L 669.068 82.998L 669.068 78.42L 672.26 78.168L 672.974 72.624L 678.098 72.624L 678.098 78.168L 683.096 78.168L 683.096 82.998L 678.098 82.998L 678.098 91.356C 678.098 92.532 678.336 93.386 678.812 93.918C 679.316 94.422 679.974 94.674 680.786 94.674C 681.122 94.674 681.458 94.632 681.794 94.548C 682.158 94.464 682.48 94.366 682.76 94.254L 683.726 98.748C 683.166 98.916 682.508 99.084 681.752 99.252C 680.996 99.42 680.114 99.504 679.106 99.504ZM 695.37 99.504C 694.054 99.504 692.78 99.266 691.548 98.79C 690.316 98.286 689.224 97.572 688.272 96.648C 687.348 95.724 686.606 94.59 686.046 93.246C 685.486 91.874 685.206 90.32 685.206 88.584C 685.206 86.848 685.486 85.308 686.046 83.964C 686.606 82.592 687.348 81.444 688.272 80.52C 689.224 79.596 690.316 78.896 691.548 78.42C 692.78 77.916 694.054 77.664 695.37 77.664C 696.686 77.664 697.946 77.916 699.15 78.42C 700.382 78.896 701.46 79.596 702.384 80.52C 703.336 81.444 704.092 82.592 704.652 83.964C 705.212 85.308 705.492 86.848 705.492 88.584C 705.492 90.32 705.212 91.874 704.652 93.246C 704.092 94.59 703.336 95.724 702.384 96.648C 701.46 97.572 700.382 98.286 699.15 98.79C 697.946 99.266 696.686 99.504 695.37 99.504ZM 695.37 94.506C 696.63 94.506 697.582 93.974 698.226 92.91C 698.87 91.846 699.192 90.404 699.192 88.584C 699.192 86.764 698.87 85.322 698.226 84.258C 697.582 83.194 696.63 82.662 695.37 82.662C 694.082 82.662 693.116 83.194 692.472 84.258C 691.856 85.322 691.548 86.764 691.548 88.584C 691.548 90.404 691.856 91.846 692.472 92.91C 693.116 93.974 694.082 94.506 695.37 94.506Z"/>
</defs>
</svg>
