<svg width="520" height="84" viewBox="0 0 520 84" version="1.1" xmlns="http://www.w3.org/2000/svg" xmlns:xlink="http://www.w3.org/1999/xlink">
<title>length_btn</title>
<desc>Created using Figma</desc>
<g id="Canvas" transform="matrix(2 0 0 2 1128 -2904)">
<g id="length_btn">
<g id="convert km/mpg">
<g id="Cambiar a Kil&#195;&#179;metros">
<use xlink:href="#path0_fill" transform="translate(-498 1462)" fill="#1DC193"/>
</g>
<g id="Rectangle 2">
<mask id="mask0_outline_ins">
<use xlink:href="#path1_fill" fill="white" transform="translate(-564 1452)"/>
</mask>
<g mask="url(#mask0_outline_ins)">
<use xlink:href="#path2_stroke_2x" transform="translate(-564 1452)" fill="#1DC193"/>
</g>
</g>
<g id="ruler">
<g id="Group">
<g id="Vector">
<use xlink:href="#path3_fill" transform="translate(-539 1460)" fill="#1DC193"/>
<mask id="mask1_outline_out">
<rect id="mask1_outline_inv" fill="white" x="-1" y="-1" width="26" height="26" transform="translate(-539 1460)"/>
<use xlink:href="#path3_fill" fill="black" transform="translate(-539 1460)"/>
</mask>
<g mask="url(#mask1_outline_out)">
<use xlink:href="#path4_stroke_2x" transform="translate(-539 1460)" fill="#1DC193"/>
</g>
</g>
<g id="Group">
<g id="Vector">
<use xlink:href="#path5_fill" transform="translate(-525.779 1462.72)" fill="#1DC193"/>
<mask id="mask2_outline_out">
<rect id="mask2_outline_inv" fill="white" x="-1" y="-1" width="5" height="5" transform="translate(-525.779 1462.72)"/>
<use xlink:href="#path5_fill" fill="black" transform="translate(-525.779 1462.72)"/>
</mask>
<g mask="url(#mask2_outline_out)">
<use xlink:href="#path6_stroke_2x" transform="translate(-525.779 1462.72)" fill="#1DC193"/>
</g>
</g>
<g id="Vector">
<use xlink:href="#path7_fill" transform="translate(-528.402 1465.34)" fill="#1DC193"/>
<mask id="mask3_outline_out">
<rect id="mask3_outline_inv" fill="white" x="-1" y="-1" width="6" height="6" transform="translate(-528.402 1465.34)"/>
<use xlink:href="#path7_fill" fill="black" transform="translate(-528.402 1465.34)"/>
</mask>
<g mask="url(#mask3_outline_out)">
<use xlink:href="#path8_stroke_2x" transform="translate(-528.402 1465.34)" fill="#1DC193"/>
</g>
</g>
<g id="Vector">
<use xlink:href="#path9_fill" transform="translate(-531.027 1467.97)" fill="#1DC193"/>
<mask id="mask4_outline_out">
<rect id="mask4_outline_inv" fill="white" x="-1" y="-1" width="5" height="5" transform="translate(-531.027 1467.97)"/>
<use xlink:href="#path9_fill" fill="black" transform="translate(-531.027 1467.97)"/>
</mask>
<g mask="url(#mask4_outline_out)">
<use xlink:href="#path10_stroke_2x" transform="translate(-531.027 1467.97)" fill="#1DC193"/>
</g>
</g>
<g id="Vector">
<use xlink:href="#path11_fill" transform="translate(-533.652 1470.59)" fill="#1DC193"/>
<mask id="mask5_outline_out">
<rect id="mask5_outline_inv" fill="white" x="-1" y="-1" width="6" height="6" transform="translate(-533.652 1470.59)"/>
<use xlink:href="#path11_fill" fill="black" transform="translate(-533.652 1470.59)"/>
</mask>
<g mask="url(#mask5_outline_out)">
<use xlink:href="#path12_stroke_2x" transform="translate(-533.652 1470.59)" fill="#1DC193"/>
</g>
</g>
<g id="Vector">
<use xlink:href="#path13_fill" transform="translate(-536.277 1473.22)" fill="#1DC193"/>
<mask id="mask6_outline_out">
<rect id="mask6_outline_inv" fill="white" x="-1" y="-1" width="5" height="5" transform="translate(-536.277 1473.22)"/>
<use xlink:href="#path13_fill" fill="black" transform="translate(-536.277 1473.22)"/>
</mask>
<g mask="url(#mask6_outline_out)">
<use xlink:href="#path14_stroke_2x" transform="translate(-536.277 1473.22)" fill="#1DC193"/>
</g>
</g>
</g>
</g>
</g>
</g>
</g>
</g>
<defs>
<path id="path0_fill" d="M 6.96973 5.40723C 6.34277 5.40723 5.77441 5.52734 5.26465 5.76758C 4.75488 6.00195 4.31836 6.3418 3.95508 6.78711C 3.59766 7.23242 3.31934 7.77441 3.12012 8.41309C 2.92676 9.05176 2.83008 9.77246 2.83008 10.5752C 2.83008 11.4014 2.91504 12.1367 3.08496 12.7812C 3.26074 13.4199 3.52148 13.959 3.86719 14.3984C 4.21289 14.8379 4.64355 15.1719 5.15918 15.4004C 5.6748 15.6289 6.27832 15.7432 6.96973 15.7432C 7.49121 15.7432 7.98633 15.6934 8.45508 15.5938C 8.92383 15.4883 9.38672 15.3682 9.84375 15.2334L 9.84375 16.6572C 9.61523 16.7451 9.38672 16.8242 9.1582 16.8945C 8.92969 16.959 8.68945 17.0117 8.4375 17.0527C 8.19141 17.0938 7.9248 17.123 7.6377 17.1406C 7.35645 17.1641 7.04297 17.1758 6.69727 17.1758C 5.73633 17.1758 4.9043 17.0176 4.20117 16.7012C 3.49805 16.3848 2.91504 15.9365 2.45215 15.3564C 1.99512 14.7764 1.65527 14.0791 1.43262 13.2646C 1.20996 12.4502 1.09863 11.5479 1.09863 10.5576C 1.09863 9.58496 1.22461 8.69434 1.47656 7.88574C 1.73437 7.07715 2.10938 6.38281 2.60156 5.80273C 3.09961 5.22266 3.71484 4.77148 4.44727 4.44922C 5.17969 4.12695 6.02051 3.96582 6.96973 3.96582C 7.60254 3.96582 8.20605 4.03027 8.78027 4.15918C 9.35449 4.28809 9.87305 4.47559 10.3359 4.72168L 9.65039 6.09277C 9.28125 5.90527 8.87988 5.74414 8.44629 5.60938C 8.0127 5.47461 7.52051 5.40723 6.96973 5.40723ZM 17.833 17L 17.5078 15.6641L 17.4375 15.6641C 17.2441 15.9277 17.0508 16.1562 16.8574 16.3496C 16.6641 16.5371 16.4531 16.6924 16.2246 16.8154C 15.9961 16.9385 15.7412 17.0293 15.46 17.0879C 15.1787 17.1465 14.8535 17.1758 14.4844 17.1758C 14.0801 17.1758 13.708 17.1172 13.3682 17C 13.0283 16.8887 12.7324 16.7158 12.4805 16.4814C 12.2344 16.2412 12.041 15.9424 11.9004 15.585C 11.7598 15.2217 11.6895 14.7939 11.6895 14.3018C 11.6895 13.3408 12.0264 12.6025 12.7002 12.0869C 13.3799 11.5713 14.4111 11.29 15.7939 11.2432L 17.4111 11.1816L 17.4111 10.5752C 17.4111 10.1826 17.3672 9.85449 17.2793 9.59082C 17.1973 9.32715 17.0742 9.11621 16.9102 8.95801C 16.752 8.79395 16.5527 8.67676 16.3125 8.60645C 16.0781 8.53613 15.8086 8.50098 15.5039 8.50098C 15.0176 8.50098 14.5635 8.57129 14.1416 8.71191C 13.7256 8.85254 13.3242 9.02246 12.9375 9.22168L 12.375 8.01758C 12.8086 7.7832 13.292 7.58398 13.8252 7.41992C 14.3584 7.25586 14.918 7.17383 15.5039 7.17383C 16.1016 7.17383 16.6172 7.23535 17.0508 7.3584C 17.4902 7.47559 17.8506 7.66602 18.1318 7.92969C 18.4189 8.1875 18.6328 8.51855 18.7734 8.92285C 18.9141 9.32715 18.9844 9.81641 18.9844 10.3906L 18.9844 17L 17.833 17ZM 14.8975 15.8838C 15.2549 15.8838 15.5859 15.8281 15.8906 15.7168C 16.1953 15.6055 16.459 15.4385 16.6816 15.2158C 16.9043 14.9873 17.0771 14.7031 17.2002 14.3633C 17.3291 14.0176 17.3936 13.6133 17.3936 13.1504L 17.3936 12.2803L 16.1367 12.3418C 15.6094 12.3652 15.167 12.4238 14.8096 12.5176C 14.4521 12.6113 14.165 12.7432 13.9482 12.9131C 13.7373 13.0771 13.585 13.2793 13.4912 13.5195C 13.3975 13.7539 13.3506 14.0205 13.3506 14.3193C 13.3506 14.8584 13.4912 15.2539 13.7725 15.5059C 14.0596 15.7578 14.4346 15.8838 14.8975 15.8838ZM 33.5127 17L 33.5127 10.7861C 33.5127 10.0244 33.3662 9.45312 33.0732 9.07227C 32.7803 8.69141 32.3262 8.50098 31.7109 8.50098C 31.2832 8.50098 30.9199 8.57129 30.6211 8.71191C 30.3223 8.84668 30.0762 9.04883 29.8828 9.31836C 29.6953 9.58203 29.5576 9.91309 29.4697 10.3115C 29.3818 10.7041 29.3379 11.1582 29.3379 11.6738L 29.3379 17L 27.7295 17L 27.7295 10.7861C 27.7295 10.0244 27.583 9.45312 27.29 9.07227C 27.0029 8.69141 26.5518 8.50098 25.9365 8.50098C 25.4854 8.50098 25.1074 8.57715 24.8027 8.72949C 24.498 8.88184 24.252 9.10742 24.0645 9.40625C 23.8828 9.70508 23.751 10.0713 23.6689 10.5049C 23.5928 10.9385 23.5547 11.4365 23.5547 11.999L 23.5547 17L 21.9551 17L 21.9551 7.34961L 23.2559 7.34961L 23.4844 8.65039L 23.5723 8.65039C 23.7129 8.39844 23.8799 8.18164 24.0732 8C 24.2666 7.8125 24.4775 7.65723 24.7061 7.53418C 24.9404 7.41113 25.1865 7.32031 25.4443 7.26172C 25.708 7.20313 25.9746 7.17383 26.2441 7.17383C 26.9473 7.17383 27.5303 7.30273 27.9932 7.56055C 28.4619 7.81836 28.8076 8.22266 29.0303 8.77344L 29.1006 8.77344C 29.2529 8.49805 29.4346 8.26074 29.6455 8.06152C 29.8623 7.86231 30.0967 7.69824 30.3486 7.56934C 30.6064 7.43457 30.876 7.33496 31.1572 7.27051C 31.4385 7.20605 31.7256 7.17383 32.0186 7.17383C 33.0439 7.17383 33.8145 7.45508 34.3301 8.01758C 34.8516 8.57422 35.1123 9.46777 35.1123 10.6982L 35.1123 17L 33.5127 17ZM 42.4512 7.17383C 43.002 7.17383 43.5029 7.2793 43.9541 7.49023C 44.4053 7.70117 44.7891 8.01758 45.1055 8.43945C 45.4277 8.85547 45.6768 9.37402 45.8525 9.99512C 46.0283 10.6162 46.1162 11.3369 46.1162 12.1572C 46.1162 12.9834 46.0283 13.71 45.8525 14.3369C 45.6768 14.958 45.4277 15.4795 45.1055 15.9014C 44.7891 16.3232 44.4053 16.6426 43.9541 16.8594C 43.5029 17.0703 43.002 17.1758 42.4512 17.1758C 42.1055 17.1758 41.792 17.1377 41.5107 17.0615C 41.2295 16.9854 40.9746 16.8857 40.7461 16.7627C 40.5234 16.6338 40.3242 16.4844 40.1484 16.3145C 39.9785 16.1445 39.8262 15.9658 39.6914 15.7783L 39.5859 15.7783L 39.2607 17L 38.0918 17L 38.0918 3.32422L 39.6914 3.32422L 39.6914 6.62891C 39.6914 6.83398 39.6885 7.05371 39.6826 7.28809C 39.6768 7.5166 39.668 7.73047 39.6562 7.92969C 39.6445 8.16406 39.6328 8.39258 39.6211 8.61523L 39.6914 8.61523C 39.8262 8.41016 39.9785 8.21973 40.1484 8.04395C 40.3184 7.86816 40.5146 7.71582 40.7373 7.58691C 40.9658 7.45801 41.2207 7.3584 41.502 7.28809C 41.7832 7.21191 42.0996 7.17383 42.4512 7.17383ZM 42.1436 8.50098C 41.6748 8.50098 41.2822 8.57715 40.9658 8.72949C 40.6553 8.87598 40.4033 9.10156 40.21 9.40625C 40.0225 9.71094 39.8877 10.0918 39.8057 10.5488C 39.7295 11.0059 39.6914 11.542 39.6914 12.1572C 39.6914 12.749 39.7295 13.2764 39.8057 13.7393C 39.8877 14.1963 40.0225 14.583 40.21 14.8994C 40.4033 15.21 40.6582 15.4473 40.9746 15.6113C 41.291 15.7695 41.6865 15.8486 42.1611 15.8486C 42.9521 15.8486 43.5322 15.5293 43.9014 14.8906C 44.2764 14.252 44.4639 13.335 44.4639 12.1396C 44.4639 10.9209 44.2764 10.0098 43.9014 9.40625C 43.5322 8.80273 42.9463 8.50098 42.1436 8.50098ZM 50.2383 17L 48.6387 17L 48.6387 7.34961L 50.2383 7.34961L 50.2383 17ZM 48.5156 4.73926C 48.5156 4.3877 48.6035 4.13281 48.7793 3.97461C 48.9609 3.81641 49.1836 3.7373 49.4473 3.7373C 49.5762 3.7373 49.6963 3.75781 49.8076 3.79883C 49.9248 3.83398 50.0244 3.89258 50.1064 3.97461C 50.1943 4.05664 50.2617 4.16211 50.3086 4.29102C 50.3613 4.41406 50.3877 4.56348 50.3877 4.73926C 50.3877 5.0791 50.2939 5.33398 50.1064 5.50391C 49.9248 5.66797 49.7051 5.75 49.4473 5.75C 49.1836 5.75 48.9609 5.66797 48.7793 5.50391C 48.6035 5.33984 48.5156 5.08496 48.5156 4.73926ZM 58.7373 17L 58.4121 15.6641L 58.3418 15.6641C 58.1484 15.9277 57.9551 16.1562 57.7617 16.3496C 57.5684 16.5371 57.3574 16.6924 57.1289 16.8154C 56.9004 16.9385 56.6455 17.0293 56.3643 17.0879C 56.083 17.1465 55.7578 17.1758 55.3887 17.1758C 54.9844 17.1758 54.6123 17.1172 54.2725 17C 53.9326 16.8887 53.6367 16.7158 53.3848 16.4814C 53.1387 16.2412 52.9453 15.9424 52.8047 15.585C 52.6641 15.2217 52.5938 14.7939 52.5938 14.3018C 52.5938 13.3408 52.9307 12.6025 53.6045 12.0869C 54.2842 11.5713 55.3154 11.29 56.6982 11.2432L 58.3154 11.1816L 58.3154 10.5752C 58.3154 10.1826 58.2715 9.85449 58.1836 9.59082C 58.1016 9.32715 57.9785 9.11621 57.8145 8.95801C 57.6562 8.79395 57.457 8.67676 57.2168 8.60645C 56.9824 8.53613 56.7129 8.50098 56.4082 8.50098C 55.9219 8.50098 55.4678 8.57129 55.0459 8.71191C 54.6299 8.85254 54.2285 9.02246 53.8418 9.22168L 53.2793 8.01758C 53.7129 7.7832 54.1963 7.58398 54.7295 7.41992C 55.2627 7.25586 55.8223 7.17383 56.4082 7.17383C 57.0059 7.17383 57.5215 7.23535 57.9551 7.3584C 58.3945 7.47559 58.7549 7.66602 59.0361 7.92969C 59.3232 8.1875 59.5371 8.51855 59.6777 8.92285C 59.8184 9.32715 59.8887 9.81641 59.8887 10.3906L 59.8887 17L 58.7373 17ZM 55.8018 15.8838C 56.1592 15.8838 56.4902 15.8281 56.7949 15.7168C 57.0996 15.6055 57.3633 15.4385 57.5859 15.2158C 57.8086 14.9873 57.9814 14.7031 58.1045 14.3633C 58.2334 14.0176 58.2979 13.6133 58.2979 13.1504L 58.2979 12.2803L 57.041 12.3418C 56.5137 12.3652 56.0713 12.4238 55.7139 12.5176C 55.3564 12.6113 55.0693 12.7432 54.8525 12.9131C 54.6416 13.0771 54.4893 13.2793 54.3955 13.5195C 54.3018 13.7539 54.2549 14.0205 54.2549 14.3193C 54.2549 14.8584 54.3955 15.2539 54.6768 15.5059C 54.9639 15.7578 55.3389 15.8838 55.8018 15.8838ZM 67.0342 7.17383C 67.2041 7.17383 67.3945 7.18262 67.6055 7.2002C 67.8164 7.21191 67.998 7.23242 68.1504 7.26172L 67.9395 8.73828C 67.7754 8.70898 67.6055 8.68555 67.4297 8.66797C 67.2598 8.64453 67.0986 8.63281 66.9463 8.63281C 66.5771 8.63281 66.2402 8.70898 65.9355 8.86133C 65.6309 9.00781 65.3672 9.22168 65.1445 9.50293C 64.9277 9.77832 64.7578 10.1123 64.6348 10.5049C 64.5176 10.8916 64.459 11.3223 64.459 11.7969L 64.459 17L 62.8594 17L 62.8594 7.34961L 64.1602 7.34961L 64.3535 9.11621L 64.4238 9.11621C 64.5703 8.86426 64.7256 8.62109 64.8896 8.38672C 65.0596 8.15234 65.2471 7.94727 65.4521 7.77148C 65.6631 7.58984 65.8975 7.44629 66.1553 7.34082C 66.4131 7.22949 66.7061 7.17383 67.0342 7.17383ZM 80.165 17L 79.8398 15.6641L 79.7695 15.6641C 79.5762 15.9277 79.3828 16.1562 79.1895 16.3496C 78.9961 16.5371 78.7852 16.6924 78.5566 16.8154C 78.3281 16.9385 78.0732 17.0293 77.792 17.0879C 77.5107 17.1465 77.1855 17.1758 76.8164 17.1758C 76.4121 17.1758 76.04 17.1172 75.7002 17C 75.3604 16.8887 75.0645 16.7158 74.8125 16.4814C 74.5664 16.2412 74.373 15.9424 74.2324 15.585C 74.0918 15.2217 74.0215 14.7939 74.0215 14.3018C 74.0215 13.3408 74.3584 12.6025 75.0322 12.0869C 75.7119 11.5713 76.7432 11.29 78.126 11.2432L 79.7432 11.1816L 79.7432 10.5752C 79.7432 10.1826 79.6992 9.85449 79.6113 9.59082C 79.5293 9.32715 79.4063 9.11621 79.2422 8.95801C 79.084 8.79395 78.8848 8.67676 78.6445 8.60645C 78.4102 8.53613 78.1406 8.50098 77.8359 8.50098C 77.3496 8.50098 76.8955 8.57129 76.4736 8.71191C 76.0576 8.85254 75.6562 9.02246 75.2695 9.22168L 74.707 8.01758C 75.1406 7.7832 75.624 7.58398 76.1572 7.41992C 76.6904 7.25586 77.25 7.17383 77.8359 7.17383C 78.4336 7.17383 78.9492 7.23535 79.3828 7.3584C 79.8223 7.47559 80.1826 7.66602 80.4639 7.92969C 80.751 8.1875 80.9648 8.51855 81.1055 8.92285C 81.2461 9.32715 81.3164 9.81641 81.3164 10.3906L 81.3164 17L 80.165 17ZM 77.2295 15.8838C 77.5869 15.8838 77.918 15.8281 78.2227 15.7168C 78.5273 15.6055 78.791 15.4385 79.0137 15.2158C 79.2363 14.9873 79.4092 14.7031 79.5322 14.3633C 79.6611 14.0176 79.7256 13.6133 79.7256 13.1504L 79.7256 12.2803L 78.4688 12.3418C 77.9414 12.3652 77.499 12.4238 77.1416 12.5176C 76.7842 12.6113 76.4971 12.7432 76.2803 12.9131C 76.0693 13.0771 75.917 13.2793 75.8232 13.5195C 75.7295 13.7539 75.6826 14.0205 75.6826 14.3193C 75.6826 14.8584 75.8232 15.2539 76.1045 15.5059C 76.3916 15.7578 76.7666 15.8838 77.2295 15.8838ZM 97.8574 17L 96.0029 17L 92.0391 10.8652L 90.8174 11.8672L 90.8174 17L 89.1826 17L 89.1826 4.15039L 90.8174 4.15039L 90.8174 10.5752L 91.8809 9.09863L 95.8535 4.15039L 97.6904 4.15039L 93.1201 9.74902L 97.8574 17ZM 100.986 17L 99.3867 17L 99.3867 7.34961L 100.986 7.34961L 100.986 17ZM 99.2637 4.73926C 99.2637 4.3877 99.3516 4.13281 99.5273 3.97461C 99.709 3.81641 99.9316 3.7373 100.195 3.7373C 100.324 3.7373 100.444 3.75781 100.556 3.79883C 100.673 3.83398 100.772 3.89258 100.854 3.97461C 100.942 4.05664 101.01 4.16211 101.057 4.29102C 101.109 4.41406 101.136 4.56348 101.136 4.73926C 101.136 5.0791 101.042 5.33398 100.854 5.50391C 100.673 5.66797 100.453 5.75 100.195 5.75C 99.9316 5.75 99.709 5.66797 99.5273 5.50391C 99.3516 5.33984 99.2637 5.08496 99.2637 4.73926ZM 105.645 17L 104.045 17L 104.045 3.32422L 105.645 3.32422L 105.645 17ZM 116.569 12.1572C 116.569 12.96 116.47 13.6748 116.271 14.3018C 116.077 14.9229 115.796 15.4473 115.427 15.875C 115.063 16.2969 114.621 16.6191 114.1 16.8418C 113.578 17.0645 112.992 17.1758 112.342 17.1758C 111.738 17.1758 111.182 17.0645 110.672 16.8418C 110.162 16.6191 109.72 16.2969 109.345 15.875C 108.976 15.4473 108.686 14.9229 108.475 14.3018C 108.27 13.6748 108.167 12.96 108.167 12.1572C 108.167 11.3604 108.264 10.6543 108.457 10.0391C 108.656 9.41797 108.938 8.89648 109.301 8.47461C 109.664 8.04687 110.106 7.72461 110.628 7.50781C 111.155 7.28516 111.744 7.17383 112.395 7.17383C 112.998 7.17383 113.555 7.28516 114.064 7.50781C 114.574 7.72461 115.014 8.04687 115.383 8.47461C 115.758 8.89648 116.048 9.41797 116.253 10.0391C 116.464 10.6543 116.569 11.3604 116.569 12.1572ZM 109.819 12.1572C 109.819 13.3818 110.019 14.3047 110.417 14.9258C 110.821 15.541 111.475 15.8486 112.377 15.8486C 113.279 15.8486 113.927 15.541 114.319 14.9258C 114.718 14.3047 114.917 13.3818 114.917 12.1572C 114.917 10.9326 114.715 10.0186 114.311 9.41504C 113.912 8.80566 113.262 8.50098 112.359 8.50098C 111.457 8.50098 110.807 8.80566 110.408 9.41504C 110.016 10.0186 109.819 10.9326 109.819 12.1572ZM 111.331 5.85547C 111.46 5.68555 111.592 5.48926 111.727 5.2666C 111.867 5.04394 112.005 4.81543 112.14 4.58105C 112.28 4.34082 112.412 4.10352 112.535 3.86914C 112.658 3.62891 112.767 3.40918 112.86 3.20996L 114.785 3.20996L 114.785 3.39453C 114.691 3.55273 114.551 3.75195 114.363 3.99219C 114.182 4.22656 113.977 4.47266 113.748 4.73047C 113.525 4.98828 113.294 5.24023 113.054 5.48633C 112.819 5.72656 112.6 5.92871 112.395 6.09277L 111.331 6.09277L 111.331 5.85547ZM 130.649 17L 130.649 10.7861C 130.649 10.0244 130.503 9.45312 130.21 9.07227C 129.917 8.69141 129.463 8.50098 128.848 8.50098C 128.42 8.50098 128.057 8.57129 127.758 8.71191C 127.459 8.84668 127.213 9.04883 127.02 9.31836C 126.832 9.58203 126.694 9.91309 126.606 10.3115C 126.519 10.7041 126.475 11.1582 126.475 11.6738L 126.475 17L 124.866 17L 124.866 10.7861C 124.866 10.0244 124.72 9.45312 124.427 9.07227C 124.14 8.69141 123.688 8.50098 123.073 8.50098C 122.622 8.50098 122.244 8.57715 121.939 8.72949C 121.635 8.88184 121.389 9.10742 121.201 9.40625C 121.02 9.70508 120.888 10.0713 120.806 10.5049C 120.729 10.9385 120.691 11.4365 120.691 11.999L 120.691 17L 119.092 17L 119.092 7.34961L 120.393 7.34961L 120.621 8.65039L 120.709 8.65039C 120.85 8.39844 121.017 8.18164 121.21 8C 121.403 7.8125 121.614 7.65723 121.843 7.53418C 122.077 7.41113 122.323 7.32031 122.581 7.26172C 122.845 7.20313 123.111 7.17383 123.381 7.17383C 124.084 7.17383 124.667 7.30273 125.13 7.56055C 125.599 7.81836 125.944 8.22266 126.167 8.77344L 126.237 8.77344C 126.39 8.49805 126.571 8.26074 126.782 8.06152C 126.999 7.86231 127.233 7.69824 127.485 7.56934C 127.743 7.43457 128.013 7.33496 128.294 7.27051C 128.575 7.20605 128.862 7.17383 129.155 7.17383C 130.181 7.17383 130.951 7.45508 131.467 8.01758C 131.988 8.57422 132.249 9.46777 132.249 10.6982L 132.249 17L 130.649 17ZM 139.043 17.1758C 138.398 17.1758 137.81 17.0674 137.276 16.8506C 136.743 16.6338 136.283 16.3174 135.896 15.9014C 135.516 15.4854 135.22 14.9697 135.009 14.3545C 134.798 13.7393 134.692 13.0361 134.692 12.2451C 134.692 11.4482 134.789 10.7363 134.982 10.1094C 135.176 9.48242 135.448 8.95215 135.8 8.51855C 136.151 8.0791 136.57 7.74512 137.057 7.5166C 137.549 7.28809 138.091 7.17383 138.683 7.17383C 139.263 7.17383 139.784 7.2793 140.247 7.49023C 140.71 7.69531 141.103 7.98828 141.425 8.36914C 141.747 8.74414 141.993 9.19824 142.163 9.73145C 142.339 10.2588 142.427 10.8447 142.427 11.4893L 142.427 12.4824L 136.345 12.4824C 136.374 13.6133 136.611 14.4453 137.057 14.9785C 137.508 15.5117 138.176 15.7783 139.061 15.7783C 139.359 15.7783 139.635 15.7637 139.887 15.7344C 140.145 15.7051 140.391 15.6641 140.625 15.6113C 140.865 15.5527 141.097 15.4824 141.319 15.4004C 141.542 15.3125 141.768 15.2158 141.996 15.1104L 141.996 16.5342C 141.762 16.6455 141.53 16.7422 141.302 16.8242C 141.079 16.9062 140.848 16.9736 140.607 17.0264C 140.373 17.0791 140.127 17.1172 139.869 17.1406C 139.617 17.1641 139.342 17.1758 139.043 17.1758ZM 138.647 8.50098C 137.979 8.50098 137.449 8.72949 137.057 9.18652C 136.67 9.64355 136.444 10.3086 136.38 11.1816L 140.704 11.1816C 140.704 10.7832 140.663 10.4199 140.581 10.0918C 140.505 9.75781 140.382 9.47363 140.212 9.23926C 140.048 9.00488 139.837 8.82324 139.579 8.69434C 139.321 8.56543 139.011 8.50098 138.647 8.50098ZM 147.779 15.8662C 147.885 15.8662 148.002 15.8604 148.131 15.8486C 148.266 15.8369 148.395 15.8223 148.518 15.8047C 148.641 15.7871 148.752 15.7666 148.852 15.7432C 148.957 15.7197 149.036 15.6992 149.089 15.6816L 149.089 16.8945C 149.013 16.9297 148.916 16.9648 148.799 17C 148.682 17.0352 148.553 17.0645 148.412 17.0879C 148.271 17.1172 148.125 17.1377 147.973 17.1494C 147.82 17.167 147.671 17.1758 147.524 17.1758C 147.161 17.1758 146.824 17.1289 146.514 17.0352C 146.203 16.9414 145.934 16.7803 145.705 16.5518C 145.482 16.3232 145.307 16.0156 145.178 15.6289C 145.049 15.2363 144.984 14.7441 144.984 14.1523L 144.984 8.55371L 143.622 8.55371L 143.622 7.8418L 144.984 7.15625L 145.67 5.13477L 146.593 5.13477L 146.593 7.34961L 149.019 7.34961L 149.019 8.55371L 146.593 8.55371L 146.593 14.1523C 146.593 14.7207 146.684 15.1484 146.865 15.4355C 147.053 15.7227 147.357 15.8662 147.779 15.8662ZM 155.136 7.17383C 155.306 7.17383 155.496 7.18262 155.707 7.2002C 155.918 7.21191 156.1 7.23242 156.252 7.26172L 156.041 8.73828C 155.877 8.70898 155.707 8.68555 155.531 8.66797C 155.361 8.64453 155.2 8.63281 155.048 8.63281C 154.679 8.63281 154.342 8.70898 154.037 8.86133C 153.732 9.00781 153.469 9.22168 153.246 9.50293C 153.029 9.77832 152.859 10.1123 152.736 10.5049C 152.619 10.8916 152.561 11.3223 152.561 11.7969L 152.561 17L 150.961 17L 150.961 7.34961L 152.262 7.34961L 152.455 9.11621L 152.525 9.11621C 152.672 8.86426 152.827 8.62109 152.991 8.38672C 153.161 8.15234 153.349 7.94727 153.554 7.77148C 153.765 7.58984 153.999 7.44629 154.257 7.34082C 154.515 7.22949 154.808 7.17383 155.136 7.17383ZM 166.017 12.1572C 166.017 12.96 165.917 13.6748 165.718 14.3018C 165.524 14.9229 165.243 15.4473 164.874 15.875C 164.511 16.2969 164.068 16.6191 163.547 16.8418C 163.025 17.0645 162.439 17.1758 161.789 17.1758C 161.186 17.1758 160.629 17.0645 160.119 16.8418C 159.609 16.6191 159.167 16.2969 158.792 15.875C 158.423 15.4473 158.133 14.9229 157.922 14.3018C 157.717 13.6748 157.614 12.96 157.614 12.1572C 157.614 11.3604 157.711 10.6543 157.904 10.0391C 158.104 9.41797 158.385 8.89648 158.748 8.47461C 159.111 8.04687 159.554 7.72461 160.075 7.50781C 160.603 7.28516 161.191 7.17383 161.842 7.17383C 162.445 7.17383 163.002 7.28516 163.512 7.50781C 164.021 7.72461 164.461 8.04687 164.83 8.47461C 165.205 8.89648 165.495 9.41797 165.7 10.0391C 165.911 10.6543 166.017 11.3604 166.017 12.1572ZM 159.267 12.1572C 159.267 13.3818 159.466 14.3047 159.864 14.9258C 160.269 15.541 160.922 15.8486 161.824 15.8486C 162.727 15.8486 163.374 15.541 163.767 14.9258C 164.165 14.3047 164.364 13.3818 164.364 12.1572C 164.364 10.9326 164.162 10.0186 163.758 9.41504C 163.359 8.80566 162.709 8.50098 161.807 8.50098C 160.904 8.50098 160.254 8.80566 159.855 9.41504C 159.463 10.0186 159.267 10.9326 159.267 12.1572ZM 174.313 14.3545C 174.313 14.8232 174.229 15.2334 174.059 15.585C 173.889 15.9365 173.643 16.2324 173.32 16.4727C 173.004 16.707 172.62 16.8828 172.169 17C 171.718 17.1172 171.211 17.1758 170.648 17.1758C 170.01 17.1758 169.462 17.123 169.005 17.0176C 168.548 16.918 168.146 16.7686 167.801 16.5693L 167.801 15.1104C 167.982 15.2041 168.185 15.2979 168.407 15.3916C 168.63 15.4795 168.864 15.5586 169.11 15.6289C 169.356 15.6992 169.608 15.7578 169.866 15.8047C 170.13 15.8457 170.391 15.8662 170.648 15.8662C 171.029 15.8662 171.352 15.834 171.615 15.7695C 171.885 15.7051 172.102 15.6143 172.266 15.4971C 172.436 15.374 172.559 15.2275 172.635 15.0576C 172.711 14.8818 172.749 14.6885 172.749 14.4775C 172.749 14.2959 172.72 14.1318 172.661 13.9854C 172.603 13.8389 172.494 13.6953 172.336 13.5547C 172.184 13.4082 171.973 13.2617 171.703 13.1152C 171.434 12.9688 171.088 12.8047 170.666 12.623C 170.244 12.4414 169.863 12.2627 169.523 12.0869C 169.189 11.9111 168.905 11.7148 168.671 11.498C 168.437 11.2812 168.255 11.0322 168.126 10.751C 168.003 10.4639 167.941 10.124 167.941 9.73145C 167.941 9.32129 168.021 8.95801 168.179 8.6416C 168.343 8.31934 168.571 8.0498 168.864 7.83301C 169.157 7.61621 169.509 7.45215 169.919 7.34082C 170.329 7.22949 170.786 7.17383 171.29 7.17383C 171.858 7.17383 172.377 7.23535 172.846 7.3584C 173.32 7.48145 173.769 7.64258 174.19 7.8418L 173.637 9.13379C 173.256 8.96387 172.863 8.81738 172.459 8.69434C 172.061 8.56543 171.653 8.50098 171.237 8.50098C 170.64 8.50098 170.197 8.60059 169.91 8.7998C 169.623 8.99316 169.479 9.27148 169.479 9.63477C 169.479 9.83984 169.512 10.0186 169.576 10.1709C 169.646 10.3232 169.764 10.4668 169.928 10.6016C 170.092 10.7363 170.312 10.874 170.587 11.0146C 170.862 11.1494 171.205 11.3018 171.615 11.4717C 172.037 11.6475 172.412 11.8232 172.74 11.999C 173.074 12.1748 173.358 12.374 173.593 12.5967C 173.827 12.8135 174.006 13.0625 174.129 13.3438C 174.252 13.625 174.313 13.9619 174.313 14.3545Z"/>
<path id="path1_fill" d="M 0 4C 0 1.79086 1.79086 0 4 0L 256 0C 258.209 0 260 1.79086 260 4L 260 37.6794C 260 39.8885 258.209 41.6794 256 41.6794L 4 41.6794C 1.79086 41.6794 0 39.8885 0 37.6794L 0 4Z"/>
<path id="path2_stroke_2x" d="M 4 1L 256 1L 256 -1L 4 -1L 4 1ZM 259 4L 259 37.6794L 261 37.6794L 261 4L 259 4ZM 256 40.6794L 4 40.6794L 4 42.6794L 256 42.6794L 256 40.6794ZM 1 37.6794L 1 4L -1 4L -1 37.6794L 1 37.6794ZM 4 -1C 1.23858 -1 -1 1.23858 -1 4L 1 4C 1 2.34315 2.34315 1 4 1L 4 -1ZM 256 1C 257.657 1 259 2.34315 259 4L 261 4C 261 1.23858 258.761 -1 256 -1L 256 1ZM 259 37.6794C 259 39.3362 257.657 40.6794 256 40.6794L 256 42.6794C 258.761 42.6794 261 40.4408 261 37.6794L 259 37.6794ZM 4 40.6794C 2.34315 40.6794 1 39.3362 1 37.6794L -1 37.6794C -1 40.4408 1.23858 42.6794 4 42.6794L 4 40.6794Z"/>
<path id="path3_fill" d="M 7.69348 24C 7.59674 24 7.50436 23.9615 7.43599 23.8938L 0.106377 16.5627C -0.0354588 16.4209 -0.0354588 16.1903 0.106377 16.0485L 16.053 0.102558C 16.1898 -0.034186 16.4313 -0.034186 16.5673 0.102558L 23.8962 7.4329C 24.038 7.57474 24.038 7.80531 23.8962 7.94715L 7.95024 23.8938C 7.88186 23.9615 7.78949 24 7.69348 24ZM 0.878106 16.306L 7.69348 23.1221L 23.1252 7.68966L 16.3105 0.87356L 0.878106 16.306Z"/>
<path id="path4_stroke_2x" d="M 7.43599 23.8938L 7.0824 24.2473L 7.08433 24.2492L 7.43599 23.8938ZM 0.106377 16.5627L 0.459965 16.2092L 0.45993 16.2092L 0.106377 16.5627ZM 0.106377 16.0485L -0.247169 15.6949L -0.247177 15.6949L 0.106377 16.0485ZM 16.053 0.102558L 16.4066 0.456119L 16.4066 0.456111L 16.053 0.102558ZM 16.5673 0.102558L 16.2128 0.455168L 16.2137 0.456076L 16.5673 0.102558ZM 23.8962 7.4329L 23.5426 7.78642L 23.5426 7.78645L 23.8962 7.4329ZM 23.8962 7.94715L 23.5426 7.59359L 23.5426 7.5936L 23.8962 7.94715ZM 7.95024 23.8938L 8.3019 24.2493L 8.3038 24.2474L 7.95024 23.8938ZM 0.878106 16.306L 0.524553 15.9524L 0.171019 16.306L 0.524534 16.6595L 0.878106 16.306ZM 7.69348 23.1221L 7.33991 23.4756L 7.69347 23.8292L 8.04704 23.4756L 7.69348 23.1221ZM 23.1252 7.68966L 23.4787 8.04321L 23.8322 7.68969L 23.4788 7.33614L 23.1252 7.68966ZM 16.3105 0.87356L 16.6641 0.520045L 16.3106 0.166416L 15.957 0.520007L 16.3105 0.87356ZM 7.69348 23.5C 7.73004 23.5 7.76357 23.5145 7.78765 23.5384L 7.08433 24.2492C 7.24516 24.4084 7.46344 24.5 7.69348 24.5L 7.69348 23.5ZM 7.78958 23.5403L 0.459965 16.2092L -0.247212 16.9163L 7.0824 24.2473L 7.78958 23.5403ZM 0.45993 16.2092C 0.513357 16.2626 0.513357 16.3486 0.45993 16.402L -0.247177 15.6949C -0.584274 16.032 -0.584274 16.5792 -0.247177 16.9163L 0.45993 16.2092ZM 0.459922 16.4021L 16.4066 0.456119L 15.6995 -0.251004L -0.247169 15.6949L 0.459922 16.4021ZM 16.4066 0.456111C 16.3702 0.492492 16.3322 0.5 16.3104 0.5C 16.2887 0.5 16.2499 0.492469 16.2128 0.455167L 16.9218 -0.250051C 16.5898 -0.583839 16.031 -0.582479 15.6995 -0.250995L 16.4066 0.456111ZM 16.2137 0.456076L 23.5426 7.78642L 24.2498 7.07938L 16.9209 -0.25096L 16.2137 0.456076ZM 23.5426 7.78645C 23.4892 7.73303 23.4892 7.64702 23.5426 7.59359L 24.2497 8.3007C 24.5868 7.9636 24.5868 7.41645 24.2497 7.07935L 23.5426 7.78645ZM 23.5426 7.5936L 7.59668 23.5403L 8.3038 24.2474L 24.2497 8.30069L 23.5426 7.5936ZM 7.59858 23.5384C 7.62228 23.5149 7.65566 23.5 7.69348 23.5L 7.69348 24.5C 7.92332 24.5 8.14145 24.408 8.30189 24.2492L 7.59858 23.5384ZM 0.524534 16.6595L 7.33991 23.4756L 8.04705 22.7685L 1.23168 15.9524L 0.524534 16.6595ZM 8.04704 23.4756L 23.4787 8.04321L 22.7716 7.33611L 7.33992 22.7685L 8.04704 23.4756ZM 23.4788 7.33614L 16.6641 0.520045L 15.9569 1.22708L 22.7716 8.04318L 23.4788 7.33614ZM 15.957 0.520007L 0.524553 15.9524L 1.23166 16.6595L 16.6641 1.22711L 15.957 0.520007Z"/>
<path id="path5_fill" d="M 2.15826 2.52121C 2.06516 2.52121 1.97206 2.48557 1.90078 2.41502L 0.106376 0.620621C -0.0354589 0.478785 -0.0354589 0.248212 0.106376 0.106377C 0.248212 -0.0354588 0.478786 -0.0354588 0.620621 0.106377L 2.41502 1.90078C 2.55686 2.04261 2.55686 2.27318 2.41502 2.41502C 2.34447 2.48557 2.25136 2.52121 2.15826 2.52121Z"/>
<path id="path6_stroke_2x" d="M 1.90078 2.41502L 1.54722 2.76858L 1.54904 2.77038L 1.90078 2.41502ZM 0.106376 0.620621L -0.247177 0.974174L -0.247177 0.974174L 0.106376 0.620621ZM 0.620621 0.106377L 0.974175 -0.247177L 0.974175 -0.247177L 0.620621 0.106377ZM 2.41502 1.90078L 2.06147 2.25433L 2.41502 1.90078ZM 2.41502 2.41502L 2.06147 2.06147L 2.41502 2.41502ZM 2.15826 2.02121C 2.19274 2.02121 2.22728 2.03468 2.25251 2.05966L 1.54904 2.77038C 1.71684 2.93647 1.93757 3.02121 2.15826 3.02121L 2.15826 2.02121ZM 2.25433 2.06147L 0.45993 0.267067L -0.247177 0.974174L 1.54722 2.76857L 2.25433 2.06147ZM 0.45993 0.267067C 0.513357 0.320494 0.513357 0.406503 0.45993 0.45993L -0.247177 -0.247177C -0.584274 0.0899207 -0.584274 0.637076 -0.247177 0.974174L 0.45993 0.267067ZM 0.45993 0.45993C 0.406503 0.513357 0.320495 0.513357 0.267068 0.45993L 0.974175 -0.247177C 0.637077 -0.584274 0.0899206 -0.584274 -0.247177 -0.247177L 0.45993 0.45993ZM 0.267068 0.45993L 2.06147 2.25433L 2.76857 1.54722L 0.974175 -0.247177L 0.267068 0.45993ZM 2.06147 2.25433C 2.00804 2.2009 2.00804 2.11489 2.06147 2.06147L 2.76857 2.76857C 3.10567 2.43148 3.10567 1.88432 2.76857 1.54722L 2.06147 2.25433ZM 2.06147 2.06147C 2.08849 2.03444 2.12425 2.02121 2.15826 2.02121L 2.15826 3.02121C 2.37848 3.02121 2.60044 2.93671 2.76857 2.76857L 2.06147 2.06147Z"/>
<path id="path7_fill" d="M 3.30895 3.6719C 3.21584 3.6719 3.12274 3.63626 3.05146 3.56571L 0.106376 0.620621C -0.0354591 0.478785 -0.0354591 0.248212 0.106376 0.106377C 0.248212 -0.0354589 0.478786 -0.0354589 0.620621 0.106377L 3.56571 3.05146C 3.70754 3.1933 3.70754 3.42387 3.56571 3.56571C 3.49515 3.63699 3.40205 3.6719 3.30895 3.6719Z"/>
<path id="path8_stroke_2x" d="M 3.05146 3.56571L 2.6979 3.91926L 2.69972 3.92107L 3.05146 3.56571ZM 0.106376 0.620621L -0.247177 0.974174L -0.247177 0.974174L 0.106376 0.620621ZM 0.620621 0.106377L 0.974174 -0.247177L 0.620621 0.106377ZM 3.56571 3.05146L 3.21215 3.40501L 3.56571 3.05146ZM 3.56571 3.56571L 3.21215 3.21215L 3.21034 3.21397L 3.56571 3.56571ZM 3.30895 3.1719C 3.34343 3.1719 3.37796 3.18537 3.4032 3.21034L 2.69972 3.92107C 2.86752 4.08715 3.08826 4.1719 3.30895 4.1719L 3.30895 3.1719ZM 3.40501 3.21215L 0.45993 0.267067L -0.247177 0.974174L 2.69791 3.91926L 3.40501 3.21215ZM 0.45993 0.267067C 0.513356 0.320494 0.513356 0.406503 0.45993 0.45993L -0.247177 -0.247177C -0.584275 0.0899206 -0.584275 0.637077 -0.247177 0.974174L 0.45993 0.267067ZM 0.45993 0.45993C 0.406503 0.513357 0.320494 0.513357 0.267068 0.45993L 0.974174 -0.247177C 0.637077 -0.584274 0.0899204 -0.584274 -0.247177 -0.247177L 0.45993 0.45993ZM 0.267068 0.45993L 3.21215 3.40501L 3.91926 2.69791L 0.974174 -0.247177L 0.267068 0.45993ZM 3.21215 3.40501C 3.15873 3.35159 3.15873 3.26558 3.21215 3.21215L 3.91926 3.91926C 4.25636 3.58216 4.25636 3.03501 3.91926 2.69791L 3.21215 3.40501ZM 3.21034 3.21397C 3.23966 3.18435 3.27727 3.1719 3.30895 3.1719L 3.30895 4.1719C 3.52683 4.1719 3.75064 4.08962 3.92107 3.91744L 3.21034 3.21397Z"/>
<path id="path9_fill" d="M 2.15826 2.52121C 2.06516 2.52121 1.97206 2.48557 1.90078 2.41502L 0.106377 0.620621C -0.0354586 0.478785 -0.0354586 0.248212 0.106377 0.106377C 0.248212 -0.0354588 0.478785 -0.0354588 0.620621 0.106377L 2.41502 1.90078C 2.55686 2.04261 2.55686 2.27318 2.41502 2.41502C 2.34447 2.48557 2.25136 2.52121 2.15826 2.52121Z"/>
<path id="path10_stroke_2x" d="M 1.90078 2.41502L 1.54722 2.76858L 1.54904 2.77038L 1.90078 2.41502ZM 0.106377 0.620621L 0.45993 0.267067L 0.106377 0.620621ZM 0.620621 0.106377L 0.974174 -0.247177L 0.620621 0.106377ZM 2.41502 1.90078L 2.06147 2.25433L 2.41502 1.90078ZM 2.41502 2.41502L 2.06147 2.06147L 2.41502 2.41502ZM 2.15826 2.02121C 2.19274 2.02121 2.22728 2.03468 2.25251 2.05966L 1.54904 2.77038C 1.71684 2.93647 1.93758 3.02121 2.15826 3.02121L 2.15826 2.02121ZM 2.25433 2.06147L 0.45993 0.267067L -0.247177 0.974174L 1.54722 2.76857L 2.25433 2.06147ZM 0.45993 0.267067C 0.513357 0.320494 0.513357 0.406503 0.45993 0.45993L -0.247177 -0.247177C -0.584274 0.0899207 -0.584274 0.637076 -0.247177 0.974174L 0.45993 0.267067ZM 0.45993 0.45993C 0.406503 0.513357 0.320494 0.513357 0.267067 0.45993L 0.974174 -0.247177C 0.637077 -0.584274 0.0899209 -0.584274 -0.247177 -0.247177L 0.45993 0.45993ZM 0.267067 0.45993L 2.06147 2.25433L 2.76857 1.54722L 0.974174 -0.247177L 0.267067 0.45993ZM 2.06147 2.25433C 2.00804 2.2009 2.00804 2.11489 2.06147 2.06147L 2.76857 2.76857C 3.10567 2.43148 3.10567 1.88432 2.76857 1.54722L 2.06147 2.25433ZM 2.06147 2.06147C 2.08849 2.03444 2.12425 2.02121 2.15826 2.02121L 2.15826 3.02121C 2.37848 3.02121 2.60044 2.93671 2.76857 2.76857L 2.06147 2.06147Z"/>
<path id="path11_fill" d="M 3.30895 3.6719C 3.21584 3.6719 3.12274 3.63626 3.05146 3.56571L 0.106377 0.620621C -0.0354587 0.478785 -0.0354587 0.248212 0.106377 0.106377C 0.248212 -0.0354586 0.478785 -0.0354586 0.620621 0.106377L 3.56571 3.05146C 3.70754 3.1933 3.70754 3.42387 3.56571 3.56571C 3.49515 3.63626 3.40205 3.6719 3.30895 3.6719Z"/>
<path id="path12_stroke_2x" d="M 3.05146 3.56571L 2.6979 3.91926L 2.69973 3.92107L 3.05146 3.56571ZM 0.106377 0.620621L -0.247177 0.974174L 0.106377 0.620621ZM 0.620621 0.106377L 0.267067 0.45993L 0.267067 0.45993L 0.620621 0.106377ZM 3.56571 3.05146L 3.91926 2.69791L 3.56571 3.05146ZM 3.56571 3.56571L 3.91926 3.91926L 3.56571 3.56571ZM 3.30895 3.1719C 3.34343 3.1719 3.37796 3.18537 3.4032 3.21034L 2.69973 3.92107C 2.86752 4.08715 3.08826 4.1719 3.30895 4.1719L 3.30895 3.1719ZM 3.40501 3.21215L 0.45993 0.267067L -0.247177 0.974174L 2.69791 3.91926L 3.40501 3.21215ZM 0.45993 0.267067C 0.513357 0.320494 0.513357 0.406503 0.45993 0.45993L -0.247177 -0.247177C -0.584274 0.0899209 -0.584274 0.637077 -0.247177 0.974174L 0.45993 0.267067ZM 0.45993 0.45993C 0.406503 0.513357 0.320494 0.513357 0.267067 0.45993L 0.974174 -0.247177C 0.637076 -0.584274 0.0899208 -0.584274 -0.247177 -0.247177L 0.45993 0.45993ZM 0.267067 0.45993L 3.21215 3.40501L 3.91926 2.69791L 0.974174 -0.247177L 0.267067 0.45993ZM 3.21215 3.40501C 3.15872 3.35159 3.15872 3.26558 3.21215 3.21215L 3.91926 3.91926C 4.25636 3.58216 4.25636 3.035 3.91926 2.69791L 3.21215 3.40501ZM 3.21215 3.21215C 3.23918 3.18512 3.27493 3.1719 3.30895 3.1719L 3.30895 4.1719C 3.52917 4.1719 3.75112 4.08739 3.91926 3.91926L 3.21215 3.21215Z"/>
<path id="path13_fill" d="M 2.15826 2.52121C 2.06516 2.52121 1.97206 2.48557 1.90078 2.41502L 0.106377 0.620621C -0.0354588 0.478786 -0.0354588 0.248212 0.106377 0.106376C 0.248212 -0.0354591 0.478785 -0.0354591 0.620621 0.106376L 2.41502 1.90078C 2.55686 2.04261 2.55686 2.27318 2.41502 2.41502C 2.34447 2.48557 2.25136 2.52121 2.15826 2.52121Z"/>
<path id="path14_stroke_2x" d="M 1.90078 2.41502L 1.54722 2.76858L 1.54904 2.77038L 1.90078 2.41502ZM 0.106377 0.620621L -0.247177 0.974174L -0.247177 0.974174L 0.106377 0.620621ZM 0.620621 0.106376L 0.974174 -0.247177L 0.974174 -0.247177L 0.620621 0.106376ZM 2.41502 1.90078L 2.06147 2.25433L 2.06147 2.25433L 2.41502 1.90078ZM 2.41502 2.41502L 2.06147 2.06147L 2.41502 2.41502ZM 2.15826 2.02121C 2.19274 2.02121 2.22728 2.03468 2.25251 2.05966L 1.54904 2.77038C 1.71684 2.93647 1.93758 3.02121 2.15826 3.02121L 2.15826 2.02121ZM 2.25433 2.06147L 0.45993 0.267068L -0.247177 0.974174L 1.54722 2.76857L 2.25433 2.06147ZM 0.45993 0.267068C 0.513357 0.320494 0.513357 0.406503 0.45993 0.45993L -0.247177 -0.247177C -0.584274 0.0899204 -0.584274 0.637077 -0.247177 0.974174L 0.45993 0.267068ZM 0.45993 0.45993C 0.406503 0.513356 0.320494 0.513356 0.267067 0.45993L 0.974174 -0.247177C 0.637077 -0.584275 0.0899207 -0.584275 -0.247177 -0.247177L 0.45993 0.45993ZM 0.267067 0.45993L 2.06147 2.25433L 2.76857 1.54722L 0.974174 -0.247177L 0.267067 0.45993ZM 2.06147 2.25433C 2.00804 2.2009 2.00804 2.11489 2.06147 2.06147L 2.76857 2.76857C 3.10567 2.43148 3.10567 1.88432 2.76857 1.54722L 2.06147 2.25433ZM 2.06147 2.06147C 2.08849 2.03444 2.12425 2.02121 2.15826 2.02121L 2.15826 3.02121C 2.37848 3.02121 2.60044 2.93671 2.76857 2.76857L 2.06147 2.06147Z"/>
</defs>
</svg>
