<svg width="1274" height="1162" viewBox="0 0 1274 1162" version="1.1" xmlns="http://www.w3.org/2000/svg" xmlns:xlink="http://www.w3.org/1999/xlink">
<title>mpg_calculate</title>
<desc>Created using Figma</desc>
<g id="Canvas" transform="matrix(2 0 0 2 62 -1966)">
<g id="mpg_calculate">
<g id="Rectangle 3" filter="url(#filter0_dd)">
<use xlink:href="#path0_fill" transform="translate(11 1021)" fill="#FFFFFF"/>
<mask id="mask0_outline_ins">
<use xlink:href="#path0_fill" fill="white" transform="translate(11 1021)"/>
</mask>
<g mask="url(#mask0_outline_ins)">
<use xlink:href="#path1_stroke_2x" transform="translate(11 1021)" fill="#EBEBEB"/>
</g>
</g>
<g id="Calcular millas a recorrer segun presupuesto">
<use xlink:href="#path2_fill" transform="translate(11 1061)" fill="#E55050"/>
</g>
<g id="Combustible">
<use xlink:href="#path3_fill" transform="translate(64 1167)" fill="#424242"/>
</g>
<g id="Presupuesto">
<use xlink:href="#path4_fill" transform="translate(64.6872 1252)" fill="#424242"/>
</g>
<g id="Galones">
<use xlink:href="#path5_fill" transform="translate(64.6872 1332)" fill="#424242"/>
</g>
</g>
</g>
<defs>
<filter id="filter0_dd" filterUnits="userSpaceOnUse" x="-31" y="983" width="637" height="581" color-interpolation-filters="sRGB">
<feFlood flood-opacity="0" result="BackgroundImageFix"/>
<feColorMatrix in="SourceAlpha" type="matrix" values="0 0 0 0 0 0 0 0 0 0 0 0 0 0 0 0 0 0 255 0"/>
<feOffset dx="0" dy="4"/>
<feGaussianBlur stdDeviation="21"/>
<feColorMatrix type="matrix" values="0 0 0 0 0 0 0 0 0 0 0 0 0 0 0 0 0 0 0.2 0"/>
<feBlend mode="normal" in2="BackgroundImageFix" result="effect1_dropShadow"/>
<feColorMatrix in="SourceAlpha" type="matrix" values="0 0 0 0 0 0 0 0 0 0 0 0 0 0 0 0 0 0 255 0"/>
<feOffset dx="0" dy="2"/>
<feGaussianBlur stdDeviation="4"/>
<feColorMatrix type="matrix" values="0 0 0 0 0 0 0 0 0 0 0 0 0 0 0 0 0 0 0.12 0"/>
<feBlend mode="normal" in2="effect1_dropShadow" result="effect2_dropShadow"/>
<feBlend mode="normal" in="SourceGraphic" in2="effect2_dropShadow" result="shape"/>
</filter>
<path id="path0_fill" d="M 0 4C 0 1.79086 1.79086 0 4 0L 549 0C 551.209 0 553 1.79086 553 4L 553 493C 553 495.209 551.209 497 549 497L 4 497C 1.79086 497 0 495.209 0 493L 0 4Z"/>
<path id="path1_stroke_2x" d="M 4 1L 549 1L 549 -1L 4 -1L 4 1ZM 552 4L 552 493L 554 493L 554 4L 552 4ZM 549 496L 4 496L 4 498L 549 498L 549 496ZM 1 493L 1 4L -1 4L -1 493L 1 493ZM 4 -1C 1.23858 -1 -1 1.23858 -1 4L 1 4C 1 2.34315 2.34315 1 4 1L 4 -1ZM 549 1C 550.657 1 552 2.34315 552 4L 554 4C 554 1.23858 551.761 -1 549 -1L 549 1ZM 552 493C 552 494.657 550.657 496 549 496L 549 498C 551.761 498 554 495.761 554 493L 552 493ZM 4 496C 2.34315 496 1 494.657 1 493L -1 493C -1 495.761 1.23858 498 4 498L 4 496Z"/>
<path id="path2_fill" d="M 132.987 7.64453C 132.291 7.64453 131.674 7.78125 131.135 8.05469C 130.604 8.32031 130.155 8.70703 129.787 9.21484C 129.428 9.71484 129.155 10.3281 128.967 11.0547C 128.78 11.7734 128.686 12.582 128.686 13.4805C 128.686 14.3945 128.768 15.207 128.932 15.918C 129.104 16.6289 129.362 17.2305 129.705 17.7227C 130.057 18.207 130.502 18.5781 131.041 18.8359C 131.588 19.0859 132.237 19.2109 132.987 19.2109C 133.682 19.2109 134.377 19.1328 135.073 18.9766C 135.776 18.8203 136.537 18.5977 137.358 18.3086L 137.358 21.3555C 136.983 21.5117 136.612 21.6445 136.244 21.7539C 135.877 21.8633 135.502 21.9531 135.119 22.0234C 134.737 22.0938 134.342 22.1445 133.936 22.1758C 133.537 22.2148 133.108 22.2344 132.647 22.2344C 131.326 22.2344 130.182 22.0234 129.213 21.6016C 128.244 21.1797 127.444 20.5859 126.811 19.8203C 126.178 19.0547 125.709 18.1328 125.405 17.0547C 125.1 15.9766 124.948 14.7773 124.948 13.457C 124.948 12.1602 125.123 10.9727 125.475 9.89453C 125.826 8.80859 126.342 7.875 127.022 7.09375C 127.701 6.3125 128.541 5.70703 129.541 5.27734C 130.541 4.83984 131.69 4.62109 132.987 4.62109C 133.838 4.62109 134.69 4.73047 135.541 4.94922C 136.401 5.16016 137.221 5.45312 138.002 5.82812L 136.83 8.78125C 136.19 8.47656 135.545 8.21094 134.897 7.98438C 134.248 7.75781 133.612 7.64453 132.987 7.64453ZM 148.818 22L 148.127 20.2188L 148.021 20.2188C 147.763 20.5703 147.506 20.875 147.248 21.1328C 146.99 21.3828 146.709 21.5898 146.404 21.7539C 146.099 21.918 145.756 22.0391 145.373 22.1172C 144.998 22.1953 144.56 22.2344 144.06 22.2344C 143.529 22.2344 143.037 22.1523 142.584 21.9883C 142.131 21.8164 141.736 21.5625 141.4 21.2266C 141.072 20.8828 140.814 20.4531 140.627 19.9375C 140.439 19.4141 140.345 18.7969 140.345 18.0859C 140.345 16.6953 140.791 15.6719 141.681 15.0156C 142.572 14.3516 143.904 13.9844 145.678 13.9141L 147.763 13.8438L 147.763 12.8594C 147.763 12.3203 147.607 11.9219 147.295 11.6641C 146.982 11.4062 146.545 11.2773 145.982 11.2773C 145.42 11.2773 144.869 11.3594 144.33 11.5234C 143.799 11.6875 143.263 11.9062 142.724 12.1797L 141.564 9.8125C 142.22 9.44531 142.947 9.15625 143.744 8.94531C 144.541 8.73438 145.377 8.62891 146.252 8.62891C 147.885 8.62891 149.135 9.01172 150.002 9.77734C 150.877 10.543 151.314 11.707 151.314 13.2695L 151.314 22L 148.818 22ZM 147.763 15.9297L 146.58 15.9766C 146.103 15.9922 145.701 16.0547 145.373 16.1641C 145.045 16.2734 144.779 16.4219 144.576 16.6094C 144.381 16.7891 144.236 17.0078 144.142 17.2656C 144.056 17.5156 144.013 17.7969 144.013 18.1094C 144.013 18.6562 144.146 19.0469 144.412 19.2812C 144.678 19.5078 145.025 19.6211 145.455 19.6211C 145.783 19.6211 146.088 19.5664 146.369 19.457C 146.65 19.3398 146.892 19.1719 147.095 18.9531C 147.306 18.7266 147.47 18.4531 147.588 18.1328C 147.705 17.8047 147.763 17.4297 147.763 17.0078L 147.763 15.9297ZM 159.048 22L 155.474 22L 155.474 3.76562L 159.048 3.76562L 159.048 22ZM 168.739 22.2344C 167.802 22.2344 166.954 22.1055 166.196 21.8477C 165.446 21.5898 164.802 21.1914 164.263 20.6523C 163.731 20.1055 163.321 19.4102 163.032 18.5664C 162.751 17.7148 162.61 16.6992 162.61 15.5195C 162.61 14.2148 162.755 13.125 163.044 12.25C 163.341 11.3672 163.755 10.6602 164.286 10.1289C 164.825 9.59766 165.47 9.21875 166.22 8.99219C 166.977 8.76562 167.817 8.65234 168.739 8.65234C 169.411 8.65234 170.079 8.73438 170.743 8.89844C 171.407 9.0625 172.032 9.29297 172.618 9.58984L 171.587 12.3086C 171.071 12.082 170.575 11.8984 170.098 11.7578C 169.622 11.6094 169.169 11.5352 168.739 11.5352C 167.872 11.5352 167.243 11.8672 166.852 12.5312C 166.462 13.1875 166.266 14.1758 166.266 15.4961C 166.266 16.8086 166.462 17.7773 166.852 18.4023C 167.243 19.0273 167.856 19.3398 168.692 19.3398C 169.372 19.3398 169.989 19.2539 170.544 19.082C 171.098 18.9023 171.665 18.6758 172.243 18.4023L 172.243 21.3789C 171.954 21.5195 171.673 21.6445 171.399 21.7539C 171.126 21.8633 170.848 21.9531 170.567 22.0234C 170.294 22.0938 170.005 22.1445 169.7 22.1758C 169.403 22.2148 169.083 22.2344 168.739 22.2344ZM 184.313 22L 183.832 20.3242L 183.645 20.3242C 183.45 20.6602 183.215 20.9492 182.942 21.1914C 182.676 21.4258 182.383 21.6211 182.063 21.7773C 181.743 21.9336 181.403 22.0469 181.043 22.1172C 180.684 22.1953 180.317 22.2344 179.942 22.2344C 179.301 22.2344 178.719 22.1445 178.196 21.9648C 177.672 21.7773 177.223 21.4883 176.848 21.0977C 176.473 20.707 176.184 20.2109 175.981 19.6094C 175.778 19.0078 175.676 18.2852 175.676 17.4414L 175.676 8.89844L 179.25 8.89844L 179.25 16.5508C 179.25 17.4961 179.391 18.207 179.672 18.6836C 179.961 19.1523 180.418 19.3867 181.043 19.3867C 181.512 19.3867 181.903 19.293 182.215 19.1055C 182.528 18.918 182.774 18.6406 182.953 18.2734C 183.141 17.9062 183.274 17.4531 183.352 16.9141C 183.43 16.375 183.469 15.7578 183.469 15.0625L 183.469 8.89844L 187.043 8.89844L 187.043 22L 184.313 22ZM 194.848 22L 191.273 22L 191.273 3.76562L 194.848 3.76562L 194.848 22ZM 206.695 22L 206.003 20.2188L 205.898 20.2188C 205.64 20.5703 205.382 20.875 205.124 21.1328C 204.867 21.3828 204.585 21.5898 204.281 21.7539C 203.976 21.918 203.632 22.0391 203.249 22.1172C 202.874 22.1953 202.437 22.2344 201.937 22.2344C 201.406 22.2344 200.913 22.1523 200.46 21.9883C 200.007 21.8164 199.613 21.5625 199.277 21.2266C 198.949 20.8828 198.691 20.4531 198.503 19.9375C 198.316 19.4141 198.222 18.7969 198.222 18.0859C 198.222 16.6953 198.667 15.6719 199.558 15.0156C 200.449 14.3516 201.781 13.9844 203.554 13.9141L 205.64 13.8438L 205.64 12.8594C 205.64 12.3203 205.484 11.9219 205.171 11.6641C 204.859 11.4062 204.421 11.2773 203.859 11.2773C 203.296 11.2773 202.745 11.3594 202.206 11.5234C 201.675 11.6875 201.14 11.9062 200.601 12.1797L 199.441 9.8125C 200.097 9.44531 200.824 9.15625 201.62 8.94531C 202.417 8.73438 203.253 8.62891 204.128 8.62891C 205.761 8.62891 207.011 9.01172 207.878 9.77734C 208.753 10.543 209.191 11.707 209.191 13.2695L 209.191 22L 206.695 22ZM 205.64 15.9297L 204.456 15.9766C 203.98 15.9922 203.578 16.0547 203.249 16.1641C 202.921 16.2734 202.656 16.4219 202.453 16.6094C 202.257 16.7891 202.113 17.0078 202.019 17.2656C 201.933 17.5156 201.89 17.7969 201.89 18.1094C 201.89 18.6562 202.023 19.0469 202.288 19.2812C 202.554 19.5078 202.902 19.6211 203.331 19.6211C 203.66 19.6211 203.964 19.5664 204.245 19.457C 204.527 19.3398 204.769 19.1719 204.972 18.9531C 205.183 18.7266 205.347 18.4531 205.464 18.1328C 205.581 17.8047 205.64 17.4297 205.64 17.0078L 205.64 15.9297ZM 220.183 8.65234C 220.276 8.65234 220.378 8.65625 220.487 8.66406C 220.604 8.66406 220.714 8.67188 220.815 8.6875C 220.925 8.69531 221.022 8.70703 221.108 8.72266C 221.202 8.73047 221.272 8.74219 221.319 8.75781L 221.319 12.1094C 221.257 12.0938 221.171 12.0781 221.061 12.0625C 220.952 12.0469 220.835 12.0352 220.71 12.0273C 220.593 12.0117 220.475 12.0039 220.358 12.0039C 220.241 11.9961 220.143 11.9922 220.065 11.9922C 219.604 11.9922 219.179 12.0508 218.788 12.168C 218.405 12.2852 218.073 12.4766 217.792 12.7422C 217.518 13 217.304 13.3438 217.147 13.7734C 216.999 14.1953 216.925 14.7148 216.925 15.332L 216.925 22L 213.35 22L 213.35 8.89844L 216.058 8.89844L 216.585 10.8672L 216.761 10.8672C 216.948 10.5312 217.151 10.2266 217.37 9.95312C 217.589 9.67969 217.831 9.44922 218.097 9.26172C 218.37 9.06641 218.675 8.91797 219.011 8.81641C 219.354 8.70703 219.745 8.65234 220.183 8.65234ZM 242.225 22L 238.65 22L 238.65 14.3477C 238.65 13.4023 238.51 12.6953 238.228 12.2266C 237.947 11.75 237.506 11.5117 236.904 11.5117C 236.451 11.5117 236.072 11.6055 235.768 11.793C 235.471 11.9805 235.232 12.2578 235.053 12.625C 234.873 12.9922 234.744 13.4453 234.666 13.9844C 234.588 14.5234 234.549 15.1406 234.549 15.8359L 234.549 22L 230.975 22L 230.975 8.89844L 233.705 8.89844L 234.185 10.5742L 234.385 10.5742C 234.572 10.2383 234.795 9.94922 235.053 9.70703C 235.318 9.46484 235.607 9.26562 235.92 9.10938C 236.232 8.95312 236.564 8.83984 236.916 8.76953C 237.268 8.69141 237.623 8.65234 237.982 8.65234C 238.881 8.65234 239.643 8.80859 240.268 9.12109C 240.9 9.42578 241.385 9.91016 241.721 10.5742L 242.014 10.5742C 242.201 10.2383 242.428 9.94922 242.693 9.70703C 242.959 9.46484 243.252 9.26562 243.572 9.10938C 243.893 8.95312 244.228 8.83984 244.58 8.76953C 244.939 8.69141 245.299 8.65234 245.658 8.65234C 247.064 8.65234 248.123 9.03516 248.834 9.80078C 249.553 10.5586 249.912 11.7773 249.912 13.457L 249.912 22L 246.326 22L 246.326 14.3477C 246.326 13.4023 246.185 12.6953 245.904 12.2266C 245.623 11.75 245.182 11.5117 244.58 11.5117C 243.728 11.5117 243.123 11.8516 242.764 12.5312C 242.404 13.2031 242.225 14.168 242.225 15.4258L 242.225 22ZM 253.919 5.51172C 253.919 5.17578 253.97 4.89844 254.072 4.67969C 254.173 4.45313 254.31 4.27344 254.482 4.14062C 254.662 4 254.869 3.90234 255.103 3.84766C 255.345 3.79297 255.599 3.76562 255.865 3.76562C 256.13 3.76562 256.38 3.79297 256.615 3.84766C 256.849 3.90234 257.052 4 257.224 4.14062C 257.404 4.27344 257.544 4.45313 257.646 4.67969C 257.755 4.89844 257.81 5.17578 257.81 5.51172C 257.81 5.83984 257.755 6.11719 257.646 6.34375C 257.544 6.57031 257.404 6.75391 257.224 6.89453C 257.052 7.02734 256.849 7.125 256.615 7.1875C 256.38 7.24219 256.13 7.26953 255.865 7.26953C 255.599 7.26953 255.345 7.24219 255.103 7.1875C 254.869 7.125 254.662 7.02734 254.482 6.89453C 254.31 6.75391 254.173 6.57031 254.072 6.34375C 253.97 6.11719 253.919 5.83984 253.919 5.51172ZM 257.646 22L 254.072 22L 254.072 8.89844L 257.646 8.89844L 257.646 22ZM 265.462 22L 261.888 22L 261.888 3.76562L 265.462 3.76562L 265.462 22ZM 273.278 22L 269.704 22L 269.704 3.76562L 273.278 3.76562L 273.278 22ZM 285.125 22L 284.434 20.2188L 284.328 20.2188C 284.07 20.5703 283.812 20.875 283.555 21.1328C 283.297 21.3828 283.016 21.5898 282.711 21.7539C 282.406 21.918 282.062 22.0391 281.68 22.1172C 281.305 22.1953 280.867 22.2344 280.367 22.2344C 279.836 22.2344 279.344 22.1523 278.891 21.9883C 278.438 21.8164 278.043 21.5625 277.707 21.2266C 277.379 20.8828 277.121 20.4531 276.934 19.9375C 276.746 19.4141 276.652 18.7969 276.652 18.0859C 276.652 16.6953 277.098 15.6719 277.988 15.0156C 278.879 14.3516 280.211 13.9844 281.984 13.9141L 284.07 13.8438L 284.07 12.8594C 284.07 12.3203 283.914 11.9219 283.602 11.6641C 283.289 11.4062 282.852 11.2773 282.289 11.2773C 281.727 11.2773 281.176 11.3594 280.637 11.5234C 280.105 11.6875 279.57 11.9062 279.031 12.1797L 277.871 9.8125C 278.527 9.44531 279.254 9.15625 280.051 8.94531C 280.848 8.73438 281.684 8.62891 282.559 8.62891C 284.191 8.62891 285.441 9.01172 286.309 9.77734C 287.184 10.543 287.621 11.707 287.621 13.2695L 287.621 22L 285.125 22ZM 284.07 15.9297L 282.887 15.9766C 282.41 15.9922 282.008 16.0547 281.68 16.1641C 281.352 16.2734 281.086 16.4219 280.883 16.6094C 280.688 16.7891 280.543 17.0078 280.449 17.2656C 280.363 17.5156 280.32 17.7969 280.32 18.1094C 280.32 18.6562 280.453 19.0469 280.719 19.2812C 280.984 19.5078 281.332 19.6211 281.762 19.6211C 282.09 19.6211 282.395 19.5664 282.676 19.457C 282.957 19.3398 283.199 19.1719 283.402 18.9531C 283.613 18.7266 283.777 18.4531 283.895 18.1328C 284.012 17.8047 284.07 17.4297 284.07 17.0078L 284.07 15.9297ZM 300.511 18.1094C 300.511 18.7969 300.386 19.3984 300.136 19.9141C 299.886 20.4297 299.531 20.8594 299.07 21.2031C 298.609 21.5469 298.05 21.8047 297.394 21.9766C 296.738 22.1484 296.003 22.2344 295.191 22.2344C 294.761 22.2344 294.363 22.2188 293.996 22.1875C 293.628 22.1641 293.281 22.1211 292.953 22.0586C 292.625 21.9961 292.308 21.918 292.003 21.8242C 291.699 21.7305 291.39 21.6133 291.078 21.4727L 291.078 18.5195C 291.406 18.6836 291.75 18.832 292.109 18.9648C 292.476 19.0977 292.839 19.2148 293.199 19.3164C 293.558 19.4102 293.906 19.4844 294.242 19.5391C 294.585 19.5938 294.902 19.6211 295.191 19.6211C 295.511 19.6211 295.785 19.5938 296.011 19.5391C 296.238 19.4766 296.421 19.3945 296.562 19.293C 296.71 19.1836 296.816 19.0586 296.878 18.918C 296.949 18.7695 296.984 18.6133 296.984 18.4492C 296.984 18.2852 296.957 18.1406 296.902 18.0156C 296.855 17.8828 296.742 17.7461 296.562 17.6055C 296.382 17.457 296.117 17.293 295.765 17.1133C 295.421 16.9258 294.957 16.6992 294.371 16.4336C 293.8 16.1758 293.304 15.9219 292.882 15.6719C 292.468 15.4141 292.125 15.1289 291.851 14.8164C 291.585 14.5039 291.386 14.1484 291.253 13.75C 291.121 13.3438 291.054 12.8633 291.054 12.3086C 291.054 11.6992 291.171 11.168 291.406 10.7148C 291.64 10.2539 291.972 9.87109 292.402 9.56641C 292.832 9.26172 293.347 9.03516 293.949 8.88672C 294.558 8.73047 295.234 8.65234 295.976 8.65234C 296.757 8.65234 297.5 8.74219 298.203 8.92188C 298.906 9.10156 299.628 9.37109 300.371 9.73047L 299.293 12.2617C 298.699 11.9805 298.132 11.75 297.593 11.5703C 297.054 11.3906 296.515 11.3008 295.976 11.3008C 295.492 11.3008 295.14 11.3867 294.921 11.5586C 294.71 11.7305 294.605 11.9648 294.605 12.2617C 294.605 12.418 294.632 12.5586 294.687 12.6836C 294.742 12.8008 294.851 12.9258 295.015 13.0586C 295.179 13.1836 295.41 13.3242 295.707 13.4805C 296.003 13.6289 296.39 13.8125 296.867 14.0312C 297.421 14.2734 297.921 14.5156 298.367 14.7578C 298.812 14.9922 299.195 15.2617 299.515 15.5664C 299.835 15.8711 300.082 16.2266 300.253 16.6328C 300.425 17.0391 300.511 17.5312 300.511 18.1094ZM 318.135 22L 317.444 20.2188L 317.338 20.2188C 317.081 20.5703 316.823 20.875 316.565 21.1328C 316.307 21.3828 316.026 21.5898 315.721 21.7539C 315.417 21.918 315.073 22.0391 314.69 22.1172C 314.315 22.1953 313.878 22.2344 313.378 22.2344C 312.846 22.2344 312.354 22.1523 311.901 21.9883C 311.448 21.8164 311.053 21.5625 310.717 21.2266C 310.389 20.8828 310.131 20.4531 309.944 19.9375C 309.756 19.4141 309.663 18.7969 309.663 18.0859C 309.663 16.6953 310.108 15.6719 310.999 15.0156C 311.889 14.3516 313.221 13.9844 314.995 13.9141L 317.081 13.8438L 317.081 12.8594C 317.081 12.3203 316.924 11.9219 316.612 11.6641C 316.299 11.4062 315.862 11.2773 315.299 11.2773C 314.737 11.2773 314.186 11.3594 313.647 11.5234C 313.116 11.6875 312.581 11.9062 312.042 12.1797L 310.881 9.8125C 311.538 9.44531 312.264 9.15625 313.061 8.94531C 313.858 8.73438 314.694 8.62891 315.569 8.62891C 317.202 8.62891 318.452 9.01172 319.319 9.77734C 320.194 10.543 320.631 11.707 320.631 13.2695L 320.631 22L 318.135 22ZM 317.081 15.9297L 315.897 15.9766C 315.42 15.9922 315.018 16.0547 314.69 16.1641C 314.362 16.2734 314.096 16.4219 313.893 16.6094C 313.698 16.7891 313.553 17.0078 313.46 17.2656C 313.374 17.5156 313.331 17.7969 313.331 18.1094C 313.331 18.6562 313.463 19.0469 313.729 19.2812C 313.995 19.5078 314.342 19.6211 314.772 19.6211C 315.1 19.6211 315.405 19.5664 315.686 19.457C 315.967 19.3398 316.21 19.1719 316.413 18.9531C 316.624 18.7266 316.788 18.4531 316.905 18.1328C 317.022 17.8047 317.081 17.4297 317.081 17.0078L 317.081 15.9297ZM 338.338 8.65234C 338.431 8.65234 338.533 8.65625 338.642 8.66406C 338.759 8.66406 338.869 8.67188 338.97 8.6875C 339.08 8.69531 339.177 8.70703 339.263 8.72266C 339.357 8.73047 339.427 8.74219 339.474 8.75781L 339.474 12.1094C 339.412 12.0938 339.326 12.0781 339.216 12.0625C 339.107 12.0469 338.99 12.0352 338.865 12.0273C 338.748 12.0117 338.63 12.0039 338.513 12.0039C 338.396 11.9961 338.298 11.9922 338.22 11.9922C 337.759 11.9922 337.334 12.0508 336.943 12.168C 336.56 12.2852 336.228 12.4766 335.947 12.7422C 335.673 13 335.459 13.3438 335.302 13.7734C 335.154 14.1953 335.08 14.7148 335.08 15.332L 335.08 22L 331.505 22L 331.505 8.89844L 334.213 8.89844L 334.74 10.8672L 334.916 10.8672C 335.103 10.5312 335.306 10.2266 335.525 9.95312C 335.744 9.67969 335.986 9.44922 336.252 9.26172C 336.525 9.06641 336.83 8.91797 337.166 8.81641C 337.509 8.70703 337.9 8.65234 338.338 8.65234ZM 347.712 11.1953C 347.079 11.1953 346.552 11.418 346.13 11.8633C 345.716 12.3086 345.478 13.0078 345.415 13.9609L 349.974 13.9609C 349.966 13.5625 349.915 13.1953 349.821 12.8594C 349.728 12.5234 349.587 12.2344 349.4 11.9922C 349.212 11.7422 348.978 11.5469 348.696 11.4062C 348.415 11.2656 348.087 11.1953 347.712 11.1953ZM 348.169 22.2344C 347.232 22.2344 346.368 22.0977 345.579 21.8242C 344.79 21.5508 344.11 21.1406 343.54 20.5938C 342.97 20.0391 342.525 19.3438 342.204 18.5078C 341.892 17.6641 341.735 16.6758 341.735 15.543C 341.735 14.3945 341.88 13.3906 342.169 12.5312C 342.458 11.6719 342.86 10.957 343.376 10.3867C 343.9 9.80859 344.525 9.375 345.251 9.08594C 345.985 8.79688 346.798 8.65234 347.689 8.65234C 348.556 8.65234 349.337 8.78516 350.032 9.05078C 350.735 9.30859 351.329 9.69141 351.814 10.1992C 352.306 10.707 352.681 11.332 352.939 12.0742C 353.204 12.8086 353.337 13.6523 353.337 14.6055L 353.337 16.3398L 345.345 16.3398C 345.36 16.8398 345.439 17.293 345.579 17.6992C 345.728 18.0977 345.931 18.4375 346.189 18.7188C 346.454 18.9922 346.771 19.2031 347.138 19.3516C 347.513 19.5 347.939 19.5742 348.415 19.5742C 348.814 19.5742 349.189 19.5547 349.54 19.5156C 349.9 19.4688 350.247 19.4023 350.583 19.3164C 350.919 19.2305 351.251 19.125 351.579 19C 351.907 18.8672 352.243 18.7148 352.587 18.543L 352.587 21.3086C 352.275 21.4727 351.958 21.6133 351.638 21.7305C 351.325 21.8398 350.993 21.9336 350.642 22.0117C 350.29 22.0898 349.911 22.1445 349.505 22.1758C 349.099 22.2148 348.653 22.2344 348.169 22.2344ZM 362.29 22.2344C 361.352 22.2344 360.505 22.1055 359.747 21.8477C 358.997 21.5898 358.352 21.1914 357.813 20.6523C 357.282 20.1055 356.872 19.4102 356.583 18.5664C 356.301 17.7148 356.161 16.6992 356.161 15.5195C 356.161 14.2148 356.305 13.125 356.594 12.25C 356.891 11.3672 357.305 10.6602 357.837 10.1289C 358.376 9.59766 359.02 9.21875 359.77 8.99219C 360.528 8.76562 361.368 8.65234 362.29 8.65234C 362.962 8.65234 363.63 8.73438 364.294 8.89844C 364.958 9.0625 365.583 9.29297 366.169 9.58984L 365.137 12.3086C 364.622 12.082 364.126 11.8984 363.649 11.7578C 363.172 11.6094 362.719 11.5352 362.29 11.5352C 361.422 11.5352 360.794 11.8672 360.403 12.5312C 360.012 13.1875 359.817 14.1758 359.817 15.4961C 359.817 16.8086 360.012 17.7773 360.403 18.4023C 360.794 19.0273 361.407 19.3398 362.243 19.3398C 362.922 19.3398 363.54 19.2539 364.094 19.082C 364.649 18.9023 365.215 18.6758 365.794 18.4023L 365.794 21.3789C 365.505 21.5195 365.223 21.6445 364.95 21.7539C 364.676 21.8633 364.399 21.9531 364.118 22.0234C 363.844 22.0938 363.555 22.1445 363.251 22.1758C 362.954 22.2148 362.633 22.2344 362.29 22.2344ZM 372.274 15.4258C 372.274 16.7305 372.457 17.7148 372.824 18.3789C 373.192 19.0352 373.789 19.3633 374.617 19.3633C 375.438 19.3633 376.031 19.0312 376.399 18.3672C 376.766 17.7031 376.949 16.7227 376.949 15.4258C 376.949 14.1211 376.766 13.1484 376.399 12.5078C 376.031 11.8594 375.43 11.5352 374.594 11.5352C 373.774 11.5352 373.18 11.8594 372.813 12.5078C 372.453 13.1484 372.274 14.1211 372.274 15.4258ZM 380.594 15.4258C 380.594 16.5195 380.453 17.4883 380.172 18.332C 379.899 19.1758 379.5 19.8867 378.977 20.4648C 378.461 21.043 377.828 21.4844 377.078 21.7891C 376.336 22.0859 375.5 22.2344 374.57 22.2344C 373.703 22.2344 372.906 22.0859 372.18 21.7891C 371.453 21.4844 370.824 21.043 370.293 20.4648C 369.77 19.8867 369.36 19.1758 369.063 18.332C 368.766 17.4883 368.617 16.5195 368.617 15.4258C 368.617 14.3398 368.754 13.375 369.027 12.5312C 369.309 11.6875 369.707 10.9805 370.223 10.4102C 370.746 9.83203 371.379 9.39453 372.121 9.09766C 372.863 8.80078 373.703 8.65234 374.641 8.65234C 375.508 8.65234 376.305 8.80078 377.031 9.09766C 377.758 9.39453 378.383 9.83203 378.906 10.4102C 379.438 10.9805 379.852 11.6875 380.149 12.5312C 380.445 13.375 380.594 14.3398 380.594 15.4258ZM 391 8.65234C 391.093 8.65234 391.195 8.65625 391.304 8.66406C 391.422 8.66406 391.531 8.67188 391.633 8.6875C 391.742 8.69531 391.84 8.70703 391.925 8.72266C 392.019 8.73047 392.09 8.74219 392.136 8.75781L 392.136 12.1094C 392.074 12.0938 391.988 12.0781 391.879 12.0625C 391.769 12.0469 391.652 12.0352 391.527 12.0273C 391.41 12.0117 391.293 12.0039 391.175 12.0039C 391.058 11.9961 390.961 11.9922 390.883 11.9922C 390.422 11.9922 389.996 12.0508 389.605 12.168C 389.222 12.2852 388.89 12.4766 388.609 12.7422C 388.336 13 388.121 13.3438 387.965 13.7734C 387.816 14.1953 387.742 14.7148 387.742 15.332L 387.742 22L 384.168 22L 384.168 8.89844L 386.875 8.89844L 387.402 10.8672L 387.578 10.8672C 387.765 10.5312 387.968 10.2266 388.187 9.95312C 388.406 9.67969 388.648 9.44922 388.914 9.26172C 389.187 9.06641 389.492 8.91797 389.828 8.81641C 390.172 8.70703 390.562 8.65234 391 8.65234ZM 401.909 8.65234C 402.003 8.65234 402.105 8.65625 402.214 8.66406C 402.331 8.66406 402.441 8.67188 402.542 8.6875C 402.652 8.69531 402.749 8.70703 402.835 8.72266C 402.929 8.73047 402.999 8.74219 403.046 8.75781L 403.046 12.1094C 402.984 12.0938 402.898 12.0781 402.788 12.0625C 402.679 12.0469 402.562 12.0352 402.437 12.0273C 402.32 12.0117 402.202 12.0039 402.085 12.0039C 401.968 11.9961 401.87 11.9922 401.792 11.9922C 401.331 11.9922 400.905 12.0508 400.515 12.168C 400.132 12.2852 399.8 12.4766 399.519 12.7422C 399.245 13 399.03 13.3438 398.874 13.7734C 398.726 14.1953 398.652 14.7148 398.652 15.332L 398.652 22L 395.077 22L 395.077 8.89844L 397.784 8.89844L 398.312 10.8672L 398.487 10.8672C 398.675 10.5312 398.878 10.2266 399.097 9.95312C 399.316 9.67969 399.558 9.44922 399.823 9.26172C 400.097 9.06641 400.402 8.91797 400.737 8.81641C 401.081 8.70703 401.472 8.65234 401.909 8.65234ZM 411.284 11.1953C 410.651 11.1953 410.124 11.418 409.702 11.8633C 409.288 12.3086 409.05 13.0078 408.987 13.9609L 413.546 13.9609C 413.538 13.5625 413.487 13.1953 413.393 12.8594C 413.3 12.5234 413.159 12.2344 412.971 11.9922C 412.784 11.7422 412.55 11.5469 412.268 11.4062C 411.987 11.2656 411.659 11.1953 411.284 11.1953ZM 411.741 22.2344C 410.803 22.2344 409.94 22.0977 409.151 21.8242C 408.362 21.5508 407.682 21.1406 407.112 20.5938C 406.542 20.0391 406.096 19.3438 405.776 18.5078C 405.464 17.6641 405.307 16.6758 405.307 15.543C 405.307 14.3945 405.452 13.3906 405.741 12.5312C 406.03 11.6719 406.432 10.957 406.948 10.3867C 407.471 9.80859 408.096 9.375 408.823 9.08594C 409.557 8.79688 410.37 8.65234 411.26 8.65234C 412.128 8.65234 412.909 8.78516 413.604 9.05078C 414.307 9.30859 414.901 9.69141 415.385 10.1992C 415.878 10.707 416.253 11.332 416.51 12.0742C 416.776 12.8086 416.909 13.6523 416.909 14.6055L 416.909 16.3398L 408.917 16.3398C 408.932 16.8398 409.01 17.293 409.151 17.6992C 409.3 18.0977 409.503 18.4375 409.76 18.7188C 410.026 18.9922 410.342 19.2031 410.71 19.3516C 411.085 19.5 411.51 19.5742 411.987 19.5742C 412.385 19.5742 412.76 19.5547 413.112 19.5156C 413.471 19.4688 413.819 19.4023 414.155 19.3164C 414.491 19.2305 414.823 19.125 415.151 19C 415.479 18.8672 415.815 18.7148 416.159 18.543L 416.159 21.3086C 415.846 21.4727 415.53 21.6133 415.21 21.7305C 414.897 21.8398 414.565 21.9336 414.214 22.0117C 413.862 22.0898 413.483 22.1445 413.077 22.1758C 412.671 22.2148 412.225 22.2344 411.741 22.2344ZM 427.244 8.65234C 427.338 8.65234 427.44 8.65625 427.549 8.66406C 427.666 8.66406 427.776 8.67188 427.877 8.6875C 427.987 8.69531 428.084 8.70703 428.17 8.72266C 428.264 8.73047 428.334 8.74219 428.381 8.75781L 428.381 12.1094C 428.319 12.0938 428.233 12.0781 428.123 12.0625C 428.014 12.0469 427.897 12.0352 427.772 12.0273C 427.655 12.0117 427.537 12.0039 427.42 12.0039C 427.303 11.9961 427.205 11.9922 427.127 11.9922C 426.666 11.9922 426.24 12.0508 425.85 12.168C 425.467 12.2852 425.135 12.4766 424.854 12.7422C 424.58 13 424.365 13.3438 424.209 13.7734C 424.061 14.1953 423.987 14.7148 423.987 15.332L 423.987 22L 420.412 22L 420.412 8.89844L 423.119 8.89844L 423.647 10.8672L 423.823 10.8672C 424.01 10.5312 424.213 10.2266 424.432 9.95312C 424.651 9.67969 424.893 9.44922 425.158 9.26172C 425.432 9.06641 425.737 8.91797 426.073 8.81641C 426.416 8.70703 426.807 8.65234 427.244 8.65234ZM 172.963 49.1094C 172.963 49.7969 172.838 50.3984 172.588 50.9141C 172.338 51.4297 171.983 51.8594 171.522 52.2031C 171.061 52.5469 170.502 52.8047 169.846 52.9766C 169.19 53.1484 168.455 53.2344 167.643 53.2344C 167.213 53.2344 166.815 53.2188 166.447 53.1875C 166.08 53.1641 165.733 53.1211 165.404 53.0586C 165.076 52.9961 164.76 52.918 164.455 52.8242C 164.15 52.7305 163.842 52.6133 163.529 52.4727L 163.529 49.5195C 163.858 49.6836 164.201 49.832 164.561 49.9648C 164.928 50.0977 165.291 50.2148 165.65 50.3164C 166.01 50.4102 166.358 50.4844 166.693 50.5391C 167.037 50.5938 167.354 50.6211 167.643 50.6211C 167.963 50.6211 168.236 50.5938 168.463 50.5391C 168.69 50.4766 168.873 50.3945 169.014 50.293C 169.162 50.1836 169.268 50.0586 169.33 49.918C 169.4 49.7695 169.436 49.6133 169.436 49.4492C 169.436 49.2852 169.408 49.1406 169.354 49.0156C 169.307 48.8828 169.193 48.7461 169.014 48.6055C 168.834 48.457 168.568 48.293 168.217 48.1133C 167.873 47.9258 167.408 47.6992 166.822 47.4336C 166.252 47.1758 165.756 46.9219 165.334 46.6719C 164.92 46.4141 164.576 46.1289 164.303 45.8164C 164.037 45.5039 163.838 45.1484 163.705 44.75C 163.572 44.3438 163.506 43.8633 163.506 43.3086C 163.506 42.6992 163.623 42.168 163.858 41.7148C 164.092 41.2539 164.424 40.8711 164.854 40.5664C 165.283 40.2617 165.799 40.0352 166.4 39.8867C 167.01 39.7305 167.686 39.6523 168.428 39.6523C 169.209 39.6523 169.951 39.7422 170.654 39.9219C 171.358 40.1016 172.08 40.3711 172.822 40.7305L 171.744 43.2617C 171.15 42.9805 170.584 42.75 170.045 42.5703C 169.506 42.3906 168.967 42.3008 168.428 42.3008C 167.943 42.3008 167.592 42.3867 167.373 42.5586C 167.162 42.7305 167.057 42.9648 167.057 43.2617C 167.057 43.418 167.084 43.5586 167.139 43.6836C 167.193 43.8008 167.303 43.9258 167.467 44.0586C 167.631 44.1836 167.861 44.3242 168.158 44.4805C 168.455 44.6289 168.842 44.8125 169.318 45.0312C 169.873 45.2734 170.373 45.5156 170.818 45.7578C 171.264 45.9922 171.647 46.2617 171.967 46.5664C 172.287 46.8711 172.533 47.2266 172.705 47.6328C 172.877 48.0391 172.963 48.5312 172.963 49.1094ZM 181.564 42.1953C 180.931 42.1953 180.404 42.418 179.982 42.8633C 179.568 43.3086 179.33 44.0078 179.267 44.9609L 183.826 44.9609C 183.818 44.5625 183.767 44.1953 183.673 43.8594C 183.58 43.5234 183.439 43.2344 183.252 42.9922C 183.064 42.7422 182.83 42.5469 182.548 42.4062C 182.267 42.2656 181.939 42.1953 181.564 42.1953ZM 182.021 53.2344C 181.084 53.2344 180.22 53.0977 179.431 52.8242C 178.642 52.5508 177.963 52.1406 177.392 51.5938C 176.822 51.0391 176.377 50.3438 176.056 49.5078C 175.744 48.6641 175.588 47.6758 175.588 46.543C 175.588 45.3945 175.732 44.3906 176.021 43.5312C 176.31 42.6719 176.713 41.957 177.228 41.3867C 177.752 40.8086 178.377 40.375 179.103 40.0859C 179.838 39.7969 180.65 39.6523 181.541 39.6523C 182.408 39.6523 183.189 39.7852 183.884 40.0508C 184.588 40.3086 185.181 40.6914 185.666 41.1992C 186.158 41.707 186.533 42.332 186.791 43.0742C 187.056 43.8086 187.189 44.6523 187.189 45.6055L 187.189 47.3398L 179.197 47.3398C 179.213 47.8398 179.291 48.293 179.431 48.6992C 179.58 49.0977 179.783 49.4375 180.041 49.7188C 180.306 49.9922 180.623 50.2031 180.99 50.3516C 181.365 50.5 181.791 50.5742 182.267 50.5742C 182.666 50.5742 183.041 50.5547 183.392 50.5156C 183.752 50.4688 184.099 50.4023 184.435 50.3164C 184.771 50.2305 185.103 50.125 185.431 50C 185.759 49.8672 186.095 49.7148 186.439 49.543L 186.439 52.3086C 186.127 52.4727 185.81 52.6133 185.49 52.7305C 185.177 52.8398 184.845 52.9336 184.494 53.0117C 184.142 53.0898 183.763 53.1445 183.357 53.1758C 182.951 53.2148 182.505 53.2344 182.021 53.2344ZM 201.532 39.9219L 201.532 41.8672L 199.622 42.4648C 199.778 42.7305 199.888 43.0078 199.95 43.2969C 200.013 43.5781 200.044 43.8828 200.044 44.2109C 200.044 44.875 199.939 45.4844 199.728 46.0391C 199.517 46.5859 199.204 47.0547 198.79 47.4453C 198.376 47.8359 197.857 48.1406 197.232 48.3594C 196.607 48.5703 195.88 48.6758 195.052 48.6758C 194.872 48.6758 194.677 48.668 194.466 48.6523C 194.255 48.6289 194.099 48.6055 193.997 48.582C 193.841 48.7148 193.716 48.8555 193.622 49.0039C 193.536 49.1445 193.493 49.3164 193.493 49.5195C 193.493 49.6836 193.544 49.8164 193.646 49.918C 193.747 50.0117 193.88 50.0898 194.044 50.1523C 194.208 50.207 194.4 50.2461 194.618 50.2695C 194.837 50.2852 195.064 50.293 195.298 50.293L 197.337 50.293C 197.97 50.293 198.536 50.3672 199.036 50.5156C 199.536 50.6562 199.958 50.875 200.302 51.1719C 200.653 51.4688 200.923 51.8477 201.11 52.3086C 201.298 52.7617 201.392 53.3047 201.392 53.9375C 201.392 54.6797 201.243 55.3477 200.946 55.9414C 200.65 56.543 200.204 57.0508 199.61 57.4648C 199.025 57.8867 198.294 58.207 197.419 58.4258C 196.544 58.6523 195.532 58.7656 194.384 58.7656C 193.493 58.7656 192.716 58.6797 192.052 58.5078C 191.388 58.3438 190.833 58.1016 190.388 57.7812C 189.943 57.4688 189.607 57.0898 189.38 56.6445C 189.161 56.1992 189.052 55.6953 189.052 55.1328C 189.052 54.6562 189.134 54.2422 189.298 53.8906C 189.462 53.5391 189.681 53.2383 189.954 52.9883C 190.228 52.7383 190.536 52.5352 190.88 52.3789C 191.232 52.2227 191.591 52.1016 191.958 52.0156C 191.794 51.9453 191.63 51.8477 191.466 51.7227C 191.31 51.5977 191.165 51.4531 191.032 51.2891C 190.907 51.125 190.802 50.9453 190.716 50.75C 190.638 50.5469 190.599 50.3359 190.599 50.1172C 190.599 49.8672 190.634 49.6406 190.704 49.4375C 190.782 49.2344 190.892 49.0469 191.032 48.875C 191.173 48.6953 191.349 48.5273 191.56 48.3711C 191.771 48.2148 192.009 48.0547 192.275 47.8906C 191.587 47.5938 191.04 47.1172 190.634 46.4609C 190.235 45.8047 190.036 45.0312 190.036 44.1406C 190.036 43.4375 190.146 42.8086 190.364 42.2539C 190.583 41.6992 190.903 41.2305 191.325 40.8477C 191.747 40.457 192.271 40.1602 192.896 39.957C 193.521 39.7539 194.239 39.6523 195.052 39.6523C 195.208 39.6523 195.384 39.6641 195.579 39.6875C 195.775 39.7031 195.966 39.7266 196.153 39.7578C 196.349 39.7812 196.528 39.8086 196.693 39.8398C 196.857 39.8711 196.985 39.8984 197.079 39.9219L 201.532 39.9219ZM 192.157 54.8516C 192.157 55.0469 192.196 55.2344 192.275 55.4141C 192.36 55.6016 192.497 55.7656 192.685 55.9062C 192.872 56.0469 193.118 56.1562 193.423 56.2344C 193.728 56.3203 194.103 56.3633 194.548 56.3633C 195.767 56.3633 196.685 56.1914 197.302 55.8477C 197.919 55.5039 198.228 55.043 198.228 54.4648C 198.228 53.9727 198.036 53.6445 197.653 53.4805C 197.271 53.3164 196.677 53.2344 195.872 53.2344L 194.22 53.2344C 194.009 53.2344 193.782 53.2578 193.54 53.3047C 193.298 53.3594 193.075 53.4492 192.872 53.5742C 192.669 53.6992 192.497 53.8633 192.357 54.0664C 192.224 54.2773 192.157 54.5391 192.157 54.8516ZM 193.446 44.1875C 193.446 44.8984 193.579 45.4492 193.845 45.8398C 194.11 46.2305 194.513 46.4258 195.052 46.4258C 195.614 46.4258 196.021 46.2305 196.271 45.8398C 196.521 45.4492 196.646 44.8984 196.646 44.1875C 196.646 43.4844 196.521 42.9258 196.271 42.5117C 196.028 42.0977 195.622 41.8906 195.052 41.8906C 193.982 41.8906 193.446 42.6562 193.446 44.1875ZM 212.981 53L 212.501 51.3242L 212.313 51.3242C 212.118 51.6602 211.883 51.9492 211.61 52.1914C 211.344 52.4258 211.051 52.6211 210.731 52.7773C 210.411 52.9336 210.071 53.0469 209.712 53.1172C 209.352 53.1953 208.985 53.2344 208.61 53.2344C 207.969 53.2344 207.387 53.1445 206.864 52.9648C 206.34 52.7773 205.891 52.4883 205.516 52.0977C 205.141 51.707 204.852 51.2109 204.649 50.6094C 204.446 50.0078 204.344 49.2852 204.344 48.4414L 204.344 39.8984L 207.919 39.8984L 207.919 47.5508C 207.919 48.4961 208.059 49.207 208.34 49.6836C 208.63 50.1523 209.087 50.3867 209.712 50.3867C 210.18 50.3867 210.571 50.293 210.883 50.1055C 211.196 49.918 211.442 49.6406 211.622 49.2734C 211.809 48.9062 211.942 48.4531 212.02 47.9141C 212.098 47.375 212.137 46.7578 212.137 46.0625L 212.137 39.8984L 215.712 39.8984L 215.712 53L 212.981 53ZM 231.309 53L 227.735 53L 227.735 45.3477C 227.735 44.4023 227.59 43.6953 227.301 43.2266C 227.02 42.75 226.567 42.5117 225.942 42.5117C 225.473 42.5117 225.082 42.6055 224.77 42.793C 224.457 42.9805 224.207 43.2578 224.02 43.625C 223.84 43.9922 223.711 44.4453 223.633 44.9844C 223.555 45.5234 223.516 46.1406 223.516 46.8359L 223.516 53L 219.942 53L 219.942 39.8984L 222.672 39.8984L 223.152 41.5742L 223.352 41.5742C 223.539 41.2383 223.766 40.9492 224.031 40.707C 224.305 40.4648 224.602 40.2656 224.922 40.1094C 225.242 39.9531 225.582 39.8398 225.942 39.7695C 226.301 39.6914 226.668 39.6523 227.043 39.6523C 227.684 39.6523 228.266 39.7461 228.789 39.9336C 229.313 40.1133 229.762 40.3984 230.137 40.7891C 230.512 41.1797 230.801 41.6797 231.004 42.2891C 231.207 42.8906 231.309 43.6133 231.309 44.457L 231.309 53ZM 249.073 53.2344C 248.644 53.2344 248.257 53.1875 247.913 53.0938C 247.577 53 247.277 52.875 247.011 52.7188C 246.745 52.5625 246.511 52.3867 246.308 52.1914C 246.105 51.9883 245.921 51.7773 245.757 51.5586L 245.57 51.5586C 245.601 51.832 245.632 52.0898 245.663 52.332C 245.687 52.5352 245.706 52.7461 245.722 52.9648C 245.745 53.1758 245.757 53.3398 245.757 53.457L 245.757 58.7656L 242.183 58.7656L 242.183 39.8984L 245.089 39.8984L 245.593 41.5977L 245.757 41.5977C 245.921 41.332 246.109 41.082 246.32 40.8477C 246.53 40.6133 246.773 40.4102 247.046 40.2383C 247.327 40.0586 247.644 39.918 247.995 39.8164C 248.347 39.707 248.738 39.6523 249.167 39.6523C 249.847 39.6523 250.464 39.7969 251.019 40.0859C 251.573 40.375 252.05 40.8047 252.448 41.375C 252.847 41.9453 253.155 42.6523 253.374 43.4961C 253.593 44.3398 253.702 45.3164 253.702 46.4258C 253.702 47.543 253.589 48.5273 253.363 49.3789C 253.136 50.2227 252.816 50.9336 252.402 51.5117C 251.995 52.082 251.507 52.5117 250.937 52.8008C 250.374 53.0898 249.753 53.2344 249.073 53.2344ZM 247.96 42.5117C 247.562 42.5117 247.222 42.5859 246.941 42.7344C 246.667 42.875 246.445 43.0898 246.273 43.3789C 246.101 43.668 245.976 44.0352 245.898 44.4805C 245.82 44.918 245.773 45.4297 245.757 46.0156L 245.757 46.4023C 245.757 47.0352 245.792 47.5977 245.863 48.0898C 245.941 48.582 246.066 48.9961 246.238 49.332C 246.409 49.6602 246.636 49.9102 246.917 50.082C 247.206 50.2539 247.562 50.3398 247.984 50.3398C 248.695 50.3398 249.214 50.0039 249.542 49.332C 249.878 48.6523 250.046 47.668 250.046 46.3789C 250.046 45.0898 249.878 44.125 249.542 43.4844C 249.214 42.8359 248.687 42.5117 247.96 42.5117ZM 264.096 39.6523C 264.19 39.6523 264.292 39.6562 264.401 39.6641C 264.518 39.6641 264.628 39.6719 264.729 39.6875C 264.839 39.6953 264.936 39.707 265.022 39.7227C 265.116 39.7305 265.186 39.7422 265.233 39.7578L 265.233 43.1094C 265.171 43.0938 265.085 43.0781 264.975 43.0625C 264.866 43.0469 264.749 43.0352 264.624 43.0273C 264.507 43.0117 264.389 43.0039 264.272 43.0039C 264.155 42.9961 264.057 42.9922 263.979 42.9922C 263.518 42.9922 263.092 43.0508 262.702 43.168C 262.319 43.2852 261.987 43.4766 261.706 43.7422C 261.432 44 261.217 44.3438 261.061 44.7734C 260.913 45.1953 260.839 45.7148 260.839 46.332L 260.839 53L 257.264 53L 257.264 39.8984L 259.971 39.8984L 260.499 41.8672L 260.675 41.8672C 260.862 41.5312 261.065 41.2266 261.284 40.9531C 261.503 40.6797 261.745 40.4492 262.01 40.2617C 262.284 40.0664 262.589 39.918 262.925 39.8164C 263.268 39.707 263.659 39.6523 264.096 39.6523ZM 273.471 42.1953C 272.838 42.1953 272.311 42.418 271.889 42.8633C 271.475 43.3086 271.237 44.0078 271.174 44.9609L 275.733 44.9609C 275.725 44.5625 275.674 44.1953 275.58 43.8594C 275.487 43.5234 275.346 43.2344 275.158 42.9922C 274.971 42.7422 274.737 42.5469 274.455 42.4062C 274.174 42.2656 273.846 42.1953 273.471 42.1953ZM 273.928 53.2344C 272.99 53.2344 272.127 53.0977 271.338 52.8242C 270.549 52.5508 269.869 52.1406 269.299 51.5938C 268.729 51.0391 268.283 50.3438 267.963 49.5078C 267.651 48.6641 267.494 47.6758 267.494 46.543C 267.494 45.3945 267.639 44.3906 267.928 43.5312C 268.217 42.6719 268.619 41.957 269.135 41.3867C 269.658 40.8086 270.283 40.375 271.01 40.0859C 271.744 39.7969 272.557 39.6523 273.448 39.6523C 274.315 39.6523 275.096 39.7852 275.791 40.0508C 276.494 40.3086 277.088 40.6914 277.573 41.1992C 278.065 41.707 278.44 42.332 278.698 43.0742C 278.963 43.8086 279.096 44.6523 279.096 45.6055L 279.096 47.3398L 271.104 47.3398C 271.119 47.8398 271.198 48.293 271.338 48.6992C 271.487 49.0977 271.69 49.4375 271.948 49.7188C 272.213 49.9922 272.53 50.2031 272.897 50.3516C 273.272 50.5 273.698 50.5742 274.174 50.5742C 274.573 50.5742 274.948 50.5547 275.299 50.5156C 275.658 50.4688 276.006 50.4023 276.342 50.3164C 276.678 50.2305 277.01 50.125 277.338 50C 277.666 49.8672 278.002 49.7148 278.346 49.543L 278.346 52.3086C 278.033 52.4727 277.717 52.6133 277.397 52.7305C 277.084 52.8398 276.752 52.9336 276.401 53.0117C 276.049 53.0898 275.67 53.1445 275.264 53.1758C 274.858 53.2148 274.412 53.2344 273.928 53.2344ZM 291.33 49.1094C 291.33 49.7969 291.205 50.3984 290.955 50.9141C 290.705 51.4297 290.349 51.8594 289.888 52.2031C 289.427 52.5469 288.869 52.8047 288.213 52.9766C 287.556 53.1484 286.822 53.2344 286.01 53.2344C 285.58 53.2344 285.181 53.2188 284.814 53.1875C 284.447 53.1641 284.099 53.1211 283.771 53.0586C 283.443 52.9961 283.127 52.918 282.822 52.8242C 282.517 52.7305 282.209 52.6133 281.896 52.4727L 281.896 49.5195C 282.224 49.6836 282.568 49.832 282.927 49.9648C 283.295 50.0977 283.658 50.2148 284.017 50.3164C 284.377 50.4102 284.724 50.4844 285.06 50.5391C 285.404 50.5938 285.72 50.6211 286.01 50.6211C 286.33 50.6211 286.603 50.5938 286.83 50.5391C 287.056 50.4766 287.24 50.3945 287.381 50.293C 287.529 50.1836 287.635 50.0586 287.697 49.918C 287.767 49.7695 287.802 49.6133 287.802 49.4492C 287.802 49.2852 287.775 49.1406 287.72 49.0156C 287.674 48.8828 287.56 48.7461 287.381 48.6055C 287.201 48.457 286.935 48.293 286.584 48.1133C 286.24 47.9258 285.775 47.6992 285.189 47.4336C 284.619 47.1758 284.123 46.9219 283.701 46.6719C 283.287 46.4141 282.943 46.1289 282.67 45.8164C 282.404 45.5039 282.205 45.1484 282.072 44.75C 281.939 44.3438 281.873 43.8633 281.873 43.3086C 281.873 42.6992 281.99 42.168 282.224 41.7148C 282.459 41.2539 282.791 40.8711 283.22 40.5664C 283.65 40.2617 284.166 40.0352 284.767 39.8867C 285.377 39.7305 286.052 39.6523 286.795 39.6523C 287.576 39.6523 288.318 39.7422 289.021 39.9219C 289.724 40.1016 290.447 40.3711 291.189 40.7305L 290.111 43.2617C 289.517 42.9805 288.951 42.75 288.412 42.5703C 287.873 42.3906 287.334 42.3008 286.795 42.3008C 286.31 42.3008 285.959 42.3867 285.74 42.5586C 285.529 42.7305 285.424 42.9648 285.424 43.2617C 285.424 43.418 285.451 43.5586 285.506 43.6836C 285.56 43.8008 285.67 43.9258 285.834 44.0586C 285.998 44.1836 286.228 44.3242 286.525 44.4805C 286.822 44.6289 287.209 44.8125 287.685 45.0312C 288.24 45.2734 288.74 45.5156 289.185 45.7578C 289.631 45.9922 290.013 46.2617 290.334 46.5664C 290.654 46.8711 290.9 47.2266 291.072 47.6328C 291.244 48.0391 291.33 48.5312 291.33 49.1094ZM 303.2 53L 302.72 51.3242L 302.533 51.3242C 302.337 51.6602 302.103 51.9492 301.829 52.1914C 301.564 52.4258 301.271 52.6211 300.95 52.7773C 300.63 52.9336 300.29 53.0469 299.931 53.1172C 299.572 53.1953 299.204 53.2344 298.829 53.2344C 298.189 53.2344 297.607 53.1445 297.083 52.9648C 296.56 52.7773 296.111 52.4883 295.736 52.0977C 295.361 51.707 295.072 51.2109 294.868 50.6094C 294.665 50.0078 294.564 49.2852 294.564 48.4414L 294.564 39.8984L 298.138 39.8984L 298.138 47.5508C 298.138 48.4961 298.279 49.207 298.56 49.6836C 298.849 50.1523 299.306 50.3867 299.931 50.3867C 300.4 50.3867 300.79 50.293 301.103 50.1055C 301.415 49.918 301.661 49.6406 301.841 49.2734C 302.029 48.9062 302.161 48.4531 302.24 47.9141C 302.318 47.375 302.357 46.7578 302.357 46.0625L 302.357 39.8984L 305.931 39.8984L 305.931 53L 303.2 53ZM 317.052 53.2344C 316.622 53.2344 316.235 53.1875 315.891 53.0938C 315.555 53 315.255 52.875 314.989 52.7188C 314.723 52.5625 314.489 52.3867 314.286 52.1914C 314.083 51.9883 313.899 51.7773 313.735 51.5586L 313.548 51.5586C 313.579 51.832 313.61 52.0898 313.641 52.332C 313.665 52.5352 313.684 52.7461 313.7 52.9648C 313.723 53.1758 313.735 53.3398 313.735 53.457L 313.735 58.7656L 310.161 58.7656L 310.161 39.8984L 313.067 39.8984L 313.571 41.5977L 313.735 41.5977C 313.899 41.332 314.087 41.082 314.298 40.8477C 314.509 40.6133 314.751 40.4102 315.024 40.2383C 315.305 40.0586 315.622 39.918 315.973 39.8164C 316.325 39.707 316.716 39.6523 317.145 39.6523C 317.825 39.6523 318.442 39.7969 318.997 40.0859C 319.552 40.375 320.028 40.8047 320.427 41.375C 320.825 41.9453 321.134 42.6523 321.352 43.4961C 321.571 44.3398 321.68 45.3164 321.68 46.4258C 321.68 47.543 321.567 48.5273 321.341 49.3789C 321.114 50.2227 320.794 50.9336 320.38 51.5117C 319.973 52.082 319.485 52.5117 318.915 52.8008C 318.352 53.0898 317.731 53.2344 317.052 53.2344ZM 315.938 42.5117C 315.54 42.5117 315.2 42.5859 314.919 42.7344C 314.645 42.875 314.423 43.0898 314.251 43.3789C 314.079 43.668 313.954 44.0352 313.876 44.4805C 313.798 44.918 313.751 45.4297 313.735 46.0156L 313.735 46.4023C 313.735 47.0352 313.77 47.5977 313.841 48.0898C 313.919 48.582 314.044 48.9961 314.216 49.332C 314.388 49.6602 314.614 49.9102 314.895 50.082C 315.184 50.2539 315.54 50.3398 315.962 50.3398C 316.673 50.3398 317.192 50.0039 317.52 49.332C 317.856 48.6523 318.024 47.668 318.024 46.3789C 318.024 45.0898 317.856 44.125 317.52 43.4844C 317.192 42.8359 316.665 42.5117 315.938 42.5117ZM 333.809 53L 333.328 51.3242L 333.141 51.3242C 332.946 51.6602 332.711 51.9492 332.438 52.1914C 332.172 52.4258 331.879 52.6211 331.559 52.7773C 331.239 52.9336 330.899 53.0469 330.539 53.1172C 330.18 53.1953 329.813 53.2344 329.438 53.2344C 328.797 53.2344 328.215 53.1445 327.692 52.9648C 327.168 52.7773 326.719 52.4883 326.344 52.0977C 325.969 51.707 325.68 51.2109 325.477 50.6094C 325.274 50.0078 325.172 49.2852 325.172 48.4414L 325.172 39.8984L 328.746 39.8984L 328.746 47.5508C 328.746 48.4961 328.887 49.207 329.168 49.6836C 329.457 50.1523 329.914 50.3867 330.539 50.3867C 331.008 50.3867 331.399 50.293 331.711 50.1055C 332.024 49.918 332.27 49.6406 332.45 49.2734C 332.637 48.9062 332.77 48.4531 332.848 47.9141C 332.926 47.375 332.965 46.7578 332.965 46.0625L 332.965 39.8984L 336.539 39.8984L 336.539 53L 333.809 53ZM 346.066 42.1953C 345.433 42.1953 344.906 42.418 344.484 42.8633C 344.07 43.3086 343.832 44.0078 343.769 44.9609L 348.328 44.9609C 348.32 44.5625 348.269 44.1953 348.176 43.8594C 348.082 43.5234 347.941 43.2344 347.754 42.9922C 347.566 42.7422 347.332 42.5469 347.051 42.4062C 346.769 42.2656 346.441 42.1953 346.066 42.1953ZM 346.523 53.2344C 345.586 53.2344 344.723 53.0977 343.933 52.8242C 343.144 52.5508 342.465 52.1406 341.894 51.5938C 341.324 51.0391 340.879 50.3438 340.558 49.5078C 340.246 48.6641 340.09 47.6758 340.09 46.543C 340.09 45.3945 340.234 44.3906 340.523 43.5312C 340.812 42.6719 341.215 41.957 341.73 41.3867C 342.254 40.8086 342.879 40.375 343.605 40.0859C 344.34 39.7969 345.152 39.6523 346.043 39.6523C 346.91 39.6523 347.691 39.7852 348.387 40.0508C 349.09 40.3086 349.683 40.6914 350.168 41.1992C 350.66 41.707 351.035 42.332 351.293 43.0742C 351.558 43.8086 351.691 44.6523 351.691 45.6055L 351.691 47.3398L 343.699 47.3398C 343.715 47.8398 343.793 48.293 343.933 48.6992C 344.082 49.0977 344.285 49.4375 344.543 49.7188C 344.808 49.9922 345.125 50.2031 345.492 50.3516C 345.867 50.5 346.293 50.5742 346.769 50.5742C 347.168 50.5742 347.543 50.5547 347.894 50.5156C 348.254 50.4688 348.601 50.4023 348.937 50.3164C 349.273 50.2305 349.605 50.125 349.933 50C 350.262 49.8672 350.598 49.7148 350.941 49.543L 350.941 52.3086C 350.629 52.4727 350.312 52.6133 349.992 52.7305C 349.68 52.8398 349.348 52.9336 348.996 53.0117C 348.644 53.0898 348.265 53.1445 347.859 53.1758C 347.453 53.2148 347.008 53.2344 346.523 53.2344ZM 363.925 49.1094C 363.925 49.7969 363.8 50.3984 363.55 50.9141C 363.3 51.4297 362.945 51.8594 362.484 52.2031C 362.023 52.5469 361.464 52.8047 360.808 52.9766C 360.152 53.1484 359.417 53.2344 358.605 53.2344C 358.175 53.2344 357.777 53.2188 357.41 53.1875C 357.042 53.1641 356.695 53.1211 356.367 53.0586C 356.038 52.9961 355.722 52.918 355.417 52.8242C 355.113 52.7305 354.804 52.6133 354.492 52.4727L 354.492 49.5195C 354.82 49.6836 355.163 49.832 355.523 49.9648C 355.89 50.0977 356.253 50.2148 356.613 50.3164C 356.972 50.4102 357.32 50.4844 357.656 50.5391C 357.999 50.5938 358.316 50.6211 358.605 50.6211C 358.925 50.6211 359.199 50.5938 359.425 50.5391C 359.652 50.4766 359.835 50.3945 359.976 50.293C 360.124 50.1836 360.23 50.0586 360.292 49.918C 360.363 49.7695 360.398 49.6133 360.398 49.4492C 360.398 49.2852 360.37 49.1406 360.316 49.0156C 360.269 48.8828 360.156 48.7461 359.976 48.6055C 359.796 48.457 359.531 48.293 359.179 48.1133C 358.835 47.9258 358.37 47.6992 357.785 47.4336C 357.214 47.1758 356.718 46.9219 356.296 46.6719C 355.882 46.4141 355.538 46.1289 355.265 45.8164C 354.999 45.5039 354.8 45.1484 354.667 44.75C 354.535 44.3438 354.468 43.8633 354.468 43.3086C 354.468 42.6992 354.585 42.168 354.82 41.7148C 355.054 41.2539 355.386 40.8711 355.816 40.5664C 356.245 40.2617 356.761 40.0352 357.363 39.8867C 357.972 39.7305 358.648 39.6523 359.39 39.6523C 360.171 39.6523 360.913 39.7422 361.617 39.9219C 362.32 40.1016 363.042 40.3711 363.785 40.7305L 362.706 43.2617C 362.113 42.9805 361.546 42.75 361.007 42.5703C 360.468 42.3906 359.929 42.3008 359.39 42.3008C 358.906 42.3008 358.554 42.3867 358.335 42.5586C 358.124 42.7305 358.019 42.9648 358.019 43.2617C 358.019 43.418 358.046 43.5586 358.101 43.6836C 358.156 43.8008 358.265 43.9258 358.429 44.0586C 358.593 44.1836 358.824 44.3242 359.12 44.4805C 359.417 44.6289 359.804 44.8125 360.281 45.0312C 360.835 45.2734 361.335 45.5156 361.781 45.7578C 362.226 45.9922 362.609 46.2617 362.929 46.5664C 363.249 46.8711 363.495 47.2266 363.667 47.6328C 363.839 48.0391 363.925 48.5312 363.925 49.1094ZM 372.55 50.3867C 372.901 50.3867 373.233 50.3477 373.546 50.2695C 373.866 50.1914 374.19 50.0938 374.518 49.9766L 374.518 52.6367C 374.182 52.8086 373.765 52.9492 373.265 53.0586C 372.772 53.1758 372.233 53.2344 371.647 53.2344C 371.077 53.2344 370.546 53.168 370.054 53.0352C 369.561 52.9023 369.136 52.6719 368.776 52.3438C 368.417 52.0078 368.132 51.5625 367.921 51.0078C 367.718 50.4453 367.616 49.7422 367.616 48.8984L 367.616 42.582L 365.905 42.582L 365.905 41.0703L 367.874 39.875L 368.905 37.1094L 371.19 37.1094L 371.19 39.8984L 374.378 39.8984L 374.378 42.582L 371.19 42.582L 371.19 48.8984C 371.19 49.4062 371.315 49.7812 371.565 50.0234C 371.815 50.2656 372.143 50.3867 372.55 50.3867ZM 380.623 46.4258C 380.623 47.7305 380.807 48.7148 381.174 49.3789C 381.541 50.0352 382.139 50.3633 382.967 50.3633C 383.788 50.3633 384.381 50.0312 384.748 49.3672C 385.116 48.7031 385.299 47.7227 385.299 46.4258C 385.299 45.1211 385.116 44.1484 384.748 43.5078C 384.381 42.8594 383.78 42.5352 382.944 42.5352C 382.123 42.5352 381.53 42.8594 381.163 43.5078C 380.803 44.1484 380.623 45.1211 380.623 46.4258ZM 388.944 46.4258C 388.944 47.5195 388.803 48.4883 388.522 49.332C 388.248 50.1758 387.85 50.8867 387.327 51.4648C 386.811 52.043 386.178 52.4844 385.428 52.7891C 384.686 53.0859 383.85 53.2344 382.92 53.2344C 382.053 53.2344 381.256 53.0859 380.53 52.7891C 379.803 52.4844 379.174 52.043 378.643 51.4648C 378.12 50.8867 377.709 50.1758 377.413 49.332C 377.116 48.4883 376.967 47.5195 376.967 46.4258C 376.967 45.3398 377.104 44.375 377.377 43.5312C 377.659 42.6875 378.057 41.9805 378.573 41.4102C 379.096 40.832 379.729 40.3945 380.471 40.0977C 381.213 39.8008 382.053 39.6523 382.991 39.6523C 383.858 39.6523 384.655 39.8008 385.381 40.0977C 386.108 40.3945 386.733 40.832 387.256 41.4102C 387.788 41.9805 388.202 42.6875 388.498 43.5312C 388.795 44.375 388.944 45.3398 388.944 46.4258Z"/>
<path id="path3_fill" d="M 0.72 10.848C 0.72 14.352 2.928 16.192 5.632 16.192C 6.928 16.192 8.08 15.664 8.944 14.656L 7.648 13.232C 7.136 13.792 6.528 14.16 5.664 14.16C 4.144 14.16 3.136 12.912 3.136 10.768C 3.136 8.672 4.272 7.408 5.728 7.408C 6.464 7.408 6.96 7.712 7.488 8.192L 8.784 6.736C 8.08 6.016 6.992 5.376 5.696 5.376C 3.008 5.376 0.72 7.392 0.72 10.848ZM 10.4973 12.032C 10.4973 14.672 12.3533 16.192 14.3693 16.192C 16.3693 16.192 18.2253 14.672 18.2253 12.032C 18.2253 9.392 16.3693 7.872 14.3693 7.872C 12.3533 7.872 10.4973 9.392 10.4973 12.032ZM 12.9133 12.032C 12.9133 10.656 13.3933 9.776 14.3693 9.776C 15.3293 9.776 15.8253 10.656 15.8253 12.032C 15.8253 13.408 15.3293 14.288 14.3693 14.288C 13.3933 14.288 12.9133 13.408 12.9133 12.032ZM 20.4763 16L 22.8283 16L 22.8283 10.64C 23.3243 10.128 23.7883 9.872 24.1723 9.872C 24.8443 9.872 25.1483 10.224 25.1483 11.376L 25.1483 16L 27.5003 16L 27.5003 10.64C 28.0123 10.128 28.4603 9.872 28.8603 9.872C 29.5323 9.872 29.8363 10.224 29.8363 11.376L 29.8363 16L 32.1883 16L 32.1883 11.072C 32.1883 9.088 31.4203 7.872 29.7083 7.872C 28.6523 7.872 27.9163 8.48 27.2123 9.2C 26.8123 8.352 26.1403 7.872 25.0203 7.872C 23.9803 7.872 23.2763 8.432 22.6203 9.088L 22.5563 9.088L 22.3963 8.064L 20.4763 8.064L 20.4763 16ZM 34.835 16L 36.675 16L 36.867 15.168L 36.931 15.168C 37.555 15.84 38.291 16.192 38.995 16.192C 40.707 16.192 42.339 14.624 42.339 11.888C 42.339 9.456 41.139 7.872 39.219 7.872C 38.483 7.872 37.731 8.208 37.123 8.752L 37.187 7.536L 37.187 4.784L 34.835 4.784L 34.835 16ZM 37.187 13.76L 37.187 10.512C 37.635 10.016 38.067 9.792 38.547 9.792C 39.491 9.792 39.923 10.512 39.923 11.936C 39.923 13.568 39.267 14.272 38.451 14.272C 38.051 14.272 37.603 14.144 37.187 13.76ZM 44.5669 12.992C 44.5669 14.976 45.3029 16.192 47.0309 16.192C 48.1189 16.192 48.8549 15.696 49.5269 14.896L 49.5749 14.896L 49.7509 16L 51.6709 16L 51.6709 8.064L 49.3189 8.064L 49.3189 13.312C 48.8549 13.936 48.5029 14.192 47.9109 14.192C 47.2229 14.192 46.9189 13.824 46.9189 12.688L 46.9189 8.064L 44.5669 8.064L 44.5669 12.992ZM 53.6766 15.088C 54.4766 15.744 55.6766 16.192 56.7166 16.192C 58.8446 16.192 59.9806 15.072 59.9806 13.632C 59.9806 12.176 58.8446 11.616 57.8366 11.248C 57.0206 10.944 56.2846 10.752 56.2846 10.24C 56.2846 9.84 56.5726 9.616 57.1806 9.616C 57.7406 9.616 58.2846 9.872 58.8606 10.288L 59.9166 8.88C 59.2286 8.368 58.3326 7.872 57.1166 7.872C 55.2766 7.872 54.0766 8.88 54.0766 10.352C 54.0766 11.664 55.2126 12.32 56.1726 12.688C 56.9886 13.008 57.7886 13.248 57.7886 13.776C 57.7886 14.192 57.4846 14.448 56.7806 14.448C 56.1086 14.448 55.4526 14.16 54.7326 13.616L 53.6766 15.088ZM 62.4344 13.12C 62.4344 14.96 63.2024 16.192 65.1704 16.192C 65.9384 16.192 66.5144 16.032 66.9304 15.904L 66.5624 14.192C 66.3544 14.272 66.0664 14.352 65.8104 14.352C 65.1864 14.352 64.7864 13.984 64.7864 13.088L 64.7864 9.904L 66.6904 9.904L 66.6904 8.064L 64.7864 8.064L 64.7864 5.952L 62.8344 5.952L 62.5624 8.064L 61.3464 8.16L 61.3464 9.904L 62.4344 9.904L 62.4344 13.12ZM 70.0474 6.896C 70.8474 6.896 71.4074 6.384 71.4074 5.664C 71.4074 4.944 70.8474 4.448 70.0474 4.448C 69.2634 4.448 68.6874 4.944 68.6874 5.664C 68.6874 6.384 69.2634 6.896 70.0474 6.896ZM 68.8794 16L 71.2314 16L 71.2314 8.064L 68.8794 8.064L 68.8794 16ZM 73.9413 16L 75.7813 16L 75.9733 15.168L 76.0373 15.168C 76.6613 15.84 77.3973 16.192 78.1013 16.192C 79.8133 16.192 81.4453 14.624 81.4453 11.888C 81.4453 9.456 80.2453 7.872 78.3253 7.872C 77.5893 7.872 76.8373 8.208 76.2293 8.752L 76.2933 7.536L 76.2933 4.784L 73.9413 4.784L 73.9413 16ZM 76.2933 13.76L 76.2933 10.512C 76.7413 10.016 77.1733 9.792 77.6533 9.792C 78.5973 9.792 79.0293 10.512 79.0293 11.936C 79.0293 13.568 78.3733 14.272 77.5573 14.272C 77.1573 14.272 76.7093 14.144 76.2933 13.76ZM 83.7531 13.536C 83.7531 15.136 84.2971 16.192 85.9131 16.192C 86.4411 16.192 86.8411 16.112 87.0971 16L 86.8091 14.256C 86.6811 14.288 86.6171 14.288 86.5211 14.288C 86.3291 14.288 86.1051 14.128 86.1051 13.632L 86.1051 4.784L 83.7531 4.784L 83.7531 13.536ZM 88.5073 12.032C 88.5073 14.656 90.2513 16.192 92.5233 16.192C 93.4673 16.192 94.5233 15.856 95.3393 15.296L 94.5553 13.872C 93.9793 14.224 93.4353 14.4 92.8433 14.4C 91.7873 14.4 90.9873 13.872 90.7793 12.672L 95.5313 12.672C 95.5793 12.48 95.6273 12.096 95.6273 11.68C 95.6273 9.52 94.5073 7.872 92.2513 7.872C 90.3473 7.872 88.5073 9.456 88.5073 12.032ZM 90.7633 11.216C 90.9233 10.16 91.5633 9.664 92.2993 9.664C 93.2433 9.664 93.6273 10.304 93.6273 11.216L 90.7633 11.216Z"/>
<path id="path4_fill" d="M 1.216 16L 3.584 16L 3.584 12.464L 5.024 12.464C 7.232 12.464 9.104 11.376 9.104 8.928C 9.104 6.4 7.296 5.568 5.024 5.568L 1.216 5.568L 1.216 16ZM 3.584 10.592L 3.584 7.44L 4.88 7.44C 6.128 7.44 6.8 7.84 6.8 8.928C 6.8 10.016 6.176 10.592 4.88 10.592L 3.584 10.592ZM 11.3675 16L 13.7195 16L 13.7195 11.392C 14.1355 10.32 14.8715 9.936 15.4635 9.936C 15.7995 9.936 16.0395 9.984 16.3275 10.064L 16.7115 8.032C 16.4875 7.936 16.2155 7.872 15.7675 7.872C 14.9515 7.872 14.0875 8.384 13.5115 9.456L 13.4475 9.456L 13.2875 8.064L 11.3675 8.064L 11.3675 16ZM 17.7623 12.032C 17.7623 14.656 19.5063 16.192 21.7783 16.192C 22.7223 16.192 23.7783 15.856 24.5943 15.296L 23.8103 13.872C 23.2343 14.224 22.6903 14.4 22.0983 14.4C 21.0423 14.4 20.2423 13.872 20.0343 12.672L 24.7863 12.672C 24.8343 12.48 24.8823 12.096 24.8823 11.68C 24.8823 9.52 23.7623 7.872 21.5063 7.872C 19.6023 7.872 17.7623 9.456 17.7623 12.032ZM 20.0183 11.216C 20.1783 10.16 20.8183 9.664 21.5543 9.664C 22.4983 9.664 22.8823 10.304 22.8823 11.216L 20.0183 11.216ZM 26.4435 15.088C 27.2435 15.744 28.4435 16.192 29.4835 16.192C 31.6115 16.192 32.7475 15.072 32.7475 13.632C 32.7475 12.176 31.6115 11.616 30.6035 11.248C 29.7875 10.944 29.0515 10.752 29.0515 10.24C 29.0515 9.84 29.3395 9.616 29.9475 9.616C 30.5075 9.616 31.0515 9.872 31.6275 10.288L 32.6835 8.88C 31.9955 8.368 31.0995 7.872 29.8835 7.872C 28.0435 7.872 26.8435 8.88 26.8435 10.352C 26.8435 11.664 27.9795 12.32 28.9395 12.688C 29.7555 13.008 30.5555 13.248 30.5555 13.776C 30.5555 14.192 30.2515 14.448 29.5475 14.448C 28.8755 14.448 28.2195 14.16 27.4995 13.616L 26.4435 15.088ZM 34.8013 12.992C 34.8013 14.976 35.5373 16.192 37.2653 16.192C 38.3533 16.192 39.0893 15.696 39.7613 14.896L 39.8093 14.896L 39.9853 16L 41.9053 16L 41.9053 8.064L 39.5533 8.064L 39.5533 13.312C 39.0893 13.936 38.7373 14.192 38.1453 14.192C 37.4573 14.192 37.1533 13.824 37.1533 12.688L 37.1533 8.064L 34.8013 8.064L 34.8013 12.992ZM 46.887 15.36C 47.447 15.888 48.087 16.192 48.775 16.192C 50.487 16.192 52.119 14.624 52.119 11.904C 52.119 9.456 50.935 7.872 49.015 7.872C 48.183 7.872 47.383 8.288 46.759 8.848L 46.695 8.848L 46.535 8.064L 44.615 8.064L 44.615 18.944L 46.967 18.944L 46.967 16.624L 46.887 15.36ZM 46.967 13.76L 46.967 10.512C 47.431 10.016 47.847 9.792 48.327 9.792C 49.271 9.792 49.703 10.512 49.703 11.936C 49.703 13.568 49.047 14.272 48.231 14.272C 47.831 14.272 47.383 14.144 46.967 13.76ZM 54.3469 12.992C 54.3469 14.976 55.0829 16.192 56.8109 16.192C 57.8989 16.192 58.6349 15.696 59.3069 14.896L 59.3549 14.896L 59.5309 16L 61.4509 16L 61.4509 8.064L 59.0989 8.064L 59.0989 13.312C 58.6349 13.936 58.2829 14.192 57.6909 14.192C 57.0029 14.192 56.6989 13.824 56.6989 12.688L 56.6989 8.064L 54.3469 8.064L 54.3469 12.992ZM 63.6966 12.032C 63.6966 14.656 65.4406 16.192 67.7126 16.192C 68.6566 16.192 69.7126 15.856 70.5286 15.296L 69.7446 13.872C 69.1686 14.224 68.6246 14.4 68.0326 14.4C 66.9766 14.4 66.1766 13.872 65.9686 12.672L 70.7206 12.672C 70.7686 12.48 70.8166 12.096 70.8166 11.68C 70.8166 9.52 69.6966 7.872 67.4406 7.872C 65.5366 7.872 63.6966 9.456 63.6966 12.032ZM 65.9526 11.216C 66.1126 10.16 66.7526 9.664 67.4886 9.664C 68.4326 9.664 68.8166 10.304 68.8166 11.216L 65.9526 11.216ZM 72.3779 15.088C 73.1779 15.744 74.3779 16.192 75.4179 16.192C 77.5459 16.192 78.6819 15.072 78.6819 13.632C 78.6819 12.176 77.5459 11.616 76.5379 11.248C 75.7219 10.944 74.9859 10.752 74.9859 10.24C 74.9859 9.84 75.2739 9.616 75.8819 9.616C 76.4419 9.616 76.9859 9.872 77.5619 10.288L 78.6179 8.88C 77.9299 8.368 77.0339 7.872 75.8179 7.872C 73.9779 7.872 72.7779 8.88 72.7779 10.352C 72.7779 11.664 73.9139 12.32 74.8739 12.688C 75.6899 13.008 76.4899 13.248 76.4899 13.776C 76.4899 14.192 76.1859 14.448 75.4819 14.448C 74.8099 14.448 74.1539 14.16 73.4339 13.616L 72.3779 15.088ZM 81.1356 13.12C 81.1356 14.96 81.9036 16.192 83.8716 16.192C 84.6396 16.192 85.2156 16.032 85.6316 15.904L 85.2636 14.192C 85.0556 14.272 84.7676 14.352 84.5116 14.352C 83.8876 14.352 83.4876 13.984 83.4876 13.088L 83.4876 9.904L 85.3916 9.904L 85.3916 8.064L 83.4876 8.064L 83.4876 5.952L 81.5356 5.952L 81.2636 8.064L 80.0476 8.16L 80.0476 9.904L 81.1356 9.904L 81.1356 13.12ZM 86.9604 12.032C 86.9604 14.672 88.8164 16.192 90.8324 16.192C 92.8324 16.192 94.6884 14.672 94.6884 12.032C 94.6884 9.392 92.8324 7.872 90.8324 7.872C 88.8164 7.872 86.9604 9.392 86.9604 12.032ZM 89.3764 12.032C 89.3764 10.656 89.8564 9.776 90.8324 9.776C 91.7924 9.776 92.2884 10.656 92.2884 12.032C 92.2884 13.408 91.7924 14.288 90.8324 14.288C 89.8564 14.288 89.3764 13.408 89.3764 12.032Z"/>
<path id="path5_fill" d="M 0.72 10.848C 0.72 14.352 2.96 16.192 5.776 16.192C 7.232 16.192 8.528 15.584 9.28 14.928L 9.28 10.128L 5.456 10.128L 5.456 12.048L 7.184 12.048L 7.184 13.84C 6.928 14.048 6.496 14.16 6.08 14.16C 4.112 14.16 3.136 12.912 3.136 10.768C 3.136 8.672 4.288 7.408 5.888 7.408C 6.784 7.408 7.28 7.712 7.808 8.192L 9.104 6.736C 8.4 6.032 7.328 5.376 5.856 5.376C 3.024 5.376 0.72 7.392 0.72 10.848ZM 11.5639 13.792C 11.5639 15.136 12.4759 16.192 13.9159 16.192C 14.8119 16.192 15.5639 15.776 16.2359 15.184L 16.2839 15.184L 16.4599 16L 18.3799 16L 18.3799 11.456C 18.3799 9.024 17.2599 7.872 15.2279 7.872C 13.9799 7.872 12.8439 8.304 11.8359 8.912L 12.6679 10.464C 13.4359 10.016 14.1079 9.744 14.7799 9.744C 15.6279 9.744 15.9799 10.192 16.0279 10.896C 12.8919 11.216 11.5639 12.128 11.5639 13.792ZM 13.8039 13.616C 13.8039 13.008 14.3479 12.528 16.0279 12.304L 16.0279 13.696C 15.6119 14.112 15.2599 14.368 14.7159 14.368C 14.1559 14.368 13.8039 14.128 13.8039 13.616ZM 21.0388 13.536C 21.0388 15.136 21.5828 16.192 23.1988 16.192C 23.7268 16.192 24.1268 16.112 24.3828 16L 24.0948 14.256C 23.9668 14.288 23.9028 14.288 23.8068 14.288C 23.6148 14.288 23.3908 14.128 23.3908 13.632L 23.3908 4.784L 21.0388 4.784L 21.0388 13.536ZM 25.7929 12.032C 25.7929 14.672 27.6489 16.192 29.6649 16.192C 31.6649 16.192 33.5209 14.672 33.5209 12.032C 33.5209 9.392 31.6649 7.872 29.6649 7.872C 27.6489 7.872 25.7929 9.392 25.7929 12.032ZM 28.2089 12.032C 28.2089 10.656 28.6889 9.776 29.6649 9.776C 30.6249 9.776 31.1209 10.656 31.1209 12.032C 31.1209 13.408 30.6249 14.288 29.6649 14.288C 28.6889 14.288 28.2089 13.408 28.2089 12.032ZM 35.7719 16L 38.1239 16L 38.1239 10.64C 38.6359 10.144 39.0039 9.872 39.5959 9.872C 40.2679 9.872 40.5719 10.224 40.5719 11.376L 40.5719 16L 42.9239 16L 42.9239 11.072C 42.9239 9.088 42.1879 7.872 40.4599 7.872C 39.3879 7.872 38.5879 8.432 37.9159 9.072L 37.8519 9.072L 37.6919 8.064L 35.7719 8.064L 35.7719 16ZM 45.1041 12.032C 45.1041 14.656 46.8481 16.192 49.1201 16.192C 50.0641 16.192 51.1201 15.856 51.9361 15.296L 51.1521 13.872C 50.5761 14.224 50.0321 14.4 49.4401 14.4C 48.3841 14.4 47.5841 13.872 47.3761 12.672L 52.1281 12.672C 52.1761 12.48 52.2241 12.096 52.2241 11.68C 52.2241 9.52 51.1041 7.872 48.8481 7.872C 46.9441 7.872 45.1041 9.456 45.1041 12.032ZM 47.3601 11.216C 47.5201 10.16 48.1601 9.664 48.8961 9.664C 49.8401 9.664 50.2241 10.304 50.2241 11.216L 47.3601 11.216ZM 53.7854 15.088C 54.5854 15.744 55.7854 16.192 56.8254 16.192C 58.9534 16.192 60.0894 15.072 60.0894 13.632C 60.0894 12.176 58.9534 11.616 57.9454 11.248C 57.1294 10.944 56.3934 10.752 56.3934 10.24C 56.3934 9.84 56.6814 9.616 57.2894 9.616C 57.8494 9.616 58.3934 9.872 58.9694 10.288L 60.0254 8.88C 59.3374 8.368 58.4414 7.872 57.2254 7.872C 55.3854 7.872 54.1854 8.88 54.1854 10.352C 54.1854 11.664 55.3214 12.32 56.2814 12.688C 57.0974 13.008 57.8974 13.248 57.8974 13.776C 57.8974 14.192 57.5934 14.448 56.8894 14.448C 56.2174 14.448 55.5614 14.16 54.8414 13.616L 53.7854 15.088Z"/>
</defs>
</svg>
