<svg width="480" height="104" viewBox="0 0 480 104" version="1.1" xmlns="http://www.w3.org/2000/svg" xmlns:xlink="http://www.w3.org/1999/xlink">
<title>quantity btn</title>
<desc>Created using Figma</desc>
<g id="Canvas" transform="matrix(2 0 0 2 -356 -2844)">
<g id="quantity btn">
<g id="Rectangle 2">
<use xlink:href="#path0_fill" transform="translate(178 1422)" fill="#E55050"/>
</g>
<g id="CALCULAR">
<use xlink:href="#path1_fill" transform="translate(178 1433)" fill="#FFFFFF"/>
</g>
</g>
</g>
<defs>
<path id="path0_fill" d="M 0 4C 0 1.79086 1.79086 0 4 0L 236 0C 238.209 0 240 1.79086 240 4L 240 48C 240 50.2091 238.209 52 236 52L 4 52C 1.79086 52 0 50.2091 0 48L 0 4Z"/>
<path id="path1_fill" d="M 81.3097 11.4297C 80.8462 11.4297 80.4347 11.5208 80.0753 11.7031C 79.7212 11.8802 79.4217 12.138 79.1769 12.4766C 78.9373 12.8099 78.755 13.2188 78.63 13.7031C 78.505 14.1823 78.4425 14.7214 78.4425 15.3203C 78.4425 15.9297 78.4972 16.4714 78.6066 16.9453C 78.7212 17.4193 78.893 17.8203 79.1222 18.1484C 79.3566 18.4714 79.6534 18.7188 80.0128 18.8906C 80.3774 19.0573 80.8097 19.1406 81.3097 19.1406C 81.7732 19.1406 82.2368 19.0885 82.7003 18.9844C 83.1691 18.8802 83.6769 18.7318 84.2238 18.5391L 84.2238 20.5703C 83.9738 20.6745 83.7264 20.763 83.4816 20.8359C 83.2368 20.9089 82.9868 20.9688 82.7316 21.0156C 82.4764 21.0625 82.2133 21.0964 81.9425 21.1172C 81.6769 21.1432 81.3904 21.1562 81.0831 21.1562C 80.2029 21.1562 79.4399 21.0156 78.7941 20.7344C 78.1482 20.4531 77.6144 20.0573 77.1925 19.5469C 76.7706 19.0365 76.4581 18.4219 76.255 17.7031C 76.0519 16.9844 75.9503 16.1849 75.9503 15.3047C 75.9503 14.4401 76.0675 13.6484 76.3019 12.9297C 76.5363 12.2057 76.88 11.5833 77.3331 11.0625C 77.7863 10.5417 78.3462 10.138 79.0128 9.85156C 79.6795 9.5599 80.4451 9.41406 81.3097 9.41406C 81.8774 9.41406 82.4451 9.48698 83.0128 9.63281C 83.5857 9.77344 84.1326 9.96875 84.6534 10.2188L 83.8722 12.1875C 83.4451 11.9844 83.0154 11.8073 82.5831 11.6562C 82.1508 11.5052 81.7264 11.4297 81.3097 11.4297ZM 94.4569 21L 93.6756 18.2812L 89.7381 18.2812L 88.9491 21L 86.5038 21L 90.2147 9.53125L 93.1756 9.53125L 96.9022 21L 94.4569 21ZM 93.1131 16.25L 92.3788 13.75C 92.3475 13.6562 92.3006 13.5026 92.2381 13.2891C 92.1756 13.0755 92.1079 12.8411 92.035 12.5859C 91.9673 12.3255 91.9022 12.0651 91.8397 11.8047C 91.7772 11.5443 91.7329 11.3229 91.7069 11.1406C 91.686 11.2552 91.6574 11.3906 91.6209 11.5469C 91.5897 11.7031 91.5506 11.8698 91.5038 12.0469C 91.4621 12.2188 91.4178 12.3932 91.3709 12.5703C 91.3241 12.7474 91.2798 12.9141 91.2381 13.0703C 91.1965 13.2266 91.1574 13.3646 91.1209 13.4844C 91.0897 13.6042 91.0663 13.6927 91.0506 13.75L 90.3241 16.25L 93.1131 16.25ZM 99.6275 21L 99.6275 9.57812L 102.049 9.57812L 102.049 19L 106.206 19L 106.206 21L 99.6275 21ZM 114.165 11.4297C 113.702 11.4297 113.29 11.5208 112.931 11.7031C 112.577 11.8802 112.277 12.138 112.033 12.4766C 111.793 12.8099 111.611 13.2188 111.486 13.7031C 111.361 14.1823 111.298 14.7214 111.298 15.3203C 111.298 15.9297 111.353 16.4714 111.462 16.9453C 111.577 17.4193 111.749 17.8203 111.978 18.1484C 112.212 18.4714 112.509 18.7188 112.868 18.8906C 113.233 19.0573 113.665 19.1406 114.165 19.1406C 114.629 19.1406 115.092 19.0885 115.556 18.9844C 116.025 18.8802 116.533 18.7318 117.079 18.5391L 117.079 20.5703C 116.829 20.6745 116.582 20.763 116.337 20.8359C 116.092 20.9089 115.842 20.9688 115.587 21.0156C 115.332 21.0625 115.069 21.0964 114.798 21.1172C 114.533 21.1432 114.246 21.1562 113.939 21.1562C 113.059 21.1562 112.296 21.0156 111.65 20.7344C 111.004 20.4531 110.47 20.0573 110.048 19.5469C 109.626 19.0365 109.314 18.4219 109.111 17.7031C 108.908 16.9844 108.806 16.1849 108.806 15.3047C 108.806 14.4401 108.923 13.6484 109.158 12.9297C 109.392 12.2057 109.736 11.5833 110.189 11.0625C 110.642 10.5417 111.202 10.138 111.868 9.85156C 112.535 9.5599 113.301 9.41406 114.165 9.41406C 114.733 9.41406 115.301 9.48698 115.868 9.63281C 116.441 9.77344 116.988 9.96875 117.509 10.2188L 116.728 12.1875C 116.301 11.9844 115.871 11.8073 115.439 11.6562C 115.006 11.5052 114.582 11.4297 114.165 11.4297ZM 129.453 9.57812L 129.453 16.9688C 129.453 17.5625 129.362 18.1146 129.18 18.625C 129.003 19.1354 128.729 19.5781 128.359 19.9531C 127.995 20.3281 127.536 20.6224 126.984 20.8359C 126.432 21.0495 125.784 21.1562 125.039 21.1562C 124.336 21.1562 123.714 21.0573 123.172 20.8594C 122.635 20.6562 122.185 20.3698 121.82 20C 121.461 19.6302 121.188 19.1875 121 18.6719C 120.812 18.151 120.719 17.5729 120.719 16.9375L 120.719 9.57812L 123.133 9.57812L 123.133 16.7578C 123.133 17.1797 123.174 17.5417 123.258 17.8438C 123.341 18.1406 123.464 18.3854 123.625 18.5781C 123.792 18.7656 123.997 18.9036 124.242 18.9922C 124.487 19.0807 124.773 19.125 125.102 19.125C 125.784 19.125 126.276 18.9271 126.578 18.5312C 126.885 18.1354 127.039 17.5391 127.039 16.7422L 127.039 9.57812L 129.453 9.57812ZM 133.53 21L 133.53 9.57812L 135.952 9.57812L 135.952 19L 140.108 19L 140.108 21L 133.53 21ZM 149.888 21L 149.107 18.2812L 145.169 18.2812L 144.38 21L 141.935 21L 145.646 9.53125L 148.607 9.53125L 152.333 21L 149.888 21ZM 148.544 16.25L 147.81 13.75C 147.779 13.6562 147.732 13.5026 147.669 13.2891C 147.607 13.0755 147.539 12.8411 147.466 12.5859C 147.399 12.3255 147.333 12.0651 147.271 11.8047C 147.208 11.5443 147.164 11.3229 147.138 11.1406C 147.117 11.2552 147.089 11.3906 147.052 11.5469C 147.021 11.7031 146.982 11.8698 146.935 12.0469C 146.893 12.2188 146.849 12.3932 146.802 12.5703C 146.755 12.7474 146.711 12.9141 146.669 13.0703C 146.628 13.2266 146.589 13.3646 146.552 13.4844C 146.521 13.6042 146.497 13.6927 146.482 13.75L 145.755 16.25L 148.544 16.25ZM 157.481 14.6484L 158.137 14.6484C 158.809 14.6484 159.291 14.5156 159.582 14.25C 159.874 13.9792 160.02 13.5833 160.02 13.0625C 160.02 12.5208 159.863 12.1354 159.551 11.9062C 159.238 11.6771 158.754 11.5625 158.098 11.5625L 157.481 11.5625L 157.481 14.6484ZM 157.481 16.6172L 157.481 21L 155.059 21L 155.059 9.57812L 158.184 9.57812C 159.647 9.57812 160.728 9.86198 161.426 10.4297C 162.124 10.9922 162.473 11.849 162.473 13C 162.473 13.3906 162.421 13.7448 162.317 14.0625C 162.212 14.3802 162.072 14.6641 161.895 14.9141C 161.723 15.1589 161.522 15.375 161.293 15.5625C 161.069 15.7448 160.832 15.8984 160.582 16.0234C 161.16 16.9505 161.679 17.7786 162.137 18.5078C 162.335 18.8203 162.525 19.125 162.707 19.4219C 162.895 19.7188 163.061 19.9844 163.207 20.2188C 163.353 20.4531 163.473 20.6406 163.567 20.7812L 163.699 21L 161.012 21L 158.535 16.6172L 157.481 16.6172Z"/>
</defs>
</svg>
