<svg width="1928" height="238" viewBox="0 0 1928 238" version="1.1" xmlns="http://www.w3.org/2000/svg" xmlns:xlink="http://www.w3.org/1999/xlink">
<title>Search Bar</title>
<desc>Created using Figma</desc>
<g id="Canvas" transform="matrix(2 0 0 2 4432 132)">
<g id="Search Bar">
<g id="Rectangle 6" filter="url(#filter0_dd)">
<use xlink:href="#path0_fill" transform="translate(-2184 -42)" fill="#FFFFFF"/>
<mask id="mask0_outline_ins">
<use xlink:href="#path0_fill" fill="white" transform="translate(-2184 -42)"/>
</mask>
<g mask="url(#mask0_outline_ins)">
<use xlink:href="#path1_stroke_2x" transform="translate(-2184 -42)" fill="#9B9B9B"/>
</g>
</g>
<g id="Busca tu marca">
<use xlink:href="#path2_fill" transform="translate(-2162 -42)" fill="#424242"/>
</g>
<g id="Modelo">
<use xlink:href="#path3_fill" transform="translate(-1685.22 -41.9136)" fill="#9B9B9B"/>
</g>
<g id="A&#195;&#177;o">
<use xlink:href="#path4_fill" transform="translate(-1477 -43)" fill="#9B9B9B"/>
</g>
<g id="Line 2">
<use xlink:href="#path5_stroke" transform="matrix(4.88556e-17 1 -1 7.67445e-17 -1702.78 -41)" fill="#9B9B9B"/>
</g>
<g id="Line 2">
<use xlink:href="#path5_stroke" transform="matrix(4.88556e-17 1 -1 7.67445e-17 -1498.27 -41)" fill="#9B9B9B"/>
</g>
<g id="Group">
<g id="Ellipse 3 (Stroke)">
<use xlink:href="#path6_fill" transform="matrix(0.880367 0.474293 -0.474293 0.880367 -1758.6 -31.2318)" fill="#9B9B9B"/>
</g>
<g id="Line 3 (Stroke)">
<use xlink:href="#path7_fill" transform="matrix(-0.880367 -0.474293 0.474293 -0.880367 -1736.24 -5.2652)" fill="#9B9B9B"/>
</g>
</g>
</g>
</g>
<defs>
<filter id="filter0_dd" filterUnits="userSpaceOnUse" x="-2216" y="-66" width="964" height="119" color-interpolation-filters="sRGB">
<feFlood flood-opacity="0" result="BackgroundImageFix"/>
<feColorMatrix in="SourceAlpha" type="matrix" values="0 0 0 0 0 0 0 0 0 0 0 0 0 0 0 0 0 0 255 0"/>
<feOffset dx="0" dy="8"/>
<feGaussianBlur stdDeviation="16"/>
<feColorMatrix type="matrix" values="0 0 0 0 0 0 0 0 0 0 0 0 0 0 0 0 0 0 0.2 0"/>
<feBlend mode="normal" in2="BackgroundImageFix" result="effect1_dropShadow"/>
<feColorMatrix in="SourceAlpha" type="matrix" values="0 0 0 0 0 0 0 0 0 0 0 0 0 0 0 0 0 0 255 0"/>
<feOffset dx="0" dy="4"/>
<feGaussianBlur stdDeviation="6"/>
<feColorMatrix type="matrix" values="0 0 0 0 0 0 0 0 0 0 0 0 0 0 0 0 0 0 0.12 0"/>
<feBlend mode="normal" in2="effect1_dropShadow" result="effect2_dropShadow"/>
<feBlend mode="normal" in="SourceGraphic" in2="effect2_dropShadow" result="shape"/>
</filter>
<path id="path0_fill" d="M 0 4C 0 1.79086 1.79086 0 4 0L 896 0C 898.209 0 900 1.79086 900 4L 900 51C 900 53.2091 898.209 55 896 55L 4 55C 1.79086 55 0 53.2091 0 51L 0 4Z"/>
<path id="path1_stroke_2x" d="M 4 1L 896 1L 896 -1L 4 -1L 4 1ZM 899 4L 899 51L 901 51L 901 4L 899 4ZM 896 54L 4 54L 4 56L 896 56L 896 54ZM 1 51L 1 4L -1 4L -1 51L 1 51ZM 4 -1C 1.23858 -1 -1 1.23858 -1 4L 1 4C 1 2.34315 2.34315 1 4 1L 4 -1ZM 896 1C 897.657 1 899 2.34315 899 4L 901 4C 901 1.23858 898.761 -1 896 -1L 896 1ZM 899 51C 899 52.6569 897.657 54 896 54L 896 56C 898.761 56 901 53.7614 901 51L 899 51ZM 4 54C 2.34315 54 1 52.6569 1 51L -1 51C -1 53.7614 1.23858 56 4 56L 4 54Z"/>
<path id="path2_fill" d="M 1.216 33L 5.088 33C 7.36 33 9.152 32.056 9.152 29.928C 9.152 28.536 8.368 27.752 6.88 27.48L 6.88 27.416C 8.096 27.096 8.64 26.088 8.64 25.16C 8.64 23.16 6.96 22.568 4.784 22.568L 1.216 22.568L 1.216 33ZM 3.584 26.776L 3.584 24.392L 4.704 24.392C 5.792 24.392 6.336 24.712 6.336 25.496C 6.336 26.28 5.824 26.776 4.672 26.776L 3.584 26.776ZM 3.584 31.176L 3.584 28.44L 4.896 28.44C 6.192 28.44 6.848 28.84 6.848 29.752C 6.848 30.696 6.176 31.176 4.896 31.176L 3.584 31.176ZM 10.9362 29.992C 10.9362 31.976 11.6722 33.192 13.4002 33.192C 14.4882 33.192 15.2242 32.696 15.8962 31.896L 15.9442 31.896L 16.1202 33L 18.0402 33L 18.0402 25.064L 15.6882 25.064L 15.6882 30.312C 15.2242 30.936 14.8722 31.192 14.2802 31.192C 13.5922 31.192 13.2882 30.824 13.2882 29.688L 13.2882 25.064L 10.9362 25.064L 10.9362 29.992ZM 19.726 32.088C 20.526 32.744 21.726 33.192 22.766 33.192C 24.894 33.192 26.03 32.072 26.03 30.632C 26.03 29.176 24.894 28.616 23.886 28.248C 23.07 27.944 22.334 27.752 22.334 27.24C 22.334 26.84 22.622 26.616 23.23 26.616C 23.79 26.616 24.334 26.872 24.91 27.288L 25.966 25.88C 25.278 25.368 24.382 24.872 23.166 24.872C 21.326 24.872 20.126 25.88 20.126 27.352C 20.126 28.664 21.262 29.32 22.222 29.688C 23.038 30.008 23.838 30.248 23.838 30.776C 23.838 31.192 23.534 31.448 22.83 31.448C 22.158 31.448 21.502 31.16 20.782 30.616L 19.726 32.088ZM 27.3797 29.032C 27.3797 31.672 29.0917 33.192 31.2997 33.192C 32.1637 33.192 33.1717 32.872 33.9397 32.2L 32.9957 30.712C 32.6117 31.016 32.1477 31.288 31.5717 31.288C 30.5477 31.288 29.7957 30.408 29.7957 29.032C 29.7957 27.656 30.5157 26.776 31.6517 26.776C 32.0197 26.776 32.3717 26.92 32.7557 27.24L 33.8277 25.784C 33.2997 25.24 32.4837 24.872 31.5077 24.872C 29.3157 24.872 27.3797 26.392 27.3797 29.032ZM 35.1882 30.792C 35.1882 32.136 36.1002 33.192 37.5402 33.192C 38.4362 33.192 39.1882 32.776 39.8602 32.184L 39.9082 32.184L 40.0842 33L 42.0042 33L 42.0042 28.456C 42.0042 26.024 40.8842 24.872 38.8522 24.872C 37.6042 24.872 36.4682 25.304 35.4602 25.912L 36.2922 27.464C 37.0602 27.016 37.7322 26.744 38.4042 26.744C 39.2522 26.744 39.6042 27.192 39.6522 27.896C 36.5162 28.216 35.1882 29.128 35.1882 30.792ZM 37.4282 30.616C 37.4282 30.008 37.9722 29.528 39.6522 29.304L 39.6522 30.696C 39.2362 31.112 38.8842 31.368 38.3402 31.368C 37.7802 31.368 37.4282 31.128 37.4282 30.616ZM 48.3112 30.12C 48.3112 31.96 49.0792 33.192 51.0472 33.192C 51.8152 33.192 52.3912 33.032 52.8072 32.904L 52.4392 31.192C 52.2312 31.272 51.9432 31.352 51.6872 31.352C 51.0632 31.352 50.6632 30.984 50.6632 30.088L 50.6632 26.904L 52.5672 26.904L 52.5672 25.064L 50.6632 25.064L 50.6632 22.952L 48.7112 22.952L 48.4392 25.064L 47.2232 25.16L 47.2232 26.904L 48.3112 26.904L 48.3112 30.12ZM 54.3562 29.992C 54.3562 31.976 55.0922 33.192 56.8202 33.192C 57.9082 33.192 58.6442 32.696 59.3162 31.896L 59.3642 31.896L 59.5402 33L 61.4602 33L 61.4602 25.064L 59.1082 25.064L 59.1082 30.312C 58.6442 30.936 58.2922 31.192 57.7002 31.192C 57.0122 31.192 56.7082 30.824 56.7082 29.688L 56.7082 25.064L 54.3562 25.064L 54.3562 29.992ZM 67.4981 33L 69.8501 33L 69.8501 27.64C 70.3461 27.128 70.8101 26.872 71.1941 26.872C 71.8661 26.872 72.1701 27.224 72.1701 28.376L 72.1701 33L 74.5221 33L 74.5221 27.64C 75.0341 27.128 75.4821 26.872 75.8821 26.872C 76.5541 26.872 76.8581 27.224 76.8581 28.376L 76.8581 33L 79.2101 33L 79.2101 28.072C 79.2101 26.088 78.4421 24.872 76.7301 24.872C 75.6741 24.872 74.9381 25.48 74.2341 26.2C 73.8341 25.352 73.1621 24.872 72.0421 24.872C 71.0021 24.872 70.2981 25.432 69.6421 26.088L 69.5781 26.088L 69.4181 25.064L 67.4981 25.064L 67.4981 33ZM 81.2489 30.792C 81.2489 32.136 82.1609 33.192 83.6009 33.192C 84.4969 33.192 85.2489 32.776 85.9209 32.184L 85.9689 32.184L 86.1449 33L 88.0649 33L 88.0649 28.456C 88.0649 26.024 86.9449 24.872 84.9129 24.872C 83.6649 24.872 82.5289 25.304 81.5209 25.912L 82.3529 27.464C 83.1209 27.016 83.7929 26.744 84.4649 26.744C 85.3129 26.744 85.6649 27.192 85.7129 27.896C 82.5769 28.216 81.2489 29.128 81.2489 30.792ZM 83.4889 30.616C 83.4889 30.008 84.0329 29.528 85.7129 29.304L 85.7129 30.696C 85.2969 31.112 84.9449 31.368 84.4009 31.368C 83.8409 31.368 83.4889 31.128 83.4889 30.616ZM 90.4037 33L 92.7557 33L 92.7557 28.392C 93.1717 27.32 93.9077 26.936 94.4997 26.936C 94.8357 26.936 95.0757 26.984 95.3637 27.064L 95.7477 25.032C 95.5237 24.936 95.2517 24.872 94.8037 24.872C 93.9877 24.872 93.1237 25.384 92.5477 26.456L 92.4837 26.456L 92.3237 25.064L 90.4037 25.064L 90.4037 33ZM 96.4785 29.032C 96.4785 31.672 98.1905 33.192 100.398 33.192C 101.262 33.192 102.27 32.872 103.038 32.2L 102.094 30.712C 101.71 31.016 101.246 31.288 100.67 31.288C 99.6465 31.288 98.8945 30.408 98.8945 29.032C 98.8945 27.656 99.6145 26.776 100.75 26.776C 101.118 26.776 101.47 26.92 101.854 27.24L 102.926 25.784C 102.398 25.24 101.582 24.872 100.606 24.872C 98.4145 24.872 96.4785 26.392 96.4785 29.032ZM 104.287 30.792C 104.287 32.136 105.199 33.192 106.639 33.192C 107.535 33.192 108.287 32.776 108.959 32.184L 109.007 32.184L 109.183 33L 111.103 33L 111.103 28.456C 111.103 26.024 109.983 24.872 107.951 24.872C 106.703 24.872 105.567 25.304 104.559 25.912L 105.391 27.464C 106.159 27.016 106.831 26.744 107.503 26.744C 108.351 26.744 108.703 27.192 108.751 27.896C 105.615 28.216 104.287 29.128 104.287 30.792ZM 106.527 30.616C 106.527 30.008 107.071 29.528 108.751 29.304L 108.751 30.696C 108.335 31.112 107.983 31.368 107.439 31.368C 106.879 31.368 106.527 31.128 106.527 30.616Z"/>
<path id="path3_fill" d="M 1.74 34L 3.28 34L 3.28 26.78C 3.28 25.62 3.16 24.06 3.08 22.9L 3.16 22.9L 4.2 25.82L 6.72 32.68L 7.68 32.68L 10.2 25.82L 11.24 22.9L 11.32 22.9C 11.24 24.06 11.1 25.62 11.1 26.78L 11.1 34L 12.68 34L 12.68 20.88L 10.72 20.88L 8.2 27.92L 7.28 30.6L 7.2 30.6L 6.26 27.92L 3.72 20.88L 1.74 20.88L 1.74 34ZM 15.3536 29.16C 15.3536 32.38 17.4736 34.24 19.8536 34.24C 22.2336 34.24 24.3536 32.38 24.3536 29.16C 24.3536 25.9 22.2336 24.04 19.8536 24.04C 17.4736 24.04 15.3536 25.9 15.3536 29.16ZM 17.0536 29.16C 17.0536 26.92 18.1936 25.4 19.8536 25.4C 21.5336 25.4 22.6536 26.92 22.6536 29.16C 22.6536 31.38 21.5336 32.88 19.8536 32.88C 18.1936 32.88 17.0536 31.38 17.0536 29.16ZM 26.2134 29.16C 26.2134 32.4 27.7934 34.24 30.2334 34.24C 31.3734 34.24 32.4134 33.6 33.1734 32.86L 33.2334 32.86L 33.3734 34L 34.7334 34L 34.7334 19.76L 33.0734 19.76L 33.0734 23.5L 33.1534 25.16C 32.2934 24.46 31.5534 24.04 30.4334 24.04C 28.2134 24.04 26.2134 26 26.2134 29.16ZM 27.9134 29.14C 27.9134 26.92 29.1534 25.42 30.7134 25.42C 31.5134 25.42 32.2534 25.7 33.0734 26.44L 33.0734 31.52C 32.2734 32.42 31.4934 32.86 30.5934 32.86C 28.8934 32.86 27.9134 31.46 27.9134 29.14ZM 37.2872 29.16C 37.2872 32.34 39.3472 34.24 41.9472 34.24C 43.2672 34.24 44.3072 33.78 45.1472 33.24L 44.5672 32.16C 43.8472 32.62 43.0672 32.92 42.1472 32.92C 40.2872 32.92 39.0272 31.6 38.9072 29.5L 45.4672 29.5C 45.5072 29.26 45.5272 28.94 45.5272 28.6C 45.5272 25.82 44.1272 24.04 41.6472 24.04C 39.4272 24.04 37.2872 25.98 37.2872 29.16ZM 38.8872 28.42C 39.0872 26.46 40.3272 25.34 41.6872 25.34C 43.2072 25.34 44.0872 26.44 44.0872 28.42L 38.8872 28.42ZM 47.9291 32.04C 47.9291 33.46 48.4291 34.24 49.6691 34.24C 50.1091 34.24 50.3891 34.18 50.6091 34.08L 50.3891 32.84C 50.2091 32.88 50.1291 32.88 50.0291 32.88C 49.7891 32.88 49.5691 32.68 49.5691 32.16L 49.5691 19.76L 47.9291 19.76L 47.9291 32.04ZM 52.3067 29.16C 52.3067 32.38 54.4267 34.24 56.8067 34.24C 59.1867 34.24 61.3067 32.38 61.3067 29.16C 61.3067 25.9 59.1867 24.04 56.8067 24.04C 54.4267 24.04 52.3067 25.9 52.3067 29.16ZM 54.0067 29.16C 54.0067 26.92 55.1467 25.4 56.8067 25.4C 58.4867 25.4 59.6067 26.92 59.6067 29.16C 59.6067 31.38 58.4867 32.88 56.8067 32.88C 55.1467 32.88 54.0067 31.38 54.0067 29.16Z"/>
<path id="path4_fill" d="M 3.38 29.66L 4.02 27.66C 4.48 26.2 4.9 24.76 5.32 23.24L 5.4 23.24C 5.82 24.76 6.24 26.2 6.7 27.66L 7.32 29.66L 3.38 29.66ZM 9 35L 10.76 35L 6.32 21.88L 4.44 21.88L 0 35L 1.7 35L 2.96 31L 7.74 31L 9 35ZM 12.4017 35L 14.0417 35L 14.0417 27.96C 15.0217 26.98 15.7017 26.46 16.7017 26.46C 17.9817 26.46 18.5417 27.24 18.5417 29.06L 18.5417 35L 20.1817 35L 20.1817 28.84C 20.1817 26.36 19.2617 25.04 17.2217 25.04C 15.8817 25.04 14.8817 25.76 13.9617 26.68L 13.9017 26.68L 13.7617 25.28L 12.4017 25.28L 12.4017 35ZM 13.8217 23.42L 14.7417 23.42C 14.8617 22.74 15.0817 22.4 15.4817 22.4C 16.1617 22.4 16.7417 23.42 17.7617 23.42C 18.7417 23.42 19.2817 22.5 19.3817 21.3L 18.4417 21.3C 18.3417 21.98 18.1217 22.32 17.7217 22.32C 17.0617 22.32 16.4417 21.3 15.4417 21.3C 14.4617 21.3 13.9217 22.22 13.8217 23.42ZM 22.6192 30.16C 22.6192 33.38 24.7392 35.24 27.1192 35.24C 29.4992 35.24 31.6192 33.38 31.6192 30.16C 31.6192 26.9 29.4992 25.04 27.1192 25.04C 24.7392 25.04 22.6192 26.9 22.6192 30.16ZM 24.3192 30.16C 24.3192 27.92 25.4592 26.4 27.1192 26.4C 28.7992 26.4 29.9192 27.92 29.9192 30.16C 29.9192 32.38 28.7992 33.88 27.1192 33.88C 25.4592 33.88 24.3192 32.38 24.3192 30.16Z"/>
<path id="path5_stroke" d="M 0 0L 54 0L 54 -1L 0 -1L 0 0Z"/>
<path id="path6_fill" fill-rule="evenodd" d="M 10.8936 19.0638C 15.4059 19.0638 19.0638 15.4059 19.0638 10.8936C 19.0638 6.38133 15.4059 2.7234 10.8936 2.7234C 6.38133 2.7234 2.7234 6.38133 2.7234 10.8936C 2.7234 15.4059 6.38133 19.0638 10.8936 19.0638ZM 10.8936 21.7872C 16.91 21.7872 21.7872 16.91 21.7872 10.8936C 21.7872 4.87724 16.91 0 10.8936 0C 4.87724 0 0 4.87724 0 10.8936C 0 16.91 4.87724 21.7872 10.8936 21.7872Z"/>
<path id="path7_fill" fill-rule="evenodd" d="M 11.5745 2.7234L 0 2.7234L 0 0L 11.5745 0L 11.5745 2.7234Z"/>
</defs>
</svg>
