<svg width="864" height="690" viewBox="0 0 864 690" version="1.1" xmlns="http://www.w3.org/2000/svg" xmlns:xlink="http://www.w3.org/1999/xlink">
<title>v_Resume</title>
<desc>Created using Figma</desc>
<g id="Canvas" transform="matrix(2 0 0 2 1126 -2086)">
<g id="v_Resume">
<g id="Ford Mustang 2017">
<use xlink:href="#path0_fill" transform="translate(-564 1032)" fill="#E55050"/>
</g>
<g id="mpg - Resume">
<g id="Millas por Gal&#195;&#179;n en Ciudad">
<use xlink:href="#path1_fill" transform="translate(-563 1159)" fill="#424242"/>
</g>
<g id="32">
<use xlink:href="#path2_fill" transform="translate(-256 1153)" fill="#424242"/>
</g>
<g id="Millas por Gal&#195;&#179;n en Carretera">
<use xlink:href="#path3_fill" transform="translate(-562 1251)" fill="#424242"/>
</g>
<g id="40">
<use xlink:href="#path4_fill" transform="translate(-256 1244)" fill="#424242"/>
</g>
<g id="Millas por Gal&#195;&#179;n Promedio">
<use xlink:href="#path5_fill" transform="translate(-562 1341)" fill="#424242"/>
</g>
<g id="36">
<use xlink:href="#path6_fill" transform="translate(-266 1335)" fill="#424242"/>
</g>
</g>
<g id="Line">
<use xlink:href="#path7_stroke" transform="translate(-561 1099)" fill="#9B9B9B"/>
</g>
</g>
</g>
<defs>
<path id="path0_fill" d="M 3.192 41L 9.408 41L 9.408 30.374L 18.858 30.374L 18.858 25.166L 9.408 25.166L 9.408 18.824L 20.496 18.824L 20.496 13.616L 3.192 13.616L 3.192 41ZM 22.7581 30.584C 22.7581 37.514 27.6301 41.504 32.9221 41.504C 38.1721 41.504 43.0441 37.514 43.0441 30.584C 43.0441 23.654 38.1721 19.664 32.9221 19.664C 27.6301 19.664 22.7581 23.654 22.7581 30.584ZM 29.1001 30.584C 29.1001 26.972 30.3601 24.662 32.9221 24.662C 35.4421 24.662 36.7441 26.972 36.7441 30.584C 36.7441 34.196 35.4421 36.506 32.9221 36.506C 30.3601 36.506 29.1001 34.196 29.1001 30.584ZM 47.273 41L 53.447 41L 53.447 28.904C 54.539 26.09 56.471 25.082 58.025 25.082C 58.907 25.082 59.537 25.208 60.293 25.418L 61.301 20.084C 60.713 19.832 59.999 19.664 58.823 19.664C 56.681 19.664 54.413 21.008 52.901 23.822L 52.733 23.822L 52.313 20.168L 47.273 20.168L 47.273 41ZM 62.5052 30.584C 62.5052 37.388 65.8652 41.504 71.0312 41.504C 73.0472 41.504 75.1052 40.412 76.5752 38.942L 76.7432 38.942L 77.1632 41L 82.2032 41L 82.2032 11.558L 76.0292 11.558L 76.0292 18.656L 76.2812 21.848C 74.8532 20.504 73.4672 19.664 71.1572 19.664C 66.7472 19.664 62.5052 23.78 62.5052 30.584ZM 68.8472 30.5C 68.8472 26.552 70.6112 24.704 72.5852 24.704C 73.7192 24.704 74.9372 25.04 76.0292 26.048L 76.0292 34.574C 75.0212 35.96 73.9712 36.464 72.6272 36.464C 70.2332 36.464 68.8472 34.616 68.8472 30.5ZM 96.8717 41L 102.584 41L 102.584 30.962C 102.584 28.274 102.08 24.284 101.786 21.638L 101.954 21.638L 104.138 27.98L 108.338 38.606L 110.816 38.606L 115.058 27.98L 117.284 21.638L 117.452 21.638C 117.158 24.284 116.654 28.274 116.654 30.962L 116.654 41L 122.45 41L 122.45 13.616L 115.898 13.616L 111.446 25.922L 109.808 30.71L 109.64 30.71L 108.002 25.922L 103.424 13.616L 96.8717 13.616L 96.8717 41ZM 128.151 33.104C 128.151 38.312 130.083 41.504 134.619 41.504C 137.475 41.504 139.407 40.202 141.171 38.102L 141.297 38.102L 141.759 41L 146.799 41L 146.799 20.168L 140.625 20.168L 140.625 33.944C 139.407 35.582 138.483 36.254 136.929 36.254C 135.123 36.254 134.325 35.288 134.325 32.306L 134.325 20.168L 128.151 20.168L 128.151 33.104ZM 150.384 38.606C 152.484 40.328 155.634 41.504 158.364 41.504C 163.95 41.504 166.932 38.564 166.932 34.784C 166.932 30.962 163.95 29.492 161.304 28.526C 159.162 27.728 157.23 27.224 157.23 25.88C 157.23 24.83 157.986 24.242 159.582 24.242C 161.052 24.242 162.48 24.914 163.992 26.006L 166.764 22.31C 164.958 20.966 162.606 19.664 159.414 19.664C 154.584 19.664 151.434 22.31 151.434 26.174C 151.434 29.618 154.416 31.34 156.936 32.306C 159.078 33.146 161.178 33.776 161.178 35.162C 161.178 36.254 160.38 36.926 158.532 36.926C 156.768 36.926 155.046 36.17 153.156 34.742L 150.384 38.606ZM 171.693 33.44C 171.693 38.27 173.709 41.504 178.875 41.504C 180.891 41.504 182.403 41.084 183.495 40.748L 182.529 36.254C 181.983 36.464 181.227 36.674 180.555 36.674C 178.917 36.674 177.867 35.708 177.867 33.356L 177.867 24.998L 182.865 24.998L 182.865 20.168L 177.867 20.168L 177.867 14.624L 172.743 14.624L 172.029 20.168L 168.837 20.42L 168.837 24.998L 171.693 24.998L 171.693 33.44ZM 185.683 35.204C 185.683 38.732 188.077 41.504 191.857 41.504C 194.209 41.504 196.183 40.412 197.947 38.858L 198.073 38.858L 198.535 41L 203.575 41L 203.575 29.072C 203.575 22.688 200.635 19.664 195.301 19.664C 192.025 19.664 189.043 20.798 186.397 22.394L 188.581 26.468C 190.597 25.292 192.361 24.578 194.125 24.578C 196.351 24.578 197.275 25.754 197.401 27.602C 189.169 28.442 185.683 30.836 185.683 35.204ZM 191.563 34.742C 191.563 33.146 192.991 31.886 197.401 31.298L 197.401 34.952C 196.309 36.044 195.385 36.716 193.957 36.716C 192.487 36.716 191.563 36.086 191.563 34.742ZM 208.875 41L 215.049 41L 215.049 26.93C 216.393 25.628 217.359 24.914 218.913 24.914C 220.677 24.914 221.475 25.838 221.475 28.862L 221.475 41L 227.649 41L 227.649 28.064C 227.649 22.856 225.717 19.664 221.181 19.664C 218.367 19.664 216.267 21.134 214.503 22.814L 214.335 22.814L 213.915 20.168L 208.875 20.168L 208.875 41ZM 236.69 43.604C 236.69 42.848 237.068 42.218 237.824 41.546C 238.496 41.714 239.336 41.798 240.764 41.798L 242.906 41.798C 244.964 41.798 246.098 42.134 246.098 43.436C 246.098 44.864 244.082 45.998 241.31 45.998C 238.538 45.998 236.69 45.158 236.69 43.604ZM 231.608 44.57C 231.608 48.266 235.472 49.862 240.344 49.862C 247.484 49.862 251.978 46.712 251.978 42.386C 251.978 38.648 249.164 37.094 244.04 37.094L 240.68 37.094C 238.37 37.094 237.53 36.59 237.53 35.54C 237.53 34.826 237.74 34.448 238.286 33.986C 239.21 34.28 240.05 34.406 240.806 34.406C 245.384 34.406 248.996 32.18 248.996 27.392C 248.996 26.3 248.702 25.292 248.324 24.662L 251.642 24.662L 251.642 20.168L 244.04 20.168C 243.116 19.832 241.982 19.664 240.806 19.664C 236.312 19.664 232.196 22.184 232.196 27.182C 232.196 29.618 233.54 31.592 235.01 32.6L 235.01 32.768C 233.666 33.692 232.658 35.162 232.658 36.674C 232.658 38.396 233.498 39.488 234.59 40.202L 234.59 40.37C 232.658 41.462 231.608 42.848 231.608 44.57ZM 240.806 30.668C 239.168 30.668 237.95 29.492 237.95 27.182C 237.95 24.956 239.168 23.822 240.806 23.822C 242.444 23.822 243.662 24.998 243.662 27.182C 243.662 29.492 242.444 30.668 240.806 30.668ZM 262.906 41L 281.68 41L 281.68 35.792L 276.304 35.792C 275.044 35.792 273.196 35.96 271.852 36.128C 276.178 31.592 280.378 26.804 280.378 22.31C 280.378 17.186 276.808 13.826 271.558 13.826C 267.736 13.826 265.258 15.254 262.612 18.068L 265.972 21.386C 267.316 19.958 268.786 18.656 270.718 18.656C 273.028 18.656 274.498 20.084 274.498 22.688C 274.498 26.468 269.71 31.046 262.906 37.472L 262.906 41ZM 294.629 41.504C 300.341 41.504 304.163 36.632 304.163 27.56C 304.163 18.488 300.341 13.826 294.629 13.826C 288.917 13.826 285.095 18.488 285.095 27.56C 285.095 36.632 288.917 41.504 294.629 41.504ZM 294.629 36.716C 292.571 36.716 290.933 34.826 290.933 27.56C 290.933 20.252 292.571 18.614 294.629 18.614C 296.729 18.614 298.325 20.252 298.325 27.56C 298.325 34.826 296.729 36.716 294.629 36.716ZM 308.67 41L 325.638 41L 325.638 36.002L 320.64 36.002L 320.64 14.33L 316.104 14.33C 314.214 15.464 312.366 16.22 309.468 16.766L 309.468 20.588L 314.466 20.588L 314.466 36.002L 308.67 36.002L 308.67 41ZM 334.598 41L 340.814 41C 341.276 30.584 342.158 25.586 348.332 18.11L 348.332 14.33L 329.768 14.33L 329.768 19.538L 341.738 19.538C 336.698 26.51 335.102 32.138 334.598 41Z"/>
<path id="path1_fill" d="M 1.44 17.504L 3.008 17.504L 5.04 23.136L 5.808 25.28L 5.872 25.28L 6.608 23.136L 8.624 17.504L 10.192 17.504L 10.192 28L 8.928 28L 8.928 22.224C 8.928 21.7547 8.944 21.2373 8.976 20.672C 9.01867 20.1067 9.06133 19.5893 9.104 19.12L 9.04 19.12L 8.192 21.456L 6.176 26.944L 5.424 26.944L 3.392 21.456L 2.56 19.12L 2.496 19.12C 2.528 19.5893 2.56533 20.1067 2.608 20.672C 2.65067 21.2373 2.672 21.7547 2.672 22.224L 2.672 28L 1.44 28L 1.44 17.504ZM 13.609 18.624C 13.353 18.624 13.1343 18.544 12.953 18.384C 12.7823 18.224 12.697 18.0213 12.697 17.776C 12.697 17.52 12.7823 17.3173 12.953 17.168C 13.1343 17.008 13.353 16.928 13.609 16.928C 13.865 16.928 14.0783 17.008 14.249 17.168C 14.4303 17.3173 14.521 17.52 14.521 17.776C 14.521 18.0213 14.4303 18.224 14.249 18.384C 14.0783 18.544 13.865 18.624 13.609 18.624ZM 12.937 20.224L 14.249 20.224L 14.249 28L 12.937 28L 12.937 20.224ZM 16.8745 16.608L 18.1865 16.608L 18.1865 26.528C 18.1865 26.7413 18.2238 26.8907 18.2985 26.976C 18.3732 27.0613 18.4585 27.104 18.5545 27.104C 18.5972 27.104 18.6345 27.104 18.6665 27.104C 18.7092 27.104 18.7678 27.0933 18.8425 27.072L 19.0185 28.064C 18.9332 28.1067 18.8318 28.1387 18.7145 28.16C 18.5972 28.1813 18.4478 28.192 18.2665 28.192C 17.7652 28.192 17.4078 28.0427 17.1945 27.744C 16.9812 27.4453 16.8745 27.008 16.8745 26.432L 16.8745 16.608ZM 20.9526 16.608L 22.2646 16.608L 22.2646 26.528C 22.2646 26.7413 22.302 26.8907 22.3766 26.976C 22.4513 27.0613 22.5366 27.104 22.6326 27.104C 22.6753 27.104 22.7126 27.104 22.7446 27.104C 22.7873 27.104 22.846 27.0933 22.9206 27.072L 23.0966 28.064C 23.0113 28.1067 22.91 28.1387 22.7926 28.16C 22.6753 28.1813 22.526 28.192 22.3446 28.192C 21.8433 28.192 21.486 28.0427 21.2726 27.744C 21.0593 27.4453 20.9526 27.008 20.9526 26.432L 20.9526 16.608ZM 24.6467 25.984C 24.6467 25.1307 25.0254 24.48 25.7827 24.032C 26.5508 23.5733 27.7667 23.2533 29.4307 23.072C 29.4307 22.8267 29.4041 22.5867 29.3507 22.352C 29.3081 22.1173 29.2228 21.9093 29.0947 21.728C 28.9774 21.5467 28.8174 21.4027 28.6147 21.296C 28.4121 21.1787 28.1508 21.12 27.8307 21.12C 27.3721 21.12 26.9454 21.2053 26.5508 21.376C 26.1667 21.5467 25.8201 21.7387 25.5108 21.952L 24.9828 21.04C 25.3454 20.8053 25.7881 20.5813 26.3108 20.368C 26.8334 20.144 27.4094 20.032 28.0388 20.032C 28.9881 20.032 29.6761 20.3253 30.1027 20.912C 30.5294 21.488 30.7428 22.2613 30.7428 23.232L 30.7428 28L 29.6547 28L 29.5427 27.072L 29.5107 27.072C 29.1374 27.3813 28.7321 27.648 28.2948 27.872C 27.8681 28.0853 27.4148 28.192 26.9348 28.192C 26.2734 28.192 25.7241 28 25.2867 27.616C 24.8601 27.232 24.6467 26.688 24.6467 25.984ZM 25.9427 25.888C 25.9427 26.336 26.0707 26.656 26.3268 26.848C 26.5934 27.04 26.9188 27.136 27.3028 27.136C 27.6761 27.136 28.0281 27.0507 28.3587 26.88C 28.7001 26.6987 29.0574 26.4373 29.4307 26.096L 29.4307 23.936C 28.7801 24.0213 28.2308 24.1227 27.7828 24.24C 27.3347 24.3573 26.9721 24.496 26.6948 24.656C 26.4281 24.816 26.2361 25.0027 26.1188 25.216C 26.0014 25.4187 25.9427 25.6427 25.9427 25.888ZM 33.0102 26.24C 33.3516 26.5173 33.6983 26.7413 34.0503 26.912C 34.4129 27.0827 34.8289 27.168 35.2982 27.168C 35.8103 27.168 36.1943 27.0507 36.4503 26.816C 36.7063 26.5813 36.8342 26.2933 36.8342 25.952C 36.8342 25.7493 36.7809 25.5733 36.6743 25.424C 36.5676 25.2747 36.4289 25.1467 36.2583 25.04C 36.0982 24.9227 35.9116 24.8213 35.6983 24.736C 35.4849 24.6507 35.2716 24.5653 35.0582 24.48C 34.7809 24.384 34.5036 24.2773 34.2262 24.16C 33.9489 24.032 33.6983 23.8827 33.4742 23.712C 33.2609 23.5307 33.0849 23.3227 32.9462 23.088C 32.8076 22.8533 32.7383 22.5707 32.7383 22.24C 32.7383 21.9307 32.7969 21.6427 32.9143 21.376C 33.0423 21.0987 33.2183 20.864 33.4423 20.672C 33.6769 20.4693 33.9596 20.3147 34.2903 20.208C 34.6209 20.0907 34.9943 20.032 35.4102 20.032C 35.9009 20.032 36.3489 20.1173 36.7543 20.288C 37.1702 20.4587 37.5276 20.6667 37.8263 20.912L 37.2023 21.744C 36.9356 21.5413 36.6582 21.376 36.3703 21.248C 36.0823 21.12 35.7676 21.056 35.4262 21.056C 34.9356 21.056 34.5729 21.168 34.3382 21.392C 34.1142 21.616 34.0022 21.8773 34.0022 22.176C 34.0022 22.3573 34.0503 22.5173 34.1463 22.656C 34.2422 22.784 34.3702 22.9013 34.5303 23.008C 34.6902 23.104 34.8716 23.1947 35.0742 23.28C 35.2876 23.3547 35.5062 23.4347 35.7302 23.52C 36.0076 23.6267 36.2849 23.7387 36.5623 23.856C 36.8502 23.9733 37.1062 24.1227 37.3302 24.304C 37.5542 24.4747 37.7356 24.688 37.8742 24.944C 38.0236 25.2 38.0982 25.5093 38.0982 25.872C 38.0982 26.192 38.0342 26.4907 37.9062 26.768C 37.7889 27.0453 37.6076 27.2907 37.3622 27.504C 37.1276 27.7173 36.8289 27.8827 36.4662 28C 36.1143 28.128 35.7089 28.192 35.2503 28.192C 34.6956 28.192 34.1676 28.0907 33.6662 27.888C 33.1649 27.6853 32.7276 27.4293 32.3543 27.12L 33.0102 26.24ZM 44.4678 28.656L 44.4678 31.28L 43.1558 31.28L 43.1558 20.224L 44.2438 20.224L 44.3558 21.12L 44.4037 21.12C 44.7557 20.8213 45.1398 20.5653 45.5557 20.352C 45.9824 20.1387 46.4251 20.032 46.8837 20.032C 47.3851 20.032 47.8278 20.128 48.2118 20.32C 48.5957 20.5013 48.9158 20.768 49.1718 21.12C 49.4278 21.4613 49.6198 21.8773 49.7477 22.368C 49.8864 22.848 49.9558 23.392 49.9558 24C 49.9558 24.6613 49.8651 25.2533 49.6838 25.776C 49.5024 26.288 49.2571 26.7253 48.9478 27.088C 48.6384 27.4507 48.2811 27.728 47.8758 27.92C 47.4704 28.1013 47.0437 28.192 46.5957 28.192C 46.2331 28.192 45.8704 28.112 45.5078 27.952C 45.1558 27.792 44.7984 27.5733 44.4358 27.296L 44.4678 28.656ZM 44.4678 26.272C 44.8198 26.5707 45.1611 26.784 45.4918 26.912C 45.8224 27.0293 46.1157 27.088 46.3717 27.088C 46.6918 27.088 46.9851 27.0187 47.2517 26.88C 47.5291 26.7307 47.7638 26.528 47.9557 26.272C 48.1584 26.0053 48.3131 25.68 48.4198 25.296C 48.5371 24.912 48.5957 24.48 48.5957 24C 48.5957 23.5733 48.5584 23.184 48.4837 22.832C 48.4091 22.48 48.2864 22.1813 48.1157 21.936C 47.9557 21.68 47.7424 21.4827 47.4757 21.344C 47.2197 21.2053 46.9104 21.136 46.5477 21.136C 46.2171 21.136 45.8811 21.2267 45.5398 21.408C 45.2091 21.5893 44.8517 21.8507 44.4678 22.192L 44.4678 26.272ZM 51.4548 24.128C 51.4548 23.4773 51.5508 22.9013 51.7428 22.4C 51.9454 21.888 52.2121 21.456 52.5428 21.104C 52.8734 20.752 53.2521 20.4853 53.6788 20.304C 54.1161 20.1227 54.5747 20.032 55.0547 20.032C 55.5347 20.032 55.9881 20.1227 56.4148 20.304C 56.8521 20.4853 57.2361 20.752 57.5668 21.104C 57.8974 21.456 58.1588 21.888 58.3507 22.4C 58.5534 22.9013 58.6547 23.4773 58.6547 24.128C 58.6547 24.768 58.5534 25.344 58.3507 25.856C 58.1588 26.3573 57.8974 26.784 57.5668 27.136C 57.2361 27.4773 56.8521 27.7387 56.4148 27.92C 55.9881 28.1013 55.5347 28.192 55.0547 28.192C 54.5747 28.192 54.1161 28.1013 53.6788 27.92C 53.2521 27.7387 52.8734 27.4773 52.5428 27.136C 52.2121 26.784 51.9454 26.3573 51.7428 25.856C 51.5508 25.344 51.4548 24.768 51.4548 24.128ZM 52.8147 24.128C 52.8147 24.576 52.8681 24.9813 52.9748 25.344C 53.0814 25.7067 53.2308 26.0213 53.4227 26.288C 53.6254 26.544 53.8654 26.7467 54.1428 26.896C 54.4201 27.0347 54.7241 27.104 55.0547 27.104C 55.3854 27.104 55.6894 27.0347 55.9668 26.896C 56.2441 26.7467 56.4788 26.544 56.6708 26.288C 56.8734 26.0213 57.0281 25.7067 57.1347 25.344C 57.2414 24.9813 57.2948 24.576 57.2948 24.128C 57.2948 23.68 57.2414 23.2747 57.1347 22.912C 57.0281 22.5387 56.8734 22.2187 56.6708 21.952C 56.4788 21.6853 56.2441 21.4827 55.9668 21.344C 55.6894 21.1947 55.3854 21.12 55.0547 21.12C 54.7241 21.12 54.4201 21.1947 54.1428 21.344C 53.8654 21.4827 53.6254 21.6853 53.4227 21.952C 53.2308 22.2187 53.0814 22.5387 52.9748 22.912C 52.8681 23.2747 52.8147 23.68 52.8147 24.128ZM 60.7026 20.224L 61.7906 20.224L 61.9026 21.632L 61.9506 21.632C 62.2173 21.1413 62.5373 20.752 62.9106 20.464C 63.2946 20.176 63.7106 20.032 64.1586 20.032C 64.468 20.032 64.7453 20.0853 64.9906 20.192L 64.7346 21.344C 64.6066 21.3013 64.4893 21.2693 64.3826 21.248C 64.276 21.2267 64.1426 21.216 63.9826 21.216C 63.652 21.216 63.3053 21.3493 62.9426 21.616C 62.5906 21.8827 62.2813 22.3467 62.0146 23.008L 62.0146 28L 60.7026 28L 60.7026 20.224ZM 69.0039 22.752C 69.0039 21.9093 69.1212 21.152 69.3559 20.48C 69.6012 19.808 69.9372 19.2373 70.3639 18.768C 70.8012 18.2987 71.3132 17.9413 71.8999 17.696C 72.4865 17.44 73.1319 17.312 73.8359 17.312C 74.5612 17.312 75.1639 17.4507 75.6439 17.728C 76.1345 17.9947 76.5345 18.288 76.8439 18.608L 76.0919 19.456C 75.8252 19.1787 75.5159 18.9493 75.1639 18.768C 74.8225 18.576 74.3852 18.48 73.8519 18.48C 73.3185 18.48 72.8385 18.5813 72.4119 18.784C 71.9852 18.976 71.6225 19.2587 71.3239 19.632C 71.0252 19.9947 70.7905 20.4373 70.6199 20.96C 70.4599 21.4827 70.3799 22.0693 70.3799 22.72C 70.3799 23.3813 70.4545 23.9787 70.6039 24.512C 70.7639 25.0347 70.9879 25.4827 71.2759 25.856C 71.5745 26.2293 71.9372 26.5173 72.3639 26.72C 72.8012 26.9227 73.3025 27.024 73.8679 27.024C 74.2412 27.024 74.5932 26.9707 74.9239 26.864C 75.2652 26.7467 75.5425 26.592 75.7559 26.4L 75.7559 23.664L 73.5319 23.664L 73.5319 22.56L 76.9719 22.56L 76.9719 26.976C 76.6305 27.328 76.1772 27.6213 75.6119 27.856C 75.0572 28.08 74.4279 28.192 73.7239 28.192C 73.0305 28.192 72.3959 28.0693 71.8199 27.824C 71.2439 27.5787 70.7479 27.2267 70.3319 26.768C 69.9159 26.2987 69.5905 25.728 69.3559 25.056C 69.1212 24.3733 69.0039 23.6053 69.0039 22.752ZM 78.9749 25.984C 78.9749 25.1307 79.3535 24.48 80.1109 24.032C 80.8789 23.5733 82.0949 23.2533 83.7589 23.072C 83.7589 22.8267 83.7322 22.5867 83.6789 22.352C 83.6362 22.1173 83.5509 21.9093 83.4229 21.728C 83.3055 21.5467 83.1455 21.4027 82.9429 21.296C 82.7402 21.1787 82.4789 21.12 82.1589 21.12C 81.7002 21.12 81.2735 21.2053 80.8789 21.376C 80.4949 21.5467 80.1482 21.7387 79.8389 21.952L 79.3109 21.04C 79.6735 20.8053 80.1162 20.5813 80.6389 20.368C 81.1615 20.144 81.7375 20.032 82.3669 20.032C 83.3162 20.032 84.0042 20.3253 84.4309 20.912C 84.8575 21.488 85.0709 22.2613 85.0709 23.232L 85.0709 28L 83.9829 28L 83.8709 27.072L 83.8389 27.072C 83.4655 27.3813 83.0602 27.648 82.6229 27.872C 82.1962 28.0853 81.7429 28.192 81.2629 28.192C 80.6015 28.192 80.0522 28 79.6149 27.616C 79.1882 27.232 78.9749 26.688 78.9749 25.984ZM 80.2709 25.888C 80.2709 26.336 80.3989 26.656 80.6549 26.848C 80.9215 27.04 81.2469 27.136 81.6309 27.136C 82.0042 27.136 82.3562 27.0507 82.6869 26.88C 83.0282 26.6987 83.3855 26.4373 83.7589 26.096L 83.7589 23.936C 83.1082 24.0213 82.5589 24.1227 82.1109 24.24C 81.6629 24.3573 81.3002 24.496 81.0229 24.656C 80.7562 24.816 80.5642 25.0027 80.4469 25.216C 80.3295 25.4187 80.2709 25.6427 80.2709 25.888ZM 87.5464 16.608L 88.8584 16.608L 88.8584 26.528C 88.8584 26.7413 88.8957 26.8907 88.9704 26.976C 89.045 27.0613 89.1304 27.104 89.2264 27.104C 89.269 27.104 89.3064 27.104 89.3384 27.104C 89.381 27.104 89.4397 27.0933 89.5144 27.072L 89.6904 28.064C 89.605 28.1067 89.5037 28.1387 89.3864 28.16C 89.269 28.1813 89.1197 28.192 88.9384 28.192C 88.437 28.192 88.0797 28.0427 87.8664 27.744C 87.653 27.4453 87.5464 27.008 87.5464 26.432L 87.5464 16.608ZM 91.0485 24.128C 91.0485 23.4773 91.1445 22.9013 91.3365 22.4C 91.5392 21.888 91.8058 21.456 92.1365 21.104C 92.4672 20.752 92.8458 20.4853 93.2725 20.304C 93.7098 20.1227 94.1685 20.032 94.6485 20.032C 95.1285 20.032 95.5818 20.1227 96.0085 20.304C 96.4458 20.4853 96.8298 20.752 97.1605 21.104C 97.4912 21.456 97.7525 21.888 97.9445 22.4C 98.1472 22.9013 98.2485 23.4773 98.2485 24.128C 98.2485 24.768 98.1472 25.344 97.9445 25.856C 97.7525 26.3573 97.4912 26.784 97.1605 27.136C 96.8298 27.4773 96.4458 27.7387 96.0085 27.92C 95.5818 28.1013 95.1285 28.192 94.6485 28.192C 94.1685 28.192 93.7098 28.1013 93.2725 27.92C 92.8458 27.7387 92.4672 27.4773 92.1365 27.136C 91.8058 26.784 91.5392 26.3573 91.3365 25.856C 91.1445 25.344 91.0485 24.768 91.0485 24.128ZM 92.4085 24.128C 92.4085 24.576 92.4618 24.9813 92.5685 25.344C 92.6752 25.7067 92.8245 26.0213 93.0165 26.288C 93.2192 26.544 93.4592 26.7467 93.7365 26.896C 94.0138 27.0347 94.3178 27.104 94.6485 27.104C 94.9792 27.104 95.2832 27.0347 95.5605 26.896C 95.8378 26.7467 96.0725 26.544 96.2645 26.288C 96.4672 26.0213 96.6218 25.7067 96.7285 25.344C 96.8352 24.9813 96.8885 24.576 96.8885 24.128C 96.8885 23.68 96.8352 23.2747 96.7285 22.912C 96.6218 22.5387 96.4672 22.2187 96.2645 21.952C 96.0725 21.6853 95.8378 21.4827 95.5605 21.344C 95.2832 21.1947 94.9792 21.12 94.6485 21.12C 94.3178 21.12 94.0138 21.1947 93.7365 21.344C 93.4592 21.4827 93.2192 21.6853 93.0165 21.952C 92.8245 22.2187 92.6752 22.5387 92.5685 22.912C 92.4618 23.2747 92.4085 23.68 92.4085 24.128ZM 94.6165 18.832L 93.6085 18.832L 95.0485 16.576L 96.4245 16.576L 94.6165 18.832ZM 100.296 20.224L 101.384 20.224L 101.496 21.344L 101.544 21.344C 101.918 20.9707 102.307 20.6613 102.712 20.416C 103.128 20.16 103.608 20.032 104.152 20.032C 104.974 20.032 105.571 20.288 105.944 20.8C 106.328 21.312 106.52 22.0693 106.52 23.072L 106.52 28L 105.208 28L 105.208 23.248C 105.208 22.512 105.091 21.984 104.856 21.664C 104.622 21.3333 104.248 21.168 103.736 21.168C 103.331 21.168 102.974 21.2693 102.664 21.472C 102.355 21.6747 102.003 21.9733 101.608 22.368L 101.608 28L 100.296 28L 100.296 20.224ZM 111.705 24.128C 111.705 23.488 111.801 22.9173 111.993 22.416C 112.195 21.904 112.457 21.472 112.777 21.12C 113.107 20.768 113.481 20.5013 113.897 20.32C 114.313 20.128 114.745 20.032 115.193 20.032C 115.683 20.032 116.121 20.1173 116.505 20.288C 116.899 20.4587 117.225 20.704 117.481 21.024C 117.747 21.344 117.95 21.728 118.089 22.176C 118.227 22.624 118.297 23.1253 118.297 23.68C 118.297 23.968 118.281 24.208 118.249 24.4L 113.001 24.4C 113.054 25.2427 113.31 25.9093 113.769 26.4C 114.238 26.8907 114.846 27.136 115.593 27.136C 115.966 27.136 116.307 27.0827 116.617 26.976C 116.937 26.8587 117.241 26.7093 117.529 26.528L 117.993 27.392C 117.651 27.6053 117.273 27.792 116.857 27.952C 116.441 28.112 115.966 28.192 115.433 28.192C 114.91 28.192 114.419 28.1013 113.961 27.92C 113.513 27.728 113.118 27.4613 112.777 27.12C 112.446 26.768 112.185 26.3413 111.993 25.84C 111.801 25.3387 111.705 24.768 111.705 24.128ZM 117.145 23.536C 117.145 22.736 116.974 22.128 116.633 21.712C 116.302 21.2853 115.833 21.072 115.225 21.072C 114.947 21.072 114.681 21.1307 114.425 21.248C 114.179 21.3547 113.955 21.5147 113.753 21.728C 113.55 21.9307 113.379 22.1867 113.241 22.496C 113.113 22.7947 113.027 23.1413 112.985 23.536L 117.145 23.536ZM 120.218 20.224L 121.306 20.224L 121.418 21.344L 121.466 21.344C 121.84 20.9707 122.229 20.6613 122.634 20.416C 123.05 20.16 123.53 20.032 124.074 20.032C 124.896 20.032 125.493 20.288 125.866 20.8C 126.25 21.312 126.442 22.0693 126.442 23.072L 126.442 28L 125.13 28L 125.13 23.248C 125.13 22.512 125.013 21.984 124.778 21.664C 124.544 21.3333 124.17 21.168 123.658 21.168C 123.253 21.168 122.896 21.2693 122.586 21.472C 122.277 21.6747 121.925 21.9733 121.53 22.368L 121.53 28L 120.218 28L 120.218 20.224ZM 131.723 22.752C 131.723 21.9093 131.84 21.152 132.075 20.48C 132.309 19.808 132.635 19.2373 133.051 18.768C 133.467 18.2987 133.957 17.9413 134.523 17.696C 135.099 17.44 135.723 17.312 136.395 17.312C 137.035 17.312 137.595 17.4453 138.075 17.712C 138.555 17.968 138.949 18.2667 139.259 18.608L 138.507 19.456C 138.229 19.1573 137.92 18.9227 137.579 18.752C 137.248 18.5707 136.859 18.48 136.411 18.48C 135.909 18.48 135.456 18.5813 135.051 18.784C 134.645 18.976 134.299 19.2587 134.011 19.632C 133.723 19.9947 133.499 20.4373 133.339 20.96C 133.179 21.4827 133.099 22.0693 133.099 22.72C 133.099 23.3813 133.173 23.9787 133.323 24.512C 133.483 25.0347 133.701 25.4827 133.979 25.856C 134.256 26.2293 134.592 26.5173 134.987 26.72C 135.392 26.9227 135.845 27.024 136.347 27.024C 136.859 27.024 137.301 26.9227 137.675 26.72C 138.059 26.5173 138.421 26.2293 138.763 25.856L 139.515 26.672C 139.099 27.152 138.629 27.5253 138.107 27.792C 137.584 28.0587 136.987 28.192 136.315 28.192C 135.653 28.192 135.04 28.0693 134.475 27.824C 133.92 27.5787 133.435 27.2267 133.019 26.768C 132.613 26.2987 132.293 25.728 132.059 25.056C 131.835 24.3733 131.723 23.6053 131.723 22.752ZM 142.015 18.624C 141.759 18.624 141.541 18.544 141.359 18.384C 141.189 18.224 141.103 18.0213 141.103 17.776C 141.103 17.52 141.189 17.3173 141.359 17.168C 141.541 17.008 141.759 16.928 142.015 16.928C 142.271 16.928 142.485 17.008 142.655 17.168C 142.837 17.3173 142.927 17.52 142.927 17.776C 142.927 18.0213 142.837 18.224 142.655 18.384C 142.485 18.544 142.271 18.624 142.015 18.624ZM 141.343 20.224L 142.655 20.224L 142.655 28L 141.343 28L 141.343 20.224ZM 145.169 20.224L 146.497 20.224L 146.497 24.976C 146.497 25.712 146.609 26.2453 146.833 26.576C 147.067 26.896 147.441 27.056 147.953 27.056C 148.358 27.056 148.715 26.9547 149.025 26.752C 149.334 26.5387 149.675 26.2027 150.049 25.744L 150.049 20.224L 151.361 20.224L 151.361 28L 150.273 28L 150.161 26.784L 150.113 26.784C 149.75 27.2107 149.366 27.552 148.961 27.808C 148.566 28.064 148.097 28.192 147.553 28.192C 146.721 28.192 146.113 27.936 145.729 27.424C 145.355 26.912 145.169 26.1547 145.169 25.152L 145.169 20.224ZM 153.424 24.128C 153.424 23.4987 153.515 22.9333 153.696 22.432C 153.888 21.92 154.139 21.488 154.448 21.136C 154.757 20.784 155.115 20.512 155.52 20.32C 155.925 20.128 156.352 20.032 156.8 20.032C 157.248 20.032 157.637 20.112 157.968 20.272C 158.299 20.432 158.635 20.6507 158.976 20.928L 158.912 19.6L 158.912 16.608L 160.24 16.608L 160.24 28L 159.152 28L 159.04 27.088L 158.992 27.088C 158.683 27.3867 158.325 27.648 157.92 27.872C 157.525 28.0853 157.099 28.192 156.64 28.192C 155.659 28.192 154.875 27.84 154.288 27.136C 153.712 26.432 153.424 25.4293 153.424 24.128ZM 154.784 24.112C 154.784 25.0507 154.971 25.7813 155.344 26.304C 155.717 26.8267 156.245 27.088 156.928 27.088C 157.291 27.088 157.632 27.0027 157.952 26.832C 158.272 26.6507 158.592 26.3787 158.912 26.016L 158.912 21.952C 158.581 21.6533 158.261 21.4453 157.952 21.328C 157.653 21.2 157.344 21.136 157.024 21.136C 156.715 21.136 156.421 21.2107 156.144 21.36C 155.877 21.4987 155.643 21.7013 155.44 21.968C 155.237 22.224 155.077 22.5333 154.96 22.896C 154.843 23.2587 154.784 23.664 154.784 24.112ZM 162.475 25.984C 162.475 25.1307 162.854 24.48 163.611 24.032C 164.379 23.5733 165.595 23.2533 167.259 23.072C 167.259 22.8267 167.232 22.5867 167.179 22.352C 167.136 22.1173 167.051 21.9093 166.923 21.728C 166.806 21.5467 166.646 21.4027 166.443 21.296C 166.24 21.1787 165.979 21.12 165.659 21.12C 165.2 21.12 164.774 21.2053 164.379 21.376C 163.995 21.5467 163.648 21.7387 163.339 21.952L 162.811 21.04C 163.174 20.8053 163.616 20.5813 164.139 20.368C 164.662 20.144 165.238 20.032 165.867 20.032C 166.816 20.032 167.504 20.3253 167.931 20.912C 168.358 21.488 168.571 22.2613 168.571 23.232L 168.571 28L 167.483 28L 167.371 27.072L 167.339 27.072C 166.966 27.3813 166.56 27.648 166.123 27.872C 165.696 28.0853 165.243 28.192 164.763 28.192C 164.102 28.192 163.552 28 163.115 27.616C 162.688 27.232 162.475 26.688 162.475 25.984ZM 163.771 25.888C 163.771 26.336 163.899 26.656 164.155 26.848C 164.422 27.04 164.747 27.136 165.131 27.136C 165.504 27.136 165.856 27.0507 166.187 26.88C 166.528 26.6987 166.886 26.4373 167.259 26.096L 167.259 23.936C 166.608 24.0213 166.059 24.1227 165.611 24.24C 165.163 24.3573 164.8 24.496 164.523 24.656C 164.256 24.816 164.064 25.0027 163.947 25.216C 163.83 25.4187 163.771 25.6427 163.771 25.888ZM 170.486 24.128C 170.486 23.4987 170.577 22.9333 170.758 22.432C 170.95 21.92 171.201 21.488 171.51 21.136C 171.82 20.784 172.177 20.512 172.582 20.32C 172.988 20.128 173.414 20.032 173.862 20.032C 174.31 20.032 174.7 20.112 175.03 20.272C 175.361 20.432 175.697 20.6507 176.038 20.928L 175.974 19.6L 175.974 16.608L 177.302 16.608L 177.302 28L 176.214 28L 176.102 27.088L 176.054 27.088C 175.745 27.3867 175.388 27.648 174.982 27.872C 174.588 28.0853 174.161 28.192 173.702 28.192C 172.721 28.192 171.937 27.84 171.35 27.136C 170.774 26.432 170.486 25.4293 170.486 24.128ZM 171.846 24.112C 171.846 25.0507 172.033 25.7813 172.406 26.304C 172.78 26.8267 173.308 27.088 173.99 27.088C 174.353 27.088 174.694 27.0027 175.014 26.832C 175.334 26.6507 175.654 26.3787 175.974 26.016L 175.974 21.952C 175.644 21.6533 175.324 21.4453 175.014 21.328C 174.716 21.2 174.406 21.136 174.086 21.136C 173.777 21.136 173.484 21.2107 173.206 21.36C 172.94 21.4987 172.705 21.7013 172.502 21.968C 172.3 22.224 172.14 22.5333 172.022 22.896C 171.905 23.2587 171.846 23.664 171.846 24.112Z"/>
<path id="path2_fill" d="M 31.6429 46.6152C 29.9066 46.6152 28.4164 46.3691 27.1722 45.877C 25.9418 45.3711 24.9711 44.6328 24.2601 43.6621C 23.5492 42.6914 23.0296 41.584 22.7015 40.3398C 22.3871 39.082 22.2298 37.626 22.2298 35.9717L 22.2298 34.7617L 29.264 34.7617L 29.264 35.9512C 29.2777 37.6875 29.4554 38.918 29.7972 39.6426C 30.139 40.3535 30.7816 40.709 31.725 40.709C 32.641 40.709 33.2494 40.3604 33.5502 39.6631C 33.8509 38.9658 34.0013 37.8037 34.0013 36.1768C 34.0013 34.3994 33.7484 33.1006 33.2425 32.2803C 32.7504 31.46 31.8138 31.0293 30.433 30.9883L 29.2025 30.9883L 29.2025 26.0664L 30.3099 26.0664C 31.7318 26.0527 32.7025 25.6699 33.222 24.918C 33.7416 24.1523 34.0013 22.8945 34.0013 21.1445C 34.0013 19.7637 33.8168 18.7451 33.4476 18.0889C 33.0921 17.4326 32.4632 17.1045 31.5609 17.1045C 30.6722 17.1045 30.0707 17.46 29.7562 18.1709C 29.4418 18.8682 29.2777 19.9072 29.264 21.2881L 29.264 23.0312L 22.2298 23.0312L 22.2298 20.9805C 22.2298 17.9453 23.0502 15.6006 24.6908 13.9463C 26.3451 12.292 28.6283 11.4648 31.5404 11.4648C 34.5209 11.4648 36.8314 12.2578 38.472 13.8438C 40.1127 15.416 40.933 17.6992 40.933 20.6934C 40.933 22.6211 40.5365 24.2617 39.7435 25.6152C 38.9642 26.9688 37.9662 27.8096 36.7494 28.1377C 39.5384 29.1494 40.933 31.7676 40.933 35.9922C 40.933 37.6055 40.7621 39.041 40.4203 40.2988C 40.0921 41.5566 39.5658 42.6709 38.8412 43.6416C 38.1302 44.5986 37.1664 45.3369 35.9496 45.8564C 34.7328 46.3623 33.2972 46.6152 31.6429 46.6152ZM 46.3249 46L 46.3249 41.0371L 54.3845 28.5068C 54.5212 28.2881 54.7878 27.8848 55.1843 27.2969C 55.5807 26.709 55.8679 26.2646 56.0456 25.9639C 56.237 25.6631 56.4831 25.2393 56.7839 24.6924C 57.0983 24.1318 57.3307 23.6533 57.4811 23.2568C 57.6315 22.8604 57.7682 22.4092 57.8913 21.9033C 58.0143 21.3838 58.0759 20.8848 58.0759 20.4062C 58.0759 19.3398 57.8434 18.5469 57.3786 18.0273C 57.0095 17.6172 56.5309 17.4189 55.943 17.4326C 55.7927 17.4326 55.6286 17.4463 55.4509 17.4736C 54.6442 17.583 54.0495 18.0137 53.6667 18.7656C 53.2975 19.5176 53.113 20.6455 53.113 22.1494L 53.113 23.79L 46.3044 23.79L 46.3044 22.0264C 46.3044 20.4814 46.4821 19.0869 46.8376 17.8428C 47.193 16.585 47.7399 15.4707 48.4782 14.5C 49.2165 13.5293 50.2009 12.7842 51.4313 12.2646C 52.6755 11.7314 54.1247 11.4648 55.779 11.4648C 58.8005 11.4648 61.0973 12.2578 62.6696 13.8438C 64.2419 15.416 65.028 17.6309 65.028 20.4883C 65.028 20.9121 65.0007 21.3428 64.946 21.7803C 64.8913 22.2041 64.8298 22.5937 64.7614 22.9492C 64.7067 23.291 64.5973 23.6807 64.4333 24.1182C 64.2829 24.5557 64.1598 24.9111 64.0641 25.1846C 63.9684 25.4443 63.7975 25.8066 63.5514 26.2715C 63.3054 26.7227 63.1276 27.0508 63.0182 27.2559C 62.9225 27.4473 62.7175 27.7891 62.403 28.2812C 62.0886 28.7598 61.8835 29.0742 61.7878 29.2246C 61.6921 29.3613 61.4596 29.6963 61.0905 30.2295C 60.735 30.7627 60.5163 31.084 60.4343 31.1934L 54.2204 40.4834L 64.0846 40.4834L 64.0846 46L 46.3249 46Z"/>
<path id="path3_fill" d="M 1.44 17.504L 3.008 17.504L 5.04 23.136L 5.808 25.28L 5.872 25.28L 6.608 23.136L 8.624 17.504L 10.192 17.504L 10.192 28L 8.928 28L 8.928 22.224C 8.928 21.7547 8.944 21.2373 8.976 20.672C 9.01867 20.1067 9.06133 19.5893 9.104 19.12L 9.04 19.12L 8.192 21.456L 6.176 26.944L 5.424 26.944L 3.392 21.456L 2.56 19.12L 2.496 19.12C 2.528 19.5893 2.56533 20.1067 2.608 20.672C 2.65067 21.2373 2.672 21.7547 2.672 22.224L 2.672 28L 1.44 28L 1.44 17.504ZM 13.609 18.624C 13.353 18.624 13.1343 18.544 12.953 18.384C 12.7823 18.224 12.697 18.0213 12.697 17.776C 12.697 17.52 12.7823 17.3173 12.953 17.168C 13.1343 17.008 13.353 16.928 13.609 16.928C 13.865 16.928 14.0783 17.008 14.249 17.168C 14.4303 17.3173 14.521 17.52 14.521 17.776C 14.521 18.0213 14.4303 18.224 14.249 18.384C 14.0783 18.544 13.865 18.624 13.609 18.624ZM 12.937 20.224L 14.249 20.224L 14.249 28L 12.937 28L 12.937 20.224ZM 16.8745 16.608L 18.1865 16.608L 18.1865 26.528C 18.1865 26.7413 18.2238 26.8907 18.2985 26.976C 18.3732 27.0613 18.4585 27.104 18.5545 27.104C 18.5972 27.104 18.6345 27.104 18.6665 27.104C 18.7092 27.104 18.7678 27.0933 18.8425 27.072L 19.0185 28.064C 18.9332 28.1067 18.8318 28.1387 18.7145 28.16C 18.5972 28.1813 18.4478 28.192 18.2665 28.192C 17.7652 28.192 17.4078 28.0427 17.1945 27.744C 16.9812 27.4453 16.8745 27.008 16.8745 26.432L 16.8745 16.608ZM 20.9526 16.608L 22.2646 16.608L 22.2646 26.528C 22.2646 26.7413 22.302 26.8907 22.3766 26.976C 22.4513 27.0613 22.5366 27.104 22.6326 27.104C 22.6753 27.104 22.7126 27.104 22.7446 27.104C 22.7873 27.104 22.846 27.0933 22.9206 27.072L 23.0966 28.064C 23.0113 28.1067 22.91 28.1387 22.7926 28.16C 22.6753 28.1813 22.526 28.192 22.3446 28.192C 21.8433 28.192 21.486 28.0427 21.2726 27.744C 21.0593 27.4453 20.9526 27.008 20.9526 26.432L 20.9526 16.608ZM 24.6467 25.984C 24.6467 25.1307 25.0254 24.48 25.7827 24.032C 26.5508 23.5733 27.7667 23.2533 29.4307 23.072C 29.4307 22.8267 29.4041 22.5867 29.3507 22.352C 29.3081 22.1173 29.2228 21.9093 29.0947 21.728C 28.9774 21.5467 28.8174 21.4027 28.6147 21.296C 28.4121 21.1787 28.1508 21.12 27.8307 21.12C 27.3721 21.12 26.9454 21.2053 26.5508 21.376C 26.1667 21.5467 25.8201 21.7387 25.5108 21.952L 24.9828 21.04C 25.3454 20.8053 25.7881 20.5813 26.3108 20.368C 26.8334 20.144 27.4094 20.032 28.0388 20.032C 28.9881 20.032 29.6761 20.3253 30.1027 20.912C 30.5294 21.488 30.7428 22.2613 30.7428 23.232L 30.7428 28L 29.6547 28L 29.5427 27.072L 29.5107 27.072C 29.1374 27.3813 28.7321 27.648 28.2948 27.872C 27.8681 28.0853 27.4148 28.192 26.9348 28.192C 26.2734 28.192 25.7241 28 25.2867 27.616C 24.8601 27.232 24.6467 26.688 24.6467 25.984ZM 25.9427 25.888C 25.9427 26.336 26.0707 26.656 26.3268 26.848C 26.5934 27.04 26.9188 27.136 27.3028 27.136C 27.6761 27.136 28.0281 27.0507 28.3587 26.88C 28.7001 26.6987 29.0574 26.4373 29.4307 26.096L 29.4307 23.936C 28.7801 24.0213 28.2308 24.1227 27.7828 24.24C 27.3347 24.3573 26.9721 24.496 26.6948 24.656C 26.4281 24.816 26.2361 25.0027 26.1188 25.216C 26.0014 25.4187 25.9427 25.6427 25.9427 25.888ZM 33.0102 26.24C 33.3516 26.5173 33.6983 26.7413 34.0503 26.912C 34.4129 27.0827 34.8289 27.168 35.2982 27.168C 35.8103 27.168 36.1943 27.0507 36.4503 26.816C 36.7063 26.5813 36.8342 26.2933 36.8342 25.952C 36.8342 25.7493 36.7809 25.5733 36.6743 25.424C 36.5676 25.2747 36.4289 25.1467 36.2583 25.04C 36.0982 24.9227 35.9116 24.8213 35.6983 24.736C 35.4849 24.6507 35.2716 24.5653 35.0582 24.48C 34.7809 24.384 34.5036 24.2773 34.2262 24.16C 33.9489 24.032 33.6983 23.8827 33.4742 23.712C 33.2609 23.5307 33.0849 23.3227 32.9462 23.088C 32.8076 22.8533 32.7383 22.5707 32.7383 22.24C 32.7383 21.9307 32.7969 21.6427 32.9143 21.376C 33.0423 21.0987 33.2183 20.864 33.4423 20.672C 33.6769 20.4693 33.9596 20.3147 34.2903 20.208C 34.6209 20.0907 34.9943 20.032 35.4102 20.032C 35.9009 20.032 36.3489 20.1173 36.7543 20.288C 37.1702 20.4587 37.5276 20.6667 37.8263 20.912L 37.2023 21.744C 36.9356 21.5413 36.6582 21.376 36.3703 21.248C 36.0823 21.12 35.7676 21.056 35.4262 21.056C 34.9356 21.056 34.5729 21.168 34.3382 21.392C 34.1142 21.616 34.0022 21.8773 34.0022 22.176C 34.0022 22.3573 34.0503 22.5173 34.1463 22.656C 34.2422 22.784 34.3702 22.9013 34.5303 23.008C 34.6902 23.104 34.8716 23.1947 35.0742 23.28C 35.2876 23.3547 35.5062 23.4347 35.7302 23.52C 36.0076 23.6267 36.2849 23.7387 36.5623 23.856C 36.8502 23.9733 37.1062 24.1227 37.3302 24.304C 37.5542 24.4747 37.7356 24.688 37.8742 24.944C 38.0236 25.2 38.0982 25.5093 38.0982 25.872C 38.0982 26.192 38.0342 26.4907 37.9062 26.768C 37.7889 27.0453 37.6076 27.2907 37.3622 27.504C 37.1276 27.7173 36.8289 27.8827 36.4662 28C 36.1143 28.128 35.7089 28.192 35.2503 28.192C 34.6956 28.192 34.1676 28.0907 33.6662 27.888C 33.1649 27.6853 32.7276 27.4293 32.3543 27.12L 33.0102 26.24ZM 44.4678 28.656L 44.4678 31.28L 43.1558 31.28L 43.1558 20.224L 44.2438 20.224L 44.3558 21.12L 44.4037 21.12C 44.7557 20.8213 45.1398 20.5653 45.5557 20.352C 45.9824 20.1387 46.4251 20.032 46.8837 20.032C 47.3851 20.032 47.8278 20.128 48.2118 20.32C 48.5957 20.5013 48.9158 20.768 49.1718 21.12C 49.4278 21.4613 49.6198 21.8773 49.7477 22.368C 49.8864 22.848 49.9558 23.392 49.9558 24C 49.9558 24.6613 49.8651 25.2533 49.6838 25.776C 49.5024 26.288 49.2571 26.7253 48.9478 27.088C 48.6384 27.4507 48.2811 27.728 47.8758 27.92C 47.4704 28.1013 47.0437 28.192 46.5957 28.192C 46.2331 28.192 45.8704 28.112 45.5078 27.952C 45.1558 27.792 44.7984 27.5733 44.4358 27.296L 44.4678 28.656ZM 44.4678 26.272C 44.8198 26.5707 45.1611 26.784 45.4918 26.912C 45.8224 27.0293 46.1157 27.088 46.3717 27.088C 46.6918 27.088 46.9851 27.0187 47.2517 26.88C 47.5291 26.7307 47.7638 26.528 47.9557 26.272C 48.1584 26.0053 48.3131 25.68 48.4198 25.296C 48.5371 24.912 48.5957 24.48 48.5957 24C 48.5957 23.5733 48.5584 23.184 48.4837 22.832C 48.4091 22.48 48.2864 22.1813 48.1157 21.936C 47.9557 21.68 47.7424 21.4827 47.4757 21.344C 47.2197 21.2053 46.9104 21.136 46.5477 21.136C 46.2171 21.136 45.8811 21.2267 45.5398 21.408C 45.2091 21.5893 44.8517 21.8507 44.4678 22.192L 44.4678 26.272ZM 51.4548 24.128C 51.4548 23.4773 51.5508 22.9013 51.7428 22.4C 51.9454 21.888 52.2121 21.456 52.5428 21.104C 52.8734 20.752 53.2521 20.4853 53.6788 20.304C 54.1161 20.1227 54.5747 20.032 55.0547 20.032C 55.5347 20.032 55.9881 20.1227 56.4148 20.304C 56.8521 20.4853 57.2361 20.752 57.5668 21.104C 57.8974 21.456 58.1588 21.888 58.3507 22.4C 58.5534 22.9013 58.6547 23.4773 58.6547 24.128C 58.6547 24.768 58.5534 25.344 58.3507 25.856C 58.1588 26.3573 57.8974 26.784 57.5668 27.136C 57.2361 27.4773 56.8521 27.7387 56.4148 27.92C 55.9881 28.1013 55.5347 28.192 55.0547 28.192C 54.5747 28.192 54.1161 28.1013 53.6788 27.92C 53.2521 27.7387 52.8734 27.4773 52.5428 27.136C 52.2121 26.784 51.9454 26.3573 51.7428 25.856C 51.5508 25.344 51.4548 24.768 51.4548 24.128ZM 52.8147 24.128C 52.8147 24.576 52.8681 24.9813 52.9748 25.344C 53.0814 25.7067 53.2308 26.0213 53.4227 26.288C 53.6254 26.544 53.8654 26.7467 54.1428 26.896C 54.4201 27.0347 54.7241 27.104 55.0547 27.104C 55.3854 27.104 55.6894 27.0347 55.9668 26.896C 56.2441 26.7467 56.4788 26.544 56.6708 26.288C 56.8734 26.0213 57.0281 25.7067 57.1347 25.344C 57.2414 24.9813 57.2948 24.576 57.2948 24.128C 57.2948 23.68 57.2414 23.2747 57.1347 22.912C 57.0281 22.5387 56.8734 22.2187 56.6708 21.952C 56.4788 21.6853 56.2441 21.4827 55.9668 21.344C 55.6894 21.1947 55.3854 21.12 55.0547 21.12C 54.7241 21.12 54.4201 21.1947 54.1428 21.344C 53.8654 21.4827 53.6254 21.6853 53.4227 21.952C 53.2308 22.2187 53.0814 22.5387 52.9748 22.912C 52.8681 23.2747 52.8147 23.68 52.8147 24.128ZM 60.7026 20.224L 61.7906 20.224L 61.9026 21.632L 61.9506 21.632C 62.2173 21.1413 62.5373 20.752 62.9106 20.464C 63.2946 20.176 63.7106 20.032 64.1586 20.032C 64.468 20.032 64.7453 20.0853 64.9906 20.192L 64.7346 21.344C 64.6066 21.3013 64.4893 21.2693 64.3826 21.248C 64.276 21.2267 64.1426 21.216 63.9826 21.216C 63.652 21.216 63.3053 21.3493 62.9426 21.616C 62.5906 21.8827 62.2813 22.3467 62.0146 23.008L 62.0146 28L 60.7026 28L 60.7026 20.224ZM 69.0039 22.752C 69.0039 21.9093 69.1212 21.152 69.3559 20.48C 69.6012 19.808 69.9372 19.2373 70.3639 18.768C 70.8012 18.2987 71.3132 17.9413 71.8999 17.696C 72.4865 17.44 73.1319 17.312 73.8359 17.312C 74.5612 17.312 75.1639 17.4507 75.6439 17.728C 76.1345 17.9947 76.5345 18.288 76.8439 18.608L 76.0919 19.456C 75.8252 19.1787 75.5159 18.9493 75.1639 18.768C 74.8225 18.576 74.3852 18.48 73.8519 18.48C 73.3185 18.48 72.8385 18.5813 72.4119 18.784C 71.9852 18.976 71.6225 19.2587 71.3239 19.632C 71.0252 19.9947 70.7905 20.4373 70.6199 20.96C 70.4599 21.4827 70.3799 22.0693 70.3799 22.72C 70.3799 23.3813 70.4545 23.9787 70.6039 24.512C 70.7639 25.0347 70.9879 25.4827 71.2759 25.856C 71.5745 26.2293 71.9372 26.5173 72.3639 26.72C 72.8012 26.9227 73.3025 27.024 73.8679 27.024C 74.2412 27.024 74.5932 26.9707 74.9239 26.864C 75.2652 26.7467 75.5425 26.592 75.7559 26.4L 75.7559 23.664L 73.5319 23.664L 73.5319 22.56L 76.9719 22.56L 76.9719 26.976C 76.6305 27.328 76.1772 27.6213 75.6119 27.856C 75.0572 28.08 74.4279 28.192 73.7239 28.192C 73.0305 28.192 72.3959 28.0693 71.8199 27.824C 71.2439 27.5787 70.7479 27.2267 70.3319 26.768C 69.9159 26.2987 69.5905 25.728 69.3559 25.056C 69.1212 24.3733 69.0039 23.6053 69.0039 22.752ZM 78.9749 25.984C 78.9749 25.1307 79.3535 24.48 80.1109 24.032C 80.8789 23.5733 82.0949 23.2533 83.7589 23.072C 83.7589 22.8267 83.7322 22.5867 83.6789 22.352C 83.6362 22.1173 83.5509 21.9093 83.4229 21.728C 83.3055 21.5467 83.1455 21.4027 82.9429 21.296C 82.7402 21.1787 82.4789 21.12 82.1589 21.12C 81.7002 21.12 81.2735 21.2053 80.8789 21.376C 80.4949 21.5467 80.1482 21.7387 79.8389 21.952L 79.3109 21.04C 79.6735 20.8053 80.1162 20.5813 80.6389 20.368C 81.1615 20.144 81.7375 20.032 82.3669 20.032C 83.3162 20.032 84.0042 20.3253 84.4309 20.912C 84.8575 21.488 85.0709 22.2613 85.0709 23.232L 85.0709 28L 83.9829 28L 83.8709 27.072L 83.8389 27.072C 83.4655 27.3813 83.0602 27.648 82.6229 27.872C 82.1962 28.0853 81.7429 28.192 81.2629 28.192C 80.6015 28.192 80.0522 28 79.6149 27.616C 79.1882 27.232 78.9749 26.688 78.9749 25.984ZM 80.2709 25.888C 80.2709 26.336 80.3989 26.656 80.6549 26.848C 80.9215 27.04 81.2469 27.136 81.6309 27.136C 82.0042 27.136 82.3562 27.0507 82.6869 26.88C 83.0282 26.6987 83.3855 26.4373 83.7589 26.096L 83.7589 23.936C 83.1082 24.0213 82.5589 24.1227 82.1109 24.24C 81.6629 24.3573 81.3002 24.496 81.0229 24.656C 80.7562 24.816 80.5642 25.0027 80.4469 25.216C 80.3295 25.4187 80.2709 25.6427 80.2709 25.888ZM 87.5464 16.608L 88.8584 16.608L 88.8584 26.528C 88.8584 26.7413 88.8957 26.8907 88.9704 26.976C 89.045 27.0613 89.1304 27.104 89.2264 27.104C 89.269 27.104 89.3064 27.104 89.3384 27.104C 89.381 27.104 89.4397 27.0933 89.5144 27.072L 89.6904 28.064C 89.605 28.1067 89.5037 28.1387 89.3864 28.16C 89.269 28.1813 89.1197 28.192 88.9384 28.192C 88.437 28.192 88.0797 28.0427 87.8664 27.744C 87.653 27.4453 87.5464 27.008 87.5464 26.432L 87.5464 16.608ZM 91.0485 24.128C 91.0485 23.4773 91.1445 22.9013 91.3365 22.4C 91.5392 21.888 91.8058 21.456 92.1365 21.104C 92.4672 20.752 92.8458 20.4853 93.2725 20.304C 93.7098 20.1227 94.1685 20.032 94.6485 20.032C 95.1285 20.032 95.5818 20.1227 96.0085 20.304C 96.4458 20.4853 96.8298 20.752 97.1605 21.104C 97.4912 21.456 97.7525 21.888 97.9445 22.4C 98.1472 22.9013 98.2485 23.4773 98.2485 24.128C 98.2485 24.768 98.1472 25.344 97.9445 25.856C 97.7525 26.3573 97.4912 26.784 97.1605 27.136C 96.8298 27.4773 96.4458 27.7387 96.0085 27.92C 95.5818 28.1013 95.1285 28.192 94.6485 28.192C 94.1685 28.192 93.7098 28.1013 93.2725 27.92C 92.8458 27.7387 92.4672 27.4773 92.1365 27.136C 91.8058 26.784 91.5392 26.3573 91.3365 25.856C 91.1445 25.344 91.0485 24.768 91.0485 24.128ZM 92.4085 24.128C 92.4085 24.576 92.4618 24.9813 92.5685 25.344C 92.6752 25.7067 92.8245 26.0213 93.0165 26.288C 93.2192 26.544 93.4592 26.7467 93.7365 26.896C 94.0138 27.0347 94.3178 27.104 94.6485 27.104C 94.9792 27.104 95.2832 27.0347 95.5605 26.896C 95.8378 26.7467 96.0725 26.544 96.2645 26.288C 96.4672 26.0213 96.6218 25.7067 96.7285 25.344C 96.8352 24.9813 96.8885 24.576 96.8885 24.128C 96.8885 23.68 96.8352 23.2747 96.7285 22.912C 96.6218 22.5387 96.4672 22.2187 96.2645 21.952C 96.0725 21.6853 95.8378 21.4827 95.5605 21.344C 95.2832 21.1947 94.9792 21.12 94.6485 21.12C 94.3178 21.12 94.0138 21.1947 93.7365 21.344C 93.4592 21.4827 93.2192 21.6853 93.0165 21.952C 92.8245 22.2187 92.6752 22.5387 92.5685 22.912C 92.4618 23.2747 92.4085 23.68 92.4085 24.128ZM 94.6165 18.832L 93.6085 18.832L 95.0485 16.576L 96.4245 16.576L 94.6165 18.832ZM 100.296 20.224L 101.384 20.224L 101.496 21.344L 101.544 21.344C 101.918 20.9707 102.307 20.6613 102.712 20.416C 103.128 20.16 103.608 20.032 104.152 20.032C 104.974 20.032 105.571 20.288 105.944 20.8C 106.328 21.312 106.52 22.0693 106.52 23.072L 106.52 28L 105.208 28L 105.208 23.248C 105.208 22.512 105.091 21.984 104.856 21.664C 104.622 21.3333 104.248 21.168 103.736 21.168C 103.331 21.168 102.974 21.2693 102.664 21.472C 102.355 21.6747 102.003 21.9733 101.608 22.368L 101.608 28L 100.296 28L 100.296 20.224ZM 111.705 24.128C 111.705 23.488 111.801 22.9173 111.993 22.416C 112.195 21.904 112.457 21.472 112.777 21.12C 113.107 20.768 113.481 20.5013 113.897 20.32C 114.313 20.128 114.745 20.032 115.193 20.032C 115.683 20.032 116.121 20.1173 116.505 20.288C 116.899 20.4587 117.225 20.704 117.481 21.024C 117.747 21.344 117.95 21.728 118.089 22.176C 118.227 22.624 118.297 23.1253 118.297 23.68C 118.297 23.968 118.281 24.208 118.249 24.4L 113.001 24.4C 113.054 25.2427 113.31 25.9093 113.769 26.4C 114.238 26.8907 114.846 27.136 115.593 27.136C 115.966 27.136 116.307 27.0827 116.617 26.976C 116.937 26.8587 117.241 26.7093 117.529 26.528L 117.993 27.392C 117.651 27.6053 117.273 27.792 116.857 27.952C 116.441 28.112 115.966 28.192 115.433 28.192C 114.91 28.192 114.419 28.1013 113.961 27.92C 113.513 27.728 113.118 27.4613 112.777 27.12C 112.446 26.768 112.185 26.3413 111.993 25.84C 111.801 25.3387 111.705 24.768 111.705 24.128ZM 117.145 23.536C 117.145 22.736 116.974 22.128 116.633 21.712C 116.302 21.2853 115.833 21.072 115.225 21.072C 114.947 21.072 114.681 21.1307 114.425 21.248C 114.179 21.3547 113.955 21.5147 113.753 21.728C 113.55 21.9307 113.379 22.1867 113.241 22.496C 113.113 22.7947 113.027 23.1413 112.985 23.536L 117.145 23.536ZM 120.218 20.224L 121.306 20.224L 121.418 21.344L 121.466 21.344C 121.84 20.9707 122.229 20.6613 122.634 20.416C 123.05 20.16 123.53 20.032 124.074 20.032C 124.896 20.032 125.493 20.288 125.866 20.8C 126.25 21.312 126.442 22.0693 126.442 23.072L 126.442 28L 125.13 28L 125.13 23.248C 125.13 22.512 125.013 21.984 124.778 21.664C 124.544 21.3333 124.17 21.168 123.658 21.168C 123.253 21.168 122.896 21.2693 122.586 21.472C 122.277 21.6747 121.925 21.9733 121.53 22.368L 121.53 28L 120.218 28L 120.218 20.224ZM 131.723 22.752C 131.723 21.9093 131.84 21.152 132.075 20.48C 132.309 19.808 132.635 19.2373 133.051 18.768C 133.467 18.2987 133.957 17.9413 134.523 17.696C 135.099 17.44 135.723 17.312 136.395 17.312C 137.035 17.312 137.595 17.4453 138.075 17.712C 138.555 17.968 138.949 18.2667 139.259 18.608L 138.507 19.456C 138.229 19.1573 137.92 18.9227 137.579 18.752C 137.248 18.5707 136.859 18.48 136.411 18.48C 135.909 18.48 135.456 18.5813 135.051 18.784C 134.645 18.976 134.299 19.2587 134.011 19.632C 133.723 19.9947 133.499 20.4373 133.339 20.96C 133.179 21.4827 133.099 22.0693 133.099 22.72C 133.099 23.3813 133.173 23.9787 133.323 24.512C 133.483 25.0347 133.701 25.4827 133.979 25.856C 134.256 26.2293 134.592 26.5173 134.987 26.72C 135.392 26.9227 135.845 27.024 136.347 27.024C 136.859 27.024 137.301 26.9227 137.675 26.72C 138.059 26.5173 138.421 26.2293 138.763 25.856L 139.515 26.672C 139.099 27.152 138.629 27.5253 138.107 27.792C 137.584 28.0587 136.987 28.192 136.315 28.192C 135.653 28.192 135.04 28.0693 134.475 27.824C 133.92 27.5787 133.435 27.2267 133.019 26.768C 132.613 26.2987 132.293 25.728 132.059 25.056C 131.835 24.3733 131.723 23.6053 131.723 22.752ZM 140.959 25.984C 140.959 25.1307 141.338 24.48 142.095 24.032C 142.863 23.5733 144.079 23.2533 145.743 23.072C 145.743 22.8267 145.717 22.5867 145.663 22.352C 145.621 22.1173 145.535 21.9093 145.407 21.728C 145.29 21.5467 145.13 21.4027 144.927 21.296C 144.725 21.1787 144.463 21.12 144.143 21.12C 143.685 21.12 143.258 21.2053 142.863 21.376C 142.479 21.5467 142.133 21.7387 141.823 21.952L 141.295 21.04C 141.658 20.8053 142.101 20.5813 142.623 20.368C 143.146 20.144 143.722 20.032 144.351 20.032C 145.301 20.032 145.989 20.3253 146.415 20.912C 146.842 21.488 147.055 22.2613 147.055 23.232L 147.055 28L 145.967 28L 145.855 27.072L 145.823 27.072C 145.45 27.3813 145.045 27.648 144.607 27.872C 144.181 28.0853 143.727 28.192 143.247 28.192C 142.586 28.192 142.037 28 141.599 27.616C 141.173 27.232 140.959 26.688 140.959 25.984ZM 142.255 25.888C 142.255 26.336 142.383 26.656 142.639 26.848C 142.906 27.04 143.231 27.136 143.615 27.136C 143.989 27.136 144.341 27.0507 144.671 26.88C 145.013 26.6987 145.37 26.4373 145.743 26.096L 145.743 23.936C 145.093 24.0213 144.543 24.1227 144.095 24.24C 143.647 24.3573 143.285 24.496 143.007 24.656C 142.741 24.816 142.549 25.0027 142.431 25.216C 142.314 25.4187 142.255 25.6427 142.255 25.888ZM 149.531 20.224L 150.619 20.224L 150.731 21.632L 150.779 21.632C 151.045 21.1413 151.365 20.752 151.739 20.464C 152.123 20.176 152.539 20.032 152.987 20.032C 153.296 20.032 153.573 20.0853 153.819 20.192L 153.563 21.344C 153.435 21.3013 153.317 21.2693 153.211 21.248C 153.104 21.2267 152.971 21.216 152.811 21.216C 152.48 21.216 152.133 21.3493 151.771 21.616C 151.419 21.8827 151.109 22.3467 150.843 23.008L 150.843 28L 149.531 28L 149.531 20.224ZM 155.078 20.224L 156.166 20.224L 156.278 21.632L 156.326 21.632C 156.592 21.1413 156.912 20.752 157.286 20.464C 157.67 20.176 158.086 20.032 158.534 20.032C 158.843 20.032 159.12 20.0853 159.366 20.192L 159.11 21.344C 158.982 21.3013 158.864 21.2693 158.758 21.248C 158.651 21.2267 158.518 21.216 158.358 21.216C 158.027 21.216 157.68 21.3493 157.318 21.616C 156.966 21.8827 156.656 22.3467 156.39 23.008L 156.39 28L 155.078 28L 155.078 20.224ZM 159.892 24.128C 159.892 23.488 159.988 22.9173 160.18 22.416C 160.383 21.904 160.644 21.472 160.964 21.12C 161.295 20.768 161.668 20.5013 162.084 20.32C 162.5 20.128 162.932 20.032 163.38 20.032C 163.871 20.032 164.308 20.1173 164.692 20.288C 165.087 20.4587 165.412 20.704 165.668 21.024C 165.935 21.344 166.138 21.728 166.276 22.176C 166.415 22.624 166.484 23.1253 166.484 23.68C 166.484 23.968 166.468 24.208 166.436 24.4L 161.188 24.4C 161.242 25.2427 161.498 25.9093 161.956 26.4C 162.426 26.8907 163.034 27.136 163.78 27.136C 164.154 27.136 164.495 27.0827 164.804 26.976C 165.124 26.8587 165.428 26.7093 165.716 26.528L 166.18 27.392C 165.839 27.6053 165.46 27.792 165.044 27.952C 164.628 28.112 164.154 28.192 163.62 28.192C 163.098 28.192 162.607 28.1013 162.148 27.92C 161.7 27.728 161.306 27.4613 160.964 27.12C 160.634 26.768 160.372 26.3413 160.18 25.84C 159.988 25.3387 159.892 24.768 159.892 24.128ZM 165.332 23.536C 165.332 22.736 165.162 22.128 164.82 21.712C 164.49 21.2853 164.02 21.072 163.412 21.072C 163.135 21.072 162.868 21.1307 162.612 21.248C 162.367 21.3547 162.143 21.5147 161.94 21.728C 161.738 21.9307 161.567 22.1867 161.428 22.496C 161.3 22.7947 161.215 23.1413 161.172 23.536L 165.332 23.536ZM 168.411 21.296L 167.259 21.296L 167.259 20.304L 168.475 20.224L 168.635 18.048L 169.739 18.048L 169.739 20.224L 171.835 20.224L 171.835 21.296L 169.739 21.296L 169.739 25.616C 169.739 26.096 169.824 26.4693 169.995 26.736C 170.176 26.992 170.491 27.12 170.939 27.12C 171.078 27.12 171.227 27.0987 171.387 27.056C 171.547 27.0133 171.691 26.9653 171.819 26.912L 172.075 27.904C 171.862 27.9787 171.627 28.0427 171.371 28.096C 171.126 28.16 170.88 28.192 170.635 28.192C 170.219 28.192 169.867 28.128 169.579 28C 169.302 27.872 169.072 27.696 168.891 27.472C 168.72 27.248 168.598 26.976 168.523 26.656C 168.448 26.336 168.411 25.984 168.411 25.6L 168.411 21.296ZM 172.861 24.128C 172.861 23.488 172.957 22.9173 173.149 22.416C 173.352 21.904 173.613 21.472 173.933 21.12C 174.264 20.768 174.637 20.5013 175.053 20.32C 175.469 20.128 175.901 20.032 176.349 20.032C 176.84 20.032 177.277 20.1173 177.661 20.288C 178.056 20.4587 178.381 20.704 178.637 21.024C 178.904 21.344 179.106 21.728 179.245 22.176C 179.384 22.624 179.453 23.1253 179.453 23.68C 179.453 23.968 179.437 24.208 179.405 24.4L 174.157 24.4C 174.21 25.2427 174.466 25.9093 174.925 26.4C 175.394 26.8907 176.002 27.136 176.749 27.136C 177.122 27.136 177.464 27.0827 177.773 26.976C 178.093 26.8587 178.397 26.7093 178.685 26.528L 179.149 27.392C 178.808 27.6053 178.429 27.792 178.013 27.952C 177.597 28.112 177.122 28.192 176.589 28.192C 176.066 28.192 175.576 28.1013 175.117 27.92C 174.669 27.728 174.274 27.4613 173.933 27.12C 173.602 26.768 173.341 26.3413 173.149 25.84C 172.957 25.3387 172.861 24.768 172.861 24.128ZM 178.301 23.536C 178.301 22.736 178.13 22.128 177.789 21.712C 177.458 21.2853 176.989 21.072 176.381 21.072C 176.104 21.072 175.837 21.1307 175.581 21.248C 175.336 21.3547 175.112 21.5147 174.909 21.728C 174.706 21.9307 174.536 22.1867 174.397 22.496C 174.269 22.7947 174.184 23.1413 174.141 23.536L 178.301 23.536ZM 181.375 20.224L 182.463 20.224L 182.575 21.632L 182.622 21.632C 182.889 21.1413 183.209 20.752 183.582 20.464C 183.967 20.176 184.383 20.032 184.831 20.032C 185.14 20.032 185.417 20.0853 185.662 20.192L 185.406 21.344C 185.279 21.3013 185.161 21.2693 185.055 21.248C 184.948 21.2267 184.814 21.216 184.655 21.216C 184.324 21.216 183.977 21.3493 183.615 21.616C 183.263 21.8827 182.953 22.3467 182.687 23.008L 182.687 28L 181.375 28L 181.375 20.224ZM 186.131 25.984C 186.131 25.1307 186.51 24.48 187.267 24.032C 188.035 23.5733 189.251 23.2533 190.915 23.072C 190.915 22.8267 190.888 22.5867 190.835 22.352C 190.792 22.1173 190.707 21.9093 190.579 21.728C 190.462 21.5467 190.302 21.4027 190.099 21.296C 189.896 21.1787 189.635 21.12 189.315 21.12C 188.856 21.12 188.43 21.2053 188.035 21.376C 187.651 21.5467 187.304 21.7387 186.995 21.952L 186.467 21.04C 186.83 20.8053 187.272 20.5813 187.795 20.368C 188.318 20.144 188.894 20.032 189.523 20.032C 190.472 20.032 191.16 20.3253 191.587 20.912C 192.014 21.488 192.227 22.2613 192.227 23.232L 192.227 28L 191.139 28L 191.027 27.072L 190.995 27.072C 190.622 27.3813 190.216 27.648 189.779 27.872C 189.352 28.0853 188.899 28.192 188.419 28.192C 187.758 28.192 187.208 28 186.771 27.616C 186.344 27.232 186.131 26.688 186.131 25.984ZM 187.427 25.888C 187.427 26.336 187.555 26.656 187.811 26.848C 188.078 27.04 188.403 27.136 188.787 27.136C 189.16 27.136 189.512 27.0507 189.843 26.88C 190.184 26.6987 190.542 26.4373 190.915 26.096L 190.915 23.936C 190.264 24.0213 189.715 24.1227 189.267 24.24C 188.819 24.3573 188.456 24.496 188.179 24.656C 187.912 24.816 187.72 25.0027 187.603 25.216C 187.486 25.4187 187.427 25.6427 187.427 25.888Z"/>
<path id="path4_fill" d="M 26.4545 33.0801L 31.4994 33.0801L 31.4994 18.8887L 26.4545 33.0801ZM 31.4994 46L 31.4994 38.1865L 21.1634 38.1865L 21.1634 32.916L 29.9613 11.998L 37.7953 11.998L 37.7953 33.0801L 41.056 33.0801L 41.056 38.1865L 37.7953 38.1865L 37.7953 46L 31.4994 46ZM 55.1227 46.6152C 52.1286 46.6152 49.8317 45.7334 48.2321 43.9697C 46.6325 42.2061 45.8327 39.8408 45.8327 36.874L 45.8327 21.4521C 45.8327 18.3623 46.6052 15.9287 48.1501 14.1514C 49.7087 12.374 52.0329 11.4854 55.1227 11.4854C 58.1852 11.4854 60.4889 12.3809 62.0339 14.1719C 63.5925 15.9492 64.3718 18.376 64.3718 21.4521L 64.3718 36.874C 64.3718 39.8135 63.5651 42.1719 61.9518 43.9492C 60.3386 45.7266 58.0622 46.6152 55.1227 46.6152ZM 53.0309 36.6895C 53.0309 39.1504 53.7282 40.3809 55.1227 40.3809C 56.5173 40.3809 57.2145 39.1504 57.2145 36.6895L 57.2145 21.6572C 57.2145 21.3291 57.2077 21.0693 57.194 20.8779C 57.194 20.6729 57.1735 20.3926 57.1325 20.0371C 57.1052 19.6816 57.0436 19.3945 56.9479 19.1758C 56.8522 18.9434 56.7292 18.7109 56.5788 18.4785C 56.4421 18.2324 56.2438 18.0547 55.9841 17.9453C 55.738 17.8223 55.4509 17.7607 55.1227 17.7607C 54.863 17.7607 54.6237 17.7949 54.405 17.8633C 54.1999 17.918 54.0221 18.0273 53.8718 18.1914C 53.735 18.3418 53.612 18.4854 53.5026 18.6221C 53.4069 18.7451 53.3249 18.9365 53.2565 19.1963C 53.2018 19.4561 53.154 19.6543 53.113 19.791C 53.0856 19.9277 53.0651 20.1533 53.0514 20.4678C 53.0378 20.7822 53.0309 20.9873 53.0309 21.083C 53.0309 21.165 53.0309 21.3564 53.0309 21.6572L 53.0309 36.6895Z"/>
<path id="path5_fill" d="M 1.44 17.504L 3.008 17.504L 5.04 23.136L 5.808 25.28L 5.872 25.28L 6.608 23.136L 8.624 17.504L 10.192 17.504L 10.192 28L 8.928 28L 8.928 22.224C 8.928 21.7547 8.944 21.2373 8.976 20.672C 9.01867 20.1067 9.06133 19.5893 9.104 19.12L 9.04 19.12L 8.192 21.456L 6.176 26.944L 5.424 26.944L 3.392 21.456L 2.56 19.12L 2.496 19.12C 2.528 19.5893 2.56533 20.1067 2.608 20.672C 2.65067 21.2373 2.672 21.7547 2.672 22.224L 2.672 28L 1.44 28L 1.44 17.504ZM 13.609 18.624C 13.353 18.624 13.1343 18.544 12.953 18.384C 12.7823 18.224 12.697 18.0213 12.697 17.776C 12.697 17.52 12.7823 17.3173 12.953 17.168C 13.1343 17.008 13.353 16.928 13.609 16.928C 13.865 16.928 14.0783 17.008 14.249 17.168C 14.4303 17.3173 14.521 17.52 14.521 17.776C 14.521 18.0213 14.4303 18.224 14.249 18.384C 14.0783 18.544 13.865 18.624 13.609 18.624ZM 12.937 20.224L 14.249 20.224L 14.249 28L 12.937 28L 12.937 20.224ZM 16.8745 16.608L 18.1865 16.608L 18.1865 26.528C 18.1865 26.7413 18.2238 26.8907 18.2985 26.976C 18.3732 27.0613 18.4585 27.104 18.5545 27.104C 18.5972 27.104 18.6345 27.104 18.6665 27.104C 18.7092 27.104 18.7678 27.0933 18.8425 27.072L 19.0185 28.064C 18.9332 28.1067 18.8318 28.1387 18.7145 28.16C 18.5972 28.1813 18.4478 28.192 18.2665 28.192C 17.7652 28.192 17.4078 28.0427 17.1945 27.744C 16.9812 27.4453 16.8745 27.008 16.8745 26.432L 16.8745 16.608ZM 20.9526 16.608L 22.2646 16.608L 22.2646 26.528C 22.2646 26.7413 22.302 26.8907 22.3766 26.976C 22.4513 27.0613 22.5366 27.104 22.6326 27.104C 22.6753 27.104 22.7126 27.104 22.7446 27.104C 22.7873 27.104 22.846 27.0933 22.9206 27.072L 23.0966 28.064C 23.0113 28.1067 22.91 28.1387 22.7926 28.16C 22.6753 28.1813 22.526 28.192 22.3446 28.192C 21.8433 28.192 21.486 28.0427 21.2726 27.744C 21.0593 27.4453 20.9526 27.008 20.9526 26.432L 20.9526 16.608ZM 24.6467 25.984C 24.6467 25.1307 25.0254 24.48 25.7827 24.032C 26.5508 23.5733 27.7667 23.2533 29.4307 23.072C 29.4307 22.8267 29.4041 22.5867 29.3507 22.352C 29.3081 22.1173 29.2228 21.9093 29.0947 21.728C 28.9774 21.5467 28.8174 21.4027 28.6147 21.296C 28.4121 21.1787 28.1508 21.12 27.8307 21.12C 27.3721 21.12 26.9454 21.2053 26.5508 21.376C 26.1667 21.5467 25.8201 21.7387 25.5108 21.952L 24.9828 21.04C 25.3454 20.8053 25.7881 20.5813 26.3108 20.368C 26.8334 20.144 27.4094 20.032 28.0388 20.032C 28.9881 20.032 29.6761 20.3253 30.1027 20.912C 30.5294 21.488 30.7428 22.2613 30.7428 23.232L 30.7428 28L 29.6547 28L 29.5427 27.072L 29.5107 27.072C 29.1374 27.3813 28.7321 27.648 28.2948 27.872C 27.8681 28.0853 27.4148 28.192 26.9348 28.192C 26.2734 28.192 25.7241 28 25.2867 27.616C 24.8601 27.232 24.6467 26.688 24.6467 25.984ZM 25.9427 25.888C 25.9427 26.336 26.0707 26.656 26.3268 26.848C 26.5934 27.04 26.9188 27.136 27.3028 27.136C 27.6761 27.136 28.0281 27.0507 28.3587 26.88C 28.7001 26.6987 29.0574 26.4373 29.4307 26.096L 29.4307 23.936C 28.7801 24.0213 28.2308 24.1227 27.7828 24.24C 27.3347 24.3573 26.9721 24.496 26.6948 24.656C 26.4281 24.816 26.2361 25.0027 26.1188 25.216C 26.0014 25.4187 25.9427 25.6427 25.9427 25.888ZM 33.0102 26.24C 33.3516 26.5173 33.6983 26.7413 34.0503 26.912C 34.4129 27.0827 34.8289 27.168 35.2982 27.168C 35.8103 27.168 36.1943 27.0507 36.4503 26.816C 36.7063 26.5813 36.8342 26.2933 36.8342 25.952C 36.8342 25.7493 36.7809 25.5733 36.6743 25.424C 36.5676 25.2747 36.4289 25.1467 36.2583 25.04C 36.0982 24.9227 35.9116 24.8213 35.6983 24.736C 35.4849 24.6507 35.2716 24.5653 35.0582 24.48C 34.7809 24.384 34.5036 24.2773 34.2262 24.16C 33.9489 24.032 33.6983 23.8827 33.4742 23.712C 33.2609 23.5307 33.0849 23.3227 32.9462 23.088C 32.8076 22.8533 32.7383 22.5707 32.7383 22.24C 32.7383 21.9307 32.7969 21.6427 32.9143 21.376C 33.0423 21.0987 33.2183 20.864 33.4423 20.672C 33.6769 20.4693 33.9596 20.3147 34.2903 20.208C 34.6209 20.0907 34.9943 20.032 35.4102 20.032C 35.9009 20.032 36.3489 20.1173 36.7543 20.288C 37.1702 20.4587 37.5276 20.6667 37.8263 20.912L 37.2023 21.744C 36.9356 21.5413 36.6582 21.376 36.3703 21.248C 36.0823 21.12 35.7676 21.056 35.4262 21.056C 34.9356 21.056 34.5729 21.168 34.3382 21.392C 34.1142 21.616 34.0022 21.8773 34.0022 22.176C 34.0022 22.3573 34.0503 22.5173 34.1463 22.656C 34.2422 22.784 34.3702 22.9013 34.5303 23.008C 34.6902 23.104 34.8716 23.1947 35.0742 23.28C 35.2876 23.3547 35.5062 23.4347 35.7302 23.52C 36.0076 23.6267 36.2849 23.7387 36.5623 23.856C 36.8502 23.9733 37.1062 24.1227 37.3302 24.304C 37.5542 24.4747 37.7356 24.688 37.8742 24.944C 38.0236 25.2 38.0982 25.5093 38.0982 25.872C 38.0982 26.192 38.0342 26.4907 37.9062 26.768C 37.7889 27.0453 37.6076 27.2907 37.3622 27.504C 37.1276 27.7173 36.8289 27.8827 36.4662 28C 36.1143 28.128 35.7089 28.192 35.2503 28.192C 34.6956 28.192 34.1676 28.0907 33.6662 27.888C 33.1649 27.6853 32.7276 27.4293 32.3543 27.12L 33.0102 26.24ZM 44.4678 28.656L 44.4678 31.28L 43.1558 31.28L 43.1558 20.224L 44.2438 20.224L 44.3558 21.12L 44.4037 21.12C 44.7557 20.8213 45.1398 20.5653 45.5557 20.352C 45.9824 20.1387 46.4251 20.032 46.8837 20.032C 47.3851 20.032 47.8278 20.128 48.2118 20.32C 48.5957 20.5013 48.9158 20.768 49.1718 21.12C 49.4278 21.4613 49.6198 21.8773 49.7477 22.368C 49.8864 22.848 49.9558 23.392 49.9558 24C 49.9558 24.6613 49.8651 25.2533 49.6838 25.776C 49.5024 26.288 49.2571 26.7253 48.9478 27.088C 48.6384 27.4507 48.2811 27.728 47.8758 27.92C 47.4704 28.1013 47.0437 28.192 46.5957 28.192C 46.2331 28.192 45.8704 28.112 45.5078 27.952C 45.1558 27.792 44.7984 27.5733 44.4358 27.296L 44.4678 28.656ZM 44.4678 26.272C 44.8198 26.5707 45.1611 26.784 45.4918 26.912C 45.8224 27.0293 46.1157 27.088 46.3717 27.088C 46.6918 27.088 46.9851 27.0187 47.2517 26.88C 47.5291 26.7307 47.7638 26.528 47.9557 26.272C 48.1584 26.0053 48.3131 25.68 48.4198 25.296C 48.5371 24.912 48.5957 24.48 48.5957 24C 48.5957 23.5733 48.5584 23.184 48.4837 22.832C 48.4091 22.48 48.2864 22.1813 48.1157 21.936C 47.9557 21.68 47.7424 21.4827 47.4757 21.344C 47.2197 21.2053 46.9104 21.136 46.5477 21.136C 46.2171 21.136 45.8811 21.2267 45.5398 21.408C 45.2091 21.5893 44.8517 21.8507 44.4678 22.192L 44.4678 26.272ZM 51.4548 24.128C 51.4548 23.4773 51.5508 22.9013 51.7428 22.4C 51.9454 21.888 52.2121 21.456 52.5428 21.104C 52.8734 20.752 53.2521 20.4853 53.6788 20.304C 54.1161 20.1227 54.5747 20.032 55.0547 20.032C 55.5347 20.032 55.9881 20.1227 56.4148 20.304C 56.8521 20.4853 57.2361 20.752 57.5668 21.104C 57.8974 21.456 58.1588 21.888 58.3507 22.4C 58.5534 22.9013 58.6547 23.4773 58.6547 24.128C 58.6547 24.768 58.5534 25.344 58.3507 25.856C 58.1588 26.3573 57.8974 26.784 57.5668 27.136C 57.2361 27.4773 56.8521 27.7387 56.4148 27.92C 55.9881 28.1013 55.5347 28.192 55.0547 28.192C 54.5747 28.192 54.1161 28.1013 53.6788 27.92C 53.2521 27.7387 52.8734 27.4773 52.5428 27.136C 52.2121 26.784 51.9454 26.3573 51.7428 25.856C 51.5508 25.344 51.4548 24.768 51.4548 24.128ZM 52.8147 24.128C 52.8147 24.576 52.8681 24.9813 52.9748 25.344C 53.0814 25.7067 53.2308 26.0213 53.4227 26.288C 53.6254 26.544 53.8654 26.7467 54.1428 26.896C 54.4201 27.0347 54.7241 27.104 55.0547 27.104C 55.3854 27.104 55.6894 27.0347 55.9668 26.896C 56.2441 26.7467 56.4788 26.544 56.6708 26.288C 56.8734 26.0213 57.0281 25.7067 57.1347 25.344C 57.2414 24.9813 57.2948 24.576 57.2948 24.128C 57.2948 23.68 57.2414 23.2747 57.1347 22.912C 57.0281 22.5387 56.8734 22.2187 56.6708 21.952C 56.4788 21.6853 56.2441 21.4827 55.9668 21.344C 55.6894 21.1947 55.3854 21.12 55.0547 21.12C 54.7241 21.12 54.4201 21.1947 54.1428 21.344C 53.8654 21.4827 53.6254 21.6853 53.4227 21.952C 53.2308 22.2187 53.0814 22.5387 52.9748 22.912C 52.8681 23.2747 52.8147 23.68 52.8147 24.128ZM 60.7026 20.224L 61.7906 20.224L 61.9026 21.632L 61.9506 21.632C 62.2173 21.1413 62.5373 20.752 62.9106 20.464C 63.2946 20.176 63.7106 20.032 64.1586 20.032C 64.468 20.032 64.7453 20.0853 64.9906 20.192L 64.7346 21.344C 64.6066 21.3013 64.4893 21.2693 64.3826 21.248C 64.276 21.2267 64.1426 21.216 63.9826 21.216C 63.652 21.216 63.3053 21.3493 62.9426 21.616C 62.5906 21.8827 62.2813 22.3467 62.0146 23.008L 62.0146 28L 60.7026 28L 60.7026 20.224ZM 69.0039 22.752C 69.0039 21.9093 69.1212 21.152 69.3559 20.48C 69.6012 19.808 69.9372 19.2373 70.3639 18.768C 70.8012 18.2987 71.3132 17.9413 71.8999 17.696C 72.4865 17.44 73.1319 17.312 73.8359 17.312C 74.5612 17.312 75.1639 17.4507 75.6439 17.728C 76.1345 17.9947 76.5345 18.288 76.8439 18.608L 76.0919 19.456C 75.8252 19.1787 75.5159 18.9493 75.1639 18.768C 74.8225 18.576 74.3852 18.48 73.8519 18.48C 73.3185 18.48 72.8385 18.5813 72.4119 18.784C 71.9852 18.976 71.6225 19.2587 71.3239 19.632C 71.0252 19.9947 70.7905 20.4373 70.6199 20.96C 70.4599 21.4827 70.3799 22.0693 70.3799 22.72C 70.3799 23.3813 70.4545 23.9787 70.6039 24.512C 70.7639 25.0347 70.9879 25.4827 71.2759 25.856C 71.5745 26.2293 71.9372 26.5173 72.3639 26.72C 72.8012 26.9227 73.3025 27.024 73.8679 27.024C 74.2412 27.024 74.5932 26.9707 74.9239 26.864C 75.2652 26.7467 75.5425 26.592 75.7559 26.4L 75.7559 23.664L 73.5319 23.664L 73.5319 22.56L 76.9719 22.56L 76.9719 26.976C 76.6305 27.328 76.1772 27.6213 75.6119 27.856C 75.0572 28.08 74.4279 28.192 73.7239 28.192C 73.0305 28.192 72.3959 28.0693 71.8199 27.824C 71.2439 27.5787 70.7479 27.2267 70.3319 26.768C 69.9159 26.2987 69.5905 25.728 69.3559 25.056C 69.1212 24.3733 69.0039 23.6053 69.0039 22.752ZM 78.9749 25.984C 78.9749 25.1307 79.3535 24.48 80.1109 24.032C 80.8789 23.5733 82.0949 23.2533 83.7589 23.072C 83.7589 22.8267 83.7322 22.5867 83.6789 22.352C 83.6362 22.1173 83.5509 21.9093 83.4229 21.728C 83.3055 21.5467 83.1455 21.4027 82.9429 21.296C 82.7402 21.1787 82.4789 21.12 82.1589 21.12C 81.7002 21.12 81.2735 21.2053 80.8789 21.376C 80.4949 21.5467 80.1482 21.7387 79.8389 21.952L 79.3109 21.04C 79.6735 20.8053 80.1162 20.5813 80.6389 20.368C 81.1615 20.144 81.7375 20.032 82.3669 20.032C 83.3162 20.032 84.0042 20.3253 84.4309 20.912C 84.8575 21.488 85.0709 22.2613 85.0709 23.232L 85.0709 28L 83.9829 28L 83.8709 27.072L 83.8389 27.072C 83.4655 27.3813 83.0602 27.648 82.6229 27.872C 82.1962 28.0853 81.7429 28.192 81.2629 28.192C 80.6015 28.192 80.0522 28 79.6149 27.616C 79.1882 27.232 78.9749 26.688 78.9749 25.984ZM 80.2709 25.888C 80.2709 26.336 80.3989 26.656 80.6549 26.848C 80.9215 27.04 81.2469 27.136 81.6309 27.136C 82.0042 27.136 82.3562 27.0507 82.6869 26.88C 83.0282 26.6987 83.3855 26.4373 83.7589 26.096L 83.7589 23.936C 83.1082 24.0213 82.5589 24.1227 82.1109 24.24C 81.6629 24.3573 81.3002 24.496 81.0229 24.656C 80.7562 24.816 80.5642 25.0027 80.4469 25.216C 80.3295 25.4187 80.2709 25.6427 80.2709 25.888ZM 87.5464 16.608L 88.8584 16.608L 88.8584 26.528C 88.8584 26.7413 88.8957 26.8907 88.9704 26.976C 89.045 27.0613 89.1304 27.104 89.2264 27.104C 89.269 27.104 89.3064 27.104 89.3384 27.104C 89.381 27.104 89.4397 27.0933 89.5144 27.072L 89.6904 28.064C 89.605 28.1067 89.5037 28.1387 89.3864 28.16C 89.269 28.1813 89.1197 28.192 88.9384 28.192C 88.437 28.192 88.0797 28.0427 87.8664 27.744C 87.653 27.4453 87.5464 27.008 87.5464 26.432L 87.5464 16.608ZM 91.0485 24.128C 91.0485 23.4773 91.1445 22.9013 91.3365 22.4C 91.5392 21.888 91.8058 21.456 92.1365 21.104C 92.4672 20.752 92.8458 20.4853 93.2725 20.304C 93.7098 20.1227 94.1685 20.032 94.6485 20.032C 95.1285 20.032 95.5818 20.1227 96.0085 20.304C 96.4458 20.4853 96.8298 20.752 97.1605 21.104C 97.4912 21.456 97.7525 21.888 97.9445 22.4C 98.1472 22.9013 98.2485 23.4773 98.2485 24.128C 98.2485 24.768 98.1472 25.344 97.9445 25.856C 97.7525 26.3573 97.4912 26.784 97.1605 27.136C 96.8298 27.4773 96.4458 27.7387 96.0085 27.92C 95.5818 28.1013 95.1285 28.192 94.6485 28.192C 94.1685 28.192 93.7098 28.1013 93.2725 27.92C 92.8458 27.7387 92.4672 27.4773 92.1365 27.136C 91.8058 26.784 91.5392 26.3573 91.3365 25.856C 91.1445 25.344 91.0485 24.768 91.0485 24.128ZM 92.4085 24.128C 92.4085 24.576 92.4618 24.9813 92.5685 25.344C 92.6752 25.7067 92.8245 26.0213 93.0165 26.288C 93.2192 26.544 93.4592 26.7467 93.7365 26.896C 94.0138 27.0347 94.3178 27.104 94.6485 27.104C 94.9792 27.104 95.2832 27.0347 95.5605 26.896C 95.8378 26.7467 96.0725 26.544 96.2645 26.288C 96.4672 26.0213 96.6218 25.7067 96.7285 25.344C 96.8352 24.9813 96.8885 24.576 96.8885 24.128C 96.8885 23.68 96.8352 23.2747 96.7285 22.912C 96.6218 22.5387 96.4672 22.2187 96.2645 21.952C 96.0725 21.6853 95.8378 21.4827 95.5605 21.344C 95.2832 21.1947 94.9792 21.12 94.6485 21.12C 94.3178 21.12 94.0138 21.1947 93.7365 21.344C 93.4592 21.4827 93.2192 21.6853 93.0165 21.952C 92.8245 22.2187 92.6752 22.5387 92.5685 22.912C 92.4618 23.2747 92.4085 23.68 92.4085 24.128ZM 94.6165 18.832L 93.6085 18.832L 95.0485 16.576L 96.4245 16.576L 94.6165 18.832ZM 100.296 20.224L 101.384 20.224L 101.496 21.344L 101.544 21.344C 101.918 20.9707 102.307 20.6613 102.712 20.416C 103.128 20.16 103.608 20.032 104.152 20.032C 104.974 20.032 105.571 20.288 105.944 20.8C 106.328 21.312 106.52 22.0693 106.52 23.072L 106.52 28L 105.208 28L 105.208 23.248C 105.208 22.512 105.091 21.984 104.856 21.664C 104.622 21.3333 104.248 21.168 103.736 21.168C 103.331 21.168 102.974 21.2693 102.664 21.472C 102.355 21.6747 102.003 21.9733 101.608 22.368L 101.608 28L 100.296 28L 100.296 20.224ZM 112.409 17.504L 115.625 17.504C 116.201 17.504 116.729 17.5573 117.209 17.664C 117.689 17.7707 118.094 17.9467 118.425 18.192C 118.766 18.4267 119.027 18.7413 119.209 19.136C 119.401 19.5307 119.497 20.016 119.497 20.592C 119.497 21.1467 119.401 21.6267 119.209 22.032C 119.027 22.4373 118.766 22.7733 118.425 23.04C 118.083 23.3067 117.673 23.5093 117.193 23.648C 116.723 23.776 116.201 23.84 115.625 23.84L 113.737 23.84L 113.737 28L 112.409 28L 112.409 17.504ZM 115.465 22.752C 116.382 22.752 117.059 22.5813 117.497 22.24C 117.945 21.888 118.169 21.3387 118.169 20.592C 118.169 19.8347 117.945 19.312 117.497 19.024C 117.049 18.7253 116.371 18.576 115.465 18.576L 113.737 18.576L 113.737 22.752L 115.465 22.752ZM 121.5 20.224L 122.588 20.224L 122.7 21.632L 122.747 21.632C 123.014 21.1413 123.334 20.752 123.707 20.464C 124.092 20.176 124.508 20.032 124.956 20.032C 125.265 20.032 125.542 20.0853 125.787 20.192L 125.531 21.344C 125.404 21.3013 125.286 21.2693 125.18 21.248C 125.073 21.2267 124.939 21.216 124.78 21.216C 124.449 21.216 124.102 21.3493 123.74 21.616C 123.388 21.8827 123.078 22.3467 122.812 23.008L 122.812 28L 121.5 28L 121.5 20.224ZM 126.314 24.128C 126.314 23.4773 126.41 22.9013 126.602 22.4C 126.805 21.888 127.071 21.456 127.402 21.104C 127.733 20.752 128.111 20.4853 128.538 20.304C 128.975 20.1227 129.434 20.032 129.914 20.032C 130.394 20.032 130.847 20.1227 131.274 20.304C 131.711 20.4853 132.095 20.752 132.426 21.104C 132.757 21.456 133.018 21.888 133.21 22.4C 133.413 22.9013 133.514 23.4773 133.514 24.128C 133.514 24.768 133.413 25.344 133.21 25.856C 133.018 26.3573 132.757 26.784 132.426 27.136C 132.095 27.4773 131.711 27.7387 131.274 27.92C 130.847 28.1013 130.394 28.192 129.914 28.192C 129.434 28.192 128.975 28.1013 128.538 27.92C 128.111 27.7387 127.733 27.4773 127.402 27.136C 127.071 26.784 126.805 26.3573 126.602 25.856C 126.41 25.344 126.314 24.768 126.314 24.128ZM 127.674 24.128C 127.674 24.576 127.727 24.9813 127.834 25.344C 127.941 25.7067 128.09 26.0213 128.282 26.288C 128.485 26.544 128.725 26.7467 129.002 26.896C 129.279 27.0347 129.583 27.104 129.914 27.104C 130.245 27.104 130.549 27.0347 130.826 26.896C 131.103 26.7467 131.338 26.544 131.53 26.288C 131.733 26.0213 131.887 25.7067 131.994 25.344C 132.101 24.9813 132.154 24.576 132.154 24.128C 132.154 23.68 132.101 23.2747 131.994 22.912C 131.887 22.5387 131.733 22.2187 131.53 21.952C 131.338 21.6853 131.103 21.4827 130.826 21.344C 130.549 21.1947 130.245 21.12 129.914 21.12C 129.583 21.12 129.279 21.1947 129.002 21.344C 128.725 21.4827 128.485 21.6853 128.282 21.952C 128.09 22.2187 127.941 22.5387 127.834 22.912C 127.727 23.2747 127.674 23.68 127.674 24.128ZM 135.562 20.224L 136.65 20.224L 136.762 21.344L 136.81 21.344C 137.151 20.9707 137.519 20.6613 137.914 20.416C 138.319 20.16 138.757 20.032 139.226 20.032C 139.823 20.032 140.287 20.1653 140.618 20.432C 140.959 20.688 141.21 21.0507 141.37 21.52C 141.775 21.072 142.181 20.7147 142.586 20.448C 143.002 20.1707 143.45 20.032 143.93 20.032C 144.73 20.032 145.322 20.288 145.706 20.8C 146.101 21.312 146.298 22.0693 146.298 23.072L 146.298 28L 144.986 28L 144.986 23.248C 144.986 22.512 144.869 21.984 144.634 21.664C 144.399 21.3333 144.037 21.168 143.546 21.168C 142.959 21.168 142.309 21.568 141.594 22.368L 141.594 28L 140.282 28L 140.282 23.248C 140.282 22.512 140.165 21.984 139.93 21.664C 139.695 21.3333 139.327 21.168 138.826 21.168C 138.239 21.168 137.589 21.568 136.874 22.368L 136.874 28L 135.562 28L 135.562 20.224ZM 148.252 24.128C 148.252 23.488 148.348 22.9173 148.54 22.416C 148.742 21.904 149.004 21.472 149.324 21.12C 149.654 20.768 150.028 20.5013 150.444 20.32C 150.86 20.128 151.292 20.032 151.74 20.032C 152.23 20.032 152.668 20.1173 153.052 20.288C 153.446 20.4587 153.772 20.704 154.028 21.024C 154.294 21.344 154.497 21.728 154.636 22.176C 154.774 22.624 154.844 23.1253 154.844 23.68C 154.844 23.968 154.828 24.208 154.796 24.4L 149.548 24.4C 149.601 25.2427 149.857 25.9093 150.316 26.4C 150.785 26.8907 151.393 27.136 152.14 27.136C 152.513 27.136 152.854 27.0827 153.164 26.976C 153.484 26.8587 153.788 26.7093 154.076 26.528L 154.54 27.392C 154.198 27.6053 153.82 27.792 153.404 27.952C 152.988 28.112 152.513 28.192 151.98 28.192C 151.457 28.192 150.966 28.1013 150.508 27.92C 150.06 27.728 149.665 27.4613 149.324 27.12C 148.993 26.768 148.732 26.3413 148.54 25.84C 148.348 25.3387 148.252 24.768 148.252 24.128ZM 153.692 23.536C 153.692 22.736 153.521 22.128 153.18 21.712C 152.849 21.2853 152.38 21.072 151.772 21.072C 151.494 21.072 151.228 21.1307 150.972 21.248C 150.726 21.3547 150.502 21.5147 150.3 21.728C 150.097 21.9307 149.926 22.1867 149.788 22.496C 149.66 22.7947 149.574 23.1413 149.532 23.536L 153.692 23.536ZM 156.205 24.128C 156.205 23.4987 156.296 22.9333 156.477 22.432C 156.669 21.92 156.92 21.488 157.229 21.136C 157.538 20.784 157.896 20.512 158.301 20.32C 158.706 20.128 159.133 20.032 159.581 20.032C 160.029 20.032 160.418 20.112 160.749 20.272C 161.08 20.432 161.416 20.6507 161.757 20.928L 161.693 19.6L 161.693 16.608L 163.021 16.608L 163.021 28L 161.933 28L 161.821 27.088L 161.773 27.088C 161.464 27.3867 161.106 27.648 160.701 27.872C 160.306 28.0853 159.88 28.192 159.421 28.192C 158.44 28.192 157.656 27.84 157.069 27.136C 156.493 26.432 156.205 25.4293 156.205 24.128ZM 157.565 24.112C 157.565 25.0507 157.752 25.7813 158.125 26.304C 158.498 26.8267 159.026 27.088 159.709 27.088C 160.072 27.088 160.413 27.0027 160.733 26.832C 161.053 26.6507 161.373 26.3787 161.693 26.016L 161.693 21.952C 161.362 21.6533 161.042 21.4453 160.733 21.328C 160.434 21.2 160.125 21.136 159.805 21.136C 159.496 21.136 159.202 21.2107 158.925 21.36C 158.658 21.4987 158.424 21.7013 158.221 21.968C 158.018 22.224 157.858 22.5333 157.741 22.896C 157.624 23.2587 157.565 23.664 157.565 24.112ZM 166.312 18.624C 166.056 18.624 165.837 18.544 165.656 18.384C 165.485 18.224 165.4 18.0213 165.4 17.776C 165.4 17.52 165.485 17.3173 165.656 17.168C 165.837 17.008 166.056 16.928 166.312 16.928C 166.568 16.928 166.781 17.008 166.952 17.168C 167.133 17.3173 167.224 17.52 167.224 17.776C 167.224 18.0213 167.133 18.224 166.952 18.384C 166.781 18.544 166.568 18.624 166.312 18.624ZM 165.64 20.224L 166.952 20.224L 166.952 28L 165.64 28L 165.64 20.224ZM 169.002 24.128C 169.002 23.4773 169.098 22.9013 169.29 22.4C 169.492 21.888 169.759 21.456 170.09 21.104C 170.42 20.752 170.799 20.4853 171.226 20.304C 171.663 20.1227 172.122 20.032 172.602 20.032C 173.082 20.032 173.535 20.1227 173.962 20.304C 174.399 20.4853 174.783 20.752 175.114 21.104C 175.444 21.456 175.706 21.888 175.898 22.4C 176.1 22.9013 176.202 23.4773 176.202 24.128C 176.202 24.768 176.1 25.344 175.898 25.856C 175.706 26.3573 175.444 26.784 175.114 27.136C 174.783 27.4773 174.399 27.7387 173.962 27.92C 173.535 28.1013 173.082 28.192 172.602 28.192C 172.122 28.192 171.663 28.1013 171.226 27.92C 170.799 27.7387 170.42 27.4773 170.09 27.136C 169.759 26.784 169.492 26.3573 169.29 25.856C 169.098 25.344 169.002 24.768 169.002 24.128ZM 170.362 24.128C 170.362 24.576 170.415 24.9813 170.522 25.344C 170.628 25.7067 170.778 26.0213 170.97 26.288C 171.172 26.544 171.412 26.7467 171.69 26.896C 171.967 27.0347 172.271 27.104 172.602 27.104C 172.932 27.104 173.236 27.0347 173.514 26.896C 173.791 26.7467 174.026 26.544 174.218 26.288C 174.42 26.0213 174.575 25.7067 174.682 25.344C 174.788 24.9813 174.842 24.576 174.842 24.128C 174.842 23.68 174.788 23.2747 174.682 22.912C 174.575 22.5387 174.42 22.2187 174.218 21.952C 174.026 21.6853 173.791 21.4827 173.514 21.344C 173.236 21.1947 172.932 21.12 172.602 21.12C 172.271 21.12 171.967 21.1947 171.69 21.344C 171.412 21.4827 171.172 21.6853 170.97 21.952C 170.778 22.2187 170.628 22.5387 170.522 22.912C 170.415 23.2747 170.362 23.68 170.362 24.128Z"/>
<path id="path6_fill" d="M 41.5199 46.6152C 39.7836 46.6152 38.2933 46.3691 37.0492 45.877C 35.8187 45.3711 34.848 44.6328 34.1371 43.6621C 33.4261 42.6914 32.9066 41.584 32.5785 40.3398C 32.264 39.082 32.1068 37.626 32.1068 35.9717L 32.1068 34.7617L 39.141 34.7617L 39.141 35.9512C 39.1546 37.6875 39.3324 38.918 39.6742 39.6426C 40.016 40.3535 40.6586 40.709 41.6019 40.709C 42.5179 40.709 43.1263 40.3604 43.4271 39.6631C 43.7279 38.9658 43.8783 37.8037 43.8783 36.1768C 43.8783 34.3994 43.6254 33.1006 43.1195 32.2803C 42.6273 31.46 41.6908 31.0293 40.3099 30.9883L 39.0795 30.9883L 39.0795 26.0664L 40.1869 26.0664C 41.6087 26.0527 42.5795 25.6699 43.099 24.918C 43.6185 24.1523 43.8783 22.8945 43.8783 21.1445C 43.8783 19.7637 43.6937 18.7451 43.3246 18.0889C 42.9691 17.4326 42.3402 17.1045 41.4379 17.1045C 40.5492 17.1045 39.9476 17.46 39.6332 18.1709C 39.3187 18.8682 39.1546 19.9072 39.141 21.2881L 39.141 23.0312L 32.1068 23.0312L 32.1068 20.9805C 32.1068 17.9453 32.9271 15.6006 34.5677 13.9463C 36.222 12.292 38.5052 11.4648 41.4173 11.4648C 44.3978 11.4648 46.7084 12.2578 48.349 13.8438C 49.9896 15.416 50.8099 17.6992 50.8099 20.6934C 50.8099 22.6211 50.4134 24.2617 49.6205 25.6152C 48.8412 26.9688 47.8431 27.8096 46.6263 28.1377C 49.4154 29.1494 50.8099 31.7676 50.8099 35.9922C 50.8099 37.6055 50.639 39.041 50.2972 40.2988C 49.9691 41.5566 49.4427 42.6709 48.7181 43.6416C 48.0072 44.5986 47.0433 45.3369 45.8265 45.8564C 44.6097 46.3623 43.1742 46.6152 41.5199 46.6152ZM 65.5329 41.3037C 65.9977 41.3037 66.3737 41.1875 66.6608 40.9551C 66.9479 40.7227 67.1667 40.3398 67.3171 39.8066C 67.4675 39.2734 67.5632 38.6924 67.6042 38.0635C 67.6589 37.4209 67.6862 36.5938 67.6862 35.582C 67.6862 35.0078 67.6794 34.5635 67.6657 34.249C 67.6657 33.9346 67.652 33.5518 67.6247 33.1006C 67.5973 32.6494 67.5563 32.3008 67.5016 32.0547C 67.447 31.7949 67.3649 31.5215 67.2555 31.2344C 67.1462 30.9473 67.0095 30.7354 66.8454 30.5986C 66.695 30.4482 66.5036 30.3252 66.2712 30.2295C 66.0388 30.1201 65.7721 30.0654 65.4714 30.0654C 64.9655 30.0654 64.5007 30.2158 64.0768 30.5166C 63.6667 30.8037 63.3659 31.1318 63.1745 31.501L 63.1745 36.9561C 63.1745 39.8545 63.9606 41.3037 65.5329 41.3037ZM 65.4304 46.4922C 63.8034 46.4922 62.3815 46.2188 61.1647 45.6719C 59.9479 45.1113 58.9704 44.3252 58.2321 43.3135C 57.4938 42.2881 56.9401 41.1123 56.571 39.7861C 56.2155 38.4463 56.0378 36.9492 56.0378 35.2949L 56.0378 23.1543C 56.0378 21.7461 56.1198 20.4883 56.2839 19.3809C 56.4479 18.2598 56.7419 17.2002 57.1657 16.2021C 57.5895 15.1904 58.1501 14.3564 58.8473 13.7002C 59.5446 13.0303 60.4401 12.5039 61.5339 12.1211C 62.6413 11.7246 63.9333 11.5264 65.4098 11.5264C 67.0095 11.5264 68.3698 11.7178 69.4909 12.1006C 70.612 12.4697 71.5075 13.0371 72.1774 13.8027C 72.8473 14.5547 73.3327 15.457 73.6335 16.5098C 73.9479 17.5625 74.112 18.8135 74.1257 20.2627L 74.1257 20.8574L 67.5016 20.8574C 67.5016 19.3398 67.3786 18.2939 67.1325 17.7197C 66.9001 17.1318 66.3395 16.8379 65.4509 16.8379C 64.5075 16.8379 63.8923 17.2959 63.6052 18.2119C 63.318 19.1279 63.1745 20.9326 63.1745 23.626L 63.1745 26.6406C 63.5163 26.0527 64.0563 25.5947 64.7946 25.2666C 65.5466 24.9248 66.4011 24.7402 67.3581 24.7129C 67.4264 24.7129 67.4948 24.7129 67.5632 24.7129C 68.7936 24.7129 69.8669 24.9453 70.7829 25.4102C 71.7536 25.9023 72.5192 26.6064 73.0798 27.5225C 73.6403 28.4248 74.0505 29.457 74.3102 30.6191C 74.5837 31.7676 74.7204 33.0527 74.7204 34.4746C 74.7204 36.334 74.5632 37.9678 74.2487 39.376C 73.9479 40.7705 73.4489 42.0215 72.7516 43.1289C 72.068 44.2227 71.111 45.0566 69.8805 45.6309C 68.6501 46.2051 67.1667 46.4922 65.4304 46.4922Z"/>
<path id="path7_stroke" d="M 0 0L 430 0L 430 -1L 0 -1L 0 0Z"/>
</defs>
</svg>
